  0
SECTION
  2
HEADER
  9
$ACADVER
  1
AC1027
  9
$ACADMAINTVER
 70
   125
  9
$DWGCODEPAGE
  3
ANSI_1252
  9
$LASTSAVEDBY
  1
Bruno
  9
$REQUIREDVERSIONS
160
                 0
  9
$INSBASE
 10
0.0
 20
0.0
 30
0.0
  9
$EXTMIN
 10
0.0
 20
3.0
 30
0.0
  9
$EXTMAX
 10
740.5065729040284
 20
606.0
 30
8.0
  9
$LIMMIN
 10
0.0
 20
0.0
  9
$LIMMAX
 10
12.0
 20
9.0
  9
$ORTHOMODE
 70
     1
  9
$REGENMODE
 70
     1
  9
$FILLMODE
 70
     1
  9
$QTEXTMODE
 70
     0
  9
$MIRRTEXT
 70
     0
  9
$LTSCALE
 40
1.0
  9
$ATTMODE
 70
     1
  9
$TEXTSIZE
 40
0.2
  9
$TRACEWID
 40
0.05
  9
$TEXTSTYLE
  7
Standard
  9
$CLAYER
  8
0
  9
$CELTYPE
  6
CONTINUOUS
  9
$CECOLOR
 62
   256
  9
$CELTSCALE
 40
1.0
  9
$DISPSILH
 70
     0
  9
$DIMSCALE
 40
1.0
  9
$DIMASZ
 40
0.18
  9
$DIMEXO
 40
0.0625
  9
$DIMDLI
 40
0.38
  9
$DIMRND
 40
0.0
  9
$DIMDLE
 40
0.0
  9
$DIMEXE
 40
0.18
  9
$DIMTP
 40
0.0
  9
$DIMTM
 40
0.0
  9
$DIMTXT
 40
0.18
  9
$DIMCEN
 40
0.09
  9
$DIMTSZ
 40
0.0
  9
$DIMTOL
 70
     0
  9
$DIMLIM
 70
     0
  9
$DIMTIH
 70
     1
  9
$DIMTOH
 70
     1
  9
$DIMSE1
 70
     0
  9
$DIMSE2
 70
     0
  9
$DIMTAD
 70
     0
  9
$DIMZIN
 70
     0
  9
$DIMBLK
  1

  9
$DIMASO
 70
     1
  9
$DIMSHO
 70
     1
  9
$DIMPOST
  1

  9
$DIMAPOST
  1

  9
$DIMALT
 70
     0
  9
$DIMALTD
 70
     2
  9
$DIMALTF
 40
25.4
  9
$DIMLFAC
 40
1.0
  9
$DIMTOFL
 70
     0
  9
$DIMTVP
 40
0.0
  9
$DIMTIX
 70
     0
  9
$DIMSOXD
 70
     0
  9
$DIMSAH
 70
     0
  9
$DIMBLK1
  1

  9
$DIMBLK2
  1

  9
$DIMSTYLE
  2
Standard
  9
$DIMCLRD
 70
     0
  9
$DIMCLRE
 70
     0
  9
$DIMCLRT
 70
     0
  9
$DIMTFAC
 40
1.0
  9
$DIMGAP
 40
0.09
  9
$DIMJUST
 70
     0
  9
$DIMSD1
 70
     0
  9
$DIMSD2
 70
     0
  9
$DIMTOLJ
 70
     1
  9
$DIMTZIN
 70
     0
  9
$DIMALTZ
 70
     0
  9
$DIMALTTZ
 70
     0
  9
$DIMUPT
 70
     0
  9
$DIMDEC
 70
     4
  9
$DIMTDEC
 70
     4
  9
$DIMALTU
 70
     2
  9
$DIMALTTD
 70
     2
  9
$DIMTXSTY
  7
Standard
  9
$DIMAUNIT
 70
     0
  9
$DIMADEC
 70
     0
  9
$DIMALTRND
 40
0.0
  9
$DIMAZIN
 70
     0
  9
$DIMDSEP
 70
    46
  9
$DIMATFIT
 70
     3
  9
$DIMFRAC
 70
     0
  9
$DIMLDRBLK
  1

  9
$DIMLUNIT
 70
     2
  9
$DIMLWD
 70
    -2
  9
$DIMLWE
 70
    -2
  9
$DIMTMOVE
 70
     0
  9
$DIMFXL
 40
1.0
  9
$DIMFXLON
 70
     0
  9
$DIMJOGANG
 40
0.7853981633974483
  9
$DIMTFILL
 70
     0
  9
$DIMTFILLCLR
 70
     0
  9
$DIMARCSYM
 70
     0
  9
$DIMLTYPE
  6

  9
$DIMLTEX1
  6

  9
$DIMLTEX2
  6

  9
$DIMTXTDIRECTION
 70
     0
  9
$LUNITS
 70
     2
  9
$LUPREC
 70
     4
  9
$SKETCHINC
 40
0.1
  9
$FILLETRAD
 40
0.0
  9
$AUNITS
 70
     0
  9
$AUPREC
 70
     0
  9
$MENU
  1
.
  9
$ELEVATION
 40
0.0
  9
$PELEVATION
 40
0.0
  9
$THICKNESS
 40
0.0
  9
$LIMCHECK
 70
     0
  9
$CHAMFERA
 40
0.0
  9
$CHAMFERB
 40
0.0
  9
$CHAMFERC
 40
0.0
  9
$CHAMFERD
 40
0.0
  9
$SKPOLY
 70
     0
  9
$TDCREATE
 40
2459816.669918982
  9
$TDUCREATE
 40
2459816.794918982
  9
$TDUPDATE
 40
2459816.672708333
  9
$TDUUPDATE
 40
2459816.797708334
  9
$TDINDWG
 40
0.0027893519
  9
$TDUSRTIMER
 40
0.0027893519
  9
$USRTIMER
 70
     1
  9
$ANGBASE
 50
0.0
  9
$ANGDIR
 70
     0
  9
$PDMODE
 70
     0
  9
$PDSIZE
 40
0.0
  9
$PLINEWID
 40
0.0
  9
$SPLFRAME
 70
     0
  9
$SPLINETYPE
 70
     6
  9
$SPLINESEGS
 70
     8
  9
$HANDSEED
  5
537
  9
$SURFTAB1
 70
     6
  9
$SURFTAB2
 70
     6
  9
$SURFTYPE
 70
     6
  9
$SURFU
 70
     6
  9
$SURFV
 70
     6
  9
$UCSBASE
  2

  9
$UCSNAME
  2

  9
$UCSORG
 10
0.0
 20
0.0
 30
0.0
  9
$UCSXDIR
 10
1.0
 20
0.0
 30
0.0
  9
$UCSYDIR
 10
0.0
 20
1.0
 30
0.0
  9
$UCSORTHOREF
  2

  9
$UCSORTHOVIEW
 70
     0
  9
$UCSORGTOP
 10
0.0
 20
0.0
 30
0.0
  9
$UCSORGBOTTOM
 10
0.0
 20
0.0
 30
0.0
  9
$UCSORGLEFT
 10
0.0
 20
0.0
 30
0.0
  9
$UCSORGRIGHT
 10
0.0
 20
0.0
 30
0.0
  9
$UCSORGFRONT
 10
0.0
 20
0.0
 30
0.0
  9
$UCSORGBACK
 10
0.0
 20
0.0
 30
0.0
  9
$PUCSBASE
  2

  9
$PUCSNAME
  2

  9
$PUCSORG
 10
0.0
 20
0.0
 30
0.0
  9
$PUCSXDIR
 10
1.0
 20
0.0
 30
0.0
  9
$PUCSYDIR
 10
0.0
 20
1.0
 30
0.0
  9
$PUCSORTHOREF
  2

  9
$PUCSORTHOVIEW
 70
     0
  9
$PUCSORGTOP
 10
0.0
 20
0.0
 30
0.0
  9
$PUCSORGBOTTOM
 10
0.0
 20
0.0
 30
0.0
  9
$PUCSORGLEFT
 10
0.0
 20
0.0
 30
0.0
  9
$PUCSORGRIGHT
 10
0.0
 20
0.0
 30
0.0
  9
$PUCSORGFRONT
 10
0.0
 20
0.0
 30
0.0
  9
$PUCSORGBACK
 10
0.0
 20
0.0
 30
0.0
  9
$USERI1
 70
     0
  9
$USERI2
 70
     0
  9
$USERI3
 70
     0
  9
$USERI4
 70
     0
  9
$USERI5
 70
     0
  9
$USERR1
 40
0.0
  9
$USERR2
 40
0.0
  9
$USERR3
 40
0.0
  9
$USERR4
 40
0.0
  9
$USERR5
 40
0.0
  9
$WORLDVIEW
 70
     1
  9
$SHADEDGE
 70
     3
  9
$SHADEDIF
 70
    70
  9
$TILEMODE
 70
     1
  9
$MAXACTVP
 70
    64
  9
$PINSBASE
 10
0.0
 20
0.0
 30
0.0
  9
$PLIMCHECK
 70
     0
  9
$PEXTMIN
 10
1.000000000000000E+20
 20
1.000000000000000E+20
 30
1.000000000000000E+20
  9
$PEXTMAX
 10
-1.000000000000000E+20
 20
-1.000000000000000E+20
 30
-1.000000000000000E+20
  9
$PLIMMIN
 10
0.0
 20
0.0
  9
$PLIMMAX
 10
12.0
 20
9.0
  9
$UNITMODE
 70
     0
  9
$VISRETAIN
 70
     1
  9
$PLINEGEN
 70
     0
  9
$PSLTSCALE
 70
     1
  9
$TREEDEPTH
 70
  3020
  9
$CMLSTYLE
  2
Standard
  9
$CMLJUST
 70
     0
  9
$CMLSCALE
 40
1.0
  9
$PROXYGRAPHICS
 70
     1
  9
$MEASUREMENT
 70
     0
  9
$CELWEIGHT
370
    -1
  9
$ENDCAPS
280
     0
  9
$JOINSTYLE
280
     0
  9
$LWDISPLAY
290
     0
  9
$INSUNITS
 70
     4
  9
$HYPERLINKBASE
  1

  9
$STYLESHEET
  1

  9
$XEDIT
290
     1
  9
$CEPSNTYPE
380
     0
  9
$PSTYLEMODE
290
     1
  9
$FINGERPRINTGUID
  2
{1F023D2C-0A50-BF4B-9F14-4C3A18A0015E}
  9
$VERSIONGUID
  2
{2E8706B5-6B5C-8249-83C5-37AFAC456D34}
  9
$EXTNAMES
290
     1
  9
$PSVPSCALE
 40
0.0
  9
$OLESTARTUP
290
     0
  9
$SORTENTS
280
   127
  9
$INDEXCTL
280
     0
  9
$HIDETEXT
280
     0
  9
$XCLIPFRAME
280
     2
  9
$HALOGAP
280
     0
  9
$OBSCOLOR
 70
   257
  9
$OBSLTYPE
280
     0
  9
$INTERSECTIONDISPLAY
280
     0
  9
$INTERSECTIONCOLOR
 70
   257
  9
$DIMASSOC
280
     1
  9
$PROJECTNAME
  1

  9
$CAMERADISPLAY
290
     0
  9
$LENSLENGTH
 40
50.0
  9
$CAMERAHEIGHT
 40
0.0
  9
$STEPSPERSEC
 40
2.0
  9
$STEPSIZE
 40
6.0
  9
$3DDWFPREC
 40
2.0
  9
$PSOLWIDTH
 40
0.25
  9
$PSOLHEIGHT
 40
4.0
  9
$LOFTANG1
 40
1.570796326794896
  9
$LOFTANG2
 40
1.570796326794896
  9
$LOFTMAG1
 40
0.0
  9
$LOFTMAG2
 40
0.0
  9
$LOFTPARAM
 70
     7
  9
$LOFTNORMALS
280
     1
  9
$LATITUDE
 40
37.795
  9
$LONGITUDE
 40
-122.394
  9
$NORTHDIRECTION
 40
0.0
  9
$TIMEZONE
 70
 -8000
  9
$LIGHTGLYPHDISPLAY
280
     1
  9
$TILEMODELIGHTSYNCH
280
     1
  9
$CMATERIAL
347
11
  9
$SOLIDHIST
280
     0
  9
$SHOWHIST
280
     1
  9
$DWFFRAME
280
     2
  9
$DGNFRAME
280
     0
  9
$REALWORLDSCALE
290
     1
  9
$INTERFERECOLOR
 62
     1
  9
$INTERFEREOBJVS
345
33
  9
$INTERFEREVPVS
346
30
  9
$CSHADOW
280
     0
  9
$SHADOWPLANELOCATION
 40
0.0
  0
ENDSEC
  0
SECTION
  2
CLASSES
  0
CLASS
  1
ACDBDICTIONARYWDFLT
  2
AcDbDictionaryWithDefault
  3
ObjectDBX Classes
 90
        0
 91
        1
280
     0
281
     0
  0
CLASS
  1
MATERIAL
  2
AcDbMaterial
  3
ObjectDBX Classes
 90
     1153
 91
        3
280
     0
281
     0
  0
CLASS
  1
VISUALSTYLE
  2
AcDbVisualStyle
  3
ObjectDBX Classes
 90
     4095
 91
       24
280
     0
281
     0
  0
CLASS
  1
SCALE
  2
AcDbScale
  3
ObjectDBX Classes
 90
     1153
 91
       17
280
     0
281
     0
  0
CLASS
  1
TABLESTYLE
  2
AcDbTableStyle
  3
ObjectDBX Classes
 90
     4095
 91
        1
280
     0
281
     0
  0
CLASS
  1
MLEADERSTYLE
  2
AcDbMLeaderStyle
  3
ACDB_MLEADERSTYLE_CLASS
 90
     4095
 91
        1
280
     0
281
     0
  0
CLASS
  1
ACDBSECTIONVIEWSTYLE
  2
AcDbSectionViewStyle
  3
ObjectDBX Classes
 90
     1025
 91
        1
280
     0
281
     0
  0
CLASS
  1
ACDBDETAILVIEWSTYLE
  2
AcDbDetailViewStyle
  3
ObjectDBX Classes
 90
     1025
 91
        1
280
     0
281
     0
  0
CLASS
  1
ACARRAYJIGENTITY
  2
AcArrayJigEntity
  3
ACAD_ARRAY
 90
      129
 91
        2
280
     0
281
     1
  0
CLASS
  1
ACDBASSOCNETWORK
  2
AcDbAssocNetwork
  3
ObjectDBX Classes
 90
     1025
 91
        2
280
     0
281
     0
  0
CLASS
  1
ACDBASSOCACTION
  2
AcDbAssocAction
  3
ObjectDBX Classes
 90
     1025
 91
        1
280
     0
281
     0
  0
CLASS
  1
ACDBASSOCARRAYACTIONBODY
  2
AcDbAssocArrayActionBody
  3
ObjectDBX Classes
 90
     1025
 91
        1
280
     0
281
     0
  0
CLASS
  1
ACDBASSOCVERTEXACTIONPARAM
  2
AcDbAssocVertexActionParam
  3
ObjectDBX Classes
 90
     1025
 91
        3
280
     0
281
     0
  0
CLASS
  1
ACDBASSOCDEPENDENCY
  2
AcDbAssocDependency
  3
ObjectDBX Classes
 90
     1025
 91
        3
280
     0
281
     0
  0
CLASS
  1
ACDBASSOCARRAYRECTANGULARPARAMETERS
  2
AcDbAssocArrayRectangularParameters
  3
ObjectDBX Classes
 90
     1025
 91
        0
280
     0
281
     0
  0
CLASS
  1
DICTIONARYVAR
  2
AcDbDictionaryVar
  3
ObjectDBX Classes
 90
        0
 91
       19
280
     0
281
     0
  0
CLASS
  1
SORTENTSTABLE
  2
AcDbSortentsTable
  3
ObjectDBX Classes
 90
        0
 91
        1
280
     0
281
     0
  0
CLASS
  1
CELLSTYLEMAP
  2
AcDbCellStyleMap
  3
ObjectDBX Classes
 90
     1152
 91
        1
280
     0
281
     0
  0
ENDSEC
  0
SECTION
  2
TABLES
  0
TABLE
  2
VPORT
  5
8
330
0
100
AcDbSymbolTable
 70
     1
1001
ACAD
1000
DbSaveVer
1071
      280
  0
VPORT
  5
74
330
8
100
AcDbSymbolTableRecord
100
AcDbViewportTableRecord
  2
*Active
 70
     0
 10
0.0
 20
0.0
 11
1.0
 21
1.0
 12
207.2969872834749
 22
71.31440105889623
 13
0.0
 23
0.0
 14
1.0
 24
1.0
 15
0.0
 25
0.0
 16
0.0
 26
0.0
 36
1.0
 17
0.0
 27
0.0
 37
0.0
 40
402.1010528377533
 41
2.317632850241545
 42
50.0
 43
0.0
 44
0.0
 50
0.0
 51
0.0
 71
     0
 72
   100
 73
     1
 74
     1
 75
     0
 76
     0
 77
     0
 78
     0
281
     0
 65
     1
110
0.0
120
0.0
130
0.0
111
1.0
121
0.0
131
0.0
112
0.0
122
1.0
132
0.0
 79
     0
146
0.0
348
2F
 60
     3
 61
     5
292
     1
282
     1
141
0.0
142
0.0
 63
   250
421
  3355443
1001
ACAD_NAV_VCDISPLAY
1070
     3
  0
ENDTAB
  0
TABLE
  2
LTYPE
  5
5
330
0
100
AcDbSymbolTable
 70
     2
  0
LTYPE
  5
5A
330
5
100
AcDbSymbolTableRecord
100
AcDbLinetypeTableRecord
  2
ByBlock
 70
     0
  3

 72
    65
 73
     0
 40
0.0
  0
LTYPE
  5
5B
330
5
100
AcDbSymbolTableRecord
100
AcDbLinetypeTableRecord
  2
ByLayer
 70
     0
  3

 72
    65
 73
     0
 40
0.0
  0
LTYPE
  5
5C
330
5
100
AcDbSymbolTableRecord
100
AcDbLinetypeTableRecord
  2
CONTINUOUS
 70
     0
  3
______
 72
    65
 73
     0
 40
0.0
  0
ENDTAB
  0
TABLE
  2
LAYER
  5
2
330
0
100
AcDbSymbolTable
 70
     7
  0
LAYER
  5
54
102
{ACAD_XDICTIONARY
360
50F
102
}
330
2
100
AcDbSymbolTableRecord
100
AcDbLayerTableRecord
  2
0
 70
     0
 62
     7
  6
CONTINUOUS
370
    -3
390
F
347
21
348
0
  0
LAYER
  5
75
102
{ACAD_XDICTIONARY
360
511
102
}
330
2
100
AcDbSymbolTableRecord
100
AcDbLayerTableRecord
  2
front_outsideCutPath
 70
     0
 62
     7
  6
CONTINUOUS
370
    -3
390
F
347
21
348
0
  0
LAYER
  5
8A
102
{ACAD_XDICTIONARY
360
513
102
}
330
2
100
AcDbSymbolTableRecord
100
AcDbLayerTableRecord
  2
left_outsideCutPath
 70
     0
 62
     7
  6
CONTINUOUS
370
    -3
390
F
347
21
348
0
  0
LAYER
  5
E1
102
{ACAD_XDICTIONARY
360
515
102
}
330
2
100
AcDbSymbolTableRecord
100
AcDbLayerTableRecord
  2
top_outsideCutPath
 70
     0
 62
     7
  6
CONTINUOUS
370
    -3
390
F
347
21
348
0
  0
LAYER
  5
138
102
{ACAD_XDICTIONARY
360
517
102
}
330
2
100
AcDbSymbolTableRecord
100
AcDbLayerTableRecord
  2
back_outsideCutPath
 70
     0
 62
     7
  6
CONTINUOUS
370
    -3
390
F
347
21
348
0
  0
LAYER
  5
14D
102
{ACAD_XDICTIONARY
360
519
102
}
330
2
100
AcDbSymbolTableRecord
100
AcDbLayerTableRecord
  2
right_outsideCutPath
 70
     0
 62
     7
  6
CONTINUOUS
370
    -3
390
F
347
21
348
0
  0
LAYER
  5
1A4
102
{ACAD_XDICTIONARY
360
51B
102
}
330
2
100
AcDbSymbolTableRecord
100
AcDbLayerTableRecord
  2
bottom_outsideCutPath
 70
     0
 62
     7
  6
CONTINUOUS
370
    -3
390
F
347
21
348
0
  0
ENDTAB
  0
TABLE
  2
STYLE
  5
3
330
0
100
AcDbSymbolTable
 70
     2
  0
STYLE
  5
55
330
3
100
AcDbSymbolTableRecord
100
AcDbTextStyleTableRecord
  2
Standard
 70
     0
 40
0.0
 41
1.0
 50
0.0
 71
     0
 42
0.2
  3
txt
  4

  0
STYLE
  5
59
330
3
100
AcDbSymbolTableRecord
100
AcDbTextStyleTableRecord
  2
Annotative
 70
     0
 40
0.0
 41
1.0
 50
0.0
 71
     0
 42
0.2
  3
txt
  4

1001
AcadAnnotative
1000
AnnotativeData
1002
{
1070
     1
1070
     1
1002
}
  0
ENDTAB
  0
TABLE
  2
VIEW
  5
6
330
0
100
AcDbSymbolTable
 70
     0
  0
ENDTAB
  0
TABLE
  2
UCS
  5
7
330
0
100
AcDbSymbolTable
 70
     0
  0
ENDTAB
  0
TABLE
  2
APPID
  5
9
330
0
100
AcDbSymbolTable
 70
     4
  0
APPID
  5
56
330
9
100
AcDbSymbolTableRecord
100
AcDbRegAppTableRecord
  2
ACAD
 70
     0
  0
APPID
  5
5D
330
9
100
AcDbSymbolTableRecord
100
AcDbRegAppTableRecord
  2
AcadAnnotative
 70
     0
  0
APPID
  5
203
330
9
100
AcDbSymbolTableRecord
100
AcDbRegAppTableRecord
  2
ACAD_EXEMPT_FROM_CAD_STANDARDS
 70
     0
  0
APPID
  5
51D
330
9
100
AcDbSymbolTableRecord
100
AcDbRegAppTableRecord
  2
ACAD_NAV_VCDISPLAY
 70
     0
  0
ENDTAB
  0
TABLE
  2
DIMSTYLE
  5
A
330
0
100
AcDbSymbolTable
 70
     3
100
AcDbDimStyleTable
 71
     1
340
57
  0
DIMSTYLE
105
57
330
A
100
AcDbSymbolTableRecord
100
AcDbDimStyleTableRecord
  2
Standard
 70
     0
340
55
  0
DIMSTYLE
105
58
330
A
100
AcDbSymbolTableRecord
100
AcDbDimStyleTableRecord
  2
Annotative
 70
     0
340
55
1001
AcadAnnotative
1000
AnnotativeData
1002
{
1070
     1
1070
     1
1002
}
  0
ENDTAB
  0
TABLE
  2
BLOCK_RECORD
  5
1
330
0
100
AcDbSymbolTable
 70
     3
  0
BLOCK_RECORD
  5
6F
102
{ACAD_XDICTIONARY
360
216
102
}
330
1
100
AcDbSymbolTableRecord
100
AcDbBlockTableRecord
  2
*Model_Space
340
72
 70
     0
280
     1
281
     0
  0
BLOCK_RECORD
  5
6B
330
1
100
AcDbSymbolTableRecord
100
AcDbBlockTableRecord
  2
*Paper_Space
340
6E
 70
     0
280
     1
281
     0
  0
BLOCK_RECORD
  5
20D
330
1
100
AcDbSymbolTableRecord
100
AcDbBlockTableRecord
  2
*U1
340
0
102
{BLKREFS
331
258
331
259
331
25A
331
25B
331
25C
331
25D
331
25E
331
25F
331
260
331
261
331
262
331
263
331
264
331
265
331
266
331
267
331
268
331
269
331
26A
331
26B
331
26C
331
26D
331
26E
331
26F
331
270
331
271
331
272
331
273
331
274
331
275
331
225
331
226
331
227
331
228
331
229
331
22A
331
22B
331
22C
331
22D
331
22E
331
22F
331
230
331
231
331
232
331
233
331
234
331
235
331
236
331
237
331
238
331
239
331
23A
331
23B
331
23C
331
23D
331
23E
331
23F
331
240
331
241
331
242
331
243
331
244
331
245
331
246
331
247
331
248
331
249
331
24A
331
24B
331
24C
331
24D
331
24E
331
24F
331
250
331
251
331
252
331
253
331
254
331
255
331
256
331
257
102
}
 70
     0
280
     1
281
     0
  0
BLOCK_RECORD
  5
210
330
1
100
AcDbSymbolTableRecord
100
AcDbBlockTableRecord
  2
*U2
340
0
 70
     0
280
     1
281
     1
  0
ENDTAB
  0
ENDSEC
  0
SECTION
  2
BLOCKS
  0
BLOCK
  5
70
330
6F
100
AcDbEntity
  8
0
100
AcDbBlockBegin
  2
*Model_Space
 70
     0
 10
0.0
 20
0.0
 30
0.0
  3
*Model_Space
  1

  0
ENDBLK
  5
71
330
6F
100
AcDbEntity
  8
0
100
AcDbBlockEnd
  0
BLOCK
  5
6C
330
6B
100
AcDbEntity
 67
     1
  8
0
100
AcDbBlockBegin
  2
*Paper_Space
 70
     0
 10
0.0
 20
0.0
 30
0.0
  3
*Paper_Space
  1

  0
ENDBLK
  5
6D
330
6B
100
AcDbEntity
 67
     1
  8
0
100
AcDbBlockEnd
  0
BLOCK
  5
20E
330
20D
100
AcDbEntity
  8
0
100
AcDbBlockBegin
  2
*U1
 70
     1
 10
0.0
 20
0.0
 30
0.0
  3
*U1
  1

  0
LINE
  5
214
330
20D
100
AcDbEntity
  8
0
  6
Continuous
100
AcDbLine
 10
0.0
 20
15.0
 30
0.0
 11
0.0
 21
-15.0
 31
0.0
  0
ENDBLK
  5
20F
330
20D
100
AcDbEntity
  8
0
100
AcDbBlockEnd
  0
BLOCK
  5
211
330
210
100
AcDbEntity
  8
0
100
AcDbBlockBegin
  2
*U2
 70
     1
 10
0.0
 20
0.0
 30
0.0
  3
*U2
  1

  0
INSERT
  5
225
330
210
100
AcDbEntity
  8
0
  6
ByBlock
347
19
 62
     0
440
 16777216
370
    -2
380
     1
100
AcDbBlockReference
  2
*U1
 10
0.0
 20
0.0
 30
0.0
  0
INSERT
  5
226
330
210
100
AcDbEntity
  8
0
  6
ByBlock
347
19
 62
     0
440
 16777216
370
    -2
380
     1
100
AcDbBlockReference
  2
*U1
 10
0.0
 20
0.0
 30
1.0
  0
INSERT
  5
227
330
210
100
AcDbEntity
  8
0
  6
ByBlock
347
19
 62
     0
440
 16777216
370
    -2
380
     1
100
AcDbBlockReference
  2
*U1
 10
0.0
 20
0.0
 30
2.0
  0
INSERT
  5
228
330
210
100
AcDbEntity
  8
0
  6
ByBlock
347
19
 62
     0
440
 16777216
370
    -2
380
     1
100
AcDbBlockReference
  2
*U1
 10
0.0
 20
0.0
 30
3.0
  0
INSERT
  5
229
330
210
100
AcDbEntity
  8
0
  6
ByBlock
347
19
 62
     0
440
 16777216
370
    -2
380
     1
100
AcDbBlockReference
  2
*U1
 10
0.0
 20
0.0
 30
4.0
  0
INSERT
  5
22A
330
210
100
AcDbEntity
  8
0
  6
ByBlock
347
19
 62
     0
440
 16777216
370
    -2
380
     1
100
AcDbBlockReference
  2
*U1
 10
0.0
 20
0.0
 30
5.0
  0
INSERT
  5
22B
330
210
100
AcDbEntity
  8
0
  6
ByBlock
347
19
 62
     0
440
 16777216
370
    -2
380
     1
100
AcDbBlockReference
  2
*U1
 10
0.0
 20
0.0
 30
6.0
  0
INSERT
  5
22C
330
210
100
AcDbEntity
  8
0
  6
ByBlock
347
19
 62
     0
440
 16777216
370
    -2
380
     1
100
AcDbBlockReference
  2
*U1
 10
0.0
 20
0.0
 30
7.0
  0
INSERT
  5
22D
330
210
100
AcDbEntity
  8
0
  6
ByBlock
347
19
 62
     0
440
 16777216
370
    -2
380
     1
100
AcDbBlockReference
  2
*U1
 10
0.0
 20
0.0
 30
8.0
  0
INSERT
  5
22E
330
210
100
AcDbEntity
  8
0
  6
ByBlock
347
19
 62
     0
440
 16777216
370
    -2
380
     1
100
AcDbBlockReference
  2
*U1
 10
30.0
 20
0.0
 30
0.0
  0
INSERT
  5
22F
330
210
100
AcDbEntity
  8
0
  6
ByBlock
347
19
 62
     0
440
 16777216
370
    -2
380
     1
100
AcDbBlockReference
  2
*U1
 10
30.0
 20
0.0
 30
1.0
  0
INSERT
  5
230
330
210
100
AcDbEntity
  8
0
  6
ByBlock
347
19
 62
     0
440
 16777216
370
    -2
380
     1
100
AcDbBlockReference
  2
*U1
 10
30.0
 20
0.0
 30
2.0
  0
INSERT
  5
231
330
210
100
AcDbEntity
  8
0
  6
ByBlock
347
19
 62
     0
440
 16777216
370
    -2
380
     1
100
AcDbBlockReference
  2
*U1
 10
30.0
 20
0.0
 30
3.0
  0
INSERT
  5
232
330
210
100
AcDbEntity
  8
0
  6
ByBlock
347
19
 62
     0
440
 16777216
370
    -2
380
     1
100
AcDbBlockReference
  2
*U1
 10
30.0
 20
0.0
 30
4.0
  0
INSERT
  5
233
330
210
100
AcDbEntity
  8
0
  6
ByBlock
347
19
 62
     0
440
 16777216
370
    -2
380
     1
100
AcDbBlockReference
  2
*U1
 10
30.0
 20
0.0
 30
5.0
  0
INSERT
  5
234
330
210
100
AcDbEntity
  8
0
  6
ByBlock
347
19
 62
     0
440
 16777216
370
    -2
380
     1
100
AcDbBlockReference
  2
*U1
 10
30.0
 20
0.0
 30
6.0
  0
INSERT
  5
235
330
210
100
AcDbEntity
  8
0
  6
ByBlock
347
19
 62
     0
440
 16777216
370
    -2
380
     1
100
AcDbBlockReference
  2
*U1
 10
30.0
 20
0.0
 30
7.0
  0
INSERT
  5
236
330
210
100
AcDbEntity
  8
0
  6
ByBlock
347
19
 62
     0
440
 16777216
370
    -2
380
     1
100
AcDbBlockReference
  2
*U1
 10
30.0
 20
0.0
 30
8.0
  0
INSERT
  5
237
330
210
100
AcDbEntity
  8
0
  6
ByBlock
347
19
 62
     0
440
 16777216
370
    -2
380
     1
100
AcDbBlockReference
  2
*U1
 10
60.0
 20
0.0
 30
0.0
  0
INSERT
  5
238
330
210
100
AcDbEntity
  8
0
  6
ByBlock
347
19
 62
     0
440
 16777216
370
    -2
380
     1
100
AcDbBlockReference
  2
*U1
 10
60.0
 20
0.0
 30
1.0
  0
INSERT
  5
239
330
210
100
AcDbEntity
  8
0
  6
ByBlock
347
19
 62
     0
440
 16777216
370
    -2
380
     1
100
AcDbBlockReference
  2
*U1
 10
60.0
 20
0.0
 30
2.0
  0
INSERT
  5
23A
330
210
100
AcDbEntity
  8
0
  6
ByBlock
347
19
 62
     0
440
 16777216
370
    -2
380
     1
100
AcDbBlockReference
  2
*U1
 10
60.0
 20
0.0
 30
3.0
  0
INSERT
  5
23B
330
210
100
AcDbEntity
  8
0
  6
ByBlock
347
19
 62
     0
440
 16777216
370
    -2
380
     1
100
AcDbBlockReference
  2
*U1
 10
60.0
 20
0.0
 30
4.0
  0
INSERT
  5
23C
330
210
100
AcDbEntity
  8
0
  6
ByBlock
347
19
 62
     0
440
 16777216
370
    -2
380
     1
100
AcDbBlockReference
  2
*U1
 10
60.0
 20
0.0
 30
5.0
  0
INSERT
  5
23D
330
210
100
AcDbEntity
  8
0
  6
ByBlock
347
19
 62
     0
440
 16777216
370
    -2
380
     1
100
AcDbBlockReference
  2
*U1
 10
60.0
 20
0.0
 30
6.0
  0
INSERT
  5
23E
330
210
100
AcDbEntity
  8
0
  6
ByBlock
347
19
 62
     0
440
 16777216
370
    -2
380
     1
100
AcDbBlockReference
  2
*U1
 10
60.0
 20
0.0
 30
7.0
  0
INSERT
  5
23F
330
210
100
AcDbEntity
  8
0
  6
ByBlock
347
19
 62
     0
440
 16777216
370
    -2
380
     1
100
AcDbBlockReference
  2
*U1
 10
60.0
 20
0.0
 30
8.0
  0
INSERT
  5
240
330
210
100
AcDbEntity
  8
0
  6
ByBlock
347
19
 62
     0
440
 16777216
370
    -2
380
     1
100
AcDbBlockReference
  2
*U1
 10
90.0
 20
0.0
 30
0.0
  0
INSERT
  5
241
330
210
100
AcDbEntity
  8
0
  6
ByBlock
347
19
 62
     0
440
 16777216
370
    -2
380
     1
100
AcDbBlockReference
  2
*U1
 10
90.0
 20
0.0
 30
1.0
  0
INSERT
  5
242
330
210
100
AcDbEntity
  8
0
  6
ByBlock
347
19
 62
     0
440
 16777216
370
    -2
380
     1
100
AcDbBlockReference
  2
*U1
 10
90.0
 20
0.0
 30
2.0
  0
INSERT
  5
243
330
210
100
AcDbEntity
  8
0
  6
ByBlock
347
19
 62
     0
440
 16777216
370
    -2
380
     1
100
AcDbBlockReference
  2
*U1
 10
90.0
 20
0.0
 30
3.0
  0
INSERT
  5
244
330
210
100
AcDbEntity
  8
0
  6
ByBlock
347
19
 62
     0
440
 16777216
370
    -2
380
     1
100
AcDbBlockReference
  2
*U1
 10
90.0
 20
0.0
 30
4.0
  0
INSERT
  5
245
330
210
100
AcDbEntity
  8
0
  6
ByBlock
347
19
 62
     0
440
 16777216
370
    -2
380
     1
100
AcDbBlockReference
  2
*U1
 10
90.0
 20
0.0
 30
5.0
  0
INSERT
  5
246
330
210
100
AcDbEntity
  8
0
  6
ByBlock
347
19
 62
     0
440
 16777216
370
    -2
380
     1
100
AcDbBlockReference
  2
*U1
 10
90.0
 20
0.0
 30
6.0
  0
INSERT
  5
247
330
210
100
AcDbEntity
  8
0
  6
ByBlock
347
19
 62
     0
440
 16777216
370
    -2
380
     1
100
AcDbBlockReference
  2
*U1
 10
90.0
 20
0.0
 30
7.0
  0
INSERT
  5
248
330
210
100
AcDbEntity
  8
0
  6
ByBlock
347
19
 62
     0
440
 16777216
370
    -2
380
     1
100
AcDbBlockReference
  2
*U1
 10
90.0
 20
0.0
 30
8.0
  0
INSERT
  5
249
330
210
100
AcDbEntity
  8
0
  6
ByBlock
347
19
 62
     0
440
 16777216
370
    -2
380
     1
100
AcDbBlockReference
  2
*U1
 10
120.0
 20
0.0
 30
0.0
  0
INSERT
  5
24A
330
210
100
AcDbEntity
  8
0
  6
ByBlock
347
19
 62
     0
440
 16777216
370
    -2
380
     1
100
AcDbBlockReference
  2
*U1
 10
120.0
 20
0.0
 30
1.0
  0
INSERT
  5
24B
330
210
100
AcDbEntity
  8
0
  6
ByBlock
347
19
 62
     0
440
 16777216
370
    -2
380
     1
100
AcDbBlockReference
  2
*U1
 10
120.0
 20
0.0
 30
2.0
  0
INSERT
  5
24C
330
210
100
AcDbEntity
  8
0
  6
ByBlock
347
19
 62
     0
440
 16777216
370
    -2
380
     1
100
AcDbBlockReference
  2
*U1
 10
120.0
 20
0.0
 30
3.0
  0
INSERT
  5
24D
330
210
100
AcDbEntity
  8
0
  6
ByBlock
347
19
 62
     0
440
 16777216
370
    -2
380
     1
100
AcDbBlockReference
  2
*U1
 10
120.0
 20
0.0
 30
4.0
  0
INSERT
  5
24E
330
210
100
AcDbEntity
  8
0
  6
ByBlock
347
19
 62
     0
440
 16777216
370
    -2
380
     1
100
AcDbBlockReference
  2
*U1
 10
120.0
 20
0.0
 30
5.0
  0
INSERT
  5
24F
330
210
100
AcDbEntity
  8
0
  6
ByBlock
347
19
 62
     0
440
 16777216
370
    -2
380
     1
100
AcDbBlockReference
  2
*U1
 10
120.0
 20
0.0
 30
6.0
  0
INSERT
  5
250
330
210
100
AcDbEntity
  8
0
  6
ByBlock
347
19
 62
     0
440
 16777216
370
    -2
380
     1
100
AcDbBlockReference
  2
*U1
 10
120.0
 20
0.0
 30
7.0
  0
INSERT
  5
251
330
210
100
AcDbEntity
  8
0
  6
ByBlock
347
19
 62
     0
440
 16777216
370
    -2
380
     1
100
AcDbBlockReference
  2
*U1
 10
120.0
 20
0.0
 30
8.0
  0
INSERT
  5
252
330
210
100
AcDbEntity
  8
0
  6
ByBlock
347
19
 62
     0
440
 16777216
370
    -2
380
     1
100
AcDbBlockReference
  2
*U1
 10
150.0
 20
0.0
 30
0.0
  0
INSERT
  5
253
330
210
100
AcDbEntity
  8
0
  6
ByBlock
347
19
 62
     0
440
 16777216
370
    -2
380
     1
100
AcDbBlockReference
  2
*U1
 10
150.0
 20
0.0
 30
1.0
  0
INSERT
  5
254
330
210
100
AcDbEntity
  8
0
  6
ByBlock
347
19
 62
     0
440
 16777216
370
    -2
380
     1
100
AcDbBlockReference
  2
*U1
 10
150.0
 20
0.0
 30
2.0
  0
INSERT
  5
255
330
210
100
AcDbEntity
  8
0
  6
ByBlock
347
19
 62
     0
440
 16777216
370
    -2
380
     1
100
AcDbBlockReference
  2
*U1
 10
150.0
 20
0.0
 30
3.0
  0
INSERT
  5
256
330
210
100
AcDbEntity
  8
0
  6
ByBlock
347
19
 62
     0
440
 16777216
370
    -2
380
     1
100
AcDbBlockReference
  2
*U1
 10
150.0
 20
0.0
 30
4.0
  0
INSERT
  5
257
330
210
100
AcDbEntity
  8
0
  6
ByBlock
347
19
 62
     0
440
 16777216
370
    -2
380
     1
100
AcDbBlockReference
  2
*U1
 10
150.0
 20
0.0
 30
5.0
  0
INSERT
  5
258
330
210
100
AcDbEntity
  8
0
  6
ByBlock
347
19
 62
     0
440
 16777216
370
    -2
380
     1
100
AcDbBlockReference
  2
*U1
 10
150.0
 20
0.0
 30
6.0
  0
INSERT
  5
259
330
210
100
AcDbEntity
  8
0
  6
ByBlock
347
19
 62
     0
440
 16777216
370
    -2
380
     1
100
AcDbBlockReference
  2
*U1
 10
150.0
 20
0.0
 30
7.0
  0
INSERT
  5
25A
330
210
100
AcDbEntity
  8
0
  6
ByBlock
347
19
 62
     0
440
 16777216
370
    -2
380
     1
100
AcDbBlockReference
  2
*U1
 10
150.0
 20
0.0
 30
8.0
  0
INSERT
  5
25B
330
210
100
AcDbEntity
  8
0
  6
ByBlock
347
19
 62
     0
440
 16777216
370
    -2
380
     1
100
AcDbBlockReference
  2
*U1
 10
180.0
 20
0.0
 30
0.0
  0
INSERT
  5
25C
330
210
100
AcDbEntity
  8
0
  6
ByBlock
347
19
 62
     0
440
 16777216
370
    -2
380
     1
100
AcDbBlockReference
  2
*U1
 10
180.0
 20
0.0
 30
1.0
  0
INSERT
  5
25D
330
210
100
AcDbEntity
  8
0
  6
ByBlock
347
19
 62
     0
440
 16777216
370
    -2
380
     1
100
AcDbBlockReference
  2
*U1
 10
180.0
 20
0.0
 30
2.0
  0
INSERT
  5
25E
330
210
100
AcDbEntity
  8
0
  6
ByBlock
347
19
 62
     0
440
 16777216
370
    -2
380
     1
100
AcDbBlockReference
  2
*U1
 10
180.0
 20
0.0
 30
3.0
  0
INSERT
  5
25F
330
210
100
AcDbEntity
  8
0
  6
ByBlock
347
19
 62
     0
440
 16777216
370
    -2
380
     1
100
AcDbBlockReference
  2
*U1
 10
180.0
 20
0.0
 30
4.0
  0
INSERT
  5
260
330
210
100
AcDbEntity
  8
0
  6
ByBlock
347
19
 62
     0
440
 16777216
370
    -2
380
     1
100
AcDbBlockReference
  2
*U1
 10
180.0
 20
0.0
 30
5.0
  0
INSERT
  5
261
330
210
100
AcDbEntity
  8
0
  6
ByBlock
347
19
 62
     0
440
 16777216
370
    -2
380
     1
100
AcDbBlockReference
  2
*U1
 10
180.0
 20
0.0
 30
6.0
  0
INSERT
  5
262
330
210
100
AcDbEntity
  8
0
  6
ByBlock
347
19
 62
     0
440
 16777216
370
    -2
380
     1
100
AcDbBlockReference
  2
*U1
 10
180.0
 20
0.0
 30
7.0
  0
INSERT
  5
263
330
210
100
AcDbEntity
  8
0
  6
ByBlock
347
19
 62
     0
440
 16777216
370
    -2
380
     1
100
AcDbBlockReference
  2
*U1
 10
180.0
 20
0.0
 30
8.0
  0
INSERT
  5
264
330
210
100
AcDbEntity
  8
0
  6
ByBlock
347
19
 62
     0
440
 16777216
370
    -2
380
     1
100
AcDbBlockReference
  2
*U1
 10
210.0
 20
0.0
 30
0.0
  0
INSERT
  5
265
330
210
100
AcDbEntity
  8
0
  6
ByBlock
347
19
 62
     0
440
 16777216
370
    -2
380
     1
100
AcDbBlockReference
  2
*U1
 10
210.0
 20
0.0
 30
1.0
  0
INSERT
  5
266
330
210
100
AcDbEntity
  8
0
  6
ByBlock
347
19
 62
     0
440
 16777216
370
    -2
380
     1
100
AcDbBlockReference
  2
*U1
 10
210.0
 20
0.0
 30
2.0
  0
INSERT
  5
267
330
210
100
AcDbEntity
  8
0
  6
ByBlock
347
19
 62
     0
440
 16777216
370
    -2
380
     1
100
AcDbBlockReference
  2
*U1
 10
210.0
 20
0.0
 30
3.0
  0
INSERT
  5
268
330
210
100
AcDbEntity
  8
0
  6
ByBlock
347
19
 62
     0
440
 16777216
370
    -2
380
     1
100
AcDbBlockReference
  2
*U1
 10
210.0
 20
0.0
 30
4.0
  0
INSERT
  5
269
330
210
100
AcDbEntity
  8
0
  6
ByBlock
347
19
 62
     0
440
 16777216
370
    -2
380
     1
100
AcDbBlockReference
  2
*U1
 10
210.0
 20
0.0
 30
5.0
  0
INSERT
  5
26A
330
210
100
AcDbEntity
  8
0
  6
ByBlock
347
19
 62
     0
440
 16777216
370
    -2
380
     1
100
AcDbBlockReference
  2
*U1
 10
210.0
 20
0.0
 30
6.0
  0
INSERT
  5
26B
330
210
100
AcDbEntity
  8
0
  6
ByBlock
347
19
 62
     0
440
 16777216
370
    -2
380
     1
100
AcDbBlockReference
  2
*U1
 10
210.0
 20
0.0
 30
7.0
  0
INSERT
  5
26C
330
210
100
AcDbEntity
  8
0
  6
ByBlock
347
19
 62
     0
440
 16777216
370
    -2
380
     1
100
AcDbBlockReference
  2
*U1
 10
210.0
 20
0.0
 30
8.0
  0
INSERT
  5
26D
330
210
100
AcDbEntity
  8
0
  6
ByBlock
347
19
 62
     0
440
 16777216
370
    -2
380
     1
100
AcDbBlockReference
  2
*U1
 10
240.0
 20
0.0
 30
0.0
  0
INSERT
  5
26E
330
210
100
AcDbEntity
  8
0
  6
ByBlock
347
19
 62
     0
440
 16777216
370
    -2
380
     1
100
AcDbBlockReference
  2
*U1
 10
240.0
 20
0.0
 30
1.0
  0
INSERT
  5
26F
330
210
100
AcDbEntity
  8
0
  6
ByBlock
347
19
 62
     0
440
 16777216
370
    -2
380
     1
100
AcDbBlockReference
  2
*U1
 10
240.0
 20
0.0
 30
2.0
  0
INSERT
  5
270
330
210
100
AcDbEntity
  8
0
  6
ByBlock
347
19
 62
     0
440
 16777216
370
    -2
380
     1
100
AcDbBlockReference
  2
*U1
 10
240.0
 20
0.0
 30
3.0
  0
INSERT
  5
271
330
210
100
AcDbEntity
  8
0
  6
ByBlock
347
19
 62
     0
440
 16777216
370
    -2
380
     1
100
AcDbBlockReference
  2
*U1
 10
240.0
 20
0.0
 30
4.0
  0
INSERT
  5
272
330
210
100
AcDbEntity
  8
0
  6
ByBlock
347
19
 62
     0
440
 16777216
370
    -2
380
     1
100
AcDbBlockReference
  2
*U1
 10
240.0
 20
0.0
 30
5.0
  0
INSERT
  5
273
330
210
100
AcDbEntity
  8
0
  6
ByBlock
347
19
 62
     0
440
 16777216
370
    -2
380
     1
100
AcDbBlockReference
  2
*U1
 10
240.0
 20
0.0
 30
6.0
  0
INSERT
  5
274
330
210
100
AcDbEntity
  8
0
  6
ByBlock
347
19
 62
     0
440
 16777216
370
    -2
380
     1
100
AcDbBlockReference
  2
*U1
 10
240.0
 20
0.0
 30
7.0
  0
INSERT
  5
275
330
210
100
AcDbEntity
  8
0
  6
ByBlock
347
19
 62
     0
440
 16777216
370
    -2
380
     1
100
AcDbBlockReference
  2
*U1
 10
240.0
 20
0.0
 30
8.0
  0
ENDBLK
  5
212
330
210
100
AcDbEntity
  8
0
100
AcDbBlockEnd
  0
ENDSEC
  0
SECTION
  2
ENTITIES
  0
LINE
  5
36A
330
6F
100
AcDbEntity
  8
bottom_outsideCutPath
100
AcDbLine
 10
58.6875
 20
105.4368332311824
 30
0.0
 11
58.6875
 21
102.4368332311824
 31
0.0
  0
LINE
  5
36B
330
6F
100
AcDbEntity
  8
bottom_outsideCutPath
100
AcDbLine
 10
58.6875
 20
102.4368332311824
 30
0.0
 11
73.3125
 21
102.4368332311824
 31
0.0
  0
LINE
  5
36C
330
6F
100
AcDbEntity
  8
bottom_outsideCutPath
100
AcDbLine
 10
73.3125
 20
102.4368332311824
 30
0.0
 11
73.3125
 21
105.4368332311824
 31
0.0
  0
LINE
  5
36D
330
6F
100
AcDbEntity
  8
bottom_outsideCutPath
100
AcDbLine
 10
73.3125
 20
105.4368332311824
 30
0.0
 11
87.93750000000001
 21
105.4368332311824
 31
0.0
  0
LINE
  5
36E
330
6F
100
AcDbEntity
  8
bottom_outsideCutPath
100
AcDbLine
 10
87.93750000000001
 20
105.4368332311824
 30
0.0
 11
87.93750000000001
 21
102.4368332311824
 31
0.0
  0
LINE
  5
36F
330
6F
100
AcDbEntity
  8
bottom_outsideCutPath
100
AcDbLine
 10
87.93750000000001
 20
102.4368332311824
 30
0.0
 11
102.5625
 21
102.4368332311824
 31
0.0
  0
LINE
  5
370
330
6F
100
AcDbEntity
  8
bottom_outsideCutPath
100
AcDbLine
 10
102.5625
 20
102.4368332311824
 30
0.0
 11
102.5625
 21
105.4368332311824
 31
0.0
  0
LINE
  5
371
330
6F
100
AcDbEntity
  8
bottom_outsideCutPath
100
AcDbLine
 10
102.5625
 20
105.4368332311824
 30
0.0
 11
117.1875
 21
105.4368332311824
 31
0.0
  0
LINE
  5
372
330
6F
100
AcDbEntity
  8
bottom_outsideCutPath
100
AcDbLine
 10
117.1875
 20
105.4368332311824
 30
0.0
 11
117.1875
 21
102.4368332311824
 31
0.0
  0
LINE
  5
373
330
6F
100
AcDbEntity
  8
bottom_outsideCutPath
100
AcDbLine
 10
117.1875
 20
102.4368332311824
 30
0.0
 11
131.8125
 21
102.4368332311824
 31
0.0
  0
LINE
  5
374
330
6F
100
AcDbEntity
  8
bottom_outsideCutPath
100
AcDbLine
 10
131.8125
 20
102.4368332311824
 30
0.0
 11
131.8125
 21
105.4368332311824
 31
0.0
  0
LINE
  5
375
330
6F
100
AcDbEntity
  8
bottom_outsideCutPath
100
AcDbLine
 10
131.8125
 20
105.4368332311824
 30
0.0
 11
146.4375
 21
105.4368332311824
 31
0.0
  0
LINE
  5
376
330
6F
100
AcDbEntity
  8
bottom_outsideCutPath
100
AcDbLine
 10
146.4375
 20
105.4368332311824
 30
0.0
 11
146.4375
 21
102.4368332311824
 31
0.0
  0
LINE
  5
377
330
6F
100
AcDbEntity
  8
bottom_outsideCutPath
100
AcDbLine
 10
146.4375
 20
102.4368332311824
 30
0.0
 11
161.0625
 21
102.4368332311824
 31
0.0
  0
LINE
  5
378
330
6F
100
AcDbEntity
  8
bottom_outsideCutPath
100
AcDbLine
 10
161.0625
 20
102.4368332311824
 30
0.0
 11
161.0625
 21
105.4368332311824
 31
0.0
  0
LINE
  5
379
330
6F
100
AcDbEntity
  8
bottom_outsideCutPath
100
AcDbLine
 10
161.0625
 20
105.4368332311824
 30
0.0
 11
175.6875
 21
105.4368332311823
 31
0.0
  0
LINE
  5
37A
330
6F
100
AcDbEntity
  8
bottom_outsideCutPath
100
AcDbLine
 10
175.6875
 20
105.4368332311823
 30
0.0
 11
175.6875
 21
102.4368332311823
 31
0.0
  0
LINE
  5
37B
330
6F
100
AcDbEntity
  8
bottom_outsideCutPath
100
AcDbLine
 10
175.6875
 20
102.4368332311823
 30
0.0
 11
190.3125
 21
102.4368332311823
 31
0.0
  0
LINE
  5
37C
330
6F
100
AcDbEntity
  8
bottom_outsideCutPath
100
AcDbLine
 10
190.3125
 20
102.4368332311823
 30
0.0
 11
190.3125
 21
105.4368332311823
 31
0.0
  0
LINE
  5
37D
330
6F
100
AcDbEntity
  8
bottom_outsideCutPath
100
AcDbLine
 10
190.3125
 20
105.4368332311823
 30
0.0
 11
204.9375
 21
105.4368332311823
 31
0.0
  0
LINE
  5
37E
330
6F
100
AcDbEntity
  8
bottom_outsideCutPath
100
AcDbLine
 10
204.9375
 20
105.4368332311823
 30
0.0
 11
204.9375
 21
102.4368332311823
 31
0.0
  0
LINE
  5
37F
330
6F
100
AcDbEntity
  8
bottom_outsideCutPath
100
AcDbLine
 10
204.9375
 20
102.4368332311823
 30
0.0
 11
219.5625
 21
102.4368332311823
 31
0.0
  0
LINE
  5
380
330
6F
100
AcDbEntity
  8
bottom_outsideCutPath
100
AcDbLine
 10
219.5625
 20
102.4368332311823
 30
0.0
 11
219.5625
 21
105.4368332311823
 31
0.0
  0
LINE
  5
381
330
6F
100
AcDbEntity
  8
bottom_outsideCutPath
100
AcDbLine
 10
219.5625
 20
105.4368332311823
 30
0.0
 11
234.1875
 21
105.4368332311823
 31
0.0
  0
LINE
  5
382
330
6F
100
AcDbEntity
  8
bottom_outsideCutPath
100
AcDbLine
 10
234.1875
 20
105.4368332311823
 30
0.0
 11
234.1875
 21
102.4368332311823
 31
0.0
  0
LINE
  5
383
330
6F
100
AcDbEntity
  8
bottom_outsideCutPath
100
AcDbLine
 10
234.1875
 20
102.4368332311823
 30
0.0
 11
248.8125
 21
102.4368332311823
 31
0.0
  0
LINE
  5
384
330
6F
100
AcDbEntity
  8
bottom_outsideCutPath
100
AcDbLine
 10
248.8125
 20
102.4368332311823
 30
0.0
 11
248.8125
 21
105.4368332311823
 31
0.0
  0
LINE
  5
385
330
6F
100
AcDbEntity
  8
bottom_outsideCutPath
100
AcDbLine
 10
248.8125
 20
105.4368332311823
 30
0.0
 11
263.4375
 21
105.4368332311823
 31
0.0
  0
LINE
  5
386
330
6F
100
AcDbEntity
  8
bottom_outsideCutPath
100
AcDbLine
 10
263.4375
 20
105.4368332311823
 30
0.0
 11
263.4375
 21
102.4368332311823
 31
0.0
  0
LINE
  5
387
330
6F
100
AcDbEntity
  8
bottom_outsideCutPath
100
AcDbLine
 10
263.4375
 20
102.4368332311823
 30
0.0
 11
278.0625
 21
102.4368332311823
 31
0.0
  0
LINE
  5
388
330
6F
100
AcDbEntity
  8
bottom_outsideCutPath
100
AcDbLine
 10
278.0625
 20
102.4368332311823
 30
0.0
 11
278.0625
 21
105.4368332311823
 31
0.0
  0
LINE
  5
389
330
6F
100
AcDbEntity
  8
bottom_outsideCutPath
100
AcDbLine
 10
278.0625
 20
105.4368332311823
 30
0.0
 11
292.6875
 21
105.4368332311823
 31
0.0
  0
LINE
  5
38A
330
6F
100
AcDbEntity
  8
bottom_outsideCutPath
100
AcDbLine
 10
292.6875
 20
105.4368332311823
 30
0.0
 11
292.6875
 21
102.4368332311823
 31
0.0
  0
LINE
  5
38B
330
6F
100
AcDbEntity
  8
bottom_outsideCutPath
100
AcDbLine
 10
292.6875
 20
102.4368332311823
 30
0.0
 11
307.3125
 21
102.4368332311823
 31
0.0
  0
LINE
  5
38C
330
6F
100
AcDbEntity
  8
bottom_outsideCutPath
100
AcDbLine
 10
307.3125
 20
102.4368332311823
 30
0.0
 11
307.3125
 21
105.4368332311823
 31
0.0
  0
LINE
  5
38D
330
6F
100
AcDbEntity
  8
bottom_outsideCutPath
100
AcDbLine
 10
307.3125
 20
105.4368332311823
 30
0.0
 11
330.0
 21
105.4368332311823
 31
0.0
  0
LINE
  5
38F
330
6F
100
AcDbEntity
  8
bottom_outsideCutPath
100
AcDbLine
 10
330.0
 20
105.4368332311823
 30
0.0
 11
330.0
 21
110.1243332311823
 31
0.0
  0
LINE
  5
390
330
6F
100
AcDbEntity
  8
bottom_outsideCutPath
100
AcDbLine
 10
330.0
 20
110.1243332311823
 30
0.0
 11
333.0
 21
110.1243332311823
 31
0.0
  0
LINE
  5
391
330
6F
100
AcDbEntity
  8
bottom_outsideCutPath
100
AcDbLine
 10
333.0
 20
110.1243332311823
 30
0.0
 11
333.0
 21
124.7493332311823
 31
0.0
  0
LINE
  5
392
330
6F
100
AcDbEntity
  8
bottom_outsideCutPath
100
AcDbLine
 10
333.0
 20
124.7493332311823
 30
0.0
 11
330.0
 21
124.7493332311823
 31
0.0
  0
LINE
  5
393
330
6F
100
AcDbEntity
  8
bottom_outsideCutPath
100
AcDbLine
 10
330.0
 20
124.7493332311823
 30
0.0
 11
330.0
 21
129.4368332311823
 31
0.0
  0
LINE
  5
394
330
6F
100
AcDbEntity
  8
bottom_outsideCutPath
100
AcDbLine
 10
330.0
 20
129.4368332311823
 30
0.0
 11
307.3125
 21
129.4368332311823
 31
0.0
  0
LINE
  5
395
330
6F
100
AcDbEntity
  8
bottom_outsideCutPath
100
AcDbLine
 10
307.3125
 20
129.4368332311823
 30
0.0
 11
307.3125
 21
132.4368332311823
 31
0.0
  0
LINE
  5
396
330
6F
100
AcDbEntity
  8
bottom_outsideCutPath
100
AcDbLine
 10
307.3125
 20
132.4368332311823
 30
0.0
 11
292.6875
 21
132.4368332311823
 31
0.0
  0
LINE
  5
397
330
6F
100
AcDbEntity
  8
bottom_outsideCutPath
100
AcDbLine
 10
292.6875
 20
132.4368332311823
 30
0.0
 11
292.6875
 21
129.4368332311823
 31
0.0
  0
LINE
  5
398
330
6F
100
AcDbEntity
  8
bottom_outsideCutPath
100
AcDbLine
 10
292.6875
 20
129.4368332311823
 30
0.0
 11
278.0625
 21
129.4368332311823
 31
0.0
  0
LINE
  5
399
330
6F
100
AcDbEntity
  8
bottom_outsideCutPath
100
AcDbLine
 10
278.0625
 20
129.4368332311823
 30
0.0
 11
278.0625
 21
132.4368332311823
 31
0.0
  0
LINE
  5
39A
330
6F
100
AcDbEntity
  8
bottom_outsideCutPath
100
AcDbLine
 10
278.0625
 20
132.4368332311823
 30
0.0
 11
263.4375
 21
132.4368332311823
 31
0.0
  0
LINE
  5
39B
330
6F
100
AcDbEntity
  8
bottom_outsideCutPath
100
AcDbLine
 10
263.4375
 20
132.4368332311823
 30
0.0
 11
263.4375
 21
129.4368332311823
 31
0.0
  0
LINE
  5
39C
330
6F
100
AcDbEntity
  8
bottom_outsideCutPath
100
AcDbLine
 10
263.4375
 20
129.4368332311823
 30
0.0
 11
248.8125
 21
129.4368332311823
 31
0.0
  0
LINE
  5
39D
330
6F
100
AcDbEntity
  8
bottom_outsideCutPath
100
AcDbLine
 10
248.8125
 20
129.4368332311823
 30
0.0
 11
248.8125
 21
132.4368332311823
 31
0.0
  0
LINE
  5
39E
330
6F
100
AcDbEntity
  8
bottom_outsideCutPath
100
AcDbLine
 10
248.8125
 20
132.4368332311823
 30
0.0
 11
234.1875
 21
132.4368332311823
 31
0.0
  0
LINE
  5
39F
330
6F
100
AcDbEntity
  8
bottom_outsideCutPath
100
AcDbLine
 10
234.1875
 20
132.4368332311823
 30
0.0
 11
234.1875
 21
129.4368332311823
 31
0.0
  0
LINE
  5
3A0
330
6F
100
AcDbEntity
  8
bottom_outsideCutPath
100
AcDbLine
 10
234.1875
 20
129.4368332311823
 30
0.0
 11
219.5625
 21
129.4368332311823
 31
0.0
  0
LINE
  5
3A1
330
6F
100
AcDbEntity
  8
bottom_outsideCutPath
100
AcDbLine
 10
219.5625
 20
129.4368332311823
 30
0.0
 11
219.5625
 21
132.4368332311823
 31
0.0
  0
LINE
  5
3A2
330
6F
100
AcDbEntity
  8
bottom_outsideCutPath
100
AcDbLine
 10
219.5625
 20
132.4368332311823
 30
0.0
 11
204.9375
 21
132.4368332311823
 31
0.0
  0
LINE
  5
3A3
330
6F
100
AcDbEntity
  8
bottom_outsideCutPath
100
AcDbLine
 10
204.9375
 20
132.4368332311823
 30
0.0
 11
204.9375
 21
129.4368332311823
 31
0.0
  0
LINE
  5
3A4
330
6F
100
AcDbEntity
  8
bottom_outsideCutPath
100
AcDbLine
 10
204.9375
 20
129.4368332311823
 30
0.0
 11
190.3125
 21
129.4368332311823
 31
0.0
  0
LINE
  5
3A5
330
6F
100
AcDbEntity
  8
bottom_outsideCutPath
100
AcDbLine
 10
190.3125
 20
129.4368332311823
 30
0.0
 11
190.3125
 21
132.4368332311823
 31
0.0
  0
LINE
  5
3A6
330
6F
100
AcDbEntity
  8
bottom_outsideCutPath
100
AcDbLine
 10
190.3125
 20
132.4368332311823
 30
0.0
 11
175.6875
 21
132.4368332311823
 31
0.0
  0
LINE
  5
3A7
330
6F
100
AcDbEntity
  8
bottom_outsideCutPath
100
AcDbLine
 10
175.6875
 20
132.4368332311823
 30
0.0
 11
175.6875
 21
129.4368332311823
 31
0.0
  0
LINE
  5
3A8
330
6F
100
AcDbEntity
  8
bottom_outsideCutPath
100
AcDbLine
 10
175.6875
 20
129.4368332311823
 30
0.0
 11
161.0625
 21
129.4368332311824
 31
0.0
  0
LINE
  5
3A9
330
6F
100
AcDbEntity
  8
bottom_outsideCutPath
100
AcDbLine
 10
161.0625
 20
129.4368332311824
 30
0.0
 11
161.0625
 21
132.4368332311824
 31
0.0
  0
LINE
  5
3AA
330
6F
100
AcDbEntity
  8
bottom_outsideCutPath
100
AcDbLine
 10
161.0625
 20
132.4368332311824
 30
0.0
 11
146.4375
 21
132.4368332311824
 31
0.0
  0
LINE
  5
3AB
330
6F
100
AcDbEntity
  8
bottom_outsideCutPath
100
AcDbLine
 10
146.4375
 20
132.4368332311824
 30
0.0
 11
146.4375
 21
129.4368332311824
 31
0.0
  0
LINE
  5
3AC
330
6F
100
AcDbEntity
  8
bottom_outsideCutPath
100
AcDbLine
 10
146.4375
 20
129.4368332311824
 30
0.0
 11
131.8125
 21
129.4368332311824
 31
0.0
  0
LINE
  5
3AD
330
6F
100
AcDbEntity
  8
bottom_outsideCutPath
100
AcDbLine
 10
131.8125
 20
129.4368332311824
 30
0.0
 11
131.8125
 21
132.4368332311824
 31
0.0
  0
LINE
  5
3AE
330
6F
100
AcDbEntity
  8
bottom_outsideCutPath
100
AcDbLine
 10
131.8125
 20
132.4368332311824
 30
0.0
 11
117.1875
 21
132.4368332311824
 31
0.0
  0
LINE
  5
3AF
330
6F
100
AcDbEntity
  8
bottom_outsideCutPath
100
AcDbLine
 10
117.1875
 20
132.4368332311824
 30
0.0
 11
117.1875
 21
129.4368332311824
 31
0.0
  0
LINE
  5
3B0
330
6F
100
AcDbEntity
  8
bottom_outsideCutPath
100
AcDbLine
 10
117.1875
 20
129.4368332311824
 30
0.0
 11
102.5625
 21
129.4368332311824
 31
0.0
  0
LINE
  5
3B1
330
6F
100
AcDbEntity
  8
bottom_outsideCutPath
100
AcDbLine
 10
102.5625
 20
129.4368332311824
 30
0.0
 11
102.5625
 21
132.4368332311824
 31
0.0
  0
LINE
  5
3B2
330
6F
100
AcDbEntity
  8
bottom_outsideCutPath
100
AcDbLine
 10
102.5625
 20
132.4368332311824
 30
0.0
 11
87.93750000000001
 21
132.4368332311824
 31
0.0
  0
LINE
  5
3B3
330
6F
100
AcDbEntity
  8
bottom_outsideCutPath
100
AcDbLine
 10
87.93750000000001
 20
132.4368332311824
 30
0.0
 11
87.93750000000001
 21
129.4368332311824
 31
0.0
  0
LINE
  5
3B4
330
6F
100
AcDbEntity
  8
bottom_outsideCutPath
100
AcDbLine
 10
87.93750000000001
 20
129.4368332311824
 30
0.0
 11
73.3125
 21
129.4368332311824
 31
0.0
  0
LINE
  5
3B5
330
6F
100
AcDbEntity
  8
bottom_outsideCutPath
100
AcDbLine
 10
73.3125
 20
129.4368332311824
 30
0.0
 11
73.3125
 21
132.4368332311824
 31
0.0
  0
LINE
  5
3B6
330
6F
100
AcDbEntity
  8
bottom_outsideCutPath
100
AcDbLine
 10
73.3125
 20
132.4368332311824
 30
0.0
 11
58.6875
 21
132.4368332311824
 31
0.0
  0
LINE
  5
3B7
330
6F
100
AcDbEntity
  8
bottom_outsideCutPath
100
AcDbLine
 10
58.6875
 20
132.4368332311824
 30
0.0
 11
58.6875
 21
129.4368332311824
 31
0.0
  0
LINE
  5
3B9
330
6F
100
AcDbEntity
  8
bottom_outsideCutPath
100
AcDbLine
 10
58.6875
 20
129.4368332311824
 30
0.0
 11
36.0
 21
129.4368332311824
 31
0.0
  0
LINE
  5
3BA
330
6F
100
AcDbEntity
  8
bottom_outsideCutPath
100
AcDbLine
 10
36.0
 20
129.4368332311824
 30
0.0
 11
36.0
 21
124.7493332311824
 31
0.0
  0
LINE
  5
3BB
330
6F
100
AcDbEntity
  8
bottom_outsideCutPath
100
AcDbLine
 10
36.0
 20
124.7493332311824
 30
0.0
 11
33.0
 21
124.7493332311824
 31
0.0
  0
LINE
  5
3BC
330
6F
100
AcDbEntity
  8
bottom_outsideCutPath
100
AcDbLine
 10
33.0
 20
124.7493332311824
 30
0.0
 11
33.0
 21
110.1243332311824
 31
0.0
  0
LINE
  5
3BD
330
6F
100
AcDbEntity
  8
bottom_outsideCutPath
100
AcDbLine
 10
33.0
 20
110.1243332311824
 30
0.0
 11
36.0
 21
110.1243332311824
 31
0.0
  0
LINE
  5
3BE
330
6F
100
AcDbEntity
  8
bottom_outsideCutPath
100
AcDbLine
 10
36.0
 20
110.1243332311824
 30
0.0
 11
36.0
 21
105.4368332311824
 31
0.0
  0
LINE
  5
3BF
330
6F
100
AcDbEntity
  8
bottom_outsideCutPath
100
AcDbLine
 10
36.0
 20
105.4368332311824
 30
0.0
 11
58.6875
 21
105.4368332311824
 31
0.0
  0
LINE
  5
3C0
330
6F
100
AcDbEntity
  8
right_outsideCutPath
100
AcDbLine
 10
36.0
 20
58.3125
 30
0.0
 11
33.0
 21
58.3125
 31
0.0
  0
LINE
  5
3C1
330
6F
100
AcDbEntity
  8
right_outsideCutPath
100
AcDbLine
 10
33.0
 20
58.3125
 30
0.0
 11
33.0
 21
43.6875
 31
0.0
  0
LINE
  5
3C2
330
6F
100
AcDbEntity
  8
right_outsideCutPath
100
AcDbLine
 10
33.0
 20
43.6875
 30
0.0
 11
36.0
 21
43.6875
 31
0.0
  0
LINE
  5
3C3
330
6F
100
AcDbEntity
  8
right_outsideCutPath
100
AcDbLine
 10
36.0
 20
43.6875
 30
0.0
 11
36.0
 21
36.0
 31
0.0
  0
LINE
  5
3C4
330
6F
100
AcDbEntity
  8
right_outsideCutPath
100
AcDbLine
 10
36.0
 20
36.0
 30
0.0
 11
58.6875
 21
36.0
 31
0.0
  0
LINE
  5
3C5
330
6F
100
AcDbEntity
  8
right_outsideCutPath
100
AcDbLine
 10
58.6875
 20
36.0
 30
0.0
 11
58.6875
 21
39.0
 31
0.0
  0
LINE
  5
3C6
330
6F
100
AcDbEntity
  8
right_outsideCutPath
100
AcDbLine
 10
58.6875
 20
39.0
 30
0.0
 11
73.3125
 21
39.0
 31
0.0
  0
LINE
  5
3C7
330
6F
100
AcDbEntity
  8
right_outsideCutPath
100
AcDbLine
 10
73.3125
 20
39.0
 30
0.0
 11
73.3125
 21
36.0
 31
0.0
  0
LINE
  5
3C8
330
6F
100
AcDbEntity
  8
right_outsideCutPath
100
AcDbLine
 10
73.3125
 20
36.0
 30
0.0
 11
87.93750000000001
 21
36.0
 31
0.0
  0
LINE
  5
3C9
330
6F
100
AcDbEntity
  8
right_outsideCutPath
100
AcDbLine
 10
87.93750000000001
 20
36.0
 30
0.0
 11
87.93750000000001
 21
39.0
 31
0.0
  0
LINE
  5
3CA
330
6F
100
AcDbEntity
  8
right_outsideCutPath
100
AcDbLine
 10
87.93750000000001
 20
39.0
 30
0.0
 11
102.5625
 21
39.0
 31
0.0
  0
LINE
  5
3CB
330
6F
100
AcDbEntity
  8
right_outsideCutPath
100
AcDbLine
 10
102.5625
 20
39.0
 30
0.0
 11
102.5625
 21
36.0
 31
0.0
  0
LINE
  5
3CC
330
6F
100
AcDbEntity
  8
right_outsideCutPath
100
AcDbLine
 10
102.5625
 20
36.0
 30
0.0
 11
117.1875
 21
36.0
 31
0.0
  0
LINE
  5
3CD
330
6F
100
AcDbEntity
  8
right_outsideCutPath
100
AcDbLine
 10
117.1875
 20
36.0
 30
0.0
 11
117.1875
 21
39.0
 31
0.0
  0
LINE
  5
3CE
330
6F
100
AcDbEntity
  8
right_outsideCutPath
100
AcDbLine
 10
117.1875
 20
39.0
 30
0.0
 11
131.8125
 21
39.0
 31
0.0
  0
LINE
  5
3CF
330
6F
100
AcDbEntity
  8
right_outsideCutPath
100
AcDbLine
 10
131.8125
 20
39.0
 30
0.0
 11
131.8125
 21
36.0
 31
0.0
  0
LINE
  5
3D0
330
6F
100
AcDbEntity
  8
right_outsideCutPath
100
AcDbLine
 10
131.8125
 20
36.0
 30
0.0
 11
146.4375
 21
36.0
 31
0.0
  0
LINE
  5
3D1
330
6F
100
AcDbEntity
  8
right_outsideCutPath
100
AcDbLine
 10
146.4375
 20
36.0
 30
0.0
 11
146.4375
 21
39.0
 31
0.0
  0
LINE
  5
3D2
330
6F
100
AcDbEntity
  8
right_outsideCutPath
100
AcDbLine
 10
146.4375
 20
39.0
 30
0.0
 11
161.0625
 21
39.0
 31
0.0
  0
LINE
  5
3D3
330
6F
100
AcDbEntity
  8
right_outsideCutPath
100
AcDbLine
 10
161.0625
 20
39.0
 30
0.0
 11
161.0625
 21
36.0
 31
0.0
  0
LINE
  5
3D4
330
6F
100
AcDbEntity
  8
right_outsideCutPath
100
AcDbLine
 10
161.0625
 20
36.0
 30
0.0
 11
175.6875
 21
36.0
 31
0.0
  0
LINE
  5
3D5
330
6F
100
AcDbEntity
  8
right_outsideCutPath
100
AcDbLine
 10
175.6875
 20
36.0
 30
0.0
 11
175.6875
 21
39.0
 31
0.0
  0
LINE
  5
3D6
330
6F
100
AcDbEntity
  8
right_outsideCutPath
100
AcDbLine
 10
175.6875
 20
39.0
 30
0.0
 11
190.3125
 21
39.0
 31
0.0
  0
LINE
  5
3D7
330
6F
100
AcDbEntity
  8
right_outsideCutPath
100
AcDbLine
 10
190.3125
 20
39.0
 30
0.0
 11
190.3125
 21
36.0
 31
0.0
  0
LINE
  5
3D8
330
6F
100
AcDbEntity
  8
right_outsideCutPath
100
AcDbLine
 10
190.3125
 20
36.0
 30
0.0
 11
204.9375
 21
36.0
 31
0.0
  0
LINE
  5
3D9
330
6F
100
AcDbEntity
  8
right_outsideCutPath
100
AcDbLine
 10
204.9375
 20
36.0
 30
0.0
 11
204.9375
 21
39.0
 31
0.0
  0
LINE
  5
3DA
330
6F
100
AcDbEntity
  8
right_outsideCutPath
100
AcDbLine
 10
204.9375
 20
39.0
 30
0.0
 11
219.5625
 21
39.0
 31
0.0
  0
LINE
  5
3DB
330
6F
100
AcDbEntity
  8
right_outsideCutPath
100
AcDbLine
 10
219.5625
 20
39.0
 30
0.0
 11
219.5625
 21
36.0
 31
0.0
  0
LINE
  5
3DC
330
6F
100
AcDbEntity
  8
right_outsideCutPath
100
AcDbLine
 10
219.5625
 20
36.0
 30
0.0
 11
234.1875
 21
36.0
 31
0.0
  0
LINE
  5
3DD
330
6F
100
AcDbEntity
  8
right_outsideCutPath
100
AcDbLine
 10
234.1875
 20
36.0
 30
0.0
 11
234.1875
 21
39.0
 31
0.0
  0
LINE
  5
3DE
330
6F
100
AcDbEntity
  8
right_outsideCutPath
100
AcDbLine
 10
234.1875
 20
39.0
 30
0.0
 11
248.8125
 21
39.0
 31
0.0
  0
LINE
  5
3DF
330
6F
100
AcDbEntity
  8
right_outsideCutPath
100
AcDbLine
 10
248.8125
 20
39.0
 30
0.0
 11
248.8125
 21
36.0
 31
0.0
  0
LINE
  5
3E0
330
6F
100
AcDbEntity
  8
right_outsideCutPath
100
AcDbLine
 10
248.8125
 20
36.0
 30
0.0
 11
263.4375
 21
36.0
 31
0.0
  0
LINE
  5
3E1
330
6F
100
AcDbEntity
  8
right_outsideCutPath
100
AcDbLine
 10
263.4375
 20
36.0
 30
0.0
 11
263.4375
 21
39.0
 31
0.0
  0
LINE
  5
3E2
330
6F
100
AcDbEntity
  8
right_outsideCutPath
100
AcDbLine
 10
263.4375
 20
39.0
 30
0.0
 11
278.0625
 21
39.0
 31
0.0
  0
LINE
  5
3E3
330
6F
100
AcDbEntity
  8
right_outsideCutPath
100
AcDbLine
 10
278.0625
 20
39.0
 30
0.0
 11
278.0625
 21
36.0
 31
0.0
  0
LINE
  5
3E4
330
6F
100
AcDbEntity
  8
right_outsideCutPath
100
AcDbLine
 10
278.0625
 20
36.0
 30
0.0
 11
292.6875
 21
36.0
 31
0.0
  0
LINE
  5
3E5
330
6F
100
AcDbEntity
  8
right_outsideCutPath
100
AcDbLine
 10
292.6875
 20
36.0
 30
0.0
 11
292.6875
 21
39.0
 31
0.0
  0
LINE
  5
3E6
330
6F
100
AcDbEntity
  8
right_outsideCutPath
100
AcDbLine
 10
292.6875
 20
39.0
 30
0.0
 11
307.3125
 21
39.0
 31
0.0
  0
LINE
  5
3E7
330
6F
100
AcDbEntity
  8
right_outsideCutPath
100
AcDbLine
 10
307.3125
 20
39.0
 30
0.0
 11
307.3125
 21
36.0
 31
0.0
  0
LINE
  5
3E8
330
6F
100
AcDbEntity
  8
right_outsideCutPath
100
AcDbLine
 10
307.3125
 20
36.0
 30
0.0
 11
330.0
 21
36.0
 31
0.0
  0
LINE
  5
3EA
330
6F
100
AcDbEntity
  8
right_outsideCutPath
100
AcDbLine
 10
330.0
 20
36.0
 30
0.0
 11
330.0
 21
43.6875
 31
0.0
  0
LINE
  5
3EB
330
6F
100
AcDbEntity
  8
right_outsideCutPath
100
AcDbLine
 10
330.0
 20
43.6875
 30
0.0
 11
333.0
 21
43.6875
 31
0.0
  0
LINE
  5
3EC
330
6F
100
AcDbEntity
  8
right_outsideCutPath
100
AcDbLine
 10
333.0
 20
43.6875
 30
0.0
 11
333.0
 21
58.3125
 31
0.0
  0
LINE
  5
3ED
330
6F
100
AcDbEntity
  8
right_outsideCutPath
100
AcDbLine
 10
333.0
 20
58.3125
 30
0.0
 11
330.0
 21
58.3125
 31
0.0
  0
LINE
  5
3EE
330
6F
100
AcDbEntity
  8
right_outsideCutPath
100
AcDbLine
 10
330.0
 20
58.3125
 30
0.0
 11
330.0
 21
66.0
 31
0.0
  0
LINE
  5
3EF
330
6F
100
AcDbEntity
  8
right_outsideCutPath
100
AcDbLine
 10
330.0
 20
66.0
 30
0.0
 11
307.3125
 21
66.0
 31
0.0
  0
LINE
  5
3F0
330
6F
100
AcDbEntity
  8
right_outsideCutPath
100
AcDbLine
 10
307.3125
 20
66.0
 30
0.0
 11
307.3125
 21
63.0
 31
0.0
  0
LINE
  5
3F1
330
6F
100
AcDbEntity
  8
right_outsideCutPath
100
AcDbLine
 10
307.3125
 20
63.0
 30
0.0
 11
292.6875
 21
63.0
 31
0.0
  0
LINE
  5
3F2
330
6F
100
AcDbEntity
  8
right_outsideCutPath
100
AcDbLine
 10
292.6875
 20
63.0
 30
0.0
 11
292.6875
 21
66.0
 31
0.0
  0
LINE
  5
3F3
330
6F
100
AcDbEntity
  8
right_outsideCutPath
100
AcDbLine
 10
292.6875
 20
66.0
 30
0.0
 11
278.0625
 21
66.0
 31
0.0
  0
LINE
  5
3F4
330
6F
100
AcDbEntity
  8
right_outsideCutPath
100
AcDbLine
 10
278.0625
 20
66.0
 30
0.0
 11
278.0625
 21
63.0
 31
0.0
  0
LINE
  5
3F5
330
6F
100
AcDbEntity
  8
right_outsideCutPath
100
AcDbLine
 10
278.0625
 20
63.0
 30
0.0
 11
263.4375
 21
63.0
 31
0.0
  0
LINE
  5
3F6
330
6F
100
AcDbEntity
  8
right_outsideCutPath
100
AcDbLine
 10
263.4375
 20
63.0
 30
0.0
 11
263.4375
 21
66.0
 31
0.0
  0
LINE
  5
3F7
330
6F
100
AcDbEntity
  8
right_outsideCutPath
100
AcDbLine
 10
263.4375
 20
66.0
 30
0.0
 11
248.8125
 21
66.0
 31
0.0
  0
LINE
  5
3F8
330
6F
100
AcDbEntity
  8
right_outsideCutPath
100
AcDbLine
 10
248.8125
 20
66.0
 30
0.0
 11
248.8125
 21
63.0
 31
0.0
  0
LINE
  5
3F9
330
6F
100
AcDbEntity
  8
right_outsideCutPath
100
AcDbLine
 10
248.8125
 20
63.0
 30
0.0
 11
234.1875
 21
63.0
 31
0.0
  0
LINE
  5
3FA
330
6F
100
AcDbEntity
  8
right_outsideCutPath
100
AcDbLine
 10
234.1875
 20
63.0
 30
0.0
 11
234.1875
 21
66.0
 31
0.0
  0
LINE
  5
3FB
330
6F
100
AcDbEntity
  8
right_outsideCutPath
100
AcDbLine
 10
234.1875
 20
66.0
 30
0.0
 11
219.5625
 21
66.0
 31
0.0
  0
LINE
  5
3FC
330
6F
100
AcDbEntity
  8
right_outsideCutPath
100
AcDbLine
 10
219.5625
 20
66.0
 30
0.0
 11
219.5625
 21
63.0
 31
0.0
  0
LINE
  5
3FD
330
6F
100
AcDbEntity
  8
right_outsideCutPath
100
AcDbLine
 10
219.5625
 20
63.0
 30
0.0
 11
204.9375
 21
63.0
 31
0.0
  0
LINE
  5
3FE
330
6F
100
AcDbEntity
  8
right_outsideCutPath
100
AcDbLine
 10
204.9375
 20
63.0
 30
0.0
 11
204.9375
 21
66.0
 31
0.0
  0
LINE
  5
3FF
330
6F
100
AcDbEntity
  8
right_outsideCutPath
100
AcDbLine
 10
204.9375
 20
66.0
 30
0.0
 11
190.3125
 21
66.0
 31
0.0
  0
LINE
  5
400
330
6F
100
AcDbEntity
  8
right_outsideCutPath
100
AcDbLine
 10
190.3125
 20
66.0
 30
0.0
 11
190.3125
 21
63.0
 31
0.0
  0
LINE
  5
401
330
6F
100
AcDbEntity
  8
right_outsideCutPath
100
AcDbLine
 10
190.3125
 20
63.0
 30
0.0
 11
175.6875
 21
63.0
 31
0.0
  0
LINE
  5
402
330
6F
100
AcDbEntity
  8
right_outsideCutPath
100
AcDbLine
 10
175.6875
 20
63.0
 30
0.0
 11
175.6875
 21
66.0
 31
0.0
  0
LINE
  5
403
330
6F
100
AcDbEntity
  8
right_outsideCutPath
100
AcDbLine
 10
175.6875
 20
66.0
 30
0.0
 11
161.0625
 21
66.0
 31
0.0
  0
LINE
  5
404
330
6F
100
AcDbEntity
  8
right_outsideCutPath
100
AcDbLine
 10
161.0625
 20
66.0
 30
0.0
 11
161.0625
 21
63.0
 31
0.0
  0
LINE
  5
405
330
6F
100
AcDbEntity
  8
right_outsideCutPath
100
AcDbLine
 10
161.0625
 20
63.0
 30
0.0
 11
146.4375
 21
63.0
 31
0.0
  0
LINE
  5
406
330
6F
100
AcDbEntity
  8
right_outsideCutPath
100
AcDbLine
 10
146.4375
 20
63.0
 30
0.0
 11
146.4375
 21
66.0
 31
0.0
  0
LINE
  5
407
330
6F
100
AcDbEntity
  8
right_outsideCutPath
100
AcDbLine
 10
146.4375
 20
66.0
 30
0.0
 11
131.8125
 21
66.0
 31
0.0
  0
LINE
  5
408
330
6F
100
AcDbEntity
  8
right_outsideCutPath
100
AcDbLine
 10
131.8125
 20
66.0
 30
0.0
 11
131.8125
 21
63.0
 31
0.0
  0
LINE
  5
409
330
6F
100
AcDbEntity
  8
right_outsideCutPath
100
AcDbLine
 10
131.8125
 20
63.0
 30
0.0
 11
117.1875
 21
63.0
 31
0.0
  0
LINE
  5
40A
330
6F
100
AcDbEntity
  8
right_outsideCutPath
100
AcDbLine
 10
117.1875
 20
63.0
 30
0.0
 11
117.1875
 21
66.0
 31
0.0
  0
LINE
  5
40B
330
6F
100
AcDbEntity
  8
right_outsideCutPath
100
AcDbLine
 10
117.1875
 20
66.0
 30
0.0
 11
102.5625
 21
66.0
 31
0.0
  0
LINE
  5
40C
330
6F
100
AcDbEntity
  8
right_outsideCutPath
100
AcDbLine
 10
102.5625
 20
66.0
 30
0.0
 11
102.5625
 21
63.0
 31
0.0
  0
LINE
  5
40D
330
6F
100
AcDbEntity
  8
right_outsideCutPath
100
AcDbLine
 10
102.5625
 20
63.0
 30
0.0
 11
87.93750000000001
 21
63.0
 31
0.0
  0
LINE
  5
40E
330
6F
100
AcDbEntity
  8
right_outsideCutPath
100
AcDbLine
 10
87.93750000000001
 20
63.0
 30
0.0
 11
87.93750000000001
 21
66.0
 31
0.0
  0
LINE
  5
40F
330
6F
100
AcDbEntity
  8
right_outsideCutPath
100
AcDbLine
 10
87.93750000000001
 20
66.0
 30
0.0
 11
73.3125
 21
66.0
 31
0.0
  0
LINE
  5
410
330
6F
100
AcDbEntity
  8
right_outsideCutPath
100
AcDbLine
 10
73.3125
 20
66.0
 30
0.0
 11
73.3125
 21
63.0
 31
0.0
  0
LINE
  5
411
330
6F
100
AcDbEntity
  8
right_outsideCutPath
100
AcDbLine
 10
73.3125
 20
63.0
 30
0.0
 11
58.6875
 21
63.0
 31
0.0
  0
LINE
  5
412
330
6F
100
AcDbEntity
  8
right_outsideCutPath
100
AcDbLine
 10
58.6875
 20
63.0
 30
0.0
 11
58.6875
 21
66.0
 31
0.0
  0
LINE
  5
414
330
6F
100
AcDbEntity
  8
right_outsideCutPath
100
AcDbLine
 10
58.6875
 20
66.0
 30
0.0
 11
36.0
 21
66.0
 31
0.0
  0
LINE
  5
415
330
6F
100
AcDbEntity
  8
right_outsideCutPath
100
AcDbLine
 10
36.0
 20
66.0
 30
0.0
 11
36.0
 21
58.3125
 31
0.0
  0
LINE
  5
416
330
6F
100
AcDbEntity
  8
back_outsideCutPath
100
AcDbLine
 10
0.0
 20
58.3125
 30
0.0
 11
3.0
 21
58.3125
 31
0.0
  0
LINE
  5
417
330
6F
100
AcDbEntity
  8
back_outsideCutPath
100
AcDbLine
 10
3.0
 20
58.3125
 30
0.0
 11
3.0
 21
43.6875
 31
0.0
  0
LINE
  5
418
330
6F
100
AcDbEntity
  8
back_outsideCutPath
100
AcDbLine
 10
3.0
 20
43.6875
 30
0.0
 11
0.0
 21
43.6875
 31
0.0
  0
LINE
  5
419
330
6F
100
AcDbEntity
  8
back_outsideCutPath
100
AcDbLine
 10
0.0
 20
43.6875
 30
0.0
 11
0.0
 21
36.0
 31
0.0
  0
LINE
  5
41A
330
6F
100
AcDbEntity
  8
back_outsideCutPath
100
AcDbLine
 10
0.0
 20
36.0
 30
0.0
 11
7.6875
 21
36.0
 31
0.0
  0
LINE
  5
41B
330
6F
100
AcDbEntity
  8
back_outsideCutPath
100
AcDbLine
 10
7.6875
 20
36.0
 30
0.0
 11
7.6875
 21
39.0
 31
0.0
  0
LINE
  5
41C
330
6F
100
AcDbEntity
  8
back_outsideCutPath
100
AcDbLine
 10
7.6875
 20
39.0
 30
0.0
 11
22.3125
 21
39.0
 31
0.0
  0
LINE
  5
41D
330
6F
100
AcDbEntity
  8
back_outsideCutPath
100
AcDbLine
 10
22.3125
 20
39.0
 30
0.0
 11
22.3125
 21
36.0
 31
0.0
  0
LINE
  5
41E
330
6F
100
AcDbEntity
  8
back_outsideCutPath
100
AcDbLine
 10
22.3125
 20
36.0
 30
0.0
 11
30.0
 21
36.0
 31
0.0
  0
LINE
  5
41F
330
6F
100
AcDbEntity
  8
back_outsideCutPath
100
AcDbLine
 10
30.0
 20
36.0
 30
0.0
 11
30.0
 21
43.6875
 31
0.0
  0
LINE
  5
420
330
6F
100
AcDbEntity
  8
back_outsideCutPath
100
AcDbLine
 10
30.0
 20
43.6875
 30
0.0
 11
27.0
 21
43.6875
 31
0.0
  0
LINE
  5
421
330
6F
100
AcDbEntity
  8
back_outsideCutPath
100
AcDbLine
 10
27.0
 20
43.6875
 30
0.0
 11
27.0
 21
58.3125
 31
0.0
  0
LINE
  5
422
330
6F
100
AcDbEntity
  8
back_outsideCutPath
100
AcDbLine
 10
27.0
 20
58.3125
 30
0.0
 11
30.0
 21
58.3125
 31
0.0
  0
LINE
  5
423
330
6F
100
AcDbEntity
  8
back_outsideCutPath
100
AcDbLine
 10
30.0
 20
58.3125
 30
0.0
 11
30.0
 21
66.0
 31
0.0
  0
LINE
  5
424
330
6F
100
AcDbEntity
  8
back_outsideCutPath
100
AcDbLine
 10
30.0
 20
66.0
 30
0.0
 11
22.3125
 21
66.0
 31
0.0
  0
LINE
  5
425
330
6F
100
AcDbEntity
  8
back_outsideCutPath
100
AcDbLine
 10
22.3125
 20
66.0
 30
0.0
 11
22.3125
 21
63.0
 31
0.0
  0
LINE
  5
426
330
6F
100
AcDbEntity
  8
back_outsideCutPath
100
AcDbLine
 10
22.3125
 20
63.0
 30
0.0
 11
7.6875
 21
63.0
 31
0.0
  0
LINE
  5
427
330
6F
100
AcDbEntity
  8
back_outsideCutPath
100
AcDbLine
 10
7.6875
 20
63.0
 30
0.0
 11
7.6875
 21
66.0
 31
0.0
  0
LINE
  5
428
330
6F
100
AcDbEntity
  8
back_outsideCutPath
100
AcDbLine
 10
7.6875
 20
66.0
 30
0.0
 11
0.0
 21
66.0
 31
0.0
  0
LINE
  5
429
330
6F
100
AcDbEntity
  8
back_outsideCutPath
100
AcDbLine
 10
0.0
 20
66.0
 30
0.0
 11
0.0
 21
58.3125
 31
0.0
  0
LINE
  5
42A
330
6F
100
AcDbEntity
  8
top_outsideCutPath
100
AcDbLine
 10
58.6875
 20
72.08845783543711
 30
0.0
 11
58.6875
 21
69.08845783543711
 31
0.0
  0
LINE
  5
42B
330
6F
100
AcDbEntity
  8
top_outsideCutPath
100
AcDbLine
 10
58.6875
 20
69.08845783543711
 30
0.0
 11
73.3125
 21
69.08845783543711
 31
0.0
  0
LINE
  5
42C
330
6F
100
AcDbEntity
  8
top_outsideCutPath
100
AcDbLine
 10
73.3125
 20
69.08845783543711
 30
0.0
 11
73.3125
 21
72.08845783543711
 31
0.0
  0
LINE
  5
42D
330
6F
100
AcDbEntity
  8
top_outsideCutPath
100
AcDbLine
 10
73.3125
 20
72.08845783543711
 30
0.0
 11
87.93750000000001
 21
72.08845783543711
 31
0.0
  0
LINE
  5
42E
330
6F
100
AcDbEntity
  8
top_outsideCutPath
100
AcDbLine
 10
87.93750000000001
 20
72.08845783543711
 30
0.0
 11
87.93750000000001
 21
69.08845783543711
 31
0.0
  0
LINE
  5
42F
330
6F
100
AcDbEntity
  8
top_outsideCutPath
100
AcDbLine
 10
87.93750000000001
 20
69.08845783543711
 30
0.0
 11
102.5625
 21
69.08845783543711
 31
0.0
  0
LINE
  5
430
330
6F
100
AcDbEntity
  8
top_outsideCutPath
100
AcDbLine
 10
102.5625
 20
69.08845783543711
 30
0.0
 11
102.5625
 21
72.08845783543711
 31
0.0
  0
LINE
  5
431
330
6F
100
AcDbEntity
  8
top_outsideCutPath
100
AcDbLine
 10
102.5625
 20
72.08845783543711
 30
0.0
 11
117.1875
 21
72.08845783543711
 31
0.0
  0
LINE
  5
432
330
6F
100
AcDbEntity
  8
top_outsideCutPath
100
AcDbLine
 10
117.1875
 20
72.08845783543711
 30
0.0
 11
117.1875
 21
69.08845783543711
 31
0.0
  0
LINE
  5
433
330
6F
100
AcDbEntity
  8
top_outsideCutPath
100
AcDbLine
 10
117.1875
 20
69.08845783543711
 30
0.0
 11
131.8125
 21
69.08845783543711
 31
0.0
  0
LINE
  5
434
330
6F
100
AcDbEntity
  8
top_outsideCutPath
100
AcDbLine
 10
131.8125
 20
69.08845783543711
 30
0.0
 11
131.8125
 21
72.08845783543711
 31
0.0
  0
LINE
  5
435
330
6F
100
AcDbEntity
  8
top_outsideCutPath
100
AcDbLine
 10
131.8125
 20
72.08845783543711
 30
0.0
 11
146.4375
 21
72.08845783543711
 31
0.0
  0
LINE
  5
436
330
6F
100
AcDbEntity
  8
top_outsideCutPath
100
AcDbLine
 10
146.4375
 20
72.08845783543711
 30
0.0
 11
146.4375
 21
69.08845783543711
 31
0.0
  0
LINE
  5
437
330
6F
100
AcDbEntity
  8
top_outsideCutPath
100
AcDbLine
 10
146.4375
 20
69.08845783543711
 30
0.0
 11
161.0625
 21
69.08845783543711
 31
0.0
  0
LINE
  5
438
330
6F
100
AcDbEntity
  8
top_outsideCutPath
100
AcDbLine
 10
161.0625
 20
69.08845783543711
 30
0.0
 11
161.0625
 21
72.08845783543711
 31
0.0
  0
LINE
  5
439
330
6F
100
AcDbEntity
  8
top_outsideCutPath
100
AcDbLine
 10
161.0625
 20
72.08845783543711
 30
0.0
 11
175.6875
 21
72.08845783543711
 31
0.0
  0
LINE
  5
43A
330
6F
100
AcDbEntity
  8
top_outsideCutPath
100
AcDbLine
 10
175.6875
 20
72.08845783543711
 30
0.0
 11
175.6875
 21
69.08845783543711
 31
0.0
  0
LINE
  5
43B
330
6F
100
AcDbEntity
  8
top_outsideCutPath
100
AcDbLine
 10
175.6875
 20
69.08845783543711
 30
0.0
 11
190.3125
 21
69.08845783543711
 31
0.0
  0
LINE
  5
43C
330
6F
100
AcDbEntity
  8
top_outsideCutPath
100
AcDbLine
 10
190.3125
 20
69.08845783543711
 30
0.0
 11
190.3125
 21
72.08845783543711
 31
0.0
  0
LINE
  5
43D
330
6F
100
AcDbEntity
  8
top_outsideCutPath
100
AcDbLine
 10
190.3125
 20
72.08845783543711
 30
0.0
 11
204.9375
 21
72.08845783543711
 31
0.0
  0
LINE
  5
43E
330
6F
100
AcDbEntity
  8
top_outsideCutPath
100
AcDbLine
 10
204.9375
 20
72.08845783543711
 30
0.0
 11
204.9375
 21
69.08845783543711
 31
0.0
  0
LINE
  5
43F
330
6F
100
AcDbEntity
  8
top_outsideCutPath
100
AcDbLine
 10
204.9375
 20
69.08845783543711
 30
0.0
 11
219.5625
 21
69.08845783543711
 31
0.0
  0
LINE
  5
440
330
6F
100
AcDbEntity
  8
top_outsideCutPath
100
AcDbLine
 10
219.5625
 20
69.08845783543711
 30
0.0
 11
219.5625
 21
72.08845783543711
 31
0.0
  0
LINE
  5
441
330
6F
100
AcDbEntity
  8
top_outsideCutPath
100
AcDbLine
 10
219.5625
 20
72.08845783543711
 30
0.0
 11
234.1875
 21
72.08845783543711
 31
0.0
  0
LINE
  5
442
330
6F
100
AcDbEntity
  8
top_outsideCutPath
100
AcDbLine
 10
234.1875
 20
72.08845783543711
 30
0.0
 11
234.1875
 21
69.08845783543711
 31
0.0
  0
LINE
  5
443
330
6F
100
AcDbEntity
  8
top_outsideCutPath
100
AcDbLine
 10
234.1875
 20
69.08845783543711
 30
0.0
 11
248.8125
 21
69.08845783543711
 31
0.0
  0
LINE
  5
444
330
6F
100
AcDbEntity
  8
top_outsideCutPath
100
AcDbLine
 10
248.8125
 20
69.08845783543711
 30
0.0
 11
248.8125
 21
72.08845783543711
 31
0.0
  0
LINE
  5
445
330
6F
100
AcDbEntity
  8
top_outsideCutPath
100
AcDbLine
 10
248.8125
 20
72.08845783543711
 30
0.0
 11
263.4375
 21
72.08845783543711
 31
0.0
  0
LINE
  5
446
330
6F
100
AcDbEntity
  8
top_outsideCutPath
100
AcDbLine
 10
263.4375
 20
72.08845783543711
 30
0.0
 11
263.4375
 21
69.08845783543711
 31
0.0
  0
LINE
  5
447
330
6F
100
AcDbEntity
  8
top_outsideCutPath
100
AcDbLine
 10
263.4375
 20
69.08845783543711
 30
0.0
 11
278.0625
 21
69.08845783543711
 31
0.0
  0
LINE
  5
448
330
6F
100
AcDbEntity
  8
top_outsideCutPath
100
AcDbLine
 10
278.0625
 20
69.08845783543711
 30
0.0
 11
278.0625
 21
72.08845783543711
 31
0.0
  0
LINE
  5
449
330
6F
100
AcDbEntity
  8
top_outsideCutPath
100
AcDbLine
 10
278.0625
 20
72.08845783543711
 30
0.0
 11
292.6875
 21
72.08845783543711
 31
0.0
  0
LINE
  5
44A
330
6F
100
AcDbEntity
  8
top_outsideCutPath
100
AcDbLine
 10
292.6875
 20
72.08845783543711
 30
0.0
 11
292.6875
 21
69.08845783543711
 31
0.0
  0
LINE
  5
44B
330
6F
100
AcDbEntity
  8
top_outsideCutPath
100
AcDbLine
 10
292.6875
 20
69.08845783543711
 30
0.0
 11
307.3125
 21
69.08845783543711
 31
0.0
  0
LINE
  5
44C
330
6F
100
AcDbEntity
  8
top_outsideCutPath
100
AcDbLine
 10
307.3125
 20
69.08845783543711
 30
0.0
 11
307.3125
 21
72.08845783543711
 31
0.0
  0
LINE
  5
44D
330
6F
100
AcDbEntity
  8
top_outsideCutPath
100
AcDbLine
 10
307.3125
 20
72.08845783543711
 30
0.0
 11
330.0
 21
72.08845783543711
 31
0.0
  0
LINE
  5
44F
330
6F
100
AcDbEntity
  8
top_outsideCutPath
100
AcDbLine
 10
330.0
 20
72.08845783543711
 30
0.0
 11
330.0
 21
76.77595783543711
 31
0.0
  0
LINE
  5
450
330
6F
100
AcDbEntity
  8
top_outsideCutPath
100
AcDbLine
 10
330.0
 20
76.77595783543711
 30
0.0
 11
333.0
 21
76.77595783543711
 31
0.0
  0
LINE
  5
451
330
6F
100
AcDbEntity
  8
top_outsideCutPath
100
AcDbLine
 10
333.0
 20
76.77595783543711
 30
0.0
 11
333.0
 21
91.40095783543712
 31
0.0
  0
LINE
  5
452
330
6F
100
AcDbEntity
  8
top_outsideCutPath
100
AcDbLine
 10
333.0
 20
91.40095783543712
 30
0.0
 11
330.0
 21
91.40095783543712
 31
0.0
  0
LINE
  5
453
330
6F
100
AcDbEntity
  8
top_outsideCutPath
100
AcDbLine
 10
330.0
 20
91.40095783543712
 30
0.0
 11
330.0
 21
96.08845783543712
 31
0.0
  0
LINE
  5
454
330
6F
100
AcDbEntity
  8
top_outsideCutPath
100
AcDbLine
 10
330.0
 20
96.08845783543712
 30
0.0
 11
307.3125
 21
96.08845783543712
 31
0.0
  0
LINE
  5
455
330
6F
100
AcDbEntity
  8
top_outsideCutPath
100
AcDbLine
 10
307.3125
 20
96.08845783543712
 30
0.0
 11
307.3125
 21
99.08845783543711
 31
0.0
  0
LINE
  5
456
330
6F
100
AcDbEntity
  8
top_outsideCutPath
100
AcDbLine
 10
307.3125
 20
99.08845783543711
 30
0.0
 11
292.6875
 21
99.08845783543711
 31
0.0
  0
LINE
  5
457
330
6F
100
AcDbEntity
  8
top_outsideCutPath
100
AcDbLine
 10
292.6875
 20
99.08845783543711
 30
0.0
 11
292.6875
 21
96.08845783543712
 31
0.0
  0
LINE
  5
458
330
6F
100
AcDbEntity
  8
top_outsideCutPath
100
AcDbLine
 10
292.6875
 20
96.08845783543712
 30
0.0
 11
278.0625
 21
96.08845783543712
 31
0.0
  0
LINE
  5
459
330
6F
100
AcDbEntity
  8
top_outsideCutPath
100
AcDbLine
 10
278.0625
 20
96.08845783543712
 30
0.0
 11
278.0625
 21
99.08845783543711
 31
0.0
  0
LINE
  5
45A
330
6F
100
AcDbEntity
  8
top_outsideCutPath
100
AcDbLine
 10
278.0625
 20
99.08845783543711
 30
0.0
 11
263.4375
 21
99.08845783543711
 31
0.0
  0
LINE
  5
45B
330
6F
100
AcDbEntity
  8
top_outsideCutPath
100
AcDbLine
 10
263.4375
 20
99.08845783543711
 30
0.0
 11
263.4375
 21
96.08845783543712
 31
0.0
  0
LINE
  5
45C
330
6F
100
AcDbEntity
  8
top_outsideCutPath
100
AcDbLine
 10
263.4375
 20
96.08845783543712
 30
0.0
 11
248.8125
 21
96.08845783543712
 31
0.0
  0
LINE
  5
45D
330
6F
100
AcDbEntity
  8
top_outsideCutPath
100
AcDbLine
 10
248.8125
 20
96.08845783543712
 30
0.0
 11
248.8125
 21
99.08845783543711
 31
0.0
  0
LINE
  5
45E
330
6F
100
AcDbEntity
  8
top_outsideCutPath
100
AcDbLine
 10
248.8125
 20
99.08845783543711
 30
0.0
 11
234.1875
 21
99.08845783543711
 31
0.0
  0
LINE
  5
45F
330
6F
100
AcDbEntity
  8
top_outsideCutPath
100
AcDbLine
 10
234.1875
 20
99.08845783543711
 30
0.0
 11
234.1875
 21
96.08845783543712
 31
0.0
  0
LINE
  5
460
330
6F
100
AcDbEntity
  8
top_outsideCutPath
100
AcDbLine
 10
234.1875
 20
96.08845783543712
 30
0.0
 11
219.5625
 21
96.08845783543712
 31
0.0
  0
LINE
  5
461
330
6F
100
AcDbEntity
  8
top_outsideCutPath
100
AcDbLine
 10
219.5625
 20
96.08845783543712
 30
0.0
 11
219.5625
 21
99.08845783543711
 31
0.0
  0
LINE
  5
462
330
6F
100
AcDbEntity
  8
top_outsideCutPath
100
AcDbLine
 10
219.5625
 20
99.08845783543711
 30
0.0
 11
204.9375
 21
99.08845783543711
 31
0.0
  0
LINE
  5
463
330
6F
100
AcDbEntity
  8
top_outsideCutPath
100
AcDbLine
 10
204.9375
 20
99.08845783543711
 30
0.0
 11
204.9375
 21
96.08845783543712
 31
0.0
  0
LINE
  5
464
330
6F
100
AcDbEntity
  8
top_outsideCutPath
100
AcDbLine
 10
204.9375
 20
96.08845783543712
 30
0.0
 11
190.3125
 21
96.08845783543712
 31
0.0
  0
LINE
  5
465
330
6F
100
AcDbEntity
  8
top_outsideCutPath
100
AcDbLine
 10
190.3125
 20
96.08845783543712
 30
0.0
 11
190.3125
 21
99.08845783543711
 31
0.0
  0
LINE
  5
466
330
6F
100
AcDbEntity
  8
top_outsideCutPath
100
AcDbLine
 10
190.3125
 20
99.08845783543711
 30
0.0
 11
175.6875
 21
99.08845783543711
 31
0.0
  0
LINE
  5
467
330
6F
100
AcDbEntity
  8
top_outsideCutPath
100
AcDbLine
 10
175.6875
 20
99.08845783543711
 30
0.0
 11
175.6875
 21
96.08845783543712
 31
0.0
  0
LINE
  5
468
330
6F
100
AcDbEntity
  8
top_outsideCutPath
100
AcDbLine
 10
175.6875
 20
96.08845783543712
 30
0.0
 11
161.0625
 21
96.08845783543712
 31
0.0
  0
LINE
  5
469
330
6F
100
AcDbEntity
  8
top_outsideCutPath
100
AcDbLine
 10
161.0625
 20
96.08845783543712
 30
0.0
 11
161.0625
 21
99.08845783543711
 31
0.0
  0
LINE
  5
46A
330
6F
100
AcDbEntity
  8
top_outsideCutPath
100
AcDbLine
 10
161.0625
 20
99.08845783543711
 30
0.0
 11
146.4375
 21
99.08845783543711
 31
0.0
  0
LINE
  5
46B
330
6F
100
AcDbEntity
  8
top_outsideCutPath
100
AcDbLine
 10
146.4375
 20
99.08845783543711
 30
0.0
 11
146.4375
 21
96.08845783543712
 31
0.0
  0
LINE
  5
46C
330
6F
100
AcDbEntity
  8
top_outsideCutPath
100
AcDbLine
 10
146.4375
 20
96.08845783543712
 30
0.0
 11
131.8125
 21
96.08845783543712
 31
0.0
  0
LINE
  5
46D
330
6F
100
AcDbEntity
  8
top_outsideCutPath
100
AcDbLine
 10
131.8125
 20
96.08845783543712
 30
0.0
 11
131.8125
 21
99.08845783543711
 31
0.0
  0
LINE
  5
46E
330
6F
100
AcDbEntity
  8
top_outsideCutPath
100
AcDbLine
 10
131.8125
 20
99.08845783543711
 30
0.0
 11
117.1875
 21
99.08845783543711
 31
0.0
  0
LINE
  5
46F
330
6F
100
AcDbEntity
  8
top_outsideCutPath
100
AcDbLine
 10
117.1875
 20
99.08845783543711
 30
0.0
 11
117.1875
 21
96.08845783543712
 31
0.0
  0
LINE
  5
470
330
6F
100
AcDbEntity
  8
top_outsideCutPath
100
AcDbLine
 10
117.1875
 20
96.08845783543712
 30
0.0
 11
102.5625
 21
96.08845783543712
 31
0.0
  0
LINE
  5
471
330
6F
100
AcDbEntity
  8
top_outsideCutPath
100
AcDbLine
 10
102.5625
 20
96.08845783543712
 30
0.0
 11
102.5625
 21
99.08845783543711
 31
0.0
  0
LINE
  5
472
330
6F
100
AcDbEntity
  8
top_outsideCutPath
100
AcDbLine
 10
102.5625
 20
99.08845783543711
 30
0.0
 11
87.93750000000001
 21
99.08845783543711
 31
0.0
  0
LINE
  5
473
330
6F
100
AcDbEntity
  8
top_outsideCutPath
100
AcDbLine
 10
87.93750000000001
 20
99.08845783543711
 30
0.0
 11
87.93750000000001
 21
96.08845783543712
 31
0.0
  0
LINE
  5
474
330
6F
100
AcDbEntity
  8
top_outsideCutPath
100
AcDbLine
 10
87.93750000000001
 20
96.08845783543712
 30
0.0
 11
73.3125
 21
96.08845783543712
 31
0.0
  0
LINE
  5
475
330
6F
100
AcDbEntity
  8
top_outsideCutPath
100
AcDbLine
 10
73.3125
 20
96.08845783543712
 30
0.0
 11
73.3125
 21
99.08845783543711
 31
0.0
  0
LINE
  5
476
330
6F
100
AcDbEntity
  8
top_outsideCutPath
100
AcDbLine
 10
73.3125
 20
99.08845783543711
 30
0.0
 11
58.6875
 21
99.08845783543711
 31
0.0
  0
LINE
  5
477
330
6F
100
AcDbEntity
  8
top_outsideCutPath
100
AcDbLine
 10
58.6875
 20
99.08845783543711
 30
0.0
 11
58.6875
 21
96.08845783543712
 31
0.0
  0
LINE
  5
479
330
6F
100
AcDbEntity
  8
top_outsideCutPath
100
AcDbLine
 10
58.6875
 20
96.08845783543712
 30
0.0
 11
36.0
 21
96.08845783543712
 31
0.0
  0
LINE
  5
47A
330
6F
100
AcDbEntity
  8
top_outsideCutPath
100
AcDbLine
 10
36.0
 20
96.08845783543712
 30
0.0
 11
36.0
 21
91.40095783543712
 31
0.0
  0
LINE
  5
47B
330
6F
100
AcDbEntity
  8
top_outsideCutPath
100
AcDbLine
 10
36.0
 20
91.40095783543712
 30
0.0
 11
33.0
 21
91.40095783543712
 31
0.0
  0
LINE
  5
47C
330
6F
100
AcDbEntity
  8
top_outsideCutPath
100
AcDbLine
 10
33.0
 20
91.40095783543712
 30
0.0
 11
33.0
 21
76.77595783543711
 31
0.0
  0
LINE
  5
47D
330
6F
100
AcDbEntity
  8
top_outsideCutPath
100
AcDbLine
 10
33.0
 20
76.77595783543711
 30
0.0
 11
36.0
 21
76.77595783543711
 31
0.0
  0
LINE
  5
47E
330
6F
100
AcDbEntity
  8
top_outsideCutPath
100
AcDbLine
 10
36.0
 20
76.77595783543711
 30
0.0
 11
36.0
 21
72.08845783543711
 31
0.0
  0
LINE
  5
47F
330
6F
100
AcDbEntity
  8
top_outsideCutPath
100
AcDbLine
 10
36.0
 20
72.08845783543711
 30
0.0
 11
58.6875
 21
72.08845783543711
 31
0.0
  0
LINE
  5
480
330
6F
100
AcDbEntity
  8
left_outsideCutPath
100
AcDbLine
 10
36.0
 20
25.3125
 30
0.0
 11
33.0
 21
25.3125
 31
0.0
  0
LINE
  5
481
330
6F
100
AcDbEntity
  8
left_outsideCutPath
100
AcDbLine
 10
33.0
 20
25.3125
 30
0.0
 11
33.0
 21
10.6875
 31
0.0
  0
LINE
  5
482
330
6F
100
AcDbEntity
  8
left_outsideCutPath
100
AcDbLine
 10
33.0
 20
10.6875
 30
0.0
 11
36.0
 21
10.6875
 31
0.0
  0
LINE
  5
483
330
6F
100
AcDbEntity
  8
left_outsideCutPath
100
AcDbLine
 10
36.0
 20
10.6875
 30
0.0
 11
36.0
 21
3.0
 31
0.0
  0
LINE
  5
484
330
6F
100
AcDbEntity
  8
left_outsideCutPath
100
AcDbLine
 10
36.0
 20
3.0
 30
0.0
 11
58.6875
 21
3.0
 31
0.0
  0
LINE
  5
485
330
6F
100
AcDbEntity
  8
left_outsideCutPath
100
AcDbLine
 10
58.6875
 20
3.0
 30
0.0
 11
58.6875
 21
6.0
 31
0.0
  0
LINE
  5
486
330
6F
100
AcDbEntity
  8
left_outsideCutPath
100
AcDbLine
 10
58.6875
 20
6.0
 30
0.0
 11
73.3125
 21
6.0
 31
0.0
  0
LINE
  5
487
330
6F
100
AcDbEntity
  8
left_outsideCutPath
100
AcDbLine
 10
73.3125
 20
6.0
 30
0.0
 11
73.3125
 21
3.0
 31
0.0
  0
LINE
  5
488
330
6F
100
AcDbEntity
  8
left_outsideCutPath
100
AcDbLine
 10
73.3125
 20
3.0
 30
0.0
 11
87.93750000000001
 21
3.0
 31
0.0
  0
LINE
  5
489
330
6F
100
AcDbEntity
  8
left_outsideCutPath
100
AcDbLine
 10
87.93750000000001
 20
3.0
 30
0.0
 11
87.93750000000001
 21
6.0
 31
0.0
  0
LINE
  5
48A
330
6F
100
AcDbEntity
  8
left_outsideCutPath
100
AcDbLine
 10
87.93750000000001
 20
6.0
 30
0.0
 11
102.5625
 21
6.0
 31
0.0
  0
LINE
  5
48B
330
6F
100
AcDbEntity
  8
left_outsideCutPath
100
AcDbLine
 10
102.5625
 20
6.0
 30
0.0
 11
102.5625
 21
3.0
 31
0.0
  0
LINE
  5
48C
330
6F
100
AcDbEntity
  8
left_outsideCutPath
100
AcDbLine
 10
102.5625
 20
3.0
 30
0.0
 11
117.1875
 21
3.0
 31
0.0
  0
LINE
  5
48D
330
6F
100
AcDbEntity
  8
left_outsideCutPath
100
AcDbLine
 10
117.1875
 20
3.0
 30
0.0
 11
117.1875
 21
6.0
 31
0.0
  0
LINE
  5
48E
330
6F
100
AcDbEntity
  8
left_outsideCutPath
100
AcDbLine
 10
117.1875
 20
6.0
 30
0.0
 11
131.8125
 21
6.0
 31
0.0
  0
LINE
  5
48F
330
6F
100
AcDbEntity
  8
left_outsideCutPath
100
AcDbLine
 10
131.8125
 20
6.0
 30
0.0
 11
131.8125
 21
3.0
 31
0.0
  0
LINE
  5
490
330
6F
100
AcDbEntity
  8
left_outsideCutPath
100
AcDbLine
 10
131.8125
 20
3.0
 30
0.0
 11
146.4375
 21
3.0
 31
0.0
  0
LINE
  5
491
330
6F
100
AcDbEntity
  8
left_outsideCutPath
100
AcDbLine
 10
146.4375
 20
3.0
 30
0.0
 11
146.4375
 21
6.0
 31
0.0
  0
LINE
  5
492
330
6F
100
AcDbEntity
  8
left_outsideCutPath
100
AcDbLine
 10
146.4375
 20
6.0
 30
0.0
 11
161.0625
 21
6.0
 31
0.0
  0
LINE
  5
493
330
6F
100
AcDbEntity
  8
left_outsideCutPath
100
AcDbLine
 10
161.0625
 20
6.0
 30
0.0
 11
161.0625
 21
3.0
 31
0.0
  0
LINE
  5
494
330
6F
100
AcDbEntity
  8
left_outsideCutPath
100
AcDbLine
 10
161.0625
 20
3.0
 30
0.0
 11
175.6875
 21
3.0
 31
0.0
  0
LINE
  5
495
330
6F
100
AcDbEntity
  8
left_outsideCutPath
100
AcDbLine
 10
175.6875
 20
3.0
 30
0.0
 11
175.6875
 21
6.0
 31
0.0
  0
LINE
  5
496
330
6F
100
AcDbEntity
  8
left_outsideCutPath
100
AcDbLine
 10
175.6875
 20
6.0
 30
0.0
 11
190.3125
 21
6.0
 31
0.0
  0
LINE
  5
497
330
6F
100
AcDbEntity
  8
left_outsideCutPath
100
AcDbLine
 10
190.3125
 20
6.0
 30
0.0
 11
190.3125
 21
3.0
 31
0.0
  0
LINE
  5
498
330
6F
100
AcDbEntity
  8
left_outsideCutPath
100
AcDbLine
 10
190.3125
 20
3.0
 30
0.0
 11
204.9375
 21
3.0
 31
0.0
  0
LINE
  5
499
330
6F
100
AcDbEntity
  8
left_outsideCutPath
100
AcDbLine
 10
204.9375
 20
3.0
 30
0.0
 11
204.9375
 21
6.0
 31
0.0
  0
LINE
  5
49A
330
6F
100
AcDbEntity
  8
left_outsideCutPath
100
AcDbLine
 10
204.9375
 20
6.0
 30
0.0
 11
219.5625
 21
6.0
 31
0.0
  0
LINE
  5
49B
330
6F
100
AcDbEntity
  8
left_outsideCutPath
100
AcDbLine
 10
219.5625
 20
6.0
 30
0.0
 11
219.5625
 21
3.0
 31
0.0
  0
LINE
  5
49C
330
6F
100
AcDbEntity
  8
left_outsideCutPath
100
AcDbLine
 10
219.5625
 20
3.0
 30
0.0
 11
234.1875
 21
3.0
 31
0.0
  0
LINE
  5
49D
330
6F
100
AcDbEntity
  8
left_outsideCutPath
100
AcDbLine
 10
234.1875
 20
3.0
 30
0.0
 11
234.1875
 21
6.0
 31
0.0
  0
LINE
  5
49E
330
6F
100
AcDbEntity
  8
left_outsideCutPath
100
AcDbLine
 10
234.1875
 20
6.0
 30
0.0
 11
248.8125
 21
6.0
 31
0.0
  0
LINE
  5
49F
330
6F
100
AcDbEntity
  8
left_outsideCutPath
100
AcDbLine
 10
248.8125
 20
6.0
 30
0.0
 11
248.8125
 21
3.0
 31
0.0
  0
LINE
  5
4A0
330
6F
100
AcDbEntity
  8
left_outsideCutPath
100
AcDbLine
 10
248.8125
 20
3.0
 30
0.0
 11
263.4375
 21
3.0
 31
0.0
  0
LINE
  5
4A1
330
6F
100
AcDbEntity
  8
left_outsideCutPath
100
AcDbLine
 10
263.4375
 20
3.0
 30
0.0
 11
263.4375
 21
6.0
 31
0.0
  0
LINE
  5
4A2
330
6F
100
AcDbEntity
  8
left_outsideCutPath
100
AcDbLine
 10
263.4375
 20
6.0
 30
0.0
 11
278.0625
 21
6.0
 31
0.0
  0
LINE
  5
4A3
330
6F
100
AcDbEntity
  8
left_outsideCutPath
100
AcDbLine
 10
278.0625
 20
6.0
 30
0.0
 11
278.0625
 21
3.0
 31
0.0
  0
LINE
  5
4A4
330
6F
100
AcDbEntity
  8
left_outsideCutPath
100
AcDbLine
 10
278.0625
 20
3.0
 30
0.0
 11
292.6875
 21
3.0
 31
0.0
  0
LINE
  5
4A5
330
6F
100
AcDbEntity
  8
left_outsideCutPath
100
AcDbLine
 10
292.6875
 20
3.0
 30
0.0
 11
292.6875
 21
6.0
 31
0.0
  0
LINE
  5
4A6
330
6F
100
AcDbEntity
  8
left_outsideCutPath
100
AcDbLine
 10
292.6875
 20
6.0
 30
0.0
 11
307.3125
 21
6.0
 31
0.0
  0
LINE
  5
4A7
330
6F
100
AcDbEntity
  8
left_outsideCutPath
100
AcDbLine
 10
307.3125
 20
6.0
 30
0.0
 11
307.3125
 21
3.0
 31
0.0
  0
LINE
  5
4A8
330
6F
100
AcDbEntity
  8
left_outsideCutPath
100
AcDbLine
 10
307.3125
 20
3.0
 30
0.0
 11
330.0
 21
3.0
 31
0.0
  0
LINE
  5
4AA
330
6F
100
AcDbEntity
  8
left_outsideCutPath
100
AcDbLine
 10
330.0
 20
3.0
 30
0.0
 11
330.0
 21
10.6875
 31
0.0
  0
LINE
  5
4AB
330
6F
100
AcDbEntity
  8
left_outsideCutPath
100
AcDbLine
 10
330.0
 20
10.6875
 30
0.0
 11
333.0
 21
10.6875
 31
0.0
  0
LINE
  5
4AC
330
6F
100
AcDbEntity
  8
left_outsideCutPath
100
AcDbLine
 10
333.0
 20
10.6875
 30
0.0
 11
333.0
 21
25.3125
 31
0.0
  0
LINE
  5
4AD
330
6F
100
AcDbEntity
  8
left_outsideCutPath
100
AcDbLine
 10
333.0
 20
25.3125
 30
0.0
 11
330.0
 21
25.3125
 31
0.0
  0
LINE
  5
4AE
330
6F
100
AcDbEntity
  8
left_outsideCutPath
100
AcDbLine
 10
330.0
 20
25.3125
 30
0.0
 11
330.0
 21
33.0
 31
0.0
  0
LINE
  5
4AF
330
6F
100
AcDbEntity
  8
left_outsideCutPath
100
AcDbLine
 10
330.0
 20
33.0
 30
0.0
 11
307.3125
 21
33.0
 31
0.0
  0
LINE
  5
4B0
330
6F
100
AcDbEntity
  8
left_outsideCutPath
100
AcDbLine
 10
307.3125
 20
33.0
 30
0.0
 11
307.3125
 21
30.0
 31
0.0
  0
LINE
  5
4B1
330
6F
100
AcDbEntity
  8
left_outsideCutPath
100
AcDbLine
 10
307.3125
 20
30.0
 30
0.0
 11
292.6875
 21
30.0
 31
0.0
  0
LINE
  5
4B2
330
6F
100
AcDbEntity
  8
left_outsideCutPath
100
AcDbLine
 10
292.6875
 20
30.0
 30
0.0
 11
292.6875
 21
33.0
 31
0.0
  0
LINE
  5
4B3
330
6F
100
AcDbEntity
  8
left_outsideCutPath
100
AcDbLine
 10
292.6875
 20
33.0
 30
0.0
 11
278.0625
 21
33.0
 31
0.0
  0
LINE
  5
4B4
330
6F
100
AcDbEntity
  8
left_outsideCutPath
100
AcDbLine
 10
278.0625
 20
33.0
 30
0.0
 11
278.0625
 21
30.0
 31
0.0
  0
LINE
  5
4B5
330
6F
100
AcDbEntity
  8
left_outsideCutPath
100
AcDbLine
 10
278.0625
 20
30.0
 30
0.0
 11
263.4375
 21
30.0
 31
0.0
  0
LINE
  5
4B6
330
6F
100
AcDbEntity
  8
left_outsideCutPath
100
AcDbLine
 10
263.4375
 20
30.0
 30
0.0
 11
263.4375
 21
33.0
 31
0.0
  0
LINE
  5
4B7
330
6F
100
AcDbEntity
  8
left_outsideCutPath
100
AcDbLine
 10
263.4375
 20
33.0
 30
0.0
 11
248.8125
 21
33.0
 31
0.0
  0
LINE
  5
4B8
330
6F
100
AcDbEntity
  8
left_outsideCutPath
100
AcDbLine
 10
248.8125
 20
33.0
 30
0.0
 11
248.8125
 21
30.0
 31
0.0
  0
LINE
  5
4B9
330
6F
100
AcDbEntity
  8
left_outsideCutPath
100
AcDbLine
 10
248.8125
 20
30.0
 30
0.0
 11
234.1875
 21
30.0
 31
0.0
  0
LINE
  5
4BA
330
6F
100
AcDbEntity
  8
left_outsideCutPath
100
AcDbLine
 10
234.1875
 20
30.0
 30
0.0
 11
234.1875
 21
33.0
 31
0.0
  0
LINE
  5
4BB
330
6F
100
AcDbEntity
  8
left_outsideCutPath
100
AcDbLine
 10
234.1875
 20
33.0
 30
0.0
 11
219.5625
 21
33.0
 31
0.0
  0
LINE
  5
4BC
330
6F
100
AcDbEntity
  8
left_outsideCutPath
100
AcDbLine
 10
219.5625
 20
33.0
 30
0.0
 11
219.5625
 21
30.0
 31
0.0
  0
LINE
  5
4BD
330
6F
100
AcDbEntity
  8
left_outsideCutPath
100
AcDbLine
 10
219.5625
 20
30.0
 30
0.0
 11
204.9375
 21
30.0
 31
0.0
  0
LINE
  5
4BE
330
6F
100
AcDbEntity
  8
left_outsideCutPath
100
AcDbLine
 10
204.9375
 20
30.0
 30
0.0
 11
204.9375
 21
33.0
 31
0.0
  0
LINE
  5
4BF
330
6F
100
AcDbEntity
  8
left_outsideCutPath
100
AcDbLine
 10
204.9375
 20
33.0
 30
0.0
 11
190.3125
 21
33.0
 31
0.0
  0
LINE
  5
4C0
330
6F
100
AcDbEntity
  8
left_outsideCutPath
100
AcDbLine
 10
190.3125
 20
33.0
 30
0.0
 11
190.3125
 21
30.0
 31
0.0
  0
LINE
  5
4C1
330
6F
100
AcDbEntity
  8
left_outsideCutPath
100
AcDbLine
 10
190.3125
 20
30.0
 30
0.0
 11
175.6875
 21
30.0
 31
0.0
  0
LINE
  5
4C2
330
6F
100
AcDbEntity
  8
left_outsideCutPath
100
AcDbLine
 10
175.6875
 20
30.0
 30
0.0
 11
175.6875
 21
33.0
 31
0.0
  0
LINE
  5
4C3
330
6F
100
AcDbEntity
  8
left_outsideCutPath
100
AcDbLine
 10
175.6875
 20
33.0
 30
0.0
 11
161.0625
 21
33.0
 31
0.0
  0
LINE
  5
4C4
330
6F
100
AcDbEntity
  8
left_outsideCutPath
100
AcDbLine
 10
161.0625
 20
33.0
 30
0.0
 11
161.0625
 21
30.0
 31
0.0
  0
LINE
  5
4C5
330
6F
100
AcDbEntity
  8
left_outsideCutPath
100
AcDbLine
 10
161.0625
 20
30.0
 30
0.0
 11
146.4375
 21
30.0
 31
0.0
  0
LINE
  5
4C6
330
6F
100
AcDbEntity
  8
left_outsideCutPath
100
AcDbLine
 10
146.4375
 20
30.0
 30
0.0
 11
146.4375
 21
33.0
 31
0.0
  0
LINE
  5
4C7
330
6F
100
AcDbEntity
  8
left_outsideCutPath
100
AcDbLine
 10
146.4375
 20
33.0
 30
0.0
 11
131.8125
 21
33.0
 31
0.0
  0
LINE
  5
4C8
330
6F
100
AcDbEntity
  8
left_outsideCutPath
100
AcDbLine
 10
131.8125
 20
33.0
 30
0.0
 11
131.8125
 21
30.0
 31
0.0
  0
LINE
  5
4C9
330
6F
100
AcDbEntity
  8
left_outsideCutPath
100
AcDbLine
 10
131.8125
 20
30.0
 30
0.0
 11
117.1875
 21
30.0
 31
0.0
  0
LINE
  5
4CA
330
6F
100
AcDbEntity
  8
left_outsideCutPath
100
AcDbLine
 10
117.1875
 20
30.0
 30
0.0
 11
117.1875
 21
33.0
 31
0.0
  0
LINE
  5
4CB
330
6F
100
AcDbEntity
  8
left_outsideCutPath
100
AcDbLine
 10
117.1875
 20
33.0
 30
0.0
 11
102.5625
 21
33.0
 31
0.0
  0
LINE
  5
4CC
330
6F
100
AcDbEntity
  8
left_outsideCutPath
100
AcDbLine
 10
102.5625
 20
33.0
 30
0.0
 11
102.5625
 21
30.0
 31
0.0
  0
LINE
  5
4CD
330
6F
100
AcDbEntity
  8
left_outsideCutPath
100
AcDbLine
 10
102.5625
 20
30.0
 30
0.0
 11
87.93750000000001
 21
30.0
 31
0.0
  0
LINE
  5
4CE
330
6F
100
AcDbEntity
  8
left_outsideCutPath
100
AcDbLine
 10
87.93750000000001
 20
30.0
 30
0.0
 11
87.93750000000001
 21
33.0
 31
0.0
  0
LINE
  5
4CF
330
6F
100
AcDbEntity
  8
left_outsideCutPath
100
AcDbLine
 10
87.93750000000001
 20
33.0
 30
0.0
 11
73.3125
 21
33.0
 31
0.0
  0
LINE
  5
4D0
330
6F
100
AcDbEntity
  8
left_outsideCutPath
100
AcDbLine
 10
73.3125
 20
33.0
 30
0.0
 11
73.3125
 21
30.0
 31
0.0
  0
LINE
  5
4D1
330
6F
100
AcDbEntity
  8
left_outsideCutPath
100
AcDbLine
 10
73.3125
 20
30.0
 30
0.0
 11
58.6875
 21
30.0
 31
0.0
  0
LINE
  5
4D2
330
6F
100
AcDbEntity
  8
left_outsideCutPath
100
AcDbLine
 10
58.6875
 20
30.0
 30
0.0
 11
58.6875
 21
33.0
 31
0.0
  0
LINE
  5
4D4
330
6F
100
AcDbEntity
  8
left_outsideCutPath
100
AcDbLine
 10
58.6875
 20
33.0
 30
0.0
 11
36.0
 21
33.0
 31
0.0
  0
LINE
  5
4D5
330
6F
100
AcDbEntity
  8
left_outsideCutPath
100
AcDbLine
 10
36.0
 20
33.0
 30
0.0
 11
36.0
 21
25.3125
 31
0.0
  0
LINE
  5
4D6
330
6F
100
AcDbEntity
  8
front_outsideCutPath
100
AcDbLine
 10
0.0
 20
25.3125
 30
0.0
 11
3.0
 21
25.3125
 31
0.0
  0
LINE
  5
4D7
330
6F
100
AcDbEntity
  8
front_outsideCutPath
100
AcDbLine
 10
3.0
 20
25.3125
 30
0.0
 11
3.0
 21
10.6875
 31
0.0
  0
LINE
  5
4D8
330
6F
100
AcDbEntity
  8
front_outsideCutPath
100
AcDbLine
 10
3.0
 20
10.6875
 30
0.0
 11
0.0
 21
10.6875
 31
0.0
  0
LINE
  5
4D9
330
6F
100
AcDbEntity
  8
front_outsideCutPath
100
AcDbLine
 10
0.0
 20
10.6875
 30
0.0
 11
0.0
 21
3.0
 31
0.0
  0
LINE
  5
4DA
330
6F
100
AcDbEntity
  8
front_outsideCutPath
100
AcDbLine
 10
0.0
 20
3.0
 30
0.0
 11
7.6875
 21
3.0
 31
0.0
  0
LINE
  5
4DB
330
6F
100
AcDbEntity
  8
front_outsideCutPath
100
AcDbLine
 10
7.6875
 20
3.0
 30
0.0
 11
7.6875
 21
6.0
 31
0.0
  0
LINE
  5
4DC
330
6F
100
AcDbEntity
  8
front_outsideCutPath
100
AcDbLine
 10
7.6875
 20
6.0
 30
0.0
 11
22.3125
 21
6.0
 31
0.0
  0
LINE
  5
4DD
330
6F
100
AcDbEntity
  8
front_outsideCutPath
100
AcDbLine
 10
22.3125
 20
6.0
 30
0.0
 11
22.3125
 21
3.0
 31
0.0
  0
LINE
  5
4DE
330
6F
100
AcDbEntity
  8
front_outsideCutPath
100
AcDbLine
 10
22.3125
 20
3.0
 30
0.0
 11
30.0
 21
3.0
 31
0.0
  0
LINE
  5
4DF
330
6F
100
AcDbEntity
  8
front_outsideCutPath
100
AcDbLine
 10
30.0
 20
3.0
 30
0.0
 11
30.0
 21
10.6875
 31
0.0
  0
LINE
  5
4E0
330
6F
100
AcDbEntity
  8
front_outsideCutPath
100
AcDbLine
 10
30.0
 20
10.6875
 30
0.0
 11
27.0
 21
10.6875
 31
0.0
  0
LINE
  5
4E1
330
6F
100
AcDbEntity
  8
front_outsideCutPath
100
AcDbLine
 10
27.0
 20
10.6875
 30
0.0
 11
27.0
 21
25.3125
 31
0.0
  0
LINE
  5
4E2
330
6F
100
AcDbEntity
  8
front_outsideCutPath
100
AcDbLine
 10
27.0
 20
25.3125
 30
0.0
 11
30.0
 21
25.3125
 31
0.0
  0
LINE
  5
4E3
330
6F
100
AcDbEntity
  8
front_outsideCutPath
100
AcDbLine
 10
30.0
 20
25.3125
 30
0.0
 11
30.0
 21
33.0
 31
0.0
  0
LINE
  5
4E4
330
6F
100
AcDbEntity
  8
front_outsideCutPath
100
AcDbLine
 10
30.0
 20
33.0
 30
0.0
 11
22.3125
 21
33.0
 31
0.0
  0
LINE
  5
4E5
330
6F
100
AcDbEntity
  8
front_outsideCutPath
100
AcDbLine
 10
22.3125
 20
33.0
 30
0.0
 11
22.3125
 21
30.0
 31
0.0
  0
LINE
  5
4E6
330
6F
100
AcDbEntity
  8
front_outsideCutPath
100
AcDbLine
 10
22.3125
 20
30.0
 30
0.0
 11
7.6875
 21
30.0
 31
0.0
  0
LINE
  5
4E7
330
6F
100
AcDbEntity
  8
front_outsideCutPath
100
AcDbLine
 10
7.6875
 20
30.0
 30
0.0
 11
7.6875
 21
33.0
 31
0.0
  0
LINE
  5
4E8
330
6F
100
AcDbEntity
  8
front_outsideCutPath
100
AcDbLine
 10
7.6875
 20
33.0
 30
0.0
 11
0.0
 21
33.0
 31
0.0
  0
LINE
  5
4E9
330
6F
100
AcDbEntity
  8
front_outsideCutPath
100
AcDbLine
 10
0.0
 20
33.0
 30
0.0
 11
0.0
 21
25.3125
 31
0.0
  0
LINE
  5
4EB
330
6F
100
AcDbEntity
  8
0
  6
Continuous
 62
     1
100
AcDbLine
 10
63.0
 20
132.4368332311824
 30
0.0
 11
63.0
 21
102.4368332311824
 31
0.0
  0
LINE
  5
4EC
330
6F
100
AcDbEntity
  8
0
  6
Continuous
 62
     1
100
AcDbLine
 10
93.0
 20
132.4368332311824
 30
0.0
 11
93.0
 21
102.4368332311824
 31
0.0
  0
LINE
  5
4ED
330
6F
100
AcDbEntity
  8
0
  6
Continuous
 62
     1
100
AcDbLine
 10
123.0
 20
132.4368332311824
 30
0.0
 11
123.0
 21
102.4368332311824
 31
0.0
  0
LINE
  5
4EE
330
6F
100
AcDbEntity
  8
0
  6
Continuous
 62
     1
100
AcDbLine
 10
153.0
 20
132.4368332311824
 30
0.0
 11
153.0
 21
102.4368332311824
 31
0.0
  0
LINE
  5
4EF
330
6F
100
AcDbEntity
  8
0
  6
Continuous
 62
     1
100
AcDbLine
 10
183.0
 20
132.4368332311824
 30
0.0
 11
183.0
 21
102.4368332311824
 31
0.0
  0
LINE
  5
4F0
330
6F
100
AcDbEntity
  8
0
  6
Continuous
 62
     1
100
AcDbLine
 10
213.0
 20
132.4368332311824
 30
0.0
 11
213.0
 21
102.4368332311824
 31
0.0
  0
LINE
  5
4F1
330
6F
100
AcDbEntity
  8
0
  6
Continuous
 62
     1
100
AcDbLine
 10
243.0
 20
132.4368332311824
 30
0.0
 11
243.0
 21
102.4368332311824
 31
0.0
  0
LINE
  5
4F2
330
6F
100
AcDbEntity
  8
0
  6
Continuous
 62
     1
100
AcDbLine
 10
273.0
 20
132.4368332311824
 30
0.0
 11
273.0
 21
102.4368332311824
 31
0.0
  0
LINE
  5
4F3
330
6F
100
AcDbEntity
  8
0
  6
Continuous
 62
     1
100
AcDbLine
 10
303.0
 20
132.4368332311824
 30
0.0
 11
303.0
 21
102.4368332311824
 31
0.0
  0
LINE
  5
4F4
330
6F
100
AcDbEntity
  8
0
  6
Continuous
 62
     1
100
AcDbLine
 10
63.0
 20
99.08845783543712
 30
0.0
 11
63.0
 21
69.08845783543712
 31
0.0
  0
LINE
  5
4F5
330
6F
100
AcDbEntity
  8
0
  6
Continuous
 62
     1
100
AcDbLine
 10
93.0
 20
99.08845783543712
 30
0.0
 11
93.0
 21
69.08845783543712
 31
0.0
  0
LINE
  5
4F6
330
6F
100
AcDbEntity
  8
0
  6
Continuous
 62
     1
100
AcDbLine
 10
123.0
 20
99.08845783543712
 30
0.0
 11
123.0
 21
69.08845783543712
 31
0.0
  0
LINE
  5
4F7
330
6F
100
AcDbEntity
  8
0
  6
Continuous
 62
     1
100
AcDbLine
 10
153.0
 20
99.08845783543712
 30
0.0
 11
153.0
 21
69.08845783543712
 31
0.0
  0
LINE
  5
4F8
330
6F
100
AcDbEntity
  8
0
  6
Continuous
 62
     1
100
AcDbLine
 10
183.0
 20
99.08845783543712
 30
0.0
 11
183.0
 21
69.08845783543712
 31
0.0
  0
LINE
  5
4F9
330
6F
100
AcDbEntity
  8
0
  6
Continuous
 62
     1
100
AcDbLine
 10
213.0
 20
99.08845783543712
 30
0.0
 11
213.0
 21
69.08845783543712
 31
0.0
  0
LINE
  5
4FA
330
6F
100
AcDbEntity
  8
0
  6
Continuous
 62
     1
100
AcDbLine
 10
243.0
 20
99.08845783543712
 30
0.0
 11
243.0
 21
69.08845783543712
 31
0.0
  0
LINE
  5
4FB
330
6F
100
AcDbEntity
  8
0
  6
Continuous
 62
     1
100
AcDbLine
 10
273.0
 20
99.08845783543712
 30
0.0
 11
273.0
 21
69.08845783543712
 31
0.0
  0
LINE
  5
4FC
330
6F
100
AcDbEntity
  8
0
  6
Continuous
 62
     1
100
AcDbLine
 10
303.0
 20
99.08845783543712
 30
0.0
 11
303.0
 21
69.08845783543712
 31
0.0
  0
LINE
  5
4FD
330
6F
100
AcDbEntity
  8
0
  6
Continuous
 62
     1
100
AcDbLine
 10
63.0
 20
63.0
 30
0.0
 11
63.0
 21
39.0
 31
0.0
  0
LINE
  5
4FE
330
6F
100
AcDbEntity
  8
0
  6
Continuous
 62
     1
100
AcDbLine
 10
93.0
 20
63.0
 30
0.0
 11
93.0
 21
39.0
 31
0.0
  0
LINE
  5
4FF
330
6F
100
AcDbEntity
  8
0
  6
Continuous
 62
     1
100
AcDbLine
 10
123.0
 20
63.0
 30
0.0
 11
123.0
 21
39.0
 31
0.0
  0
LINE
  5
500
330
6F
100
AcDbEntity
  8
0
  6
Continuous
 62
     1
100
AcDbLine
 10
153.0
 20
63.0
 30
0.0
 11
153.0
 21
39.0
 31
0.0
  0
LINE
  5
501
330
6F
100
AcDbEntity
  8
0
  6
Continuous
 62
     1
100
AcDbLine
 10
183.0
 20
63.0
 30
0.0
 11
183.0
 21
39.0
 31
0.0
  0
LINE
  5
502
330
6F
100
AcDbEntity
  8
0
  6
Continuous
 62
     1
100
AcDbLine
 10
213.0
 20
63.0
 30
0.0
 11
213.0
 21
39.0
 31
0.0
  0
LINE
  5
503
330
6F
100
AcDbEntity
  8
0
  6
Continuous
 62
     1
100
AcDbLine
 10
243.0
 20
63.0
 30
0.0
 11
243.0
 21
39.0
 31
0.0
  0
LINE
  5
504
330
6F
100
AcDbEntity
  8
0
  6
Continuous
 62
     1
100
AcDbLine
 10
273.0
 20
63.0
 30
0.0
 11
273.0
 21
39.0
 31
0.0
  0
LINE
  5
505
330
6F
100
AcDbEntity
  8
0
  6
Continuous
 62
     1
100
AcDbLine
 10
303.0
 20
63.0
 30
0.0
 11
303.0
 21
39.0
 31
0.0
  0
LINE
  5
506
330
6F
100
AcDbEntity
  8
0
  6
Continuous
 62
     1
100
AcDbLine
 10
63.0
 20
30.0
 30
0.0
 11
63.0
 21
6.0
 31
0.0
  0
LINE
  5
507
330
6F
100
AcDbEntity
  8
0
  6
Continuous
 62
     1
100
AcDbLine
 10
93.0
 20
30.0
 30
0.0
 11
93.0
 21
6.0
 31
0.0
  0
LINE
  5
508
330
6F
100
AcDbEntity
  8
0
  6
Continuous
 62
     1
100
AcDbLine
 10
123.0
 20
30.0
 30
0.0
 11
123.0
 21
6.0
 31
0.0
  0
LINE
  5
509
330
6F
100
AcDbEntity
  8
0
  6
Continuous
 62
     1
100
AcDbLine
 10
153.0
 20
30.0
 30
0.0
 11
153.0
 21
6.0
 31
0.0
  0
LINE
  5
50A
330
6F
100
AcDbEntity
  8
0
  6
Continuous
 62
     1
100
AcDbLine
 10
183.0
 20
30.0
 30
0.0
 11
183.0
 21
6.0
 31
0.0
  0
LINE
  5
50B
330
6F
100
AcDbEntity
  8
0
  6
Continuous
 62
     1
100
AcDbLine
 10
213.0
 20
30.0
 30
0.0
 11
213.0
 21
6.0
 31
0.0
  0
LINE
  5
50C
330
6F
100
AcDbEntity
  8
0
  6
Continuous
 62
     1
100
AcDbLine
 10
243.0
 20
30.0
 30
0.0
 11
243.0
 21
6.0
 31
0.0
  0
LINE
  5
50D
330
6F
100
AcDbEntity
  8
0
  6
Continuous
 62
     1
100
AcDbLine
 10
273.0
 20
30.0
 30
0.0
 11
273.0
 21
6.0
 31
0.0
  0
LINE
  5
50E
330
6F
100
AcDbEntity
  8
0
  6
Continuous
 62
     1
100
AcDbLine
 10
303.0
 20
30.0
 30
0.0
 11
303.0
 21
6.0
 31
0.0
  0
ENDSEC
  0
SECTION
  2
OBJECTS
  0
DICTIONARY
  5
C
330
0
100
AcDbDictionary
281
     1
  3
ACAD_CIP_PREVIOUS_PRODUCT_INFO
350
1FC
  3
ACAD_COLOR
350
62
  3
ACAD_DETAILVIEWSTYLE
350
69
  3
ACAD_GROUP
350
D
  3
ACAD_LAYOUT
350
61
  3
ACAD_MATERIAL
350
10
  3
ACAD_MLEADERSTYLE
350
65
  3
ACAD_MLINESTYLE
350
5E
  3
ACAD_PLOTSETTINGS
350
60
  3
ACAD_PLOTSTYLENAME
350
E
  3
ACAD_SCALELIST
350
42
  3
ACAD_SECTIONVIEWSTYLE
350
67
  3
ACAD_TABLESTYLE
350
63
  3
ACAD_VISUALSTYLE
350
29
  3
ACDB_RECOMPOSE_DATA
350
532
  3
AcDbVariableDictionary
350
223
  0
DICTIONARY
  5
50F
330
54
100
AcDbDictionary
280
     1
281
     1
  3
ADSK_XREC_LAYER_RECONCILED
360
510
  0
DICTIONARY
  5
511
330
75
100
AcDbDictionary
280
     1
281
     1
  3
ADSK_XREC_LAYER_RECONCILED
360
512
  0
DICTIONARY
  5
513
330
8A
100
AcDbDictionary
280
     1
281
     1
  3
ADSK_XREC_LAYER_RECONCILED
360
514
  0
DICTIONARY
  5
515
330
E1
100
AcDbDictionary
280
     1
281
     1
  3
ADSK_XREC_LAYER_RECONCILED
360
516
  0
DICTIONARY
  5
517
330
138
100
AcDbDictionary
280
     1
281
     1
  3
ADSK_XREC_LAYER_RECONCILED
360
518
  0
DICTIONARY
  5
519
330
14D
100
AcDbDictionary
280
     1
281
     1
  3
ADSK_XREC_LAYER_RECONCILED
360
51A
  0
DICTIONARY
  5
51B
330
1A4
100
AcDbDictionary
280
     1
281
     1
  3
ADSK_XREC_LAYER_RECONCILED
360
51C
  0
DICTIONARY
  5
216
330
6F
100
AcDbDictionary
280
     1
281
     1
  3
ACAD_SORTENTS
360
2C7
  0
XRECORD
  5
1FC
102
{ACAD_REACTORS
330
C
102
}
330
C
100
AcDbXrecord
280
     1
300
ACD
300
2023
300

  0
DICTIONARY
  5
62
102
{ACAD_REACTORS
330
C
102
}
330
C
100
AcDbDictionary
281
     1
  0
DICTIONARY
  5
69
102
{ACAD_REACTORS
330
C
102
}
330
C
100
AcDbDictionary
281
     1
  3
Imperial24
350
6A
  0
DICTIONARY
  5
D
102
{ACAD_REACTORS
330
C
102
}
330
C
100
AcDbDictionary
281
     1
  0
DICTIONARY
  5
61
102
{ACAD_REACTORS
330
C
102
}
330
C
100
AcDbDictionary
281
     1
  3
Layout1
350
6E
  3
Model
350
72
  0
DICTIONARY
  5
10
102
{ACAD_REACTORS
330
C
102
}
330
C
100
AcDbDictionary
281
     1
  3
ByBlock
350
19
  3
ByLayer
350
11
  3
Global
350
21
  0
DICTIONARY
  5
65
102
{ACAD_REACTORS
330
C
102
}
330
C
100
AcDbDictionary
281
     1
  3
Standard
350
66
  0
DICTIONARY
  5
5E
102
{ACAD_REACTORS
330
C
102
}
330
C
100
AcDbDictionary
281
     1
  3
Standard
350
5F
  0
DICTIONARY
  5
60
102
{ACAD_REACTORS
330
C
102
}
330
C
100
AcDbDictionary
281
     1
  0
ACDBDICTIONARYWDFLT
  5
E
102
{ACAD_REACTORS
330
C
102
}
330
C
100
AcDbDictionary
281
     1
  3
Normal
350
F
100
AcDbDictionaryWithDefault
340
F
  0
DICTIONARY
  5
42
102
{ACAD_REACTORS
330
C
102
}
330
C
100
AcDbDictionary
281
     1
  3
A0
350
43
  3
A1
350
44
  3
A2
350
45
  3
A3
350
46
  3
A4
350
47
  3
A5
350
48
  3
A6
350
49
  3
A7
350
4A
  3
A8
350
4B
  3
A9
350
4C
  3
B0
350
4D
  3
B1
350
4E
  3
B2
350
4F
  3
B3
350
50
  3
B4
350
51
  3
B5
350
52
  3
B6
350
53
  0
DICTIONARY
  5
67
102
{ACAD_REACTORS
330
C
102
}
330
C
100
AcDbDictionary
281
     1
  3
Imperial24
350
68
  0
DICTIONARY
  5
63
102
{ACAD_REACTORS
330
C
102
}
330
C
100
AcDbDictionary
281
     1
  3
Standard
350
64
  0
DICTIONARY
  5
29
102
{ACAD_REACTORS
330
C
102
}
330
C
100
AcDbDictionary
281
     1
  3
2dWireframe
350
2F
  3
Basic
350
2E
  3
Brighten
350
35
  3
ColorChange
350
39
  3
Conceptual
350
32
  3
Dim
350
34
  3
EdgeColorOff
350
41
  3
Facepattern
350
38
  3
Flat
350
2A
  3
FlatWithEdges
350
2B
  3
Gouraud
350
2C
  3
GouraudWithEdges
350
2D
  3
Hidden
350
31
  3
JitterOff
350
3F
  3
Linepattern
350
37
  3
OverhangOff
350
40
  3
Realistic
350
33
  3
Shaded
350
3E
  3
Shaded with edges
350
3D
  3
Shades of Gray
350
3A
  3
Sketchy
350
3B
  3
Thicken
350
36
  3
Wireframe
350
30
  3
X-Ray
350
3C
  0
XRECORD
  5
532
102
{ACAD_REACTORS
330
C
102
}
330
C
100
AcDbXrecord
280
     1
 90
        1
330
64
  0
DICTIONARY
  5
223
102
{ACAD_REACTORS
330
C
102
}
330
C
100
AcDbDictionary
281
     1
  3
CANNOSCALE
350
52C
  3
CMLEADERSTYLE
350
528
  3
CTABLESTYLE
350
527
  3
CVIEWDETAILSTYLE
350
529
  3
CVIEWSECTIONSTYLE
350
52A
  3
LAYEREVAL
350
52E
  3
LAYERNOTIFY
350
52F
  3
LIGHTINGUNITS
350
52D
  3
MSLTSCALE
350
52B
  0
XRECORD
  5
510
102
{ACAD_REACTORS
330
50F
102
}
330
50F
100
AcDbXrecord
280
     1
290
     1
  0
XRECORD
  5
512
102
{ACAD_REACTORS
330
511
102
}
330
511
100
AcDbXrecord
280
     1
290
     1
  0
XRECORD
  5
514
102
{ACAD_REACTORS
330
513
102
}
330
513
100
AcDbXrecord
280
     1
290
     1
  0
XRECORD
  5
516
102
{ACAD_REACTORS
330
515
102
}
330
515
100
AcDbXrecord
280
     1
290
     1
  0
XRECORD
  5
518
102
{ACAD_REACTORS
330
517
102
}
330
517
100
AcDbXrecord
280
     1
290
     1
  0
XRECORD
  5
51A
102
{ACAD_REACTORS
330
519
102
}
330
519
100
AcDbXrecord
280
     1
290
     1
  0
XRECORD
  5
51C
102
{ACAD_REACTORS
330
51B
102
}
330
51B
100
AcDbXrecord
280
     1
290
     1
  0
SORTENTSTABLE
  5
2C7
102
{ACAD_REACTORS
330
216
102
}
330
216
100
AcDbSortentsTable
330
6F
331
36A
  5
276
331
36B
  5
277
331
36C
  5
278
331
36D
  5
279
331
36E
  5
27A
331
36F
  5
27B
331
370
  5
27C
331
371
  5
27D
331
372
  5
27E
331
373
  5
27F
331
374
  5
280
331
375
  5
281
331
376
  5
282
331
377
  5
283
331
378
  5
284
331
379
  5
285
331
37A
  5
286
331
37B
  5
287
331
37C
  5
288
331
37D
  5
289
331
37E
  5
28A
331
37F
  5
28B
331
380
  5
28C
331
381
  5
28D
331
382
  5
28E
331
383
  5
28F
331
384
  5
290
331
385
  5
291
331
386
  5
292
331
387
  5
293
331
388
  5
294
331
389
  5
295
331
38A
  5
296
331
38B
  5
297
331
38C
  5
298
331
38D
  5
299
331
38F
  5
29B
331
390
  5
29C
331
391
  5
29D
331
392
  5
29E
331
393
  5
29F
331
394
  5
2A0
331
395
  5
2A1
331
396
  5
2A2
331
397
  5
2A3
331
398
  5
2A4
331
399
  5
2A5
331
39A
  5
2A6
331
39B
  5
2A7
331
39C
  5
2A8
331
39D
  5
2A9
331
39E
  5
2AA
331
39F
  5
2AB
331
3A0
  5
2AC
331
3A1
  5
2AD
331
3A2
  5
2AE
331
3A3
  5
2AF
331
3A4
  5
2B0
331
3A5
  5
2B1
331
3A6
  5
2B2
331
3A7
  5
2B3
331
3A8
  5
2B4
331
3A9
  5
2B5
331
3AA
  5
2B6
331
3AB
  5
2B7
331
3AC
  5
2B8
331
3AD
  5
2B9
331
3AE
  5
2BA
331
3AF
  5
2BB
331
3B0
  5
2BC
331
3B1
  5
2BD
331
3B2
  5
2BE
331
3B3
  5
2BF
331
3B4
  5
2C0
331
3B5
  5
2C1
331
3B6
  5
2C2
331
3B7
  5
2C3
331
3B9
  5
2C5
331
3BA
  5
2C6
331
3BB
  5
2C8
331
3BC
  5
2C9
331
3BD
  5
2CA
331
3BE
  5
2CB
331
3BF
  5
2CC
331
3C0
  5
2CD
331
3C1
  5
2CE
331
3C2
  5
2CF
331
3C3
  5
2D0
331
3C4
  5
2D1
331
3C5
  5
2D2
331
3C6
  5
2D3
331
3C7
  5
2D4
331
3C8
  5
2D5
331
3C9
  5
2D6
331
3CA
  5
2D7
331
3CB
  5
2D8
331
3CC
  5
2D9
331
3CD
  5
2DA
331
3CE
  5
2DB
331
3CF
  5
2DC
331
3D0
  5
2DD
331
3D1
  5
2DE
331
3D2
  5
2DF
331
3D3
  5
2E0
331
3D4
  5
2E1
331
3D5
  5
2E2
331
3D6
  5
2E3
331
3D7
  5
2E4
331
3D8
  5
2E5
331
3D9
  5
2E6
331
3DA
  5
2E7
331
3DB
  5
2E8
331
3DC
  5
2E9
331
3DD
  5
2EA
331
3DE
  5
2EB
331
3DF
  5
2EC
331
3E0
  5
2ED
331
3E1
  5
2EE
331
3E2
  5
2EF
331
3E3
  5
2F0
331
3E4
  5
2F1
331
3E5
  5
2F2
331
3E6
  5
2F3
331
3E7
  5
2F4
331
3E8
  5
2F5
331
3EA
  5
2F7
331
3EB
  5
2F8
331
3EC
  5
2F9
331
3ED
  5
2FA
331
3EE
  5
2FB
331
3EF
  5
2FC
331
3F0
  5
2FD
331
3F1
  5
2FE
331
3F2
  5
2FF
331
3F3
  5
300
331
3F4
  5
301
331
3F5
  5
302
331
3F6
  5
303
331
3F7
  5
304
331
3F8
  5
305
331
3F9
  5
306
331
3FA
  5
307
331
3FB
  5
308
331
3FC
  5
309
331
3FD
  5
30A
331
3FE
  5
30B
331
3FF
  5
30C
331
400
  5
30D
331
401
  5
30E
331
402
  5
30F
331
403
  5
310
331
404
  5
311
331
405
  5
312
331
406
  5
313
331
407
  5
314
331
408
  5
315
331
409
  5
316
331
40A
  5
317
331
40B
  5
318
331
40C
  5
319
331
40D
  5
31A
331
40E
  5
31B
331
40F
  5
31C
331
410
  5
31D
331
411
  5
31E
331
412
  5
31F
331
414
  5
321
331
415
  5
322
331
416
  5
323
331
417
  5
324
331
418
  5
325
331
419
  5
326
331
41A
  5
327
331
41B
  5
328
331
41C
  5
329
331
41D
  5
32A
331
41E
  5
32B
331
41F
  5
32C
331
420
  5
32D
331
421
  5
32E
331
422
  5
32F
331
423
  5
330
331
424
  5
331
331
425
  5
332
331
426
  5
333
331
427
  5
334
331
428
  5
335
331
429
  5
336
331
42A
  5
337
331
42B
  5
338
331
42C
  5
339
331
42D
  5
33A
331
42E
  5
33B
331
42F
  5
33C
331
430
  5
33D
331
431
  5
33E
331
432
  5
33F
331
433
  5
340
331
434
  5
341
331
435
  5
342
331
436
  5
343
331
437
  5
344
331
438
  5
345
331
439
  5
346
331
43A
  5
347
331
43B
  5
348
331
43C
  5
349
331
43D
  5
34A
331
43E
  5
34B
331
43F
  5
34C
331
440
  5
34D
331
441
  5
34E
331
442
  5
34F
331
443
  5
350
331
444
  5
351
331
445
  5
352
331
446
  5
353
331
447
  5
354
331
448
  5
355
331
449
  5
356
331
44A
  5
357
331
44B
  5
358
331
44C
  5
359
331
44D
  5
35A
331
44F
  5
35C
331
450
  5
35D
331
451
  5
35E
331
452
  5
35F
331
453
  5
360
331
454
  5
361
331
455
  5
362
331
456
  5
363
331
457
  5
364
331
458
  5
365
331
459
  5
366
331
45A
  5
367
331
45B
  5
368
331
45C
  5
369
331
45D
  5
36A
331
45E
  5
36B
331
45F
  5
36C
331
460
  5
36D
331
461
  5
36E
331
462
  5
36F
331
463
  5
370
331
464
  5
371
331
465
  5
372
331
466
  5
373
331
467
  5
374
331
468
  5
375
331
469
  5
376
331
46A
  5
377
331
46B
  5
378
331
46C
  5
379
331
46D
  5
37A
331
46E
  5
37B
331
46F
  5
37C
331
470
  5
37D
331
471
  5
37E
331
472
  5
37F
331
473
  5
380
331
474
  5
381
331
475
  5
382
331
476
  5
383
331
477
  5
384
331
479
  5
386
331
47A
  5
387
331
47B
  5
388
331
47C
  5
389
331
47D
  5
38A
331
47E
  5
38B
331
47F
  5
38C
331
480
  5
38D
331
481
  5
38E
331
482
  5
38F
331
483
  5
390
331
484
  5
391
331
485
  5
392
331
486
  5
393
331
487
  5
394
331
488
  5
395
331
489
  5
396
331
48A
  5
397
331
48B
  5
398
331
48C
  5
399
331
48D
  5
39A
331
48E
  5
39B
331
48F
  5
39C
331
490
  5
39D
331
491
  5
39E
331
492
  5
39F
331
493
  5
3A0
331
494
  5
3A1
331
495
  5
3A2
331
496
  5
3A3
331
497
  5
3A4
331
498
  5
3A5
331
499
  5
3A6
331
49A
  5
3A7
331
49B
  5
3A8
331
49C
  5
3A9
331
49D
  5
3AA
331
49E
  5
3AB
331
49F
  5
3AC
331
4A0
  5
3AD
331
4A1
  5
3AE
331
4A2
  5
3AF
331
4A3
  5
3B0
331
4A4
  5
3B1
331
4A5
  5
3B2
331
4A6
  5
3B3
331
4A7
  5
3B4
331
4A8
  5
3B5
331
4AA
  5
3B7
331
4AB
  5
3B8
331
4AC
  5
3B9
331
4AD
  5
3BA
331
4AE
  5
3BB
331
4AF
  5
3BC
331
4B0
  5
3BD
331
4B1
  5
3BE
331
4B2
  5
3BF
331
4B3
  5
3C0
331
4B4
  5
3C1
331
4B5
  5
3C2
331
4B6
  5
3C3
331
4B7
  5
3C4
331
4B8
  5
3C5
331
4B9
  5
3C6
331
4BA
  5
3C7
331
4BB
  5
3C8
331
4BC
  5
3C9
331
4BD
  5
3CA
331
4BE
  5
3CB
331
4BF
  5
3CC
331
4C0
  5
3CD
331
4C1
  5
3CE
331
4C2
  5
3CF
331
4C3
  5
3D0
331
4C4
  5
3D1
331
4C5
  5
3D2
331
4C6
  5
3D3
331
4C7
  5
3D4
331
4C8
  5
3D5
331
4C9
  5
3D6
331
4CA
  5
3D7
331
4CB
  5
3D8
331
4CC
  5
3D9
331
4CD
  5
3DA
331
4CE
  5
3DB
331
4CF
  5
3DC
331
4D0
  5
3DD
331
4D1
  5
3DE
331
4D2
  5
3DF
331
4D4
  5
3E1
331
4D5
  5
3E2
331
4D6
  5
3E3
331
4D7
  5
3E4
331
4D8
  5
3E5
331
4D9
  5
3E6
331
4DA
  5
3E7
331
4DB
  5
3E8
331
4DC
  5
3E9
331
4DD
  5
3EA
331
4DE
  5
3EB
331
4DF
  5
3EC
331
4E0
  5
3ED
331
4E1
  5
3EE
331
4E2
  5
3EF
331
4E3
  5
3F0
331
4E4
  5
3F1
331
4E5
  5
3F2
331
4E6
  5
3F3
331
4E7
  5
3F4
331
4E8
  5
3F5
331
4E9
  5
3F6
  0
ACDBDETAILVIEWSTYLE
  5
6A
102
{ACAD_XDICTIONARY
360
535
102
}
102
{ACAD_REACTORS
330
69
102
}
330
69
100
AcDbModelDocViewStyle
 70
     0
  3
Imperial24
290
     0
100
AcDbDetailViewStyle
 70
     0
 71
     0
 90
        3
 71
     1
340
55
 62
   256
 40
0.24
340
0
 62
   256
 40
0.24
300

 40
0.36
280
     3
 71
     2
340
5C
 90
       25
 62
   256
 71
     3
340
55
 62
   256
 40
0.24
 90
        1
 40
0.75
 90
        1
300
%<\AcVar ViewType \f "%tc1">% %<\AcVar ViewDetailId>%\PSCALE %<\AcVar ViewScale \f "%sn">%
 71
     4
340
5C
 90
       25
 62
   256
340
5C
 90
       25
 62
   256
280
     0
  0
LAYOUT
  5
6E
102
{ACAD_REACTORS
330
61
102
}
330
61
100
AcDbPlotSettings
  1

  2
OneNote for Windows 10
  4

  6

 40
0.0
 41
0.0
 42
0.0
 43
0.0
 44
0.0
 45
0.0
 46
0.0
 47
0.0
 48
0.0
 49
0.0
140
0.0
141
0.0
142
1.0
143
1.0
 70
   688
 72
     0
 73
     0
 74
     5
  7

 75
    16
147
1.0
 76
     0
 77
     2
 78
   300
148
0.0
149
0.0
100
AcDbLayout
  1
Layout1
 70
     1
 71
     1
 10
0.0
 20
0.0
 11
12.0
 21
9.0
 12
0.0
 22
0.0
 32
0.0
 14
1.000000000000000E+20
 24
1.000000000000000E+20
 34
1.000000000000000E+20
 15
-1.000000000000000E+20
 25
-1.000000000000000E+20
 35
-1.000000000000000E+20
146
0.0
 13
0.0
 23
0.0
 33
0.0
 16
1.0
 26
0.0
 36
0.0
 17
0.0
 27
1.0
 37
0.0
 76
     0
330
6B
  0
LAYOUT
  5
72
102
{ACAD_REACTORS
330
61
102
}
330
61
100
AcDbPlotSettings
  1

  2
OneNote for Windows 10
  4

  6

 40
0.0
 41
0.0
 42
0.0
 43
0.0
 44
0.0
 45
0.0
 46
0.0
 47
0.0
 48
0.0
 49
0.0
140
0.0
141
0.0
142
1.0
143
1.0
 70
  1712
 72
     0
 73
     0
 74
     0
  7

 75
     0
147
1.0
 76
     0
 77
     2
 78
   300
148
0.0
149
0.0
100
AcDbLayout
  1
Model
 70
     1
 71
     0
 10
0.0
 20
0.0
 11
12.0
 21
9.0
 12
0.0
 22
0.0
 32
0.0
 14
0.0
 24
0.0
 34
0.0
 15
0.0
 25
0.0
 35
0.0
146
0.0
 13
0.0
 23
0.0
 33
0.0
 16
1.0
 26
0.0
 36
0.0
 17
0.0
 27
1.0
 37
0.0
 76
     0
330
6F
331
74
  0
MATERIAL
  5
19
102
{ACAD_XDICTIONARY
360
1A
102
}
102
{ACAD_REACTORS
330
10
102
}
330
10
100
AcDbMaterial
  1
ByBlock
 72
     0
 43
0.0208333333333333
 43
0.0
 43
0.0
 43
0.0
 43
0.0
 43
0.0208333333333333
 43
0.0
 43
0.0
 43
0.0
 43
0.0
 43
1.0
 43
0.0
 43
0.0
 43
0.0
 43
0.0
 43
1.0
 77
     0
 47
0.0208333333333333
 47
0.0
 47
0.0
 47
0.0
 47
0.0
 47
0.0208333333333333
 47
0.0
 47
0.0
 47
0.0
 47
0.0
 47
1.0
 47
0.0
 47
0.0
 47
0.0
 47
0.0
 47
1.0
171
     0
 49
0.0208333333333333
 49
0.0
 49
0.0
 49
0.0
 49
0.0
 49
0.0208333333333333
 49
0.0
 49
0.0
 49
0.0
 49
0.0
 49
1.0
 49
0.0
 49
0.0
 49
0.0
 49
0.0
 49
1.0
175
     0
142
0.0208333333333333
142
0.0
142
0.0
142
0.0
142
0.0
142
0.0208333333333333
142
0.0
142
0.0
142
0.0
142
0.0
142
1.0
142
0.0
142
0.0
142
0.0
142
0.0
142
1.0
179
     0
144
0.0208333333333333
144
0.0
144
0.0
144
0.0
144
0.0
144
0.0208333333333333
144
0.0
144
0.0
144
0.0
144
0.0
144
1.0
144
0.0
144
0.0
144
0.0
144
0.0
144
1.0
147
0.0208333333333333
147
0.0
147
0.0
147
0.0
147
0.0
147
0.0208333333333333
147
0.0
147
0.0
147
0.0
147
0.0
147
1.0
147
0.0
147
0.0
147
0.0
147
0.0
147
1.0
  0
MATERIAL
  5
11
102
{ACAD_XDICTIONARY
360
12
102
}
102
{ACAD_REACTORS
330
10
102
}
330
10
100
AcDbMaterial
  1
ByLayer
 72
     0
 43
0.0208333333333333
 43
0.0
 43
0.0
 43
0.0
 43
0.0
 43
0.0208333333333333
 43
0.0
 43
0.0
 43
0.0
 43
0.0
 43
1.0
 43
0.0
 43
0.0
 43
0.0
 43
0.0
 43
1.0
 77
     0
 47
0.0208333333333333
 47
0.0
 47
0.0
 47
0.0
 47
0.0
 47
0.0208333333333333
 47
0.0
 47
0.0
 47
0.0
 47
0.0
 47
1.0
 47
0.0
 47
0.0
 47
0.0
 47
0.0
 47
1.0
171
     0
 49
0.0208333333333333
 49
0.0
 49
0.0
 49
0.0
 49
0.0
 49
0.0208333333333333
 49
0.0
 49
0.0
 49
0.0
 49
0.0
 49
1.0
 49
0.0
 49
0.0
 49
0.0
 49
0.0
 49
1.0
175
     0
142
0.0208333333333333
142
0.0
142
0.0
142
0.0
142
0.0
142
0.0208333333333333
142
0.0
142
0.0
142
0.0
142
0.0
142
1.0
142
0.0
142
0.0
142
0.0
142
0.0
142
1.0
179
     0
144
0.0208333333333333
144
0.0
144
0.0
144
0.0
144
0.0
144
0.0208333333333333
144
0.0
144
0.0
144
0.0
144
0.0
144
1.0
144
0.0
144
0.0
144
0.0
144
0.0
144
1.0
147
0.0208333333333333
147
0.0
147
0.0
147
0.0
147
0.0
147
0.0208333333333333
147
0.0
147
0.0
147
0.0
147
0.0
147
1.0
147
0.0
147
0.0
147
0.0
147
0.0
147
1.0
  0
MATERIAL
  5
21
102
{ACAD_XDICTIONARY
360
22
102
}
102
{ACAD_REACTORS
330
10
102
}
330
10
100
AcDbMaterial
  1
Global
 72
     0
 43
0.0208333333333333
 43
0.0
 43
0.0
 43
0.0
 43
0.0
 43
0.0208333333333333
 43
0.0
 43
0.0
 43
0.0
 43
0.0
 43
1.0
 43
0.0
 43
0.0
 43
0.0
 43
0.0
 43
1.0
 77
     0
 47
0.0208333333333333
 47
0.0
 47
0.0
 47
0.0
 47
0.0
 47
0.0208333333333333
 47
0.0
 47
0.0
 47
0.0
 47
0.0
 47
1.0
 47
0.0
 47
0.0
 47
0.0
 47
0.0
 47
1.0
171
     0
 49
0.0208333333333333
 49
0.0
 49
0.0
 49
0.0
 49
0.0
 49
0.0208333333333333
 49
0.0
 49
0.0
 49
0.0
 49
0.0
 49
1.0
 49
0.0
 49
0.0
 49
0.0
 49
0.0
 49
1.0
175
     0
142
0.0208333333333333
142
0.0
142
0.0
142
0.0
142
0.0
142
0.0208333333333333
142
0.0
142
0.0
142
0.0
142
0.0
142
1.0
142
0.0
142
0.0
142
0.0
142
0.0
142
1.0
179
     0
144
0.0208333333333333
144
0.0
144
0.0
144
0.0
144
0.0
144
0.0208333333333333
144
0.0
144
0.0
144
0.0
144
0.0
144
1.0
144
0.0
144
0.0
144
0.0
144
0.0
144
1.0
147
0.0208333333333333
147
0.0
147
0.0
147
0.0
147
0.0
147
0.0208333333333333
147
0.0
147
0.0
147
0.0
147
0.0
147
1.0
147
0.0
147
0.0
147
0.0
147
0.0
147
1.0
  0
MLEADERSTYLE
  5
66
102
{ACAD_REACTORS
330
65
102
}
330
65
100
AcDbMLeaderStyle
179
     2
170
     2
171
     1
172
     0
 90
        2
 40
0.0
 41
0.0
173
     1
 91
-1056964608
340
5A
 92
       -2
290
     1
 42
0.09
291
     1
 43
0.36
  3
Standard
 44
0.18
300

342
55
174
     1
178
     6
175
     1
176
     0
 93
-1056964608
 45
0.18
292
     0
297
     0
 46
0.18
 94
-1056964608
 47
1.0
 49
1.0
140
1.0
293
     1
141
0.0
294
     1
177
     0
142
1.0
295
     0
296
     0
143
0.125
271
     0
272
     9
273
     9
298
     0
  0
MLINESTYLE
  5
5F
102
{ACAD_REACTORS
330
5E
102
}
330
5E
100
AcDbMlineStyle
  2
STANDARD
 70
     0
  3

 62
   256
 51
90.0
 52
90.0
 71
     2
 49
0.5
 62
   256
  6
BYLAYER
 49
-0.5
 62
   256
  6
BYLAYER
  0
ACDBPLACEHOLDER
  5
F
102
{ACAD_REACTORS
330
E
102
}
330
E
  0
SCALE
  5
43
102
{ACAD_REACTORS
330
42
102
}
330
42
100
AcDbScale
 70
     0
300
1:1
140
1.0
141
1.0
290
     1
  0
SCALE
  5
44
102
{ACAD_REACTORS
330
42
102
}
330
42
100
AcDbScale
 70
     0
300
1/128" = 1'-0"
140
0.0078125
141
12.0
290
     0
  0
SCALE
  5
45
102
{ACAD_REACTORS
330
42
102
}
330
42
100
AcDbScale
 70
     0
300
1/64" = 1'-0"
140
0.015625
141
12.0
290
     0
  0
SCALE
  5
46
102
{ACAD_REACTORS
330
42
102
}
330
42
100
AcDbScale
 70
     0
300
1/32" = 1'-0"
140
0.03125
141
12.0
290
     0
  0
SCALE
  5
47
102
{ACAD_REACTORS
330
42
102
}
330
42
100
AcDbScale
 70
     0
300
1/16" = 1'-0"
140
0.0625
141
12.0
290
     0
  0
SCALE
  5
48
102
{ACAD_REACTORS
330
42
102
}
330
42
100
AcDbScale
 70
     0
300
3/32" = 1'-0"
140
0.09375
141
12.0
290
     0
  0
SCALE
  5
49
102
{ACAD_REACTORS
330
42
102
}
330
42
100
AcDbScale
 70
     0
300
1/8" = 1'-0"
140
0.125
141
12.0
290
     0
  0
SCALE
  5
4A
102
{ACAD_REACTORS
330
42
102
}
330
42
100
AcDbScale
 70
     0
300
3/16" = 1'-0"
140
0.1875
141
12.0
290
     0
  0
SCALE
  5
4B
102
{ACAD_REACTORS
330
42
102
}
330
42
100
AcDbScale
 70
     0
300
1/4" = 1'-0"
140
0.25
141
12.0
290
     0
  0
SCALE
  5
4C
102
{ACAD_REACTORS
330
42
102
}
330
42
100
AcDbScale
 70
     0
300
3/8" = 1'-0"
140
0.375
141
12.0
290
     0
  0
SCALE
  5
4D
102
{ACAD_REACTORS
330
42
102
}
330
42
100
AcDbScale
 70
     0
300
1/2" = 1'-0"
140
0.5
141
12.0
290
     0
  0
SCALE
  5
4E
102
{ACAD_REACTORS
330
42
102
}
330
42
100
AcDbScale
 70
     0
300
3/4" = 1'-0"
140
0.75
141
12.0
290
     0
  0
SCALE
  5
4F
102
{ACAD_REACTORS
330
42
102
}
330
42
100
AcDbScale
 70
     0
300
1" = 1'-0"
140
1.0
141
12.0
290
     0
  0
SCALE
  5
50
102
{ACAD_REACTORS
330
42
102
}
330
42
100
AcDbScale
 70
     0
300
1-1/2" = 1'-0"
140
1.5
141
12.0
290
     0
  0
SCALE
  5
51
102
{ACAD_REACTORS
330
42
102
}
330
42
100
AcDbScale
 70
     0
300
3" = 1'-0"
140
3.0
141
12.0
290
     0
  0
SCALE
  5
52
102
{ACAD_REACTORS
330
42
102
}
330
42
100
AcDbScale
 70
     0
300
6" = 1'-0"
140
6.0
141
12.0
290
     0
  0
SCALE
  5
53
102
{ACAD_REACTORS
330
42
102
}
330
42
100
AcDbScale
 70
     0
300
1'-0" = 1'-0"
140
12.0
141
12.0
290
     0
  0
ACDBSECTIONVIEWSTYLE
  5
68
102
{ACAD_XDICTIONARY
360
533
102
}
102
{ACAD_REACTORS
330
67
102
}
330
67
100
AcDbModelDocViewStyle
 70
     0
  3
Imperial24
290
     0
100
AcDbSectionViewStyle
 70
     0
 71
     0
 90
       78
 71
     1
340
55
 62
   256
 40
0.24
340
0
340
0
 62
   256
 40
0.24
300
I, O, Q, S, X, Z
 40
0.48
 90
        3
 40
0.18
 90
        1
 71
     2
340
5C
 90
       25
 62
   256
340
5C
 90
       50
 62
   256
 40
0.24
 40
0.0
 40
0.24
 71
     3
340
55
 62
   256
 40
0.24
 90
        1
 40
0.75
 90
        1
300
%<\AcVar ViewType \f "%tc1">% %<\AcVar ViewSectionStartId>%-%<\AcVar ViewSectionEndId>%\PSCALE %<\AcVar ViewScale \f "%sn">%
 71
     4
 62
   256
 62
   257
300
ANSI31
 40
1.0
 90
        0
290
     0
290
     0
 90
        6
 40
0.0
 40
1.570796326794896
 40
0.2617993877991494
 40
1.308996938995747
 40
-0.2617993877991494
 40
1.832595714594046
  0
TABLESTYLE
  5
64
102
{ACAD_XDICTIONARY
360
530
102
}
102
{ACAD_REACTORS
330
63
102
}
330
63
100
AcDbTableStyle
280
     0
  3
Standard
 70
     0
 71
     0
 40
0.06
 41
0.06
280
     0
281
     0
  7
Standard
140
0.18
170
     2
 62
     0
 63
     7
283
     0
 90
      512
 91
        0
  1

274
    -2
284
     1
 64
     0
275
    -2
285
     1
 65
     0
276
    -2
286
     1
 66
     0
277
    -2
287
     1
 67
     0
278
    -2
288
     1
 68
     0
279
    -2
289
     1
 69
     0
  7
Standard
140
0.25
170
     5
 62
     0
 63
     7
283
     0
 90
      512
 91
        0
  1

274
    -2
284
     1
 64
     0
275
    -2
285
     1
 65
     0
276
    -2
286
     1
 66
     0
277
    -2
287
     1
 67
     0
278
    -2
288
     1
 68
     0
279
    -2
289
     1
 69
     0
  7
Standard
140
0.18
170
     5
 62
     0
 63
     7
283
     0
 90
      512
 91
        0
  1

274
    -2
284
     1
 64
     0
275
    -2
285
     1
 65
     0
276
    -2
286
     1
 66
     0
277
    -2
287
     1
 67
     0
278
    -2
288
     1
 68
     0
279
    -2
289
     1
 69
     0
  0
VISUALSTYLE
  5
2F
102
{ACAD_REACTORS
330
29
102
}
330
29
100
AcDbVisualStyle
  2
2dWireframe
 70
     4
177
     3
291
     0
 70
    58
 90
        0
176
     1
 90
        2
176
     1
 90
        0
176
     1
 90
        0
176
     1
 40
0.6
176
     1
 40
30.0
176
     1
 62
     7
420
 16777215
176
     1
 90
        1
176
     1
 90
        4
176
     1
 62
     7
176
     1
 62
   257
176
     1
 90
        1
176
     1
 90
        1
176
     1
 40
1.0
176
     1
 90
        0
176
     1
 62
   257
176
     1
 40
1.0
176
     1
 90
        1
176
     1
 90
        6
176
     1
 90
        2
176
     1
 62
     7
176
     1
 90
        5
176
     1
 90
        0
176
     1
 90
        0
176
     1
290
     0
176
     1
 90
        1
176
     1
 40
0.0
176
     1
 90
        0
176
     1
290
     1
176
     1
290
     1
176
     1
290
     0
176
     1
290
     0
176
     1
290
     0
176
     1
290
     0
176
     1
290
     0
176
     1
290
     0
176
     1
290
     0
176
     1
 90
       50
176
     1
 40
0.0
176
     1
 40
1.0
176
     1
 90
        0
176
     1
 62
    18
420
        0
176
     1
 90
       50
176
     1
 90
        3
176
     1
 62
     5
420
      255
176
     1
290
     0
176
     1
 90
       50
176
     1
 90
       50
176
     1
 90
       50
176
     1
290
     0
176
     1
 90
       50
176
     1
 62
   256
176
     0
 40
1.0
176
     0
 90
        2
176
     1
  1
strokes_ogs.tif
176
     1
290
     0
176
     1
 40
1.0
176
     1
 40
1.0
176
     1
1001
ACAD
1000
AcDbSavedByObjectVersion
1070
     0
  0
VISUALSTYLE
  5
2E
102
{ACAD_REACTORS
330
29
102
}
330
29
100
AcDbVisualStyle
  2
Basic
 70
     7
177
     3
291
     1
 70
    58
 90
        1
176
     1
 90
        0
176
     1
 90
        1
176
     1
 90
        0
176
     1
 40
0.6
176
     1
 40
30.0
176
     1
 62
     7
420
 16777215
176
     1
 90
        0
176
     1
 90
        4
176
     1
 62
     7
176
     1
 62
   257
176
     1
 90
        1
176
     1
 90
        1
176
     1
 40
1.0
176
     1
 90
        8
176
     1
 62
     7
176
     1
 40
1.0
176
     1
 90
        1
176
     1
 90
        6
176
     1
 90
        2
176
     1
 62
     7
176
     1
 90
        5
176
     1
 90
        0
176
     1
 90
        0
176
     1
290
     0
176
     1
 90
        1
176
     1
 40
0.0
176
     1
 90
        0
176
     1
290
     0
176
     1
290
     1
176
     1
290
     1
176
     1
290
     0
176
     1
290
     0
176
     1
290
     0
176
     1
290
     0
176
     1
290
     0
176
     1
290
     0
176
     1
 90
       50
176
     1
 40
0.0
176
     1
 40
1.0
176
     1
 90
        0
176
     1
 62
    18
420
        0
176
     1
 90
       50
176
     1
 90
        3
176
     1
 62
     5
420
      255
176
     1
290
     0
176
     1
 90
       50
176
     1
 90
       50
176
     1
 90
       50
176
     1
290
     0
176
     1
 90
       50
176
     1
 62
   256
176
     0
 40
1.0
176
     0
 90
        2
176
     1
  1
strokes_ogs.tif
176
     1
290
     0
176
     1
 40
1.0
176
     1
 40
1.0
176
     1
1001
ACAD
1000
AcDbSavedByObjectVersion
1070
     0
  0
VISUALSTYLE
  5
35
102
{ACAD_REACTORS
330
29
102
}
330
29
100
AcDbVisualStyle
  2
Brighten
 70
    12
177
     3
291
     1
 70
    58
 90
        2
176
     1
 90
        2
176
     1
 90
        0
176
     1
 90
        0
176
     1
 40
0.6
176
     1
 40
30.0
176
     1
 62
     7
420
 16777215
176
     1
 90
        1
176
     1
 90
        4
176
     1
 62
     7
176
     1
 62
   257
176
     1
 90
        1
176
     1
 90
        1
176
     1
 40
1.0
176
     1
 90
        8
176
     1
 62
     7
176
     1
 40
1.0
176
     1
 90
        1
176
     1
 90
        6
176
     1
 90
        2
176
     1
 62
     7
176
     1
 90
        5
176
     1
 90
        0
176
     1
 90
        0
176
     1
290
     0
176
     1
 90
        1
176
     1
 40
50.0
176
     1
 90
        0
176
     1
290
     0
176
     1
290
     1
176
     1
290
     1
176
     1
290
     0
176
     1
290
     0
176
     1
290
     0
176
     1
290
     0
176
     1
290
     0
176
     1
290
     0
176
     1
 90
       50
176
     1
 40
0.0
176
     1
 40
1.0
176
     1
 90
        0
176
     1
 62
    18
420
        0
176
     1
 90
       50
176
     1
 90
        3
176
     1
 62
     5
420
      255
176
     1
290
     0
176
     1
 90
       50
176
     1
 90
       50
176
     1
 90
       50
176
     1
290
     0
176
     1
 90
       50
176
     1
 62
   256
176
     0
 40
1.0
176
     0
 90
        2
176
     1
  1
strokes_ogs.tif
176
     1
290
     0
176
     1
 40
1.0
176
     1
 40
1.0
176
     1
1001
ACAD
1000
AcDbSavedByObjectVersion
1070
     0
  0
VISUALSTYLE
  5
39
102
{ACAD_REACTORS
330
29
102
}
330
29
100
AcDbVisualStyle
  2
ColorChange
 70
    16
177
     3
291
     1
 70
    58
 90
        2
176
     1
 90
        2
176
     1
 90
        3
176
     1
 90
        0
176
     1
 40
0.6
176
     1
 40
30.0
176
     1
 62
     8
420
  8421504
176
     1
 90
        1
176
     1
 90
        4
176
     1
 62
     7
176
     1
 62
   257
176
     1
 90
        1
176
     1
 90
        1
176
     1
 40
1.0
176
     1
 90
        8
176
     1
 62
     8
420
  8421504
176
     1
 40
1.0
176
     1
 90
        1
176
     1
 90
        6
176
     1
 90
        2
176
     1
 62
     7
176
     1
 90
        5
176
     1
 90
        0
176
     1
 90
        0
176
     1
290
     0
176
     1
 90
        1
176
     1
 40
0.0
176
     1
 90
        0
176
     1
290
     0
176
     1
290
     1
176
     1
290
     1
176
     1
290
     0
176
     1
290
     0
176
     1
290
     0
176
     1
290
     0
176
     1
290
     0
176
     1
290
     0
176
     1
 90
       50
176
     1
 40
0.0
176
     1
 40
1.0
176
     1
 90
        0
176
     1
 62
    18
420
        0
176
     1
 90
       50
176
     1
 90
        3
176
     1
 62
     5
420
      255
176
     1
290
     0
176
     1
 90
       50
176
     1
 90
       50
176
     1
 90
       50
176
     1
290
     0
176
     1
 90
       50
176
     1
 62
   256
176
     0
 40
1.0
176
     0
 90
        2
176
     1
  1
strokes_ogs.tif
176
     1
290
     0
176
     1
 40
1.0
176
     1
 40
1.0
176
     1
1001
ACAD
1000
AcDbSavedByObjectVersion
1070
     0
  0
VISUALSTYLE
  5
32
102
{ACAD_REACTORS
330
29
102
}
330
29
100
AcDbVisualStyle
  2
Conceptual
 70
     9
177
     3
291
     0
 70
    58
 90
        3
176
     1
 90
        2
176
     1
 90
        0
176
     1
 90
        0
176
     1
 40
0.6
176
     1
 40
30.0
176
     1
 62
     7
420
 16777215
176
     1
 90
        2
176
     1
 90
        2
176
     1
 62
     7
176
     1
 62
   257
176
     1
 90
        1
176
     1
 90
        1
176
     1
 40
179.0
176
     1
 90
        8
176
     1
 62
     7
176
     1
 40
1.0
176
     1
 90
        1
176
     1
 90
        6
176
     1
 90
        2
176
     1
 62
     7
176
     1
 90
        3
176
     1
 90
        0
176
     1
 90
        0
176
     1
290
     0
176
     1
 90
        1
176
     1
 40
0.0
176
     1
 90
        0
176
     1
290
     0
176
     1
290
     1
176
     1
290
     1
176
     1
290
     0
176
     1
290
     0
176
     1
290
     0
176
     1
290
     0
176
     1
290
     0
176
     1
290
     0
176
     1
 90
       50
176
     1
 40
0.0
176
     1
 40
1.0
176
     1
 90
        0
176
     1
 62
    18
420
        0
176
     1
 90
       50
176
     1
 90
        3
176
     1
 62
     5
420
      255
176
     1
290
     0
176
     1
 90
       50
176
     1
 90
       50
176
     1
 90
       50
176
     1
290
     0
176
     1
 90
       50
176
     1
 62
   256
176
     0
 40
1.0
176
     0
 90
        2
176
     1
  1
strokes_ogs.tif
176
     1
290
     0
176
     1
 40
1.0
176
     1
 40
1.0
176
     1
1001
ACAD
1000
AcDbSavedByObjectVersion
1070
     0
  0
VISUALSTYLE
  5
34
102
{ACAD_REACTORS
330
29
102
}
330
29
100
AcDbVisualStyle
  2
Dim
 70
    11
177
     3
291
     1
 70
    58
 90
        2
176
     1
 90
        2
176
     1
 90
        0
176
     1
 90
        0
176
     1
 40
0.6
176
     1
 40
30.0
176
     1
 62
     7
420
 16777215
176
     1
 90
        1
176
     1
 90
        4
176
     1
 62
     7
176
     1
 62
   257
176
     1
 90
        1
176
     1
 90
        1
176
     1
 40
1.0
176
     1
 90
        8
176
     1
 62
     7
176
     1
 40
1.0
176
     1
 90
        1
176
     1
 90
        6
176
     1
 90
        2
176
     1
 62
     7
176
     1
 90
        5
176
     1
 90
        0
176
     1
 90
        0
176
     1
290
     0
176
     1
 90
        1
176
     1
 40
-50.0
176
     1
 90
        0
176
     1
290
     0
176
     1
290
     1
176
     1
290
     1
176
     1
290
     0
176
     1
290
     0
176
     1
290
     0
176
     1
290
     0
176
     1
290
     0
176
     1
290
     0
176
     1
 90
       50
176
     1
 40
0.0
176
     1
 40
1.0
176
     1
 90
        0
176
     1
 62
    18
420
        0
176
     1
 90
       50
176
     1
 90
        3
176
     1
 62
     5
420
      255
176
     1
290
     0
176
     1
 90
       50
176
     1
 90
       50
176
     1
 90
       50
176
     1
290
     0
176
     1
 90
       50
176
     1
 62
   256
176
     0
 40
1.0
176
     0
 90
        2
176
     1
  1
strokes_ogs.tif
176
     1
290
     0
176
     1
 40
1.0
176
     1
 40
1.0
176
     1
1001
ACAD
1000
AcDbSavedByObjectVersion
1070
     0
  0
VISUALSTYLE
  5
41
102
{ACAD_REACTORS
330
29
102
}
330
29
100
AcDbVisualStyle
  2
EdgeColorOff
 70
    22
177
     3
291
     1
 70
    58
 90
        2
176
     0
 90
        2
176
     0
 90
        0
176
     0
 90
        0
176
     0
 40
0.6
176
     0
 40
30.0
176
     0
 62
     7
420
 16777215
176
     0
 90
        1
176
     0
 90
        4
176
     0
 62
     7
176
     0
 62
   257
176
     0
 90
        1
176
     0
 90
        1
176
     0
 40
1.0
176
     0
 90
        8
176
     2
 62
     7
176
     0
 40
1.0
176
     0
 90
        1
176
     0
 90
        6
176
     0
 90
        2
176
     0
 62
     7
176
     0
 90
        5
176
     0
 90
        0
176
     0
 90
        0
176
     0
290
     0
176
     0
 90
        1
176
     0
 40
0.0
176
     0
 90
        0
176
     0
290
     0
176
     1
290
     1
176
     1
290
     1
176
     1
290
     0
176
     1
290
     0
176
     1
290
     0
176
     1
290
     0
176
     1
290
     0
176
     1
290
     0
176
     1
 90
       50
176
     0
 40
0.0
176
     0
 40
1.0
176
     0
 90
        0
176
     0
 62
    18
420
        0
176
     0
 90
       50
176
     0
 90
        3
176
     0
 62
     5
420
      255
176
     0
290
     0
176
     1
 90
       50
176
     0
 90
       50
176
     0
 90
       50
176
     0
290
     0
176
     1
 90
       50
176
     0
 62
   256
176
     0
 40
1.0
176
     0
 90
        2
176
     0
  1
strokes_ogs.tif
176
     0
290
     0
176
     1
 40
1.0
176
     0
 40
1.0
176
     0
1001
ACAD
1000
AcDbSavedByObjectVersion
1070
     0
  0
VISUALSTYLE
  5
38
102
{ACAD_REACTORS
330
29
102
}
330
29
100
AcDbVisualStyle
  2
Facepattern
 70
    15
177
     3
291
     1
 70
    58
 90
        2
176
     1
 90
        2
176
     1
 90
        0
176
     1
 90
        0
176
     1
 40
0.6
176
     1
 40
30.0
176
     1
 62
     7
420
 16777215
176
     1
 90
        1
176
     1
 90
        4
176
     1
 62
     7
176
     1
 62
   257
176
     1
 90
        1
176
     1
 90
        1
176
     1
 40
1.0
176
     1
 90
        8
176
     1
 62
     7
176
     1
 40
1.0
176
     1
 90
        1
176
     1
 90
        6
176
     1
 90
        2
176
     1
 62
     7
176
     1
 90
        5
176
     1
 90
        0
176
     1
 90
        0
176
     1
290
     0
176
     1
 90
        1
176
     1
 40
0.0
176
     1
 90
        0
176
     1
290
     0
176
     1
290
     1
176
     1
290
     1
176
     1
290
     0
176
     1
290
     0
176
     1
290
     0
176
     1
290
     0
176
     1
290
     0
176
     1
290
     0
176
     1
 90
       50
176
     1
 40
0.0
176
     1
 40
1.0
176
     1
 90
        0
176
     1
 62
    18
420
        0
176
     1
 90
       50
176
     1
 90
        3
176
     1
 62
     5
420
      255
176
     1
290
     0
176
     1
 90
       50
176
     1
 90
       50
176
     1
 90
       50
176
     1
290
     0
176
     1
 90
       50
176
     1
 62
   256
176
     0
 40
1.0
176
     0
 90
        2
176
     1
  1
strokes_ogs.tif
176
     1
290
     0
176
     1
 40
1.0
176
     1
 40
1.0
176
     1
1001
ACAD
1000
AcDbSavedByObjectVersion
1070
     0
  0
VISUALSTYLE
  5
2A
102
{ACAD_REACTORS
330
29
102
}
330
29
100
AcDbVisualStyle
  2
Flat
 70
     0
177
     3
291
     1
 70
    58
 90
        2
176
     1
 90
        1
176
     1
 90
        1
176
     1
 90
        2
176
     1
 40
0.6
176
     1
 40
30.0
176
     1
 62
     7
420
 16777215
176
     1
 90
        0
176
     1
 90
        0
176
     1
 62
     7
176
     1
 62
   257
176
     1
 90
        1
176
     1
 90
        1
176
     1
 40
1.0
176
     1
 90
        8
176
     1
 62
     7
176
     1
 40
1.0
176
     1
 90
        1
176
     1
 90
        6
176
     1
 90
        2
176
     1
 62
     7
176
     1
 90
        5
176
     1
 90
        0
176
     1
 90
        0
176
     1
290
     0
176
     1
 90
       13
176
     1
 40
0.0
176
     1
 90
        0
176
     1
290
     0
176
     1
290
     1
176
     1
290
     1
176
     1
290
     0
176
     1
290
     0
176
     1
290
     0
176
     1
290
     0
176
     1
290
     0
176
     1
290
     0
176
     1
 90
       50
176
     1
 40
0.0
176
     1
 40
1.0
176
     1
 90
        0
176
     1
 62
    18
420
        0
176
     1
 90
       50
176
     1
 90
        3
176
     1
 62
     5
420
      255
176
     1
290
     0
176
     1
 90
       50
176
     1
 90
       50
176
     1
 90
       50
176
     1
290
     0
176
     1
 90
       50
176
     1
 62
   256
176
     0
 40
1.0
176
     0
 90
        2
176
     1
  1
strokes_ogs.tif
176
     1
290
     0
176
     1
 40
1.0
176
     1
 40
1.0
176
     1
1001
ACAD
1000
AcDbSavedByObjectVersion
1070
     0
  0
VISUALSTYLE
  5
2B
102
{ACAD_REACTORS
330
29
102
}
330
29
100
AcDbVisualStyle
  2
FlatWithEdges
 70
     1
177
     3
291
     1
 70
    58
 90
        2
176
     1
 90
        1
176
     1
 90
        1
176
     1
 90
        2
176
     1
 40
0.6
176
     1
 40
30.0
176
     1
 62
     7
420
 16777215
176
     1
 90
        1
176
     1
 90
        0
176
     1
 62
     7
176
     1
 62
   257
176
     1
 90
        1
176
     1
 90
        1
176
     1
 40
1.0
176
     1
 90
        0
176
     1
 62
   257
176
     1
 40
1.0
176
     1
 90
        1
176
     1
 90
        6
176
     1
 90
        2
176
     1
 62
     7
176
     1
 90
        5
176
     1
 90
        0
176
     1
 90
        0
176
     1
290
     0
176
     1
 90
       13
176
     1
 40
0.0
176
     1
 90
        0
176
     1
290
     0
176
     1
290
     1
176
     1
290
     1
176
     1
290
     0
176
     1
290
     0
176
     1
290
     0
176
     1
290
     0
176
     1
290
     0
176
     1
290
     0
176
     1
 90
       50
176
     1
 40
0.0
176
     1
 40
1.0
176
     1
 90
        0
176
     1
 62
    18
420
        0
176
     1
 90
       50
176
     1
 90
        3
176
     1
 62
     5
420
      255
176
     1
290
     0
176
     1
 90
       50
176
     1
 90
       50
176
     1
 90
       50
176
     1
290
     0
176
     1
 90
       50
176
     1
 62
   256
176
     0
 40
1.0
176
     0
 90
        2
176
     1
  1
strokes_ogs.tif
176
     1
290
     0
176
     1
 40
1.0
176
     1
 40
1.0
176
     1
1001
ACAD
1000
AcDbSavedByObjectVersion
1070
     0
  0
VISUALSTYLE
  5
2C
102
{ACAD_REACTORS
330
29
102
}
330
29
100
AcDbVisualStyle
  2
Gouraud
 70
     2
177
     3
291
     1
 70
    58
 90
        2
176
     1
 90
        2
176
     1
 90
        1
176
     1
 90
        2
176
     1
 40
0.6
176
     1
 40
30.0
176
     1
 62
     7
420
 16777215
176
     1
 90
        0
176
     1
 90
        0
176
     1
 62
     7
176
     1
 62
   257
176
     1
 90
        1
176
     1
 90
        1
176
     1
 40
1.0
176
     1
 90
        0
176
     1
 62
     7
176
     1
 40
1.0
176
     1
 90
        1
176
     1
 90
        6
176
     1
 90
        2
176
     1
 62
     7
176
     1
 90
        5
176
     1
 90
        0
176
     1
 90
        0
176
     1
290
     0
176
     1
 90
       13
176
     1
 40
0.0
176
     1
 90
        0
176
     1
290
     0
176
     1
290
     1
176
     1
290
     1
176
     1
290
     0
176
     1
290
     0
176
     1
290
     0
176
     1
290
     0
176
     1
290
     0
176
     1
290
     0
176
     1
 90
       50
176
     1
 40
0.0
176
     1
 40
1.0
176
     1
 90
        0
176
     1
 62
    18
420
        0
176
     1
 90
       50
176
     1
 90
        3
176
     1
 62
     5
420
      255
176
     1
290
     0
176
     1
 90
       50
176
     1
 90
       50
176
     1
 90
       50
176
     1
290
     0
176
     1
 90
       50
176
     1
 62
   256
176
     0
 40
1.0
176
     0
 90
        2
176
     1
  1
strokes_ogs.tif
176
     1
290
     0
176
     1
 40
1.0
176
     1
 40
1.0
176
     1
1001
ACAD
1000
AcDbSavedByObjectVersion
1070
     0
  0
VISUALSTYLE
  5
2D
102
{ACAD_REACTORS
330
29
102
}
330
29
100
AcDbVisualStyle
  2
GouraudWithEdges
 70
     3
177
     3
291
     1
 70
    58
 90
        2
176
     1
 90
        2
176
     1
 90
        1
176
     1
 90
        2
176
     1
 40
0.6
176
     1
 40
30.0
176
     1
 62
     7
420
 16777215
176
     1
 90
        1
176
     1
 90
        0
176
     1
 62
     7
176
     1
 62
   257
176
     1
 90
        1
176
     1
 90
        1
176
     1
 40
1.0
176
     1
 90
        0
176
     1
 62
   257
176
     1
 40
1.0
176
     1
 90
        1
176
     1
 90
        6
176
     1
 90
        2
176
     1
 62
     7
176
     1
 90
        5
176
     1
 90
        0
176
     1
 90
        0
176
     1
290
     0
176
     1
 90
       13
176
     1
 40
0.0
176
     1
 90
        0
176
     1
290
     0
176
     1
290
     1
176
     1
290
     1
176
     1
290
     0
176
     1
290
     0
176
     1
290
     0
176
     1
290
     0
176
     1
290
     0
176
     1
290
     0
176
     1
 90
       50
176
     1
 40
0.0
176
     1
 40
1.0
176
     1
 90
        0
176
     1
 62
    18
420
        0
176
     1
 90
       50
176
     1
 90
        3
176
     1
 62
     5
420
      255
176
     1
290
     0
176
     1
 90
       50
176
     1
 90
       50
176
     1
 90
       50
176
     1
290
     0
176
     1
 90
       50
176
     1
 62
   256
176
     0
 40
1.0
176
     0
 90
        2
176
     1
  1
strokes_ogs.tif
176
     1
290
     0
176
     1
 40
1.0
176
     1
 40
1.0
176
     1
1001
ACAD
1000
AcDbSavedByObjectVersion
1070
     0
  0
VISUALSTYLE
  5
31
102
{ACAD_REACTORS
330
29
102
}
330
29
100
AcDbVisualStyle
  2
Hidden
 70
     6
177
     3
291
     0
 70
    58
 90
        1
176
     1
 90
        2
176
     1
 90
        2
176
     1
 90
        0
176
     1
 40
0.6
176
     1
 40
30.0
176
     1
 62
     7
420
 16777215
176
     1
 90
        2
176
     1
 90
        2
176
     1
 62
     7
176
     1
 62
   257
176
     1
 90
        2
176
     1
 90
        1
176
     1
 40
40.0
176
     1
 90
        0
176
     1
 62
   257
176
     1
 40
1.0
176
     1
 90
        1
176
     1
 90
        6
176
     1
 90
        2
176
     1
 62
     7
176
     1
 90
        3
176
     1
 90
        0
176
     1
 90
        0
176
     1
290
     0
176
     1
 90
        1
176
     1
 40
0.0
176
     1
 90
        0
176
     1
290
     0
176
     1
290
     1
176
     1
290
     1
176
     1
290
     0
176
     1
290
     0
176
     1
290
     0
176
     1
290
     0
176
     1
290
     0
176
     1
290
     0
176
     1
 90
       50
176
     1
 40
0.0
176
     1
 40
1.0
176
     1
 90
        0
176
     1
 62
    18
420
        0
176
     1
 90
       50
176
     1
 90
        3
176
     1
 62
     5
420
      255
176
     1
290
     0
176
     1
 90
       50
176
     1
 90
       50
176
     1
 90
       50
176
     1
290
     0
176
     1
 90
       50
176
     1
 62
   256
176
     0
 40
1.0
176
     0
 90
        2
176
     1
  1
strokes_ogs.tif
176
     1
290
     0
176
     1
 40
1.0
176
     1
 40
1.0
176
     1
1001
ACAD
1000
AcDbSavedByObjectVersion
1070
     0
  0
VISUALSTYLE
  5
3F
102
{ACAD_REACTORS
330
29
102
}
330
29
100
AcDbVisualStyle
  2
JitterOff
 70
    20
177
     3
291
     1
 70
    58
 90
        2
176
     0
 90
        2
176
     0
 90
        0
176
     0
 90
        0
176
     0
 40
0.6
176
     0
 40
30.0
176
     0
 62
     7
420
 16777215
176
     0
 90
        1
176
     0
 90
        4
176
     0
 62
     7
176
     0
 62
   257
176
     0
 90
        1
176
     0
 90
        1
176
     0
 40
1.0
176
     0
 90
       10
176
     2
 62
     7
176
     0
 40
1.0
176
     0
 90
        1
176
     0
 90
        6
176
     0
 90
        2
176
     0
 62
     7
176
     0
 90
        5
176
     0
 90
        0
176
     0
 90
        0
176
     0
290
     0
176
     0
 90
        1
176
     0
 40
0.0
176
     0
 90
        0
176
     0
290
     0
176
     1
290
     1
176
     1
290
     1
176
     1
290
     0
176
     1
290
     0
176
     1
290
     0
176
     1
290
     0
176
     1
290
     0
176
     1
290
     0
176
     1
 90
       50
176
     0
 40
0.0
176
     0
 40
1.0
176
     0
 90
        0
176
     0
 62
    18
420
        0
176
     0
 90
       50
176
     0
 90
        3
176
     0
 62
     5
420
      255
176
     0
290
     0
176
     1
 90
       50
176
     0
 90
       50
176
     0
 90
       50
176
     0
290
     0
176
     1
 90
       50
176
     0
 62
   256
176
     0
 40
1.0
176
     0
 90
        2
176
     0
  1
strokes_ogs.tif
176
     0
290
     0
176
     1
 40
1.0
176
     0
 40
1.0
176
     0
1001
ACAD
1000
AcDbSavedByObjectVersion
1070
     0
  0
VISUALSTYLE
  5
37
102
{ACAD_REACTORS
330
29
102
}
330
29
100
AcDbVisualStyle
  2
Linepattern
 70
    14
177
     3
291
     1
 70
    58
 90
        2
176
     1
 90
        2
176
     1
 90
        0
176
     1
 90
        0
176
     1
 40
0.6
176
     1
 40
30.0
176
     1
 62
     7
420
 16777215
176
     1
 90
        1
176
     1
 90
        4
176
     1
 62
     7
176
     1
 62
   257
176
     1
 90
        7
176
     1
 90
        7
176
     1
 40
1.0
176
     1
 90
        8
176
     1
 62
     7
176
     1
 40
1.0
176
     1
 90
        1
176
     1
 90
        6
176
     1
 90
        2
176
     1
 62
     7
176
     1
 90
        5
176
     1
 90
        0
176
     1
 90
        0
176
     1
290
     0
176
     1
 90
        1
176
     1
 40
0.0
176
     1
 90
        0
176
     1
290
     0
176
     1
290
     1
176
     1
290
     1
176
     1
290
     0
176
     1
290
     0
176
     1
290
     0
176
     1
290
     0
176
     1
290
     0
176
     1
290
     0
176
     1
 90
       50
176
     1
 40
0.0
176
     1
 40
1.0
176
     1
 90
        0
176
     1
 62
    18
420
        0
176
     1
 90
       50
176
     1
 90
        3
176
     1
 62
     5
420
      255
176
     1
290
     0
176
     1
 90
       50
176
     1
 90
       50
176
     1
 90
       50
176
     1
290
     0
176
     1
 90
       50
176
     1
 62
   256
176
     0
 40
1.0
176
     0
 90
        2
176
     1
  1
strokes_ogs.tif
176
     1
290
     0
176
     1
 40
1.0
176
     1
 40
1.0
176
     1
1001
ACAD
1000
AcDbSavedByObjectVersion
1070
     0
  0
VISUALSTYLE
  5
40
102
{ACAD_REACTORS
330
29
102
}
330
29
100
AcDbVisualStyle
  2
OverhangOff
 70
    21
177
     3
291
     1
 70
    58
 90
        2
176
     0
 90
        2
176
     0
 90
        0
176
     0
 90
        0
176
     0
 40
0.6
176
     0
 40
30.0
176
     0
 62
     7
420
 16777215
176
     0
 90
        1
176
     0
 90
        4
176
     0
 62
     7
176
     0
 62
   257
176
     0
 90
        1
176
     0
 90
        1
176
     0
 40
1.0
176
     0
 90
        9
176
     2
 62
     7
176
     0
 40
1.0
176
     0
 90
        1
176
     0
 90
        6
176
     0
 90
        2
176
     0
 62
     7
176
     0
 90
        5
176
     0
 90
        0
176
     0
 90
        0
176
     0
290
     0
176
     0
 90
        1
176
     0
 40
0.0
176
     0
 90
        0
176
     0
290
     0
176
     1
290
     1
176
     1
290
     1
176
     1
290
     0
176
     1
290
     0
176
     1
290
     0
176
     1
290
     0
176
     1
290
     0
176
     1
290
     0
176
     1
 90
       50
176
     0
 40
0.0
176
     0
 40
1.0
176
     0
 90
        0
176
     0
 62
    18
420
        0
176
     0
 90
       50
176
     0
 90
        3
176
     0
 62
     5
420
      255
176
     0
290
     0
176
     1
 90
       50
176
     0
 90
       50
176
     0
 90
       50
176
     0
290
     0
176
     1
 90
       50
176
     0
 62
   256
176
     0
 40
1.0
176
     0
 90
        2
176
     0
  1
strokes_ogs.tif
176
     0
290
     0
176
     1
 40
1.0
176
     0
 40
1.0
176
     0
1001
ACAD
1000
AcDbSavedByObjectVersion
1070
     0
  0
VISUALSTYLE
  5
33
102
{ACAD_REACTORS
330
29
102
}
330
29
100
AcDbVisualStyle
  2
Realistic
 70
     8
177
     3
291
     0
 70
    58
 90
        2
176
     1
 90
        3
176
     1
 90
        0
176
     1
 90
        2
176
     1
 40
0.6
176
     1
 40
30.0
176
     1
 62
     7
420
 16777215
176
     1
 90
        0
176
     1
 90
        0
176
     1
 62
     7
176
     1
 62
   257
176
     1
 90
        1
176
     1
 90
        1
176
     1
 40
1.0
176
     1
 90
        8
176
     1
 62
   257
176
     1
 40
1.0
176
     1
 90
        1
176
     1
 90
        6
176
     1
 90
        2
176
     1
 62
     7
176
     1
 90
        3
176
     1
 90
        0
176
     1
 90
        0
176
     1
290
     0
176
     1
 90
       13
176
     1
 40
0.0
176
     1
 90
        0
176
     1
290
     0
176
     1
290
     1
176
     1
290
     1
176
     1
290
     0
176
     1
290
     0
176
     1
290
     0
176
     1
290
     0
176
     1
290
     0
176
     1
290
     0
176
     1
 90
       50
176
     1
 40
0.0
176
     1
 40
1.0
176
     1
 90
        0
176
     1
 62
    18
420
        0
176
     1
 90
       50
176
     1
 90
        3
176
     1
 62
     5
420
      255
176
     1
290
     0
176
     1
 90
       50
176
     1
 90
       50
176
     1
 90
       50
176
     1
290
     0
176
     1
 90
       50
176
     1
 62
   256
176
     0
 40
1.0
176
     0
 90
        2
176
     1
  1
strokes_ogs.tif
176
     1
290
     0
176
     1
 40
1.0
176
     1
 40
1.0
176
     1
1001
ACAD
1000
AcDbSavedByObjectVersion
1070
     0
  0
VISUALSTYLE
  5
3E
102
{ACAD_REACTORS
330
29
102
}
330
29
100
AcDbVisualStyle
  2
Shaded
 70
    27
177
     3
291
     0
 70
    58
 90
        2
176
     1
 90
        2
176
     1
 90
        1
176
     1
 90
        2
176
     1
 40
0.6
176
     1
 40
30.0
176
     1
 62
     7
420
 16777215
176
     1
 90
        0
176
     1
 90
        4
176
     1
 62
     7
176
     1
 62
   257
176
     1
 90
        1
176
     1
 90
        1
176
     1
 40
1.0
176
     1
 90
        8
176
     1
 62
   257
176
     1
 40
1.0
176
     1
 90
        1
176
     1
 90
        6
176
     1
 90
        2
176
     1
 62
     8
420
  7895160
176
     1
 90
        3
176
     1
 90
        0
176
     1
 90
        0
176
     1
290
     0
176
     1
 90
        5
176
     1
 40
0.0
176
     1
 90
        0
176
     1
290
     0
176
     1
290
     1
176
     1
290
     1
176
     1
290
     0
176
     1
290
     0
176
     1
290
     0
176
     1
290
     0
176
     1
290
     0
176
     1
290
     0
176
     1
 90
       50
176
     1
 40
0.0
176
     1
 40
1.0
176
     1
 90
        0
176
     1
 62
    18
420
        0
176
     1
 90
       50
176
     1
 90
        3
176
     1
 62
     5
420
      255
176
     1
290
     0
176
     1
 90
       50
176
     1
 90
       50
176
     1
 90
       50
176
     1
290
     0
176
     1
 90
       50
176
     1
 62
   256
176
     0
 40
1.0
176
     0
 90
        2
176
     1
  1
strokes_ogs.tif
176
     1
290
     0
176
     1
 40
1.0
176
     1
 40
1.0
176
     1
1001
ACAD
1000
AcDbSavedByObjectVersion
1070
     0
  0
VISUALSTYLE
  5
3D
102
{ACAD_REACTORS
330
29
102
}
330
29
100
AcDbVisualStyle
  2
Shaded with edges
 70
    26
177
     3
291
     0
 70
    58
 90
        2
176
     1
 90
        2
176
     1
 90
        1
176
     1
 90
        2
176
     1
 40
0.6
176
     1
 40
30.0
176
     1
 62
     7
420
 16777215
176
     1
 90
        1
176
     1
 90
        2
176
     1
 62
     7
176
     1
 62
   257
176
     1
 90
        2
176
     1
 90
        1
176
     1
 40
1.0
176
     1
 90
        8
176
     1
 62
   257
176
     1
 40
1.0
176
     1
 90
        1
176
     1
 90
        6
176
     1
 90
        2
176
     1
 62
     7
176
     1
 90
        3
176
     1
 90
        0
176
     1
 90
        0
176
     1
290
     0
176
     1
 90
        5
176
     1
 40
0.0
176
     1
 90
        0
176
     1
290
     0
176
     1
290
     1
176
     1
290
     1
176
     1
290
     0
176
     1
290
     0
176
     1
290
     0
176
     1
290
     0
176
     1
290
     0
176
     1
290
     0
176
     1
 90
       50
176
     1
 40
0.0
176
     1
 40
1.0
176
     1
 90
        0
176
     1
 62
    18
420
        0
176
     1
 90
       50
176
     1
 90
        3
176
     1
 62
     5
420
      255
176
     1
290
     0
176
     1
 90
       50
176
     1
 90
       50
176
     1
 90
       50
176
     1
290
     0
176
     1
 90
       50
176
     1
 62
   256
176
     0
 40
1.0
176
     0
 90
        2
176
     1
  1
strokes_ogs.tif
176
     1
290
     0
176
     1
 40
1.0
176
     1
 40
1.0
176
     1
1001
ACAD
1000
AcDbSavedByObjectVersion
1070
     0
  0
VISUALSTYLE
  5
3A
102
{ACAD_REACTORS
330
29
102
}
330
29
100
AcDbVisualStyle
  2
Shades of Gray
 70
    23
177
     3
291
     0
 70
    58
 90
        2
176
     1
 90
        2
176
     1
 90
        3
176
     1
 90
        0
176
     1
 40
0.6
176
     1
 40
30.0
176
     1
 62
     7
420
 16777215
176
     1
 90
        2
176
     1
 90
        2
176
     1
 62
     7
176
     1
 62
     7
176
     1
 90
        1
176
     1
 90
        1
176
     1
 40
40.0
176
     1
 90
        8
176
     1
 62
     7
176
     1
 40
1.0
176
     1
 90
        1
176
     1
 90
        6
176
     1
 90
        2
176
     1
 62
     7
176
     1
 90
        3
176
     1
 90
        0
176
     1
 90
        0
176
     1
290
     0
176
     1
 90
        1
176
     1
 40
0.0
176
     1
 90
        0
176
     1
290
     0
176
     1
290
     1
176
     1
290
     1
176
     1
290
     0
176
     1
290
     0
176
     1
290
     0
176
     1
290
     0
176
     1
290
     0
176
     1
290
     0
176
     1
 90
       50
176
     1
 40
0.0
176
     1
 40
1.0
176
     1
 90
        0
176
     1
 62
    18
420
        0
176
     1
 90
       50
176
     1
 90
        3
176
     1
 62
     5
420
      255
176
     1
290
     0
176
     1
 90
       50
176
     1
 90
       50
176
     1
 90
       50
176
     1
290
     0
176
     1
 90
       50
176
     1
 62
   256
176
     0
 40
1.0
176
     0
 90
        2
176
     1
  1
strokes_ogs.tif
176
     1
290
     0
176
     1
 40
1.0
176
     1
 40
1.0
176
     1
1001
ACAD
1000
AcDbSavedByObjectVersion
1070
     0
  0
VISUALSTYLE
  5
3B
102
{ACAD_REACTORS
330
29
102
}
330
29
100
AcDbVisualStyle
  2
Sketchy
 70
    24
177
     3
291
     0
 70
    58
 90
        1
176
     1
 90
        2
176
     1
 90
        2
176
     1
 90
        0
176
     1
 40
0.6
176
     1
 40
30.0
176
     1
 62
     7
420
 16777215
176
     1
 90
        2
176
     1
 90
        2
176
     1
 62
     7
176
     1
 62
     7
176
     1
 90
        1
176
     1
 90
        1
176
     1
 40
40.0
176
     1
 90
       11
176
     1
 62
     7
176
     1
 40
1.0
176
     1
 90
        1
176
     1
 90
        6
176
     1
 90
        2
176
     1
 62
     7
176
     1
 90
        6
176
     1
 90
        0
176
     1
 90
        0
176
     1
290
     0
176
     1
 90
        1
176
     1
 40
0.0
176
     1
 90
        0
176
     1
290
     0
176
     1
290
     1
176
     1
290
     1
176
     1
290
     0
176
     1
290
     0
176
     1
290
     0
176
     1
290
     0
176
     1
290
     0
176
     1
290
     0
176
     1
 90
       50
176
     1
 40
0.0
176
     1
 40
1.0
176
     1
 90
        0
176
     1
 62
    18
420
        0
176
     1
 90
       50
176
     1
 90
        3
176
     1
 62
     5
420
      255
176
     1
290
     0
176
     1
 90
       50
176
     1
 90
       50
176
     1
 90
       50
176
     1
290
     0
176
     1
 90
       50
176
     1
 62
   256
176
     0
 40
1.0
176
     0
 90
        2
176
     1
  1
strokes_ogs.tif
176
     1
290
     0
176
     1
 40
1.0
176
     1
 40
1.0
176
     1
1001
ACAD
1000
AcDbSavedByObjectVersion
1070
     0
  0
VISUALSTYLE
  5
36
102
{ACAD_REACTORS
330
29
102
}
330
29
100
AcDbVisualStyle
  2
Thicken
 70
    13
177
     3
291
     1
 70
    58
 90
        2
176
     1
 90
        2
176
     1
 90
        0
176
     1
 90
        0
176
     1
 40
0.6
176
     1
 40
30.0
176
     1
 62
     7
420
 16777215
176
     1
 90
        1
176
     1
 90
        4
176
     1
 62
     7
176
     1
 62
   257
176
     1
 90
        1
176
     1
 90
        1
176
     1
 40
1.0
176
     1
 90
       12
176
     1
 62
     7
176
     1
 40
1.0
176
     1
 90
        1
176
     1
 90
        6
176
     1
 90
        2
176
     1
 62
     7
176
     1
 90
        5
176
     1
 90
        0
176
     1
 90
        0
176
     1
290
     0
176
     1
 90
        1
176
     1
 40
0.0
176
     1
 90
        0
176
     1
290
     0
176
     1
290
     1
176
     1
290
     1
176
     1
290
     0
176
     1
290
     0
176
     1
290
     0
176
     1
290
     0
176
     1
290
     0
176
     1
290
     0
176
     1
 90
       50
176
     1
 40
0.0
176
     1
 40
1.0
176
     1
 90
        0
176
     1
 62
    18
420
        0
176
     1
 90
       50
176
     1
 90
        3
176
     1
 62
     5
420
      255
176
     1
290
     0
176
     1
 90
       50
176
     1
 90
       50
176
     1
 90
       50
176
     1
290
     0
176
     1
 90
       50
176
     1
 62
   256
176
     0
 40
1.0
176
     0
 90
        2
176
     1
  1
strokes_ogs.tif
176
     1
290
     0
176
     1
 40
1.0
176
     1
 40
1.0
176
     1
1001
ACAD
1000
AcDbSavedByObjectVersion
1070
     0
  0
VISUALSTYLE
  5
30
102
{ACAD_REACTORS
330
29
102
}
330
29
100
AcDbVisualStyle
  2
Wireframe
 70
     5
177
     3
291
     0
 70
    58
 90
        0
176
     1
 90
        2
176
     1
 90
        0
176
     1
 90
        0
176
     1
 40
0.6
176
     1
 40
30.0
176
     1
 62
     7
420
 16777215
176
     1
 90
        1
176
     1
 90
        4
176
     1
 62
     7
176
     1
 62
   257
176
     1
 90
        1
176
     1
 90
        1
176
     1
 40
1.0
176
     1
 90
        0
176
     1
 62
   257
176
     1
 40
1.0
176
     1
 90
        1
176
     1
 90
        6
176
     1
 90
        2
176
     1
 62
     7
176
     1
 90
        3
176
     1
 90
        0
176
     1
 90
        0
176
     1
290
     0
176
     1
 90
        1
176
     1
 40
0.0
176
     1
 90
        0
176
     1
290
     0
176
     1
290
     1
176
     1
290
     1
176
     1
290
     0
176
     1
290
     0
176
     1
290
     0
176
     1
290
     0
176
     1
290
     0
176
     1
290
     0
176
     1
 90
       50
176
     1
 40
0.0
176
     1
 40
1.0
176
     1
 90
        0
176
     1
 62
    18
420
        0
176
     1
 90
       50
176
     1
 90
        3
176
     1
 62
     5
420
      255
176
     1
290
     0
176
     1
 90
       50
176
     1
 90
       50
176
     1
 90
       50
176
     1
290
     0
176
     1
 90
       50
176
     1
 62
   256
176
     0
 40
1.0
176
     0
 90
        2
176
     1
  1
strokes_ogs.tif
176
     1
290
     0
176
     1
 40
1.0
176
     1
 40
1.0
176
     1
1001
ACAD
1000
AcDbSavedByObjectVersion
1070
     0
  0
VISUALSTYLE
  5
3C
102
{ACAD_REACTORS
330
29
102
}
330
29
100
AcDbVisualStyle
  2
X-Ray
 70
    25
177
     3
291
     0
 70
    58
 90
        2
176
     1
 90
        2
176
     1
 90
        1
176
     1
 90
        1
176
     1
 40
0.5
176
     1
 40
30.0
176
     1
 62
     7
420
 16777215
176
     1
 90
        1
176
     1
 90
        0
176
     1
 62
     7
176
     1
 62
   257
176
     1
 90
        1
176
     1
 90
        1
176
     1
 40
1.0
176
     1
 90
        8
176
     1
 62
     7
176
     1
 40
1.0
176
     1
 90
        1
176
     1
 90
        6
176
     1
 90
        2
176
     1
 62
     7
176
     1
 90
        3
176
     1
 90
        0
176
     1
 90
        0
176
     1
290
     0
176
     1
 90
       13
176
     1
 40
0.0
176
     1
 90
        0
176
     1
290
     0
176
     1
290
     1
176
     1
290
     1
176
     1
290
     0
176
     1
290
     0
176
     1
290
     0
176
     1
290
     0
176
     1
290
     0
176
     1
290
     0
176
     1
 90
       50
176
     1
 40
0.0
176
     1
 40
1.0
176
     1
 90
        0
176
     1
 62
    18
420
        0
176
     1
 90
       50
176
     1
 90
        3
176
     1
 62
     5
420
      255
176
     1
290
     0
176
     1
 90
       50
176
     1
 90
       50
176
     1
 90
       50
176
     1
290
     0
176
     1
 90
       50
176
     1
 62
   256
176
     0
 40
1.0
176
     0
 90
        2
176
     1
  1
strokes_ogs.tif
176
     1
290
     0
176
     1
 40
1.0
176
     1
 40
1.0
176
     1
1001
ACAD
1000
AcDbSavedByObjectVersion
1070
     0
  0
DICTIONARYVAR
  5
52C
102
{ACAD_REACTORS
330
223
102
}
330
223
100
DictionaryVariables
280
     0
  1
1:1
  0
DICTIONARYVAR
  5
528
102
{ACAD_REACTORS
330
223
102
}
330
223
100
DictionaryVariables
280
     0
  1
STANDARD
  0
DICTIONARYVAR
  5
527
102
{ACAD_REACTORS
330
223
102
}
330
223
100
DictionaryVariables
280
     0
  1
STANDARD
  0
DICTIONARYVAR
  5
529
102
{ACAD_REACTORS
330
223
102
}
330
223
100
DictionaryVariables
280
     0
  1
Imperial24
  0
DICTIONARYVAR
  5
52A
102
{ACAD_REACTORS
330
223
102
}
330
223
100
DictionaryVariables
280
     0
  1
Imperial24
  0
DICTIONARYVAR
  5
52E
102
{ACAD_REACTORS
330
223
102
}
330
223
100
DictionaryVariables
280
     0
  1
1
  0
DICTIONARYVAR
  5
52F
102
{ACAD_REACTORS
330
223
102
}
330
223
100
DictionaryVariables
280
     0
  1
15
  0
DICTIONARYVAR
  5
52D
102
{ACAD_REACTORS
330
223
102
}
330
223
100
DictionaryVariables
280
     0
  1
0
  0
DICTIONARYVAR
  5
52B
102
{ACAD_REACTORS
330
223
102
}
330
223
100
DictionaryVariables
280
     0
  1
0
  0
DICTIONARY
  5
535
330
6A
100
AcDbDictionary
280
     1
281
     1
  3
ACAD_XREC_ROUNDTRIP
360
536
  0
DICTIONARY
  5
1A
330
19
100
AcDbDictionary
280
     1
281
     1
  3
BUMPTILE
360
1C
  3
DIFFUSETILE
360
1B
  3
OPACITYTILE
360
1F
  3
REFLECTIONTILE
360
1E
  3
REFRACTIONTILE
360
20
  3
SPECULARTILE
360
1D
  0
DICTIONARY
  5
12
330
11
100
AcDbDictionary
280
     1
281
     1
  3
BUMPTILE
360
14
  3
DIFFUSETILE
360
13
  3
OPACITYTILE
360
17
  3
REFLECTIONTILE
360
16
  3
REFRACTIONTILE
360
18
  3
SPECULARTILE
360
15
  0
DICTIONARY
  5
22
330
21
100
AcDbDictionary
280
     1
281
     1
  3
BUMPTILE
360
24
  3
DIFFUSETILE
360
23
  3
OPACITYTILE
360
27
  3
REFLECTIONTILE
360
26
  3
REFRACTIONTILE
360
28
  3
SPECULARTILE
360
25
  0
DICTIONARY
  5
533
330
68
100
AcDbDictionary
280
     1
281
     1
  3
ACAD_XREC_ROUNDTRIP
360
534
  0
DICTIONARY
  5
530
330
64
100
AcDbDictionary
280
     1
281
     1
  3
ACAD_ROUNDTRIP_2008_TABLESTYLE_CELLSTYLEMAP
360
531
  0
XRECORD
  5
536
102
{ACAD_REACTORS
330
535
102
}
330
535
100
AcDbXrecord
280
     1
102
DISPLAYNAME
  1
Imperial24
102
FLAGS
 90
        0
  0
XRECORD
  5
1C
102
{ACAD_REACTORS
330
1A
102
}
330
1A
100
AcDbXrecord
280
     1
270
     1
271
     1
  0
XRECORD
  5
1B
102
{ACAD_REACTORS
330
1A
102
}
330
1A
100
AcDbXrecord
280
     1
270
     1
271
     1
  0
XRECORD
  5
1F
102
{ACAD_REACTORS
330
1A
102
}
330
1A
100
AcDbXrecord
280
     1
270
     1
271
     1
  0
XRECORD
  5
1E
102
{ACAD_REACTORS
330
1A
102
}
330
1A
100
AcDbXrecord
280
     1
270
     1
271
     1
  0
XRECORD
  5
20
102
{ACAD_REACTORS
330
1A
102
}
330
1A
100
AcDbXrecord
280
     1
270
     1
271
     1
  0
XRECORD
  5
1D
102
{ACAD_REACTORS
330
1A
102
}
330
1A
100
AcDbXrecord
280
     1
270
     1
271
     1
  0
XRECORD
  5
14
102
{ACAD_REACTORS
330
12
102
}
330
12
100
AcDbXrecord
280
     1
270
     1
271
     1
  0
XRECORD
  5
13
102
{ACAD_REACTORS
330
12
102
}
330
12
100
AcDbXrecord
280
     1
270
     1
271
     1
  0
XRECORD
  5
17
102
{ACAD_REACTORS
330
12
102
}
330
12
100
AcDbXrecord
280
     1
270
     1
271
     1
  0
XRECORD
  5
16
102
{ACAD_REACTORS
330
12
102
}
330
12
100
AcDbXrecord
280
     1
270
     1
271
     1
  0
XRECORD
  5
18
102
{ACAD_REACTORS
330
12
102
}
330
12
100
AcDbXrecord
280
     1
270
     1
271
     1
  0
XRECORD
  5
15
102
{ACAD_REACTORS
330
12
102
}
330
12
100
AcDbXrecord
280
     1
270
     1
271
     1
  0
XRECORD
  5
24
102
{ACAD_REACTORS
330
22
102
}
330
22
100
AcDbXrecord
280
     1
270
     1
271
     1
  0
XRECORD
  5
23
102
{ACAD_REACTORS
330
22
102
}
330
22
100
AcDbXrecord
280
     1
270
     1
271
     1
  0
XRECORD
  5
27
102
{ACAD_REACTORS
330
22
102
}
330
22
100
AcDbXrecord
280
     1
270
     1
271
     1
  0
XRECORD
  5
26
102
{ACAD_REACTORS
330
22
102
}
330
22
100
AcDbXrecord
280
     1
270
     1
271
     1
  0
XRECORD
  5
28
102
{ACAD_REACTORS
330
22
102
}
330
22
100
AcDbXrecord
280
     1
270
     1
271
     1
  0
XRECORD
  5
25
102
{ACAD_REACTORS
330
22
102
}
330
22
100
AcDbXrecord
280
     1
270
     1
271
     1
  0
XRECORD
  5
534
102
{ACAD_REACTORS
330
533
102
}
330
533
100
AcDbXrecord
280
     1
102
DISPLAYNAME
  1
Imperial24
102
FLAGS
 90
        0
  0
CELLSTYLEMAP
  5
531
102
{ACAD_REACTORS
330
530
102
}
330
530
100
AcDbCellStyleMap
 90
        3
300
CELLSTYLE
  1
TABLEFORMAT_BEGIN
 90
        5
170
     1
 91
        0
 92
    32768
 62
   257
 93
        1
300
CONTENTFORMAT
  1
CONTENTFORMAT_BEGIN
 90
        0
 91
        0
 92
      512
 93
        0
300

 40
0.0
140
1.0
 94
        5
 62
     0
340
55
144
0.25
309
CONTENTFORMAT_END
171
     0
 94
        0
309
TABLEFORMAT_END
  1
CELLSTYLE_BEGIN
 90
        1
 91
        1
300
_TITLE
309
CELLSTYLE_END
300
CELLSTYLE
  1
TABLEFORMAT_BEGIN
 90
        5
170
     1
 91
        0
 92
        0
 62
   257
 93
        1
300
CONTENTFORMAT
  1
CONTENTFORMAT_BEGIN
 90
        0
 91
        0
 92
      512
 93
        0
300

 40
0.0
140
1.0
 94
        5
 62
     0
340
55
144
0.18
309
CONTENTFORMAT_END
171
     0
 94
        0
309
TABLEFORMAT_END
  1
CELLSTYLE_BEGIN
 90
        2
 91
        1
300
_HEADER
309
CELLSTYLE_END
300
CELLSTYLE
  1
TABLEFORMAT_BEGIN
 90
        5
170
     1
 91
        0
 92
        0
 62
   257
 93
        1
300
CONTENTFORMAT
  1
CONTENTFORMAT_BEGIN
 90
        0
 91
        0
 92
      512
 93
        0
300

 40
0.0
140
1.0
 94
        2
 62
     0
340
55
144
0.18
309
CONTENTFORMAT_END
171
     0
 94
        0
309
TABLEFORMAT_END
  1
CELLSTYLE_BEGIN
 90
        3
 91
        2
300
_DATA
309
CELLSTYLE_END
  0
ENDSEC
  0
EOF
