  0
SECTION
  2
HEADER
  9
$ACADVER
  1
AC1014
  9
$HANDSEED
  5
FFFF
  9
$MEASUREMENT
 70
     1
  0
ENDSEC
  0
SECTION
  2
TABLES
  0
TABLE
  2
VPORT
  5
8
330
0
100
AcDbSymbolTable
 70
     4
  0
VPORT
  5
2E
330
8
100
AcDbSymbolTableRecord
100
AcDbViewportTableRecord
  2
*ACTIVE
 70
     0
 10
0.0
 20
0.0
 11
1.0
 21
1.0
 12
210.0
 22
148.5
 13
0.0
 23
0.0
 14
10.0
 24
10.0
 15
10.0
 25
10.0
 16
0.0
 26
0.0
 36
1.0
 17
0.0
 27
0.0
 37
0.0
 40
341.0
 41
1.24
 42
50.0
 43
0.0
 44
0.0
 50
0.0
 51
0.0
 71
     0
 72
   100
 73
     1
 74
     3
 75
     0
 76
     0
 77
     0
 78
     0
  0
ENDTAB
  0
TABLE
  2
LTYPE
  5
5
330
0
100
AcDbSymbolTable
 70
     1
  0
LTYPE
  5
14
330
5
100
AcDbSymbolTableRecord
100
AcDbLinetypeTableRecord
  2
BYBLOCK
 70
     0
  3

 72
    65
 73
     0
 40
0.0
  0
LTYPE
  5
15
330
5
100
AcDbSymbolTableRecord
100
AcDbLinetypeTableRecord
  2
BYLAYER
 70
     0
  3

 72
    65
 73
     0
 40
0.0
  0
LTYPE
  5
16
330
5
100
AcDbSymbolTableRecord
100
AcDbLinetypeTableRecord
  2
CONTINUOUS
 70
     0
  3
Solid line
 72
    65
 73
     0
 40
0.0
  0
ENDTAB
  0
TABLE
  2
LAYER
  5
2
100
AcDbSymbolTable
 70
3
  0
LAYER
  5
50
100
AcDbSymbolTableRecord
100
AcDbLayerTableRecord
  2
0
 70
0
  6
CONTINUOUS
  0
LAYER
  5
51
100
AcDbSymbolTableRecord
100
AcDbLayerTableRecord
  2
Corte
 70
0
  6
CONTINUOUS
  0
LAYER
  5
52
100
AcDbSymbolTableRecord
100
AcDbLayerTableRecord
  2
Gravacao
 70
0
  6
CONTINUOUS
  0
ENDTAB
  0
TABLE
  2
STYLE
  5
3
330
0
100
AcDbSymbolTable
 70
     1
  0
STYLE
  5
11
330
3
100
AcDbSymbolTableRecord
100
AcDbTextStyleTableRecord
  2
STANDARD
 70
     0
 40
0.0
 41
1.0
 50
0.0
 71
     0
 42
2.5
  3
txt
  4

  0
ENDTAB
  0
TABLE
  2
VIEW
  5
6
330
0
100
AcDbSymbolTable
 70
     0
  0
ENDTAB
  0
TABLE
  2
UCS
  5
7
330
0
100
AcDbSymbolTable
 70
     0
  0
ENDTAB
  0
TABLE
  2
APPID
  5
9
330
0
100
AcDbSymbolTable
 70
     2
  0
APPID
  5
12
330
9
100
AcDbSymbolTableRecord
100
AcDbRegAppTableRecord
  2
ACAD
 70
     0
  0
ENDTAB
  0
TABLE
  2
DIMSTYLE
  5
A
330
0
100
AcDbSymbolTable
 70
     1
  0
DIMSTYLE
105
27
330
A
100
AcDbSymbolTableRecord
100
AcDbDimStyleTableRecord
  2
ISO-25
 70
     0
  3

  4

  5

  6

  7

 40
1.0
 41
2.5
 42
0.625
 43
3.75
 44
1.25
 45
0.0
 46
0.0
 47
0.0
 48
0.0
140
2.5
141
2.5
142
0.0
143
0.03937007874016
144
1.0
145
0.0
146
1.0
147
0.625
 71
     0
 72
     0
 73
     0
 74
     0
 75
     0
 76
     0
 77
     1
 78
     8
170
     0
171
     3
172
     1
173
     0
174
     0
175
     0
176
     0
177
     0
178
     0
270
     2
271
     2
272
     2
273
     2
274
     3
340
11
275
     0
280
     0
281
     0
282
     0
283
     0
284
     8
285
     0
286
     0
287
     3
288
     0
  0
ENDTAB
  0
TABLE
  2
BLOCK_RECORD
  5
1
330
0
100
AcDbSymbolTable
 70
     1
  0
BLOCK_RECORD
  5
1F
330
1
100
AcDbSymbolTableRecord
100
AcDbBlockTableRecord
  2
*MODEL_SPACE
  0
BLOCK_RECORD
  5
1B
330
1
100
AcDbSymbolTableRecord
100
AcDbBlockTableRecord
  2
*PAPER_SPACE
  0
ENDTAB
  0
ENDSEC
  0
SECTION
  2
BLOCKS
  0
BLOCK
  5
20
330
1F
100
AcDbEntity
  8
0
100
AcDbBlockBegin
  2
*MODEL_SPACE
 70
     0
 10
0.0
 20
0.0
 30
0.0
  3
*MODEL_SPACE
  1

  0
ENDBLK
  5
21
330
1F
100
AcDbEntity
  8
0
100
AcDbBlockEnd
  0
BLOCK
  5
1C
330
1B
100
AcDbEntity
 67
     1
  8
0
100
AcDbBlockBegin
  2
*PAPER_SPACE
  1

  0
ENDBLK
  5
1D
330
1B
100
AcDbEntity
 67
     1
  8
0
100
AcDbBlockEnd
  0
ENDSEC
  0
SECTION
  2
ENTITIES
  0
SPLINE
  5
100
100
AcDbEntity
  8
Corte
 62
7
100
AcDbSpline
 70
8
 71
3
 72
8
 73
4
 74
0
 40
0
 40
0
 40
0
 40
0
 40
1
 40
1
 40
1
 40
1
 10
286.401287
 20
389.360877
 30
0.0
 10
291.576747
 20
389.358488
 30
0.0
 10
295.758940
 20
381.550919
 30
0.0
 10
295.778397
 20
371.855115
 30
0.0
  0
LWPOLYLINE
  5
101
100
AcDbEntity
  8
Corte
 62
7
100
AcDbPolyline
 90
2
 70
0
 10
9.818429
 20
389.488511
 30
0.0
 10
286.401287
 20
389.360877
 30
0.0
  0
SPLINE
  5
102
100
AcDbEntity
  8
Corte
 62
7
100
AcDbSpline
 70
8
 71
3
 72
8
 73
4
 74
0
 40
0
 40
0
 40
0
 40
0
 40
1
 40
1
 40
1
 40
1
 10
296.488469
 20
18.008610
 30
0.0
 10
296.507926
 20
8.312809
 30
0.0
 10
292.357060
 20
0.509078
 30
0.0
 10
287.181601
 20
0.511466
 30
0.0
  0
LWPOLYLINE
  5
103
100
AcDbEntity
  8
Corte
 62
7
100
AcDbPolyline
 90
2
 70
0
 10
295.778397
 20
371.855115
 30
0.0
 10
296.488469
 20
18.008610
 30
0.0
  0
SPLINE
  5
104
100
AcDbEntity
  8
Corte
 62
7
100
AcDbSpline
 70
8
 71
3
 72
8
 73
4
 74
0
 40
0
 40
0
 40
0
 40
0
 40
1
 40
1
 40
1
 40
1
 10
10.598743
 20
0.639101
 30
0.0
 10
5.423277
 20
0.641489
 30
0.0
 10
1.241084
 20
8.449066
 30
0.0
 10
1.221627
 20
18.144867
 30
0.0
  0
LWPOLYLINE
  5
105
100
AcDbEntity
  8
Corte
 62
7
100
AcDbPolyline
 90
2
 70
0
 10
287.181601
 20
0.511466
 30
0.0
 10
10.598743
 20
0.639101
 30
0.0
  0
SPLINE
  5
106
100
AcDbEntity
  8
Corte
 62
7
100
AcDbSpline
 70
8
 71
3
 72
8
 73
4
 74
0
 40
0
 40
0
 40
0
 40
0
 40
1
 40
1
 40
1
 40
1
 10
0.511555
 20
371.991372
 30
0.0
 10
0.492098
 20
381.687176
 30
0.0
 10
4.642964
 20
389.490900
 30
0.0
 10
9.818429
 20
389.488511
 30
0.0
  0
LWPOLYLINE
  5
107
100
AcDbEntity
  8
Corte
 62
7
100
AcDbPolyline
 90
2
 70
0
 10
1.221627
 20
18.144867
 30
0.0
 10
0.511555
 20
371.991372
 30
0.0
  0
SPLINE
  5
108
100
AcDbEntity
  8
Corte
 62
7
100
AcDbSpline
 70
8
 71
3
 72
8
 73
4
 74
0
 40
0
 40
0
 40
0
 40
0
 40
1
 40
1
 40
1
 40
1
 10
114.462532
 20
294.831238
 30
0.0
 10
114.462529
 20
272.207148
 30
0.0
 10
96.122080
 20
253.866700
 30
0.0
 10
73.497990
 20
253.866700
 30
0.0
  0
SPLINE
  5
109
100
AcDbEntity
  8
Corte
 62
7
100
AcDbSpline
 70
8
 71
3
 72
8
 73
4
 74
0
 40
0
 40
0
 40
0
 40
0
 40
1
 40
1
 40
1
 40
1
 10
73.497990
 20
253.866700
 30
0.0
 10
50.873899
 20
253.866700
 30
0.0
 10
32.533450
 20
272.207148
 30
0.0
 10
32.533448
 20
294.831238
 30
0.0
  0
SPLINE
  5
10a
100
AcDbEntity
  8
Corte
 62
7
100
AcDbSpline
 70
8
 71
3
 72
8
 73
4
 74
0
 40
0
 40
0
 40
0
 40
0
 40
1
 40
1
 40
1
 40
1
 10
32.533448
 20
294.831238
 30
0.0
 10
32.533448
 20
305.695710
 30
0.0
 10
36.849342
 20
316.115202
 30
0.0
 10
44.531684
 20
323.797543
 30
0.0
  0
SPLINE
  5
10b
100
AcDbEntity
  8
Corte
 62
7
100
AcDbSpline
 70
8
 71
3
 72
8
 73
4
 74
0
 40
0
 40
0
 40
0
 40
0
 40
1
 40
1
 40
1
 40
1
 10
44.531684
 20
323.797543
 30
0.0
 10
52.214026
 20
331.479885
 30
0.0
 10
62.633518
 20
335.795780
 30
0.0
 10
73.497990
 20
335.795780
 30
0.0
  0
SPLINE
  5
10c
100
AcDbEntity
  8
Corte
 62
7
100
AcDbSpline
 70
8
 71
3
 72
8
 73
4
 74
0
 40
0
 40
0
 40
0
 40
0
 40
1
 40
1
 40
1
 40
1
 10
73.497990
 20
335.795780
 30
0.0
 10
84.362462
 20
335.795780
 30
0.0
 10
94.781953
 20
331.479885
 30
0.0
 10
102.464295
 20
323.797543
 30
0.0
  0
SPLINE
  5
10d
100
AcDbEntity
  8
Corte
 62
7
100
AcDbSpline
 70
8
 71
3
 72
8
 73
4
 74
0
 40
0
 40
0
 40
0
 40
0
 40
1
 40
1
 40
1
 40
1
 10
102.464295
 20
323.797543
 30
0.0
 10
110.146637
 20
316.115202
 30
0.0
 10
114.462532
 20
305.695710
 30
0.0
 10
114.462532
 20
294.831238
 30
0.0
  0
LWPOLYLINE
  5
10e
100
AcDbEntity
  8
Corte
 62
7
100
AcDbPolyline
 90
1
 70
1
 10
9.818429
 20
389.488511
 30
0.0
  0
SPLINE
  5
10f
100
AcDbEntity
  8
Corte
 62
7
100
AcDbSpline
 70
8
 71
3
 72
8
 73
4
 74
0
 40
0
 40
0
 40
0
 40
0
 40
1
 40
1
 40
1
 40
1
 10
266.778928
 20
294.831220
 30
0.0
 10
266.778927
 20
275.769154
 30
0.0
 10
251.326070
 20
260.316297
 30
0.0
 10
232.264004
 20
260.316296
 30
0.0
  0
SPLINE
  5
110
100
AcDbEntity
  8
Corte
 62
7
100
AcDbSpline
 70
8
 71
3
 72
8
 73
4
 74
0
 40
0
 40
0
 40
0
 40
0
 40
1
 40
1
 40
1
 40
1
 10
232.264004
 20
260.316296
 30
0.0
 10
213.201938
 20
260.316297
 30
0.0
 10
197.749080
 20
275.769154
 30
0.0
 10
197.749080
 20
294.831220
 30
0.0
  0
SPLINE
  5
111
100
AcDbEntity
  8
Corte
 62
7
100
AcDbSpline
 70
8
 71
3
 72
8
 73
4
 74
0
 40
0
 40
0
 40
0
 40
0
 40
1
 40
1
 40
1
 40
1
 10
197.749080
 20
294.831220
 30
0.0
 10
197.749079
 20
313.893287
 30
0.0
 10
213.201937
 20
329.346145
 30
0.0
 10
232.264004
 20
329.346146
 30
0.0
  0
SPLINE
  5
112
100
AcDbEntity
  8
Corte
 62
7
100
AcDbSpline
 70
8
 71
3
 72
8
 73
4
 74
0
 40
0
 40
0
 40
0
 40
0
 40
1
 40
1
 40
1
 40
1
 10
232.264004
 20
329.346146
 30
0.0
 10
251.326070
 20
329.346145
 30
0.0
 10
266.778928
 20
313.893287
 30
0.0
 10
266.778928
 20
294.831220
 30
0.0
  0
LWPOLYLINE
  5
113
100
AcDbEntity
  8
Corte
 62
7
100
AcDbPolyline
 90
1
 70
1
 10
114.462532
 20
294.831238
 30
0.0
  0
SPLINE
  5
114
100
AcDbEntity
  8
Corte
 62
7
100
AcDbSpline
 70
8
 71
3
 72
8
 73
4
 74
0
 40
0
 40
0
 40
0
 40
0
 40
1
 40
1
 40
1
 40
1
 10
85.545494
 20
199.663470
 30
0.0
 10
85.545495
 20
196.468272
 30
0.0
 10
84.276209
 20
193.403941
 30
0.0
 10
82.016864
 20
191.144594
 30
0.0
  0
SPLINE
  5
115
100
AcDbEntity
  8
Corte
 62
7
100
AcDbSpline
 70
8
 71
3
 72
8
 73
4
 74
0
 40
0
 40
0
 40
0
 40
0
 40
1
 40
1
 40
1
 40
1
 10
82.016864
 20
191.144594
 30
0.0
 10
79.757518
 20
188.885247
 30
0.0
 10
76.693187
 20
187.615960
 30
0.0
 10
73.497990
 20
187.615960
 30
0.0
  0
SPLINE
  5
116
100
AcDbEntity
  8
Corte
 62
7
100
AcDbSpline
 70
8
 71
3
 72
8
 73
4
 74
0
 40
0
 40
0
 40
0
 40
0
 40
1
 40
1
 40
1
 40
1
 10
73.497990
 20
187.615960
 30
0.0
 10
70.302792
 20
187.615960
 30
0.0
 10
67.238461
 20
188.885248
 30
0.0
 10
64.979116
 20
191.144594
 30
0.0
  0
SPLINE
  5
117
100
AcDbEntity
  8
Corte
 62
7
100
AcDbSpline
 70
8
 71
3
 72
8
 73
4
 74
0
 40
0
 40
0
 40
0
 40
0
 40
1
 40
1
 40
1
 40
1
 10
64.979116
 20
191.144594
 30
0.0
 10
62.719771
 20
193.403941
 30
0.0
 10
61.450485
 20
196.468272
 30
0.0
 10
61.450487
 20
199.663470
 30
0.0
  0
SPLINE
  5
118
100
AcDbEntity
  8
Corte
 62
7
100
AcDbSpline
 70
8
 71
3
 72
8
 73
4
 74
0
 40
0
 40
0
 40
0
 40
0
 40
1
 40
1
 40
1
 40
1
 10
61.450487
 20
199.663470
 30
0.0
 10
61.450488
 20
206.317121
 30
0.0
 10
66.844339
 20
211.710970
 30
0.0
 10
73.497990
 20
211.710970
 30
0.0
  0
SPLINE
  5
119
100
AcDbEntity
  8
Corte
 62
7
100
AcDbSpline
 70
8
 71
3
 72
8
 73
4
 74
0
 40
0
 40
0
 40
0
 40
0
 40
1
 40
1
 40
1
 40
1
 10
73.497990
 20
211.710970
 30
0.0
 10
80.151641
 20
211.710971
 30
0.0
 10
85.545492
 20
206.317121
 30
0.0
 10
85.545494
 20
199.663470
 30
0.0
  0
LWPOLYLINE
  5
11a
100
AcDbEntity
  8
Corte
 62
7
100
AcDbPolyline
 90
1
 70
1
 10
266.778928
 20
294.831220
 30
0.0
  0
SPLINE
  5
11b
100
AcDbEntity
  8
Corte
 62
7
100
AcDbSpline
 70
8
 71
3
 72
8
 73
4
 74
0
 40
0
 40
0
 40
0
 40
0
 40
1
 40
1
 40
1
 40
1
 10
246.527072
 20
199.663470
 30
0.0
 10
246.527071
 20
195.880659
 30
0.0
 10
245.024354
 20
192.252783
 30
0.0
 10
242.349502
 20
189.577932
 30
0.0
  0
SPLINE
  5
11c
100
AcDbEntity
  8
Corte
 62
7
100
AcDbSpline
 70
8
 71
3
 72
8
 73
4
 74
0
 40
0
 40
0
 40
0
 40
0
 40
1
 40
1
 40
1
 40
1
 10
242.349502
 20
189.577932
 30
0.0
 10
239.674650
 20
186.903082
 30
0.0
 10
236.046773
 20
185.400368
 30
0.0
 10
232.263962
 20
185.400370
 30
0.0
  0
SPLINE
  5
11d
100
AcDbEntity
  8
Corte
 62
7
100
AcDbSpline
 70
8
 71
3
 72
8
 73
4
 74
0
 40
0
 40
0
 40
0
 40
0
 40
1
 40
1
 40
1
 40
1
 10
232.263962
 20
185.400370
 30
0.0
 10
224.386669
 20
185.400371
 30
0.0
 10
218.000863
 20
191.786178
 30
0.0
 10
218.000862
 20
199.663470
 30
0.0
  0
SPLINE
  5
11e
100
AcDbEntity
  8
Corte
 62
7
100
AcDbSpline
 70
8
 71
3
 72
8
 73
4
 74
0
 40
0
 40
0
 40
0
 40
0
 40
1
 40
1
 40
1
 40
1
 10
218.000862
 20
199.663470
 30
0.0
 10
218.000863
 20
207.540762
 30
0.0
 10
224.386669
 20
213.926569
 30
0.0
 10
232.263962
 20
213.926570
 30
0.0
  0
SPLINE
  5
11f
100
AcDbEntity
  8
Corte
 62
7
100
AcDbSpline
 70
8
 71
3
 72
8
 73
4
 74
0
 40
0
 40
0
 40
0
 40
0
 40
1
 40
1
 40
1
 40
1
 10
232.263962
 20
213.926570
 30
0.0
 10
236.046773
 20
213.926572
 30
0.0
 10
239.674650
 20
212.423858
 30
0.0
 10
242.349502
 20
209.749008
 30
0.0
  0
SPLINE
  5
120
100
AcDbEntity
  8
Corte
 62
7
100
AcDbSpline
 70
8
 71
3
 72
8
 73
4
 74
0
 40
0
 40
0
 40
0
 40
0
 40
1
 40
1
 40
1
 40
1
 10
242.349502
 20
209.749008
 30
0.0
 10
245.024354
 20
207.074157
 30
0.0
 10
246.527071
 20
203.446281
 30
0.0
 10
246.527072
 20
199.663470
 30
0.0
  0
LWPOLYLINE
  5
121
100
AcDbEntity
  8
Corte
 62
7
100
AcDbPolyline
 90
1
 70
1
 10
85.545494
 20
199.663470
 30
0.0
  0
SPLINE
  5
122
100
AcDbEntity
  8
Corte
 62
7
100
AcDbSpline
 70
8
 71
3
 72
8
 73
4
 74
0
 40
0
 40
0
 40
0
 40
0
 40
1
 40
1
 40
1
 40
1
 10
52.036712
 20
137.022570
 30
0.0
 10
52.036712
 20
136.086449
 30
0.0
 10
51.664839
 20
135.188668
 30
0.0
 10
51.002901
 20
134.526731
 30
0.0
  0
SPLINE
  5
123
100
AcDbEntity
  8
Corte
 62
7
100
AcDbSpline
 70
8
 71
3
 72
8
 73
4
 74
0
 40
0
 40
0
 40
0
 40
0
 40
1
 40
1
 40
1
 40
1
 10
51.002901
 20
134.526731
 30
0.0
 10
50.340963
 20
133.864793
 30
0.0
 10
49.443183
 20
133.492920
 30
0.0
 10
48.507062
 20
133.492920
 30
0.0
  0
SPLINE
  5
124
100
AcDbEntity
  8
Corte
 62
7
100
AcDbSpline
 70
8
 71
3
 72
8
 73
4
 74
0
 40
0
 40
0
 40
0
 40
0
 40
1
 40
1
 40
1
 40
1
 10
48.507062
 20
133.492920
 30
0.0
 10
47.570940
 20
133.492920
 30
0.0
 10
46.673160
 20
133.864793
 30
0.0
 10
46.011222
 20
134.526731
 30
0.0
  0
SPLINE
  5
125
100
AcDbEntity
  8
Corte
 62
7
100
AcDbSpline
 70
8
 71
3
 72
8
 73
4
 74
0
 40
0
 40
0
 40
0
 40
0
 40
1
 40
1
 40
1
 40
1
 10
46.011222
 20
134.526731
 30
0.0
 10
45.349284
 20
135.188668
 30
0.0
 10
44.977412
 20
136.086449
 30
0.0
 10
44.977412
 20
137.022570
 30
0.0
  0
SPLINE
  5
126
100
AcDbEntity
  8
Corte
 62
7
100
AcDbSpline
 70
8
 71
3
 72
8
 73
4
 74
0
 40
0
 40
0
 40
0
 40
0
 40
1
 40
1
 40
1
 40
1
 10
44.977412
 20
137.022570
 30
0.0
 10
44.977412
 20
137.958691
 30
0.0
 10
45.349284
 20
138.856472
 30
0.0
 10
46.011222
 20
139.518409
 30
0.0
  0
SPLINE
  5
127
100
AcDbEntity
  8
Corte
 62
7
100
AcDbSpline
 70
8
 71
3
 72
8
 73
4
 74
0
 40
0
 40
0
 40
0
 40
0
 40
1
 40
1
 40
1
 40
1
 10
46.011222
 20
139.518409
 30
0.0
 10
46.673160
 20
140.180347
 30
0.0
 10
47.570940
 20
140.552220
 30
0.0
 10
48.507062
 20
140.552220
 30
0.0
  0
SPLINE
  5
128
100
AcDbEntity
  8
Corte
 62
7
100
AcDbSpline
 70
8
 71
3
 72
8
 73
4
 74
0
 40
0
 40
0
 40
0
 40
0
 40
1
 40
1
 40
1
 40
1
 10
48.507062
 20
140.552220
 30
0.0
 10
49.443183
 20
140.552220
 30
0.0
 10
50.340963
 20
140.180347
 30
0.0
 10
51.002901
 20
139.518409
 30
0.0
  0
SPLINE
  5
129
100
AcDbEntity
  8
Corte
 62
7
100
AcDbSpline
 70
8
 71
3
 72
8
 73
4
 74
0
 40
0
 40
0
 40
0
 40
0
 40
1
 40
1
 40
1
 40
1
 10
51.002901
 20
139.518409
 30
0.0
 10
51.664839
 20
138.856472
 30
0.0
 10
52.036712
 20
137.958691
 30
0.0
 10
52.036712
 20
137.022570
 30
0.0
  0
LWPOLYLINE
  5
12a
100
AcDbEntity
  8
Corte
 62
7
100
AcDbPolyline
 90
1
 70
1
 10
246.527072
 20
199.663470
 30
0.0
  0
SPLINE
  5
12b
100
AcDbEntity
  8
Corte
 62
7
100
AcDbSpline
 70
8
 71
3
 72
8
 73
4
 74
0
 40
0
 40
0
 40
0
 40
0
 40
1
 40
1
 40
1
 40
1
 10
151.510202
 20
137.022570
 30
0.0
 10
151.510202
 20
136.139372
 30
0.0
 10
151.159354
 20
135.292348
 30
0.0
 10
150.534839
 20
134.667833
 30
0.0
  0
SPLINE
  5
12c
100
AcDbEntity
  8
Corte
 62
7
100
AcDbSpline
 70
8
 71
3
 72
8
 73
4
 74
0
 40
0
 40
0
 40
0
 40
0
 40
1
 40
1
 40
1
 40
1
 10
150.534839
 20
134.667833
 30
0.0
 10
149.910324
 20
134.043318
 30
0.0
 10
149.063299
 20
133.692469
 30
0.0
 10
148.180102
 20
133.692470
 30
0.0
  0
SPLINE
  5
12d
100
AcDbEntity
  8
Corte
 62
7
100
AcDbSpline
 70
8
 71
3
 72
8
 73
4
 74
0
 40
0
 40
0
 40
0
 40
0
 40
1
 40
1
 40
1
 40
1
 10
148.180102
 20
133.692470
 30
0.0
 10
147.296904
 20
133.692469
 30
0.0
 10
146.449880
 20
134.043318
 30
0.0
 10
145.825365
 20
134.667833
 30
0.0
  0
SPLINE
  5
12e
100
AcDbEntity
  8
Corte
 62
7
100
AcDbSpline
 70
8
 71
3
 72
8
 73
4
 74
0
 40
0
 40
0
 40
0
 40
0
 40
1
 40
1
 40
1
 40
1
 10
145.825365
 20
134.667833
 30
0.0
 10
145.200850
 20
135.292348
 30
0.0
 10
144.850001
 20
136.139372
 30
0.0
 10
144.850002
 20
137.022570
 30
0.0
  0
SPLINE
  5
12f
100
AcDbEntity
  8
Corte
 62
7
100
AcDbSpline
 70
8
 71
3
 72
8
 73
4
 74
0
 40
0
 40
0
 40
0
 40
0
 40
1
 40
1
 40
1
 40
1
 10
144.850002
 20
137.022570
 30
0.0
 10
144.850001
 20
137.905768
 30
0.0
 10
145.200850
 20
138.752792
 30
0.0
 10
145.825365
 20
139.377307
 30
0.0
  0
SPLINE
  5
130
100
AcDbEntity
  8
Corte
 62
7
100
AcDbSpline
 70
8
 71
3
 72
8
 73
4
 74
0
 40
0
 40
0
 40
0
 40
0
 40
1
 40
1
 40
1
 40
1
 10
145.825365
 20
139.377307
 30
0.0
 10
146.449880
 20
140.001822
 30
0.0
 10
147.296904
 20
140.352671
 30
0.0
 10
148.180102
 20
140.352670
 30
0.0
  0
SPLINE
  5
131
100
AcDbEntity
  8
Corte
 62
7
100
AcDbSpline
 70
8
 71
3
 72
8
 73
4
 74
0
 40
0
 40
0
 40
0
 40
0
 40
1
 40
1
 40
1
 40
1
 10
148.180102
 20
140.352670
 30
0.0
 10
149.063299
 20
140.352671
 30
0.0
 10
149.910324
 20
140.001822
 30
0.0
 10
150.534839
 20
139.377307
 30
0.0
  0
SPLINE
  5
132
100
AcDbEntity
  8
Corte
 62
7
100
AcDbSpline
 70
8
 71
3
 72
8
 73
4
 74
0
 40
0
 40
0
 40
0
 40
0
 40
1
 40
1
 40
1
 40
1
 10
150.534839
 20
139.377307
 30
0.0
 10
151.159354
 20
138.752792
 30
0.0
 10
151.510202
 20
137.905768
 30
0.0
 10
151.510202
 20
137.022570
 30
0.0
  0
LWPOLYLINE
  5
133
100
AcDbEntity
  8
Corte
 62
7
100
AcDbPolyline
 90
1
 70
1
 10
52.036712
 20
137.022570
 30
0.0
  0
SPLINE
  5
134
100
AcDbEntity
  8
Corte
 62
7
100
AcDbSpline
 70
8
 71
3
 72
8
 73
4
 74
0
 40
0
 40
0
 40
0
 40
0
 40
1
 40
1
 40
1
 40
1
 10
252.029032
 20
137.022570
 30
0.0
 10
252.029034
 20
136.008540
 30
0.0
 10
251.207002
 20
135.186503
 30
0.0
 10
250.192972
 20
135.186500
 30
0.0
  0
SPLINE
  5
135
100
AcDbEntity
  8
Corte
 62
7
100
AcDbSpline
 70
8
 71
3
 72
8
 73
4
 74
0
 40
0
 40
0
 40
0
 40
0
 40
1
 40
1
 40
1
 40
1
 10
250.192972
 20
135.186500
 30
0.0
 10
249.706015
 20
135.186499
 30
0.0
 10
249.239003
 20
135.379941
 30
0.0
 10
248.894673
 20
135.724271
 30
0.0
  0
SPLINE
  5
136
100
AcDbEntity
  8
Corte
 62
7
100
AcDbSpline
 70
8
 71
3
 72
8
 73
4
 74
0
 40
0
 40
0
 40
0
 40
0
 40
1
 40
1
 40
1
 40
1
 10
248.894673
 20
135.724271
 30
0.0
 10
248.550343
 20
136.068601
 30
0.0
 10
248.356901
 20
136.535614
 30
0.0
 10
248.356902
 20
137.022570
 30
0.0
  0
SPLINE
  5
137
100
AcDbEntity
  8
Corte
 62
7
100
AcDbSpline
 70
8
 71
3
 72
8
 73
4
 74
0
 40
0
 40
0
 40
0
 40
0
 40
1
 40
1
 40
1
 40
1
 10
248.356902
 20
137.022570
 30
0.0
 10
248.356905
 20
138.036600
 30
0.0
 10
249.178941
 20
138.858632
 30
0.0
 10
250.192972
 20
138.858630
 30
0.0
  0
SPLINE
  5
138
100
AcDbEntity
  8
Corte
 62
7
100
AcDbSpline
 70
8
 71
3
 72
8
 73
4
 74
0
 40
0
 40
0
 40
0
 40
0
 40
1
 40
1
 40
1
 40
1
 10
250.192972
 20
138.858630
 30
0.0
 10
251.206998
 20
138.858627
 30
0.0
 10
252.029028
 20
138.036597
 30
0.0
 10
252.029032
 20
137.022570
 30
0.0
  0
LWPOLYLINE
  5
139
100
AcDbEntity
  8
Corte
 62
7
100
AcDbPolyline
 90
1
 70
1
 10
151.510202
 20
137.022570
 30
0.0
  0
SPLINE
  5
13a
100
AcDbEntity
  8
Corte
 62
7
100
AcDbSpline
 70
8
 71
3
 72
8
 73
4
 74
0
 40
0
 40
0
 40
0
 40
0
 40
1
 40
1
 40
1
 40
1
 10
74.739620
 20
86.330960
 30
0.0
 10
74.739620
 20
86.001659
 30
0.0
 10
74.608806
 20
85.685846
 30
0.0
 10
74.375955
 20
85.452995
 30
0.0
  0
SPLINE
  5
13b
100
AcDbEntity
  8
Corte
 62
7
100
AcDbSpline
 70
8
 71
3
 72
8
 73
4
 74
0
 40
0
 40
0
 40
0
 40
0
 40
1
 40
1
 40
1
 40
1
 10
74.375955
 20
85.452995
 30
0.0
 10
74.143104
 20
85.220144
 30
0.0
 10
73.827290
 20
85.089330
 30
0.0
 10
73.497990
 20
85.089330
 30
0.0
  0
SPLINE
  5
13c
100
AcDbEntity
  8
Corte
 62
7
100
AcDbSpline
 70
8
 71
3
 72
8
 73
4
 74
0
 40
0
 40
0
 40
0
 40
0
 40
1
 40
1
 40
1
 40
1
 10
73.497990
 20
85.089330
 30
0.0
 10
73.168689
 20
85.089330
 30
0.0
 10
72.852876
 20
85.220144
 30
0.0
 10
72.620025
 20
85.452995
 30
0.0
  0
SPLINE
  5
13d
100
AcDbEntity
  8
Corte
 62
7
100
AcDbSpline
 70
8
 71
3
 72
8
 73
4
 74
0
 40
0
 40
0
 40
0
 40
0
 40
1
 40
1
 40
1
 40
1
 10
72.620025
 20
85.452995
 30
0.0
 10
72.387174
 20
85.685846
 30
0.0
 10
72.256360
 20
86.001659
 30
0.0
 10
72.256361
 20
86.330960
 30
0.0
  0
SPLINE
  5
13e
100
AcDbEntity
  8
Corte
 62
7
100
AcDbSpline
 70
8
 71
3
 72
8
 73
4
 74
0
 40
0
 40
0
 40
0
 40
0
 40
1
 40
1
 40
1
 40
1
 10
72.256361
 20
86.330960
 30
0.0
 10
72.256360
 20
86.660261
 30
0.0
 10
72.387174
 20
86.976074
 30
0.0
 10
72.620025
 20
87.208925
 30
0.0
  0
SPLINE
  5
13f
100
AcDbEntity
  8
Corte
 62
7
100
AcDbSpline
 70
8
 71
3
 72
8
 73
4
 74
0
 40
0
 40
0
 40
0
 40
0
 40
1
 40
1
 40
1
 40
1
 10
72.620025
 20
87.208925
 30
0.0
 10
72.852876
 20
87.441776
 30
0.0
 10
73.168689
 20
87.572590
 30
0.0
 10
73.497990
 20
87.572590
 30
0.0
  0
SPLINE
  5
140
100
AcDbEntity
  8
Corte
 62
7
100
AcDbSpline
 70
8
 71
3
 72
8
 73
4
 74
0
 40
0
 40
0
 40
0
 40
0
 40
1
 40
1
 40
1
 40
1
 10
73.497990
 20
87.572590
 30
0.0
 10
73.827290
 20
87.572590
 30
0.0
 10
74.143104
 20
87.441776
 30
0.0
 10
74.375955
 20
87.208925
 30
0.0
  0
SPLINE
  5
141
100
AcDbEntity
  8
Corte
 62
7
100
AcDbSpline
 70
8
 71
3
 72
8
 73
4
 74
0
 40
0
 40
0
 40
0
 40
0
 40
1
 40
1
 40
1
 40
1
 10
74.375955
 20
87.208925
 30
0.0
 10
74.608806
 20
86.976074
 30
0.0
 10
74.739620
 20
86.660261
 30
0.0
 10
74.739620
 20
86.330960
 30
0.0
  0
LWPOLYLINE
  5
142
100
AcDbEntity
  8
Corte
 62
7
100
AcDbPolyline
 90
1
 70
1
 10
252.029032
 20
137.022570
 30
0.0
  0
SPLINE
  5
143
100
AcDbEntity
  8
Corte
 62
7
100
AcDbSpline
 70
8
 71
3
 72
8
 73
4
 74
0
 40
0
 40
0
 40
0
 40
0
 40
1
 40
1
 40
1
 40
1
 10
232.821692
 20
86.965730
 30
0.0
 10
232.821693
 20
86.817810
 30
0.0
 10
232.762933
 20
86.675949
 30
0.0
 10
232.658338
 20
86.571354
 30
0.0
  0
SPLINE
  5
144
100
AcDbEntity
  8
Corte
 62
7
100
AcDbSpline
 70
8
 71
3
 72
8
 73
4
 74
0
 40
0
 40
0
 40
0
 40
0
 40
1
 40
1
 40
1
 40
1
 10
232.658338
 20
86.571354
 30
0.0
 10
232.553743
 20
86.466759
 30
0.0
 10
232.411881
 20
86.407998
 30
0.0
 10
232.263962
 20
86.408000
 30
0.0
  0
SPLINE
  5
145
100
AcDbEntity
  8
Corte
 62
7
100
AcDbSpline
 70
8
 71
3
 72
8
 73
4
 74
0
 40
0
 40
0
 40
0
 40
0
 40
1
 40
1
 40
1
 40
1
 10
232.263962
 20
86.408000
 30
0.0
 10
232.116044
 20
86.408001
 30
0.0
 10
231.974184
 20
86.466762
 30
0.0
 10
231.869592
 20
86.571357
 30
0.0
  0
SPLINE
  5
146
100
AcDbEntity
  8
Corte
 62
7
100
AcDbSpline
 70
8
 71
3
 72
8
 73
4
 74
0
 40
0
 40
0
 40
0
 40
0
 40
1
 40
1
 40
1
 40
1
 10
231.869592
 20
86.571357
 30
0.0
 10
231.764999
 20
86.675952
 30
0.0
 10
231.706240
 20
86.817812
 30
0.0
 10
231.706242
 20
86.965730
 30
0.0
  0
SPLINE
  5
147
100
AcDbEntity
  8
Corte
 62
7
100
AcDbSpline
 70
8
 71
3
 72
8
 73
4
 74
0
 40
0
 40
0
 40
0
 40
0
 40
1
 40
1
 40
1
 40
1
 10
231.706242
 20
86.965730
 30
0.0
 10
231.706244
 20
87.273749
 30
0.0
 10
231.955942
 20
87.523448
 30
0.0
 10
232.263962
 20
87.523450
 30
0.0
  0
SPLINE
  5
148
100
AcDbEntity
  8
Corte
 62
7
100
AcDbSpline
 70
8
 71
3
 72
8
 73
4
 74
0
 40
0
 40
0
 40
0
 40
0
 40
1
 40
1
 40
1
 40
1
 10
232.263962
 20
87.523450
 30
0.0
 10
232.411880
 20
87.523452
 30
0.0
 10
232.553740
 20
87.464693
 30
0.0
 10
232.658335
 20
87.360100
 30
0.0
  0
SPLINE
  5
149
100
AcDbEntity
  8
Corte
 62
7
100
AcDbSpline
 70
8
 71
3
 72
8
 73
4
 74
0
 40
0
 40
0
 40
0
 40
0
 40
1
 40
1
 40
1
 40
1
 10
232.658335
 20
87.360100
 30
0.0
 10
232.762929
 20
87.255507
 30
0.0
 10
232.821691
 20
87.113648
 30
0.0
 10
232.821692
 20
86.965730
 30
0.0
  0
LWPOLYLINE
  5
14a
100
AcDbEntity
  8
Corte
 62
7
100
AcDbPolyline
 90
1
 70
1
 10
74.739620
 20
86.330960
 30
0.0
  0
LWPOLYLINE
  5
14b
100
AcDbEntity
  8
Corte
 62
7
100
AcDbPolyline
 90
1
 70
1
 10
232.821692
 20
86.965730
 30
0.0
  0
ENDSEC
  0
SECTION
  2
OBJECTS
  0
DICTIONARY
  5
C
330
0
100
AcDbDictionary
  3
ACAD_GROUP
350
D
  3
ACAD_MLINESTYLE
350
17
  0
DICTIONARY
  5
D
330
C
100
AcDbDictionary
  0
DICTIONARY
  5
1A
330
C
100
AcDbDictionary
  0
DICTIONARY
  5
17
330
C
100
AcDbDictionary
  3
STANDARD
350
18
  0
DICTIONARY
  5
19
330
C
100
AcDbDictionary
  0
ENDSEC
  0
EOF
