  0
SECTION
  2
HEADER
  9
$ACADVER
  1
AC1014
  9
$HANDSEED
  5
FFFF
  9
$MEASUREMENT
 70
     1
  0
ENDSEC
  0
SECTION
  2
TABLES
  0
TABLE
  2
VPORT
  5
8
330
0
100
AcDbSymbolTable
 70
     4
  0
VPORT
  5
2E
330
8
100
AcDbSymbolTableRecord
100
AcDbViewportTableRecord
  2
*ACTIVE
 70
     0
 10
0.0
 20
0.0
 11
1.0
 21
1.0
 12
210.0
 22
148.5
 13
0.0
 23
0.0
 14
10.0
 24
10.0
 15
10.0
 25
10.0
 16
0.0
 26
0.0
 36
1.0
 17
0.0
 27
0.0
 37
0.0
 40
341.0
 41
1.24
 42
50.0
 43
0.0
 44
0.0
 50
0.0
 51
0.0
 71
     0
 72
   100
 73
     1
 74
     3
 75
     0
 76
     0
 77
     0
 78
     0
  0
ENDTAB
  0
TABLE
  2
LTYPE
  5
5
330
0
100
AcDbSymbolTable
 70
     1
  0
LTYPE
  5
14
330
5
100
AcDbSymbolTableRecord
100
AcDbLinetypeTableRecord
  2
BYBLOCK
 70
     0
  3

 72
    65
 73
     0
 40
0.0
  0
LTYPE
  5
15
330
5
100
AcDbSymbolTableRecord
100
AcDbLinetypeTableRecord
  2
BYLAYER
 70
     0
  3

 72
    65
 73
     0
 40
0.0
  0
LTYPE
  5
16
330
5
100
AcDbSymbolTableRecord
100
AcDbLinetypeTableRecord
  2
CONTINUOUS
 70
     0
  3
Solid line
 72
    65
 73
     0
 40
0.0
  0
ENDTAB
  0
TABLE
  2
LAYER
  5
2
100
AcDbSymbolTable
 70
3
  0
LAYER
  5
50
100
AcDbSymbolTableRecord
100
AcDbLayerTableRecord
  2
0
 70
0
  6
CONTINUOUS
  0
LAYER
  5
51
100
AcDbSymbolTableRecord
100
AcDbLayerTableRecord
  2
Corte
 70
0
  6
CONTINUOUS
  0
LAYER
  5
52
100
AcDbSymbolTableRecord
100
AcDbLayerTableRecord
  2
Gravacao
 70
0
  6
CONTINUOUS
  0
ENDTAB
  0
TABLE
  2
STYLE
  5
3
330
0
100
AcDbSymbolTable
 70
     1
  0
STYLE
  5
11
330
3
100
AcDbSymbolTableRecord
100
AcDbTextStyleTableRecord
  2
STANDARD
 70
     0
 40
0.0
 41
1.0
 50
0.0
 71
     0
 42
2.5
  3
txt
  4

  0
ENDTAB
  0
TABLE
  2
VIEW
  5
6
330
0
100
AcDbSymbolTable
 70
     0
  0
ENDTAB
  0
TABLE
  2
UCS
  5
7
330
0
100
AcDbSymbolTable
 70
     0
  0
ENDTAB
  0
TABLE
  2
APPID
  5
9
330
0
100
AcDbSymbolTable
 70
     2
  0
APPID
  5
12
330
9
100
AcDbSymbolTableRecord
100
AcDbRegAppTableRecord
  2
ACAD
 70
     0
  0
ENDTAB
  0
TABLE
  2
DIMSTYLE
  5
A
330
0
100
AcDbSymbolTable
 70
     1
  0
DIMSTYLE
105
27
330
A
100
AcDbSymbolTableRecord
100
AcDbDimStyleTableRecord
  2
ISO-25
 70
     0
  3

  4

  5

  6

  7

 40
1.0
 41
2.5
 42
0.625
 43
3.75
 44
1.25
 45
0.0
 46
0.0
 47
0.0
 48
0.0
140
2.5
141
2.5
142
0.0
143
0.03937007874016
144
1.0
145
0.0
146
1.0
147
0.625
 71
     0
 72
     0
 73
     0
 74
     0
 75
     0
 76
     0
 77
     1
 78
     8
170
     0
171
     3
172
     1
173
     0
174
     0
175
     0
176
     0
177
     0
178
     0
270
     2
271
     2
272
     2
273
     2
274
     3
340
11
275
     0
280
     0
281
     0
282
     0
283
     0
284
     8
285
     0
286
     0
287
     3
288
     0
  0
ENDTAB
  0
TABLE
  2
BLOCK_RECORD
  5
1
330
0
100
AcDbSymbolTable
 70
     1
  0
BLOCK_RECORD
  5
1F
330
1
100
AcDbSymbolTableRecord
100
AcDbBlockTableRecord
  2
*MODEL_SPACE
  0
BLOCK_RECORD
  5
1B
330
1
100
AcDbSymbolTableRecord
100
AcDbBlockTableRecord
  2
*PAPER_SPACE
  0
ENDTAB
  0
ENDSEC
  0
SECTION
  2
BLOCKS
  0
BLOCK
  5
20
330
1F
100
AcDbEntity
  8
0
100
AcDbBlockBegin
  2
*MODEL_SPACE
 70
     0
 10
0.0
 20
0.0
 30
0.0
  3
*MODEL_SPACE
  1

  0
ENDBLK
  5
21
330
1F
100
AcDbEntity
  8
0
100
AcDbBlockEnd
  0
BLOCK
  5
1C
330
1B
100
AcDbEntity
 67
     1
  8
0
100
AcDbBlockBegin
  2
*PAPER_SPACE
  1

  0
ENDBLK
  5
1D
330
1B
100
AcDbEntity
 67
     1
  8
0
100
AcDbBlockEnd
  0
ENDSEC
  0
SECTION
  2
ENTITIES
  0
SPLINE
  5
100
100
AcDbEntity
  8
Gravacao
 62
7
100
AcDbSpline
 70
8
 71
3
 72
8
 73
4
 74
0
 40
0
 40
0
 40
0
 40
0
 40
1
 40
1
 40
1
 40
1
 10
16.736383
 20
372.142476
 30
0.0
 10
17.590308
 20
372.142476
 30
0.0
 10
18.229259
 20
372.309678
 30
0.0
 10
18.653236
 20
372.644083
 30
0.0
  0
SPLINE
  5
101
100
AcDbEntity
  8
Gravacao
 62
7
100
AcDbSpline
 70
8
 71
3
 72
8
 73
4
 74
0
 40
0
 40
0
 40
0
 40
0
 40
1
 40
1
 40
1
 40
1
 10
18.653236
 20
372.644083
 30
0.0
 10
19.077212
 20
372.984459
 30
0.0
 10
19.289200
 20
373.477108
 30
0.0
 10
19.289200
 20
374.122031
 30
0.0
  0
SPLINE
  5
102
100
AcDbEntity
  8
Gravacao
 62
7
100
AcDbSpline
 70
8
 71
3
 72
8
 73
4
 74
0
 40
0
 40
0
 40
0
 40
0
 40
1
 40
1
 40
1
 40
1
 10
19.289200
 20
374.122031
 30
0.0
 10
19.289200
 20
374.772926
 30
0.0
 10
19.110055
 20
375.253633
 30
0.0
 10
18.751765
 20
375.564151
 30
0.0
  0
SPLINE
  5
103
100
AcDbEntity
  8
Gravacao
 62
7
100
AcDbSpline
 70
8
 71
3
 72
8
 73
4
 74
0
 40
0
 40
0
 40
0
 40
0
 40
1
 40
1
 40
1
 40
1
 10
18.751765
 20
375.564151
 30
0.0
 10
18.399446
 20
375.874669
 30
0.0
 10
17.844095
 20
376.029928
 30
0.0
 10
17.085714
 20
376.029928
 30
0.0
  0
LWPOLYLINE
  5
104
100
AcDbEntity
  8
Gravacao
 62
7
100
AcDbPolyline
 90
2
 70
0
 10
15.822743
 20
372.142476
 30
0.0
 10
16.736383
 20
372.142476
 30
0.0
  0
SPLINE
  5
105
100
AcDbEntity
  8
Gravacao
 62
7
100
AcDbSpline
 70
8
 71
3
 72
8
 73
4
 74
0
 40
0
 40
0
 40
0
 40
0
 40
1
 40
1
 40
1
 40
1
 10
22.092824
 20
374.220561
 30
0.0
 10
22.092824
 20
372.811286
 30
0.0
 10
21.650933
 20
371.733429
 30
0.0
 10
20.767151
 20
370.986990
 30
0.0
  0
SPLINE
  5
106
100
AcDbEntity
  8
Gravacao
 62
7
100
AcDbSpline
 70
8
 71
3
 72
8
 73
4
 74
0
 40
0
 40
0
 40
0
 40
0
 40
1
 40
1
 40
1
 40
1
 10
20.767151
 20
370.986990
 30
0.0
 10
19.889339
 20
370.240551
 30
0.0
 10
18.638307
 20
369.867332
 30
0.0
 10
17.014056
 20
369.867332
 30
0.0
  0
LWPOLYLINE
  5
107
100
AcDbEntity
  8
Gravacao
 62
7
100
AcDbPolyline
 90
3
 70
0
 10
17.085714
 20
376.029928
 30
0.0
 10
15.822743
 20
376.029928
 30
0.0
 10
15.822743
 20
372.142476
 30
0.0
  0
SPLINE
  5
108
100
AcDbEntity
  8
Gravacao
 62
7
100
AcDbSpline
 70
8
 71
3
 72
8
 73
4
 74
0
 40
0
 40
0
 40
0
 40
0
 40
1
 40
1
 40
1
 40
1
 10
17.229032
 20
378.305072
 30
0.0
 10
18.817452
 20
378.305072
 30
0.0
 10
20.023696
 20
377.961711
 30
0.0
 10
20.847764
 20
377.274988
 30
0.0
  0
SPLINE
  5
109
100
AcDbEntity
  8
Gravacao
 62
7
100
AcDbSpline
 70
8
 71
3
 72
8
 73
4
 74
0
 40
0
 40
0
 40
0
 40
0
 40
1
 40
1
 40
1
 40
1
 10
20.847764
 20
377.274988
 30
0.0
 10
21.677804
 20
376.594236
 30
0.0
 10
22.092824
 20
375.576093
 30
0.0
 10
22.092824
 20
374.220561
 30
0.0
  0
LWPOLYLINE
  5
10a
100
AcDbEntity
  8
Gravacao
 62
7
100
AcDbPolyline
 90
6
 70
0
 10
17.014056
 20
369.867332
 30
0.0
 10
15.822743
 20
369.867332
 30
0.0
 10
15.822743
 20
365.209558
 30
0.0
 10
13.045991
 20
365.209558
 30
0.0
 10
13.045991
 20
378.305072
 30
0.0
 10
17.229032
 20
378.305072
 30
0.0
  0
LWPOLYLINE
  5
10b
100
AcDbEntity
  8
Gravacao
 62
7
100
AcDbPolyline
 90
1
 70
1
 10
22.092824
 20
374.220561
 30
0.0
  0
LWPOLYLINE
  5
10c
100
AcDbEntity
  8
Gravacao
 62
7
100
AcDbPolyline
 90
6
 70
1
 10
24.565028
 20
365.209558
 30
0.0
 10
24.565028
 20
378.305072
 30
0.0
 10
27.341780
 20
378.305072
 30
0.0
 10
27.341780
 20
367.502616
 30
0.0
 10
32.653435
 20
367.502616
 30
0.0
 10
32.653435
 20
365.209558
 30
0.0
  0
SPLINE
  5
10d
100
AcDbEntity
  8
Gravacao
 62
7
100
AcDbSpline
 70
8
 71
3
 72
8
 73
4
 74
0
 40
0
 40
0
 40
0
 40
0
 40
1
 40
1
 40
1
 40
1
 10
41.333017
 20
370.655570
 30
0.0
 10
40.455207
 20
373.480094
 30
0.0
 10
39.959572
 20
375.077472
 30
0.0
 10
39.846111
 20
375.447704
 30
0.0
  0
SPLINE
  5
10e
100
AcDbEntity
  8
Gravacao
 62
7
100
AcDbSpline
 70
8
 71
3
 72
8
 73
4
 74
0
 40
0
 40
0
 40
0
 40
0
 40
1
 40
1
 40
1
 40
1
 10
39.846111
 20
375.447704
 30
0.0
 10
39.738625
 20
375.817938
 30
0.0
 10
39.660996
 20
376.110543
 30
0.0
 10
39.613225
 20
376.325517
 30
0.0
  0
SPLINE
  5
10f
100
AcDbEntity
  8
Gravacao
 62
7
100
AcDbSpline
 70
8
 71
3
 72
8
 73
4
 74
0
 40
0
 40
0
 40
0
 40
0
 40
1
 40
1
 40
1
 40
1
 10
39.613225
 20
376.325517
 30
0.0
 10
39.416165
 20
375.561163
 30
0.0
 10
38.851857
 20
373.671181
 30
0.0
 10
37.920301
 20
370.655570
 30
0.0
  0
LWPOLYLINE
  5
110
100
AcDbEntity
  8
Gravacao
 62
7
100
AcDbPolyline
 90
8
 70
1
 10
42.945325
 20
365.209558
 30
0.0
 10
41.995857
 20
368.326685
 30
0.0
 10
37.221637
 20
368.326685
 30
0.0
 10
36.272166
 20
365.209558
 30
0.0
 10
33.280441
 20
365.209558
 30
0.0
 10
37.902387
 20
378.358816
 30
0.0
 10
41.297190
 20
378.358816
 30
0.0
 10
45.937050
 20
365.209558
 30
0.0
  0
LWPOLYLINE
  5
111
100
AcDbEntity
  8
Gravacao
 62
7
100
AcDbPolyline
 90
2
 70
0
 10
37.920301
 20
370.655570
 30
0.0
 10
41.333017
 20
370.655570
 30
0.0
  0
SPLINE
  5
112
100
AcDbEntity
  8
Gravacao
 62
7
100
AcDbSpline
 70
8
 71
3
 72
8
 73
4
 74
0
 40
0
 40
0
 40
0
 40
0
 40
1
 40
1
 40
1
 40
1
 10
49.896159
 20
375.116287
 30
0.0
 10
50.009618
 20
373.366635
 30
0.0
 10
50.066347
 20
372.118590
 30
0.0
 10
50.066347
 20
371.372151
 30
0.0
  0
LWPOLYLINE
  5
113
100
AcDbEntity
  8
Gravacao
 62
7
100
AcDbPolyline
 90
4
 70
0
 10
59.202751
 20
365.209558
 30
0.0
 10
55.673591
 20
365.209558
 30
0.0
 10
49.976776
 20
375.116287
 30
0.0
 10
49.896159
 20
375.116287
 30
0.0
  0
SPLINE
  5
114
100
AcDbEntity
  8
Gravacao
 62
7
100
AcDbSpline
 70
8
 71
3
 72
8
 73
4
 74
0
 40
0
 40
0
 40
0
 40
0
 40
1
 40
1
 40
1
 40
1
 10
56.838036
 20
368.496873
 30
0.0
 10
56.748462
 20
370.198751
 30
0.0
 10
56.703675
 20
371.402009
 30
0.0
 10
56.703675
 20
372.106649
 30
0.0
  0
LWPOLYLINE
  5
115
100
AcDbEntity
  8
Gravacao
 62
7
100
AcDbPolyline
 90
7
 70
0
 10
50.066347
 20
371.372151
 30
0.0
 10
50.066347
 20
365.209558
 30
0.0
 10
47.585185
 20
365.209558
 30
0.0
 10
47.585185
 20
378.305072
 30
0.0
 10
51.087476
 20
378.305072
 30
0.0
 10
56.775336
 20
368.496873
 30
0.0
 10
56.838036
 20
368.496873
 30
0.0
  0
LWPOLYLINE
  5
116
100
AcDbEntity
  8
Gravacao
 62
7
100
AcDbPolyline
 90
4
 70
0
 10
56.703675
 20
372.106649
 30
0.0
 10
56.703675
 20
378.305072
 30
0.0
 10
59.202751
 20
378.305072
 30
0.0
 10
59.202751
 20
365.209558
 30
0.0
  0
LWPOLYLINE
  5
117
100
AcDbEntity
  8
Gravacao
 62
7
100
AcDbPolyline
 90
12
 70
1
 10
70.041041
 20
365.209558
 30
0.0
 10
62.499027
 20
365.209558
 30
0.0
 10
62.499027
 20
378.305072
 30
0.0
 10
70.041041
 20
378.305072
 30
0.0
 10
70.041041
 20
376.029928
 30
0.0
 10
65.275776
 20
376.029928
 30
0.0
 10
65.275776
 20
373.154646
 30
0.0
 10
69.709621
 20
373.154646
 30
0.0
 10
69.709621
 20
370.879502
 30
0.0
 10
65.275776
 20
370.879502
 30
0.0
 10
65.275776
 20
367.502616
 30
0.0
 10
70.041041
 20
367.502616
 30
0.0
  0
LWPOLYLINE
  5
118
100
AcDbEntity
  8
Gravacao
 62
7
100
AcDbPolyline
 90
8
 70
1
 10
77.824897
 20
365.209558
 30
0.0
 10
75.048148
 20
365.209558
 30
0.0
 10
75.048148
 20
375.994097
 30
0.0
 10
71.492116
 20
375.994097
 30
0.0
 10
71.492116
 20
378.305072
 30
0.0
 10
81.380932
 20
378.305072
 30
0.0
 10
81.380932
 20
375.994097
 30
0.0
 10
77.824897
 20
375.994097
 30
0.0
  0
SPLINE
  5
119
100
AcDbEntity
  8
Gravacao
 62
7
100
AcDbSpline
 70
8
 71
3
 72
8
 73
4
 74
0
 40
0
 40
0
 40
0
 40
0
 40
1
 40
1
 40
1
 40
1
 10
89.800755
 20
370.655570
 30
0.0
 10
88.922945
 20
373.480094
 30
0.0
 10
88.427311
 20
375.077472
 30
0.0
 10
88.313853
 20
375.447704
 30
0.0
  0
SPLINE
  5
11a
100
AcDbEntity
  8
Gravacao
 62
7
100
AcDbSpline
 70
8
 71
3
 72
8
 73
4
 74
0
 40
0
 40
0
 40
0
 40
0
 40
1
 40
1
 40
1
 40
1
 10
88.313853
 20
375.447704
 30
0.0
 10
88.206364
 20
375.817938
 30
0.0
 10
88.128734
 20
376.110543
 30
0.0
 10
88.080963
 20
376.325517
 30
0.0
  0
SPLINE
  5
11b
100
AcDbEntity
  8
Gravacao
 62
7
100
AcDbSpline
 70
8
 71
3
 72
8
 73
4
 74
0
 40
0
 40
0
 40
0
 40
0
 40
1
 40
1
 40
1
 40
1
 10
88.080963
 20
376.325517
 30
0.0
 10
87.883903
 20
375.561163
 30
0.0
 10
87.319595
 20
373.671181
 30
0.0
 10
86.388039
 20
370.655570
 30
0.0
  0
LWPOLYLINE
  5
11c
100
AcDbEntity
  8
Gravacao
 62
7
100
AcDbPolyline
 90
8
 70
1
 10
91.413063
 20
365.209558
 30
0.0
 10
90.463595
 20
368.326685
 30
0.0
 10
85.689375
 20
368.326685
 30
0.0
 10
84.739904
 20
365.209558
 30
0.0
 10
81.748179
 20
365.209558
 30
0.0
 10
86.370125
 20
378.358816
 30
0.0
 10
89.764928
 20
378.358816
 30
0.0
 10
94.404788
 20
365.209558
 30
0.0
  0
SPLINE
  5
11d
100
AcDbEntity
  8
Gravacao
 62
7
100
AcDbSpline
 70
8
 71
3
 72
8
 73
4
 74
0
 40
0
 40
0
 40
0
 40
0
 40
1
 40
1
 40
1
 40
1
 10
103.783037
 20
368.846206
 30
0.0
 10
103.783037
 20
367.663846
 30
0.0
 10
103.356075
 20
366.732291
 30
0.0
 10
102.502150
 20
366.051541
 30
0.0
  0
SPLINE
  5
11e
100
AcDbEntity
  8
Gravacao
 62
7
100
AcDbSpline
 70
8
 71
3
 72
8
 73
4
 74
0
 40
0
 40
0
 40
0
 40
0
 40
1
 40
1
 40
1
 40
1
 10
102.502150
 20
366.051541
 30
0.0
 10
101.654195
 20
365.370788
 30
0.0
 10
100.471836
 20
365.030412
 30
0.0
 10
98.955073
 20
365.030412
 30
0.0
  0
SPLINE
  5
11f
100
AcDbEntity
  8
Gravacao
 62
7
100
AcDbSpline
 70
8
 71
3
 72
8
 73
4
 74
0
 40
0
 40
0
 40
0
 40
0
 40
1
 40
1
 40
1
 40
1
 10
98.955073
 20
365.030412
 30
0.0
 10
97.557741
 20
365.030412
 30
0.0
 10
96.321639
 20
365.293158
 30
0.0
 10
95.246767
 20
365.818651
 30
0.0
  0
LWPOLYLINE
  5
120
100
AcDbEntity
  8
Gravacao
 62
7
100
AcDbPolyline
 90
2
 70
0
 10
86.388039
 20
370.655570
 30
0.0
 10
89.800755
 20
370.655570
 30
0.0
  0
SPLINE
  5
121
100
AcDbEntity
  8
Gravacao
 62
7
100
AcDbSpline
 70
8
 71
3
 72
8
 73
4
 74
0
 40
0
 40
0
 40
0
 40
0
 40
1
 40
1
 40
1
 40
1
 10
95.246767
 20
368.398343
 30
0.0
 10
96.130552
 20
368.004224
 30
0.0
 10
96.876991
 20
367.726548
 30
0.0
 10
97.486084
 20
367.565315
 30
0.0
  0
SPLINE
  5
122
100
AcDbEntity
  8
Gravacao
 62
7
100
AcDbSpline
 70
8
 71
3
 72
8
 73
4
 74
0
 40
0
 40
0
 40
0
 40
0
 40
1
 40
1
 40
1
 40
1
 10
97.486084
 20
367.565315
 30
0.0
 10
98.101148
 20
367.404085
 30
0.0
 10
98.662470
 20
367.323470
 30
0.0
 10
99.170050
 20
367.323470
 30
0.0
  0
SPLINE
  5
123
100
AcDbEntity
  8
Gravacao
 62
7
100
AcDbSpline
 70
8
 71
3
 72
8
 73
4
 74
0
 40
0
 40
0
 40
0
 40
0
 40
1
 40
1
 40
1
 40
1
 10
99.170050
 20
367.323470
 30
0.0
 10
99.779143
 20
367.323470
 30
0.0
 10
100.244920
 20
367.439915
 30
0.0
 10
100.567381
 20
367.672804
 30
0.0
  0
SPLINE
  5
124
100
AcDbEntity
  8
Gravacao
 62
7
100
AcDbSpline
 70
8
 71
3
 72
8
 73
4
 74
0
 40
0
 40
0
 40
0
 40
0
 40
1
 40
1
 40
1
 40
1
 10
100.567381
 20
367.672804
 30
0.0
 10
100.895813
 20
367.905693
 30
0.0
 10
101.060030
 20
368.252040
 30
0.0
 10
101.060030
 20
368.711846
 30
0.0
  0
SPLINE
  5
125
100
AcDbEntity
  8
Gravacao
 62
7
100
AcDbSpline
 70
8
 71
3
 72
8
 73
4
 74
0
 40
0
 40
0
 40
0
 40
0
 40
1
 40
1
 40
1
 40
1
 10
101.060030
 20
368.711846
 30
0.0
 10
101.060030
 20
368.968620
 30
0.0
 10
100.988372
 20
369.195537
 30
0.0
 10
100.845056
 20
369.392596
 30
0.0
  0
SPLINE
  5
126
100
AcDbEntity
  8
Gravacao
 62
7
100
AcDbSpline
 70
8
 71
3
 72
8
 73
4
 74
0
 40
0
 40
0
 40
0
 40
0
 40
1
 40
1
 40
1
 40
1
 10
100.845056
 20
369.392596
 30
0.0
 10
100.701739
 20
369.595628
 30
0.0
 10
100.489750
 20
369.789703
 30
0.0
 10
100.209089
 20
369.974820
 30
0.0
  0
SPLINE
  5
127
100
AcDbEntity
  8
Gravacao
 62
7
100
AcDbSpline
 70
8
 71
3
 72
8
 73
4
 74
0
 40
0
 40
0
 40
0
 40
0
 40
1
 40
1
 40
1
 40
1
 10
100.209089
 20
369.974820
 30
0.0
 10
99.934400
 20
370.159937
 30
0.0
 10
99.370093
 20
370.455527
 30
0.0
 10
98.516168
 20
370.861588
 30
0.0
  0
SPLINE
  5
128
100
AcDbEntity
  8
Gravacao
 62
7
100
AcDbSpline
 70
8
 71
3
 72
8
 73
4
 74
0
 40
0
 40
0
 40
0
 40
0
 40
1
 40
1
 40
1
 40
1
 10
98.516168
 20
370.861588
 30
0.0
 10
97.715987
 20
371.237793
 30
0.0
 10
97.115851
 20
371.599069
 30
0.0
 10
96.715759
 20
371.945416
 30
0.0
  0
SPLINE
  5
129
100
AcDbEntity
  8
Gravacao
 62
7
100
AcDbSpline
 70
8
 71
3
 72
8
 73
4
 74
0
 40
0
 40
0
 40
0
 40
0
 40
1
 40
1
 40
1
 40
1
 10
96.715759
 20
371.945416
 30
0.0
 10
96.315668
 20
372.291764
 30
0.0
 10
95.996192
 20
372.694840
 30
0.0
 10
95.757333
 20
373.154646
 30
0.0
  0
SPLINE
  5
12a
100
AcDbEntity
  8
Gravacao
 62
7
100
AcDbSpline
 70
8
 71
3
 72
8
 73
4
 74
0
 40
0
 40
0
 40
0
 40
0
 40
1
 40
1
 40
1
 40
1
 10
95.757333
 20
373.154646
 30
0.0
 10
95.518472
 20
373.614452
 30
0.0
 10
95.399041
 20
374.151888
 30
0.0
 10
95.399041
 20
374.766954
 30
0.0
  0
SPLINE
  5
12b
100
AcDbEntity
  8
Gravacao
 62
7
100
AcDbSpline
 70
8
 71
3
 72
8
 73
4
 74
0
 40
0
 40
0
 40
0
 40
0
 40
1
 40
1
 40
1
 40
1
 10
95.399041
 20
374.766954
 30
0.0
 10
95.399041
 20
375.925427
 30
0.0
 10
95.790175
 20
376.836082
 30
0.0
 10
96.572444
 20
377.498920
 30
0.0
  0
SPLINE
  5
12c
100
AcDbEntity
  8
Gravacao
 62
7
100
AcDbSpline
 70
8
 71
3
 72
8
 73
4
 74
0
 40
0
 40
0
 40
0
 40
0
 40
1
 40
1
 40
1
 40
1
 10
96.572444
 20
377.498920
 30
0.0
 10
97.360682
 20
378.161755
 30
0.0
 10
98.447497
 20
378.493173
 30
0.0
 10
99.832886
 20
378.493173
 30
0.0
  0
SPLINE
  5
12d
100
AcDbEntity
  8
Gravacao
 62
7
100
AcDbSpline
 70
8
 71
3
 72
8
 73
4
 74
0
 40
0
 40
0
 40
0
 40
0
 40
1
 40
1
 40
1
 40
1
 10
99.832886
 20
378.493173
 30
0.0
 10
100.513637
 20
378.493173
 30
0.0
 10
101.161545
 20
378.412558
 30
0.0
 10
101.776611
 20
378.251328
 30
0.0
  0
SPLINE
  5
12e
100
AcDbEntity
  8
Gravacao
 62
7
100
AcDbSpline
 70
8
 71
3
 72
8
 73
4
 74
0
 40
0
 40
0
 40
0
 40
0
 40
1
 40
1
 40
1
 40
1
 10
101.776611
 20
378.251328
 30
0.0
 10
102.397647
 20
378.090098
 30
0.0
 10
103.045555
 20
377.863181
 30
0.0
 10
103.720335
 20
377.570578
 30
0.0
  0
LWPOLYLINE
  5
12f
100
AcDbEntity
  8
Gravacao
 62
7
100
AcDbPolyline
 90
2
 70
0
 10
95.246767
 20
365.818651
 30
0.0
 10
95.246767
 20
368.398343
 30
0.0
  0
SPLINE
  5
130
100
AcDbEntity
  8
Gravacao
 62
7
100
AcDbSpline
 70
8
 71
3
 72
8
 73
4
 74
0
 40
0
 40
0
 40
0
 40
0
 40
1
 40
1
 40
1
 40
1
 10
102.824611
 20
375.411877
 30
0.0
 10
102.125944
 20
375.698510
 30
0.0
 10
101.546708
 20
375.898556
 30
0.0
 10
101.086902
 20
376.012014
 30
0.0
  0
SPLINE
  5
131
100
AcDbEntity
  8
Gravacao
 62
7
100
AcDbSpline
 70
8
 71
3
 72
8
 73
4
 74
0
 40
0
 40
0
 40
0
 40
0
 40
1
 40
1
 40
1
 40
1
 10
101.086902
 20
376.012014
 30
0.0
 10
100.633068
 20
376.125472
 30
0.0
 10
100.185205
 20
376.182202
 30
0.0
 10
99.743312
 20
376.182202
 30
0.0
  0
SPLINE
  5
132
100
AcDbEntity
  8
Gravacao
 62
7
100
AcDbSpline
 70
8
 71
3
 72
8
 73
4
 74
0
 40
0
 40
0
 40
0
 40
0
 40
1
 40
1
 40
1
 40
1
 10
99.743312
 20
376.182202
 30
0.0
 10
99.217819
 20
376.182202
 30
0.0
 10
98.814743
 20
376.059786
 30
0.0
 10
98.534082
 20
375.814954
 30
0.0
  0
SPLINE
  5
133
100
AcDbEntity
  8
Gravacao
 62
7
100
AcDbSpline
 70
8
 71
3
 72
8
 73
4
 74
0
 40
0
 40
0
 40
0
 40
0
 40
1
 40
1
 40
1
 40
1
 10
98.534082
 20
375.814954
 30
0.0
 10
98.253421
 20
375.570121
 30
0.0
 10
98.113090
 20
375.250644
 30
0.0
 10
98.113090
 20
374.856525
 30
0.0
  0
SPLINE
  5
134
100
AcDbEntity
  8
Gravacao
 62
7
100
AcDbSpline
 70
8
 71
3
 72
8
 73
4
 74
0
 40
0
 40
0
 40
0
 40
0
 40
1
 40
1
 40
1
 40
1
 10
98.113090
 20
374.856525
 30
0.0
 10
98.113090
 20
374.611694
 30
0.0
 10
98.169820
 20
374.396719
 30
0.0
 10
98.283278
 20
374.211602
 30
0.0
  0
SPLINE
  5
135
100
AcDbEntity
  8
Gravacao
 62
7
100
AcDbSpline
 70
8
 71
3
 72
8
 73
4
 74
0
 40
0
 40
0
 40
0
 40
0
 40
1
 40
1
 40
1
 40
1
 10
98.283278
 20
374.211602
 30
0.0
 10
98.396739
 20
374.032457
 30
0.0
 10
98.575885
 20
373.856298
 30
0.0
 10
98.820716
 20
373.683126
 30
0.0
  0
SPLINE
  5
136
100
AcDbEntity
  8
Gravacao
 62
7
100
AcDbSpline
 70
8
 71
3
 72
8
 73
4
 74
0
 40
0
 40
0
 40
0
 40
0
 40
1
 40
1
 40
1
 40
1
 10
98.820716
 20
373.683126
 30
0.0
 10
99.071518
 20
373.515923
 30
0.0
 10
99.659710
 20
373.211376
 30
0.0
 10
100.585294
 20
372.769485
 30
0.0
  0
SPLINE
  5
137
100
AcDbEntity
  8
Gravacao
 62
7
100
AcDbSpline
 70
8
 71
3
 72
8
 73
4
 74
0
 40
0
 40
0
 40
0
 40
0
 40
1
 40
1
 40
1
 40
1
 10
100.585294
 20
372.769485
 30
0.0
 10
101.809454
 20
372.184277
 30
0.0
 10
102.648450
 20
371.596083
 30
0.0
 10
103.102284
 20
371.004904
 30
0.0
  0
SPLINE
  5
138
100
AcDbEntity
  8
Gravacao
 62
7
100
AcDbSpline
 70
8
 71
3
 72
8
 73
4
 74
0
 40
0
 40
0
 40
0
 40
0
 40
1
 40
1
 40
1
 40
1
 10
103.102284
 20
371.004904
 30
0.0
 10
103.556120
 20
370.419697
 30
0.0
 10
103.783037
 20
369.700131
 30
0.0
 10
103.783037
 20
368.846206
 30
0.0
  0
LWPOLYLINE
  5
139
100
AcDbEntity
  8
Gravacao
 62
7
100
AcDbPolyline
 90
2
 70
0
 10
103.720335
 20
377.570578
 30
0.0
 10
102.824611
 20
375.411877
 30
0.0
  0
SPLINE
  5
13a
100
AcDbEntity
  8
Gravacao
 62
7
100
AcDbSpline
 70
8
 71
3
 72
8
 73
4
 74
0
 40
0
 40
0
 40
0
 40
0
 40
1
 40
1
 40
1
 40
1
 10
121.787129
 20
371.882717
 30
0.0
 10
121.787129
 20
369.727003
 30
0.0
 10
121.172064
 20
368.075881
 30
0.0
 10
119.941934
 20
366.929351
 30
0.0
  0
SPLINE
  5
13b
100
AcDbEntity
  8
Gravacao
 62
7
100
AcDbSpline
 70
8
 71
3
 72
8
 73
4
 74
0
 40
0
 40
0
 40
0
 40
0
 40
1
 40
1
 40
1
 40
1
 10
119.941934
 20
366.929351
 30
0.0
 10
118.717775
 20
365.782822
 30
0.0
 10
116.947223
 20
365.209558
 30
0.0
 10
114.630279
 20
365.209558
 30
0.0
  0
LWPOLYLINE
  5
13c
100
AcDbEntity
  8
Gravacao
 62
7
100
AcDbPolyline
 90
1
 70
1
 10
103.783037
 20
368.846206
 30
0.0
  0
SPLINE
  5
13d
100
AcDbEntity
  8
Gravacao
 62
7
100
AcDbSpline
 70
8
 71
3
 72
8
 73
4
 74
0
 40
0
 40
0
 40
0
 40
0
 40
1
 40
1
 40
1
 40
1
 10
115.033354
 20
378.305072
 30
0.0
 10
117.171155
 20
378.305072
 30
0.0
 10
118.831234
 20
377.740764
 30
0.0
 10
120.013592
 20
376.612148
 30
0.0
  0
SPLINE
  5
13e
100
AcDbEntity
  8
Gravacao
 62
7
100
AcDbSpline
 70
8
 71
3
 72
8
 73
4
 74
0
 40
0
 40
0
 40
0
 40
0
 40
1
 40
1
 40
1
 40
1
 10
120.013592
 20
376.612148
 30
0.0
 10
121.195950
 20
375.483535
 30
0.0
 10
121.787129
 20
373.907057
 30
0.0
 10
121.787129
 20
371.882717
 30
0.0
  0
LWPOLYLINE
  5
13f
100
AcDbEntity
  8
Gravacao
 62
7
100
AcDbPolyline
 90
4
 70
0
 10
114.630279
 20
365.209558
 30
0.0
 10
110.921973
 20
365.209558
 30
0.0
 10
110.921973
 20
378.305072
 30
0.0
 10
115.033354
 20
378.305072
 30
0.0
  0
SPLINE
  5
140
100
AcDbEntity
  8
Gravacao
 62
7
100
AcDbSpline
 70
8
 71
3
 72
8
 73
4
 74
0
 40
0
 40
0
 40
0
 40
0
 40
1
 40
1
 40
1
 40
1
 10
118.902892
 20
371.811059
 30
0.0
 10
118.902892
 20
374.623638
 30
0.0
 10
117.660819
 20
376.029928
 30
0.0
 10
115.176672
 20
376.029928
 30
0.0
  0
LWPOLYLINE
  5
141
100
AcDbEntity
  8
Gravacao
 62
7
100
AcDbPolyline
 90
1
 70
1
 10
121.787129
 20
371.882717
 30
0.0
  0
SPLINE
  5
142
100
AcDbEntity
  8
Gravacao
 62
7
100
AcDbSpline
 70
8
 71
3
 72
8
 73
4
 74
0
 40
0
 40
0
 40
0
 40
0
 40
1
 40
1
 40
1
 40
1
 10
114.890038
 20
367.502616
 30
0.0
 10
117.565274
 20
367.502616
 30
0.0
 10
118.902892
 20
368.938764
 30
0.0
 10
118.902892
 20
371.811059
 30
0.0
  0
LWPOLYLINE
  5
143
100
AcDbEntity
  8
Gravacao
 62
7
100
AcDbPolyline
 90
4
 70
0
 10
115.176672
 20
376.029928
 30
0.0
 10
113.698722
 20
376.029928
 30
0.0
 10
113.698722
 20
367.502616
 30
0.0
 10
114.890038
 20
367.502616
 30
0.0
  0
SPLINE
  5
144
100
AcDbEntity
  8
Gravacao
 62
7
100
AcDbSpline
 70
8
 71
3
 72
8
 73
4
 74
0
 40
0
 40
0
 40
0
 40
0
 40
1
 40
1
 40
1
 40
1
 10
136.387462
 20
371.775229
 30
0.0
 10
136.387462
 20
369.607573
 30
0.0
 10
135.850026
 20
367.941522
 30
0.0
 10
134.775154
 20
366.777077
 30
0.0
  0
SPLINE
  5
145
100
AcDbEntity
  8
Gravacao
 62
7
100
AcDbSpline
 70
8
 71
3
 72
8
 73
4
 74
0
 40
0
 40
0
 40
0
 40
0
 40
1
 40
1
 40
1
 40
1
 10
134.775154
 20
366.777077
 30
0.0
 10
133.700282
 20
365.612634
 30
0.0
 10
132.159634
 20
365.030412
 30
0.0
 10
130.153208
 20
365.030412
 30
0.0
  0
SPLINE
  5
146
100
AcDbEntity
  8
Gravacao
 62
7
100
AcDbSpline
 70
8
 71
3
 72
8
 73
4
 74
0
 40
0
 40
0
 40
0
 40
0
 40
1
 40
1
 40
1
 40
1
 10
130.153208
 20
365.030412
 30
0.0
 10
128.146782
 20
365.030412
 30
0.0
 10
126.606133
 20
365.612634
 30
0.0
 10
125.531262
 20
366.777077
 30
0.0
  0
SPLINE
  5
147
100
AcDbEntity
  8
Gravacao
 62
7
100
AcDbSpline
 70
8
 71
3
 72
8
 73
4
 74
0
 40
0
 40
0
 40
0
 40
0
 40
1
 40
1
 40
1
 40
1
 10
125.531262
 20
366.777077
 30
0.0
 10
124.456390
 20
367.941522
 30
0.0
 10
123.918954
 20
369.613544
 30
0.0
 10
123.918954
 20
371.793142
 30
0.0
  0
SPLINE
  5
148
100
AcDbEntity
  8
Gravacao
 62
7
100
AcDbSpline
 70
8
 71
3
 72
8
 73
4
 74
0
 40
0
 40
0
 40
0
 40
0
 40
1
 40
1
 40
1
 40
1
 10
123.918954
 20
371.793142
 30
0.0
 10
123.918954
 20
373.972743
 30
0.0
 10
124.456390
 20
375.635807
 30
0.0
 10
125.531262
 20
376.782336
 30
0.0
  0
SPLINE
  5
149
100
AcDbEntity
  8
Gravacao
 62
7
100
AcDbSpline
 70
8
 71
3
 72
8
 73
4
 74
0
 40
0
 40
0
 40
0
 40
0
 40
1
 40
1
 40
1
 40
1
 10
125.531262
 20
376.782336
 30
0.0
 10
126.612106
 20
377.934839
 30
0.0
 10
128.158726
 20
378.511090
 30
0.0
 10
130.171122
 20
378.511090
 30
0.0
  0
SPLINE
  5
14a
100
AcDbEntity
  8
Gravacao
 62
7
100
AcDbSpline
 70
8
 71
3
 72
8
 73
4
 74
0
 40
0
 40
0
 40
0
 40
0
 40
1
 40
1
 40
1
 40
1
 10
130.171122
 20
378.511090
 30
0.0
 10
132.183520
 20
378.511090
 30
0.0
 10
133.721183
 20
377.931854
 30
0.0
 10
134.784113
 20
376.773381
 30
0.0
  0
SPLINE
  5
14b
100
AcDbEntity
  8
Gravacao
 62
7
100
AcDbSpline
 70
8
 71
3
 72
8
 73
4
 74
0
 40
0
 40
0
 40
0
 40
0
 40
1
 40
1
 40
1
 40
1
 10
134.784113
 20
376.773381
 30
0.0
 10
135.853012
 20
375.614908
 30
0.0
 10
136.387462
 20
373.948857
 30
0.0
 10
136.387462
 20
371.775229
 30
0.0
  0
LWPOLYLINE
  5
14c
100
AcDbEntity
  8
Gravacao
 62
7
100
AcDbPolyline
 90
1
 70
1
 10
118.902892
 20
371.811059
 30
0.0
  0
SPLINE
  5
14d
100
AcDbEntity
  8
Gravacao
 62
7
100
AcDbSpline
 70
8
 71
3
 72
8
 73
4
 74
0
 40
0
 40
0
 40
0
 40
0
 40
1
 40
1
 40
1
 40
1
 10
126.830066
 20
371.775229
 30
0.0
 10
126.830066
 20
370.312210
 30
0.0
 10
127.107741
 20
369.210467
 30
0.0
 10
127.663090
 20
368.470001
 30
0.0
  0
SPLINE
  5
14e
100
AcDbEntity
  8
Gravacao
 62
7
100
AcDbSpline
 70
8
 71
3
 72
8
 73
4
 74
0
 40
0
 40
0
 40
0
 40
0
 40
1
 40
1
 40
1
 40
1
 10
127.663090
 20
368.470001
 30
0.0
 10
128.218440
 20
367.729534
 30
0.0
 10
129.048479
 20
367.359300
 30
0.0
 10
130.153208
 20
367.359300
 30
0.0
  0
SPLINE
  5
14f
100
AcDbEntity
  8
Gravacao
 62
7
100
AcDbSpline
 70
8
 71
3
 72
8
 73
4
 74
0
 40
0
 40
0
 40
0
 40
0
 40
1
 40
1
 40
1
 40
1
 10
130.153208
 20
367.359300
 30
0.0
 10
132.368638
 20
367.359300
 30
0.0
 10
133.476353
 20
368.831277
 30
0.0
 10
133.476353
 20
371.775229
 30
0.0
  0
SPLINE
  5
150
100
AcDbEntity
  8
Gravacao
 62
7
100
AcDbSpline
 70
8
 71
3
 72
8
 73
4
 74
0
 40
0
 40
0
 40
0
 40
0
 40
1
 40
1
 40
1
 40
1
 10
133.476353
 20
371.775229
 30
0.0
 10
133.476353
 20
374.725153
 30
0.0
 10
132.374609
 20
376.200115
 30
0.0
 10
130.171122
 20
376.200115
 30
0.0
  0
SPLINE
  5
151
100
AcDbEntity
  8
Gravacao
 62
7
100
AcDbSpline
 70
8
 71
3
 72
8
 73
4
 74
0
 40
0
 40
0
 40
0
 40
0
 40
1
 40
1
 40
1
 40
1
 10
130.171122
 20
376.200115
 30
0.0
 10
129.066395
 20
376.200115
 30
0.0
 10
128.233371
 20
375.826896
 30
0.0
 10
127.672049
 20
375.080457
 30
0.0
  0
SPLINE
  5
152
100
AcDbEntity
  8
Gravacao
 62
7
100
AcDbSpline
 70
8
 71
3
 72
8
 73
4
 74
0
 40
0
 40
0
 40
0
 40
0
 40
1
 40
1
 40
1
 40
1
 10
127.672049
 20
375.080457
 30
0.0
 10
127.110727
 20
374.339990
 30
0.0
 10
126.830066
 20
373.238247
 30
0.0
 10
126.830066
 20
371.775229
 30
0.0
  0
LWPOLYLINE
  5
153
100
AcDbEntity
  8
Gravacao
 62
7
100
AcDbPolyline
 90
1
 70
1
 10
136.387462
 20
371.775229
 30
0.0
  0
SPLINE
  5
154
100
AcDbEntity
  8
Gravacao
 62
7
100
AcDbSpline
 70
8
 71
3
 72
8
 73
4
 74
0
 40
0
 40
0
 40
0
 40
0
 40
1
 40
1
 40
1
 40
1
 10
151.596897
 20
368.846206
 30
0.0
 10
151.596897
 20
367.663846
 30
0.0
 10
151.169935
 20
366.732291
 30
0.0
 10
150.316010
 20
366.051541
 30
0.0
  0
SPLINE
  5
155
100
AcDbEntity
  8
Gravacao
 62
7
100
AcDbSpline
 70
8
 71
3
 72
8
 73
4
 74
0
 40
0
 40
0
 40
0
 40
0
 40
1
 40
1
 40
1
 40
1
 10
150.316010
 20
366.051541
 30
0.0
 10
149.468055
 20
365.370788
 30
0.0
 10
148.285696
 20
365.030412
 30
0.0
 10
146.768933
 20
365.030412
 30
0.0
  0
SPLINE
  5
156
100
AcDbEntity
  8
Gravacao
 62
7
100
AcDbSpline
 70
8
 71
3
 72
8
 73
4
 74
0
 40
0
 40
0
 40
0
 40
0
 40
1
 40
1
 40
1
 40
1
 10
146.768933
 20
365.030412
 30
0.0
 10
145.371601
 20
365.030412
 30
0.0
 10
144.135499
 20
365.293158
 30
0.0
 10
143.060627
 20
365.818651
 30
0.0
  0
LWPOLYLINE
  5
157
100
AcDbEntity
  8
Gravacao
 62
7
100
AcDbPolyline
 90
1
 70
1
 10
126.830066
 20
371.775229
 30
0.0
  0
SPLINE
  5
158
100
AcDbEntity
  8
Gravacao
 62
7
100
AcDbSpline
 70
8
 71
3
 72
8
 73
4
 74
0
 40
0
 40
0
 40
0
 40
0
 40
1
 40
1
 40
1
 40
1
 10
143.060627
 20
368.398343
 30
0.0
 10
143.944411
 20
368.004224
 30
0.0
 10
144.690850
 20
367.726548
 30
0.0
 10
145.299944
 20
367.565315
 30
0.0
  0
SPLINE
  5
159
100
AcDbEntity
  8
Gravacao
 62
7
100
AcDbSpline
 70
8
 71
3
 72
8
 73
4
 74
0
 40
0
 40
0
 40
0
 40
0
 40
1
 40
1
 40
1
 40
1
 10
145.299944
 20
367.565315
 30
0.0
 10
145.915008
 20
367.404085
 30
0.0
 10
146.476330
 20
367.323470
 30
0.0
 10
146.983909
 20
367.323470
 30
0.0
  0
SPLINE
  5
15a
100
AcDbEntity
  8
Gravacao
 62
7
100
AcDbSpline
 70
8
 71
3
 72
8
 73
4
 74
0
 40
0
 40
0
 40
0
 40
0
 40
1
 40
1
 40
1
 40
1
 10
146.983909
 20
367.323470
 30
0.0
 10
147.593003
 20
367.323470
 30
0.0
 10
148.058780
 20
367.439915
 30
0.0
 10
148.381241
 20
367.672804
 30
0.0
  0
SPLINE
  5
15b
100
AcDbEntity
  8
Gravacao
 62
7
100
AcDbSpline
 70
8
 71
3
 72
8
 73
4
 74
0
 40
0
 40
0
 40
0
 40
0
 40
1
 40
1
 40
1
 40
1
 10
148.381241
 20
367.672804
 30
0.0
 10
148.709673
 20
367.905693
 30
0.0
 10
148.873890
 20
368.252040
 30
0.0
 10
148.873890
 20
368.711846
 30
0.0
  0
SPLINE
  5
15c
100
AcDbEntity
  8
Gravacao
 62
7
100
AcDbSpline
 70
8
 71
3
 72
8
 73
4
 74
0
 40
0
 40
0
 40
0
 40
0
 40
1
 40
1
 40
1
 40
1
 10
148.873890
 20
368.711846
 30
0.0
 10
148.873890
 20
368.968620
 30
0.0
 10
148.802232
 20
369.195537
 30
0.0
 10
148.658916
 20
369.392596
 30
0.0
  0
SPLINE
  5
15d
100
AcDbEntity
  8
Gravacao
 62
7
100
AcDbSpline
 70
8
 71
3
 72
8
 73
4
 74
0
 40
0
 40
0
 40
0
 40
0
 40
1
 40
1
 40
1
 40
1
 10
148.658916
 20
369.392596
 30
0.0
 10
148.515599
 20
369.595628
 30
0.0
 10
148.303609
 20
369.789703
 30
0.0
 10
148.022949
 20
369.974820
 30
0.0
  0
SPLINE
  5
15e
100
AcDbEntity
  8
Gravacao
 62
7
100
AcDbSpline
 70
8
 71
3
 72
8
 73
4
 74
0
 40
0
 40
0
 40
0
 40
0
 40
1
 40
1
 40
1
 40
1
 10
148.022949
 20
369.974820
 30
0.0
 10
147.748260
 20
370.159937
 30
0.0
 10
147.183953
 20
370.455527
 30
0.0
 10
146.330028
 20
370.861588
 30
0.0
  0
SPLINE
  5
15f
100
AcDbEntity
  8
Gravacao
 62
7
100
AcDbSpline
 70
8
 71
3
 72
8
 73
4
 74
0
 40
0
 40
0
 40
0
 40
0
 40
1
 40
1
 40
1
 40
1
 10
146.330028
 20
370.861588
 30
0.0
 10
145.529847
 20
371.237793
 30
0.0
 10
144.929711
 20
371.599069
 30
0.0
 10
144.529619
 20
371.945416
 30
0.0
  0
SPLINE
  5
160
100
AcDbEntity
  8
Gravacao
 62
7
100
AcDbSpline
 70
8
 71
3
 72
8
 73
4
 74
0
 40
0
 40
0
 40
0
 40
0
 40
1
 40
1
 40
1
 40
1
 10
144.529619
 20
371.945416
 30
0.0
 10
144.129528
 20
372.291764
 30
0.0
 10
143.810052
 20
372.694840
 30
0.0
 10
143.571193
 20
373.154646
 30
0.0
  0
SPLINE
  5
161
100
AcDbEntity
  8
Gravacao
 62
7
100
AcDbSpline
 70
8
 71
3
 72
8
 73
4
 74
0
 40
0
 40
0
 40
0
 40
0
 40
1
 40
1
 40
1
 40
1
 10
143.571193
 20
373.154646
 30
0.0
 10
143.332332
 20
373.614452
 30
0.0
 10
143.212901
 20
374.151888
 30
0.0
 10
143.212901
 20
374.766954
 30
0.0
  0
SPLINE
  5
162
100
AcDbEntity
  8
Gravacao
 62
7
100
AcDbSpline
 70
8
 71
3
 72
8
 73
4
 74
0
 40
0
 40
0
 40
0
 40
0
 40
1
 40
1
 40
1
 40
1
 10
143.212901
 20
374.766954
 30
0.0
 10
143.212901
 20
375.925427
 30
0.0
 10
143.604035
 20
376.836082
 30
0.0
 10
144.386304
 20
377.498920
 30
0.0
  0
SPLINE
  5
163
100
AcDbEntity
  8
Gravacao
 62
7
100
AcDbSpline
 70
8
 71
3
 72
8
 73
4
 74
0
 40
0
 40
0
 40
0
 40
0
 40
1
 40
1
 40
1
 40
1
 10
144.386304
 20
377.498920
 30
0.0
 10
145.174542
 20
378.161755
 30
0.0
 10
146.261356
 20
378.493173
 30
0.0
 10
147.646746
 20
378.493173
 30
0.0
  0
SPLINE
  5
164
100
AcDbEntity
  8
Gravacao
 62
7
100
AcDbSpline
 70
8
 71
3
 72
8
 73
4
 74
0
 40
0
 40
0
 40
0
 40
0
 40
1
 40
1
 40
1
 40
1
 10
147.646746
 20
378.493173
 30
0.0
 10
148.327496
 20
378.493173
 30
0.0
 10
148.975405
 20
378.412558
 30
0.0
 10
149.590470
 20
378.251328
 30
0.0
  0
SPLINE
  5
165
100
AcDbEntity
  8
Gravacao
 62
7
100
AcDbSpline
 70
8
 71
3
 72
8
 73
4
 74
0
 40
0
 40
0
 40
0
 40
0
 40
1
 40
1
 40
1
 40
1
 10
149.590470
 20
378.251328
 30
0.0
 10
150.211506
 20
378.090098
 30
0.0
 10
150.859415
 20
377.863181
 30
0.0
 10
151.534195
 20
377.570578
 30
0.0
  0
LWPOLYLINE
  5
166
100
AcDbEntity
  8
Gravacao
 62
7
100
AcDbPolyline
 90
2
 70
0
 10
143.060627
 20
365.818651
 30
0.0
 10
143.060627
 20
368.398343
 30
0.0
  0
SPLINE
  5
167
100
AcDbEntity
  8
Gravacao
 62
7
100
AcDbSpline
 70
8
 71
3
 72
8
 73
4
 74
0
 40
0
 40
0
 40
0
 40
0
 40
1
 40
1
 40
1
 40
1
 10
150.638471
 20
375.411877
 30
0.0
 10
149.939804
 20
375.698510
 30
0.0
 10
149.360568
 20
375.898556
 30
0.0
 10
148.900762
 20
376.012014
 30
0.0
  0
SPLINE
  5
168
100
AcDbEntity
  8
Gravacao
 62
7
100
AcDbSpline
 70
8
 71
3
 72
8
 73
4
 74
0
 40
0
 40
0
 40
0
 40
0
 40
1
 40
1
 40
1
 40
1
 10
148.900762
 20
376.012014
 30
0.0
 10
148.446928
 20
376.125472
 30
0.0
 10
147.999065
 20
376.182202
 30
0.0
 10
147.557171
 20
376.182202
 30
0.0
  0
SPLINE
  5
169
100
AcDbEntity
  8
Gravacao
 62
7
100
AcDbSpline
 70
8
 71
3
 72
8
 73
4
 74
0
 40
0
 40
0
 40
0
 40
0
 40
1
 40
1
 40
1
 40
1
 10
147.557171
 20
376.182202
 30
0.0
 10
147.031679
 20
376.182202
 30
0.0
 10
146.628602
 20
376.059786
 30
0.0
 10
146.347942
 20
375.814954
 30
0.0
  0
SPLINE
  5
16a
100
AcDbEntity
  8
Gravacao
 62
7
100
AcDbSpline
 70
8
 71
3
 72
8
 73
4
 74
0
 40
0
 40
0
 40
0
 40
0
 40
1
 40
1
 40
1
 40
1
 10
146.347942
 20
375.814954
 30
0.0
 10
146.067281
 20
375.570121
 30
0.0
 10
145.926950
 20
375.250644
 30
0.0
 10
145.926950
 20
374.856525
 30
0.0
  0
SPLINE
  5
16b
100
AcDbEntity
  8
Gravacao
 62
7
100
AcDbSpline
 70
8
 71
3
 72
8
 73
4
 74
0
 40
0
 40
0
 40
0
 40
0
 40
1
 40
1
 40
1
 40
1
 10
145.926950
 20
374.856525
 30
0.0
 10
145.926950
 20
374.611694
 30
0.0
 10
145.983679
 20
374.396719
 30
0.0
 10
146.097138
 20
374.211602
 30
0.0
  0
SPLINE
  5
16c
100
AcDbEntity
  8
Gravacao
 62
7
100
AcDbSpline
 70
8
 71
3
 72
8
 73
4
 74
0
 40
0
 40
0
 40
0
 40
0
 40
1
 40
1
 40
1
 40
1
 10
146.097138
 20
374.211602
 30
0.0
 10
146.210598
 20
374.032457
 30
0.0
 10
146.389744
 20
373.856298
 30
0.0
 10
146.634576
 20
373.683126
 30
0.0
  0
SPLINE
  5
16d
100
AcDbEntity
  8
Gravacao
 62
7
100
AcDbSpline
 70
8
 71
3
 72
8
 73
4
 74
0
 40
0
 40
0
 40
0
 40
0
 40
1
 40
1
 40
1
 40
1
 10
146.634576
 20
373.683126
 30
0.0
 10
146.885377
 20
373.515923
 30
0.0
 10
147.473570
 20
373.211376
 30
0.0
 10
148.399154
 20
372.769485
 30
0.0
  0
SPLINE
  5
16e
100
AcDbEntity
  8
Gravacao
 62
7
100
AcDbSpline
 70
8
 71
3
 72
8
 73
4
 74
0
 40
0
 40
0
 40
0
 40
0
 40
1
 40
1
 40
1
 40
1
 10
148.399154
 20
372.769485
 30
0.0
 10
149.623314
 20
372.184277
 30
0.0
 10
150.462310
 20
371.596083
 30
0.0
 10
150.916144
 20
371.004904
 30
0.0
  0
SPLINE
  5
16f
100
AcDbEntity
  8
Gravacao
 62
7
100
AcDbSpline
 70
8
 71
3
 72
8
 73
4
 74
0
 40
0
 40
0
 40
0
 40
0
 40
1
 40
1
 40
1
 40
1
 10
150.916144
 20
371.004904
 30
0.0
 10
151.369979
 20
370.419697
 30
0.0
 10
151.596897
 20
369.700131
 30
0.0
 10
151.596897
 20
368.846206
 30
0.0
  0
LWPOLYLINE
  5
170
100
AcDbEntity
  8
Gravacao
 62
7
100
AcDbPolyline
 90
2
 70
0
 10
151.534195
 20
377.570578
 30
0.0
 10
150.638471
 20
375.411877
 30
0.0
  0
LWPOLYLINE
  5
171
100
AcDbEntity
  8
Gravacao
 62
7
100
AcDbPolyline
 90
1
 70
1
 10
151.596897
 20
368.846206
 30
0.0
  0
SPLINE
  5
172
100
AcDbEntity
  8
Gravacao
 62
7
100
AcDbSpline
 70
8
 71
3
 72
8
 73
4
 74
0
 40
0
 40
0
 40
0
 40
0
 40
1
 40
1
 40
1
 40
1
 10
167.773704
 20
368.846206
 30
0.0
 10
167.773704
 20
367.663846
 30
0.0
 10
167.346742
 20
366.732291
 30
0.0
 10
166.492817
 20
366.051541
 30
0.0
  0
SPLINE
  5
173
100
AcDbEntity
  8
Gravacao
 62
7
100
AcDbSpline
 70
8
 71
3
 72
8
 73
4
 74
0
 40
0
 40
0
 40
0
 40
0
 40
1
 40
1
 40
1
 40
1
 10
166.492817
 20
366.051541
 30
0.0
 10
165.644862
 20
365.370788
 30
0.0
 10
164.462503
 20
365.030412
 30
0.0
 10
162.945740
 20
365.030412
 30
0.0
  0
SPLINE
  5
174
100
AcDbEntity
  8
Gravacao
 62
7
100
AcDbSpline
 70
8
 71
3
 72
8
 73
4
 74
0
 40
0
 40
0
 40
0
 40
0
 40
1
 40
1
 40
1
 40
1
 10
162.945740
 20
365.030412
 30
0.0
 10
161.548408
 20
365.030412
 30
0.0
 10
160.312306
 20
365.293158
 30
0.0
 10
159.237434
 20
365.818651
 30
0.0
  0
LWPOLYLINE
  5
175
100
AcDbEntity
  8
Gravacao
 62
7
100
AcDbPolyline
 90
4
 70
1
 10
153.970571
 20
365.209558
 30
0.0
 10
153.970571
 20
378.305072
 30
0.0
 10
156.747323
 20
378.305072
 30
0.0
 10
156.747323
 20
365.209558
 30
0.0
  0
SPLINE
  5
176
100
AcDbEntity
  8
Gravacao
 62
7
100
AcDbSpline
 70
8
 71
3
 72
8
 73
4
 74
0
 40
0
 40
0
 40
0
 40
0
 40
1
 40
1
 40
1
 40
1
 10
159.237434
 20
368.398343
 30
0.0
 10
160.121219
 20
368.004224
 30
0.0
 10
160.867658
 20
367.726548
 30
0.0
 10
161.476751
 20
367.565315
 30
0.0
  0
SPLINE
  5
177
100
AcDbEntity
  8
Gravacao
 62
7
100
AcDbSpline
 70
8
 71
3
 72
8
 73
4
 74
0
 40
0
 40
0
 40
0
 40
0
 40
1
 40
1
 40
1
 40
1
 10
161.476751
 20
367.565315
 30
0.0
 10
162.091815
 20
367.404085
 30
0.0
 10
162.653137
 20
367.323470
 30
0.0
 10
163.160716
 20
367.323470
 30
0.0
  0
SPLINE
  5
178
100
AcDbEntity
  8
Gravacao
 62
7
100
AcDbSpline
 70
8
 71
3
 72
8
 73
4
 74
0
 40
0
 40
0
 40
0
 40
0
 40
1
 40
1
 40
1
 40
1
 10
163.160716
 20
367.323470
 30
0.0
 10
163.769810
 20
367.323470
 30
0.0
 10
164.235587
 20
367.439915
 30
0.0
 10
164.558048
 20
367.672804
 30
0.0
  0
SPLINE
  5
179
100
AcDbEntity
  8
Gravacao
 62
7
100
AcDbSpline
 70
8
 71
3
 72
8
 73
4
 74
0
 40
0
 40
0
 40
0
 40
0
 40
1
 40
1
 40
1
 40
1
 10
164.558048
 20
367.672804
 30
0.0
 10
164.886480
 20
367.905693
 30
0.0
 10
165.050697
 20
368.252040
 30
0.0
 10
165.050697
 20
368.711846
 30
0.0
  0
SPLINE
  5
17a
100
AcDbEntity
  8
Gravacao
 62
7
100
AcDbSpline
 70
8
 71
3
 72
8
 73
4
 74
0
 40
0
 40
0
 40
0
 40
0
 40
1
 40
1
 40
1
 40
1
 10
165.050697
 20
368.711846
 30
0.0
 10
165.050697
 20
368.968620
 30
0.0
 10
164.979039
 20
369.195537
 30
0.0
 10
164.835723
 20
369.392596
 30
0.0
  0
SPLINE
  5
17b
100
AcDbEntity
  8
Gravacao
 62
7
100
AcDbSpline
 70
8
 71
3
 72
8
 73
4
 74
0
 40
0
 40
0
 40
0
 40
0
 40
1
 40
1
 40
1
 40
1
 10
164.835723
 20
369.392596
 30
0.0
 10
164.692408
 20
369.595628
 30
0.0
 10
164.480420
 20
369.789703
 30
0.0
 10
164.199759
 20
369.974820
 30
0.0
  0
SPLINE
  5
17c
100
AcDbEntity
  8
Gravacao
 62
7
100
AcDbSpline
 70
8
 71
3
 72
8
 73
4
 74
0
 40
0
 40
0
 40
0
 40
0
 40
1
 40
1
 40
1
 40
1
 10
164.199759
 20
369.974820
 30
0.0
 10
163.925068
 20
370.159937
 30
0.0
 10
163.360760
 20
370.455527
 30
0.0
 10
162.506835
 20
370.861588
 30
0.0
  0
SPLINE
  5
17d
100
AcDbEntity
  8
Gravacao
 62
7
100
AcDbSpline
 70
8
 71
3
 72
8
 73
4
 74
0
 40
0
 40
0
 40
0
 40
0
 40
1
 40
1
 40
1
 40
1
 10
162.506835
 20
370.861588
 30
0.0
 10
161.706654
 20
371.237793
 30
0.0
 10
161.106518
 20
371.599069
 30
0.0
 10
160.706426
 20
371.945416
 30
0.0
  0
SPLINE
  5
17e
100
AcDbEntity
  8
Gravacao
 62
7
100
AcDbSpline
 70
8
 71
3
 72
8
 73
4
 74
0
 40
0
 40
0
 40
0
 40
0
 40
1
 40
1
 40
1
 40
1
 10
160.706426
 20
371.945416
 30
0.0
 10
160.306335
 20
372.291764
 30
0.0
 10
159.986859
 20
372.694840
 30
0.0
 10
159.748000
 20
373.154646
 30
0.0
  0
SPLINE
  5
17f
100
AcDbEntity
  8
Gravacao
 62
7
100
AcDbSpline
 70
8
 71
3
 72
8
 73
4
 74
0
 40
0
 40
0
 40
0
 40
0
 40
1
 40
1
 40
1
 40
1
 10
159.748000
 20
373.154646
 30
0.0
 10
159.509139
 20
373.614452
 30
0.0
 10
159.389708
 20
374.151888
 30
0.0
 10
159.389708
 20
374.766954
 30
0.0
  0
SPLINE
  5
180
100
AcDbEntity
  8
Gravacao
 62
7
100
AcDbSpline
 70
8
 71
3
 72
8
 73
4
 74
0
 40
0
 40
0
 40
0
 40
0
 40
1
 40
1
 40
1
 40
1
 10
159.389708
 20
374.766954
 30
0.0
 10
159.389708
 20
375.925427
 30
0.0
 10
159.780842
 20
376.836082
 30
0.0
 10
160.563111
 20
377.498920
 30
0.0
  0
SPLINE
  5
181
100
AcDbEntity
  8
Gravacao
 62
7
100
AcDbSpline
 70
8
 71
3
 72
8
 73
4
 74
0
 40
0
 40
0
 40
0
 40
0
 40
1
 40
1
 40
1
 40
1
 10
160.563111
 20
377.498920
 30
0.0
 10
161.351349
 20
378.161755
 30
0.0
 10
162.438163
 20
378.493173
 30
0.0
 10
163.823553
 20
378.493173
 30
0.0
  0
SPLINE
  5
182
100
AcDbEntity
  8
Gravacao
 62
7
100
AcDbSpline
 70
8
 71
3
 72
8
 73
4
 74
0
 40
0
 40
0
 40
0
 40
0
 40
1
 40
1
 40
1
 40
1
 10
163.823553
 20
378.493173
 30
0.0
 10
164.504303
 20
378.493173
 30
0.0
 10
165.152212
 20
378.412558
 30
0.0
 10
165.767277
 20
378.251328
 30
0.0
  0
SPLINE
  5
183
100
AcDbEntity
  8
Gravacao
 62
7
100
AcDbSpline
 70
8
 71
3
 72
8
 73
4
 74
0
 40
0
 40
0
 40
0
 40
0
 40
1
 40
1
 40
1
 40
1
 10
165.767277
 20
378.251328
 30
0.0
 10
166.388313
 20
378.090098
 30
0.0
 10
167.036223
 20
377.863181
 30
0.0
 10
167.711005
 20
377.570578
 30
0.0
  0
LWPOLYLINE
  5
184
100
AcDbEntity
  8
Gravacao
 62
7
100
AcDbPolyline
 90
2
 70
0
 10
159.237434
 20
365.818651
 30
0.0
 10
159.237434
 20
368.398343
 30
0.0
  0
SPLINE
  5
185
100
AcDbEntity
  8
Gravacao
 62
7
100
AcDbSpline
 70
8
 71
3
 72
8
 73
4
 74
0
 40
0
 40
0
 40
0
 40
0
 40
1
 40
1
 40
1
 40
1
 10
166.815278
 20
375.411877
 30
0.0
 10
166.116611
 20
375.698510
 30
0.0
 10
165.537375
 20
375.898556
 30
0.0
 10
165.077569
 20
376.012014
 30
0.0
  0
SPLINE
  5
186
100
AcDbEntity
  8
Gravacao
 62
7
100
AcDbSpline
 70
8
 71
3
 72
8
 73
4
 74
0
 40
0
 40
0
 40
0
 40
0
 40
1
 40
1
 40
1
 40
1
 10
165.077569
 20
376.012014
 30
0.0
 10
164.623735
 20
376.125472
 30
0.0
 10
164.175872
 20
376.182202
 30
0.0
 10
163.733979
 20
376.182202
 30
0.0
  0
SPLINE
  5
187
100
AcDbEntity
  8
Gravacao
 62
7
100
AcDbSpline
 70
8
 71
3
 72
8
 73
4
 74
0
 40
0
 40
0
 40
0
 40
0
 40
1
 40
1
 40
1
 40
1
 10
163.733979
 20
376.182202
 30
0.0
 10
163.208486
 20
376.182202
 30
0.0
 10
162.805410
 20
376.059786
 30
0.0
 10
162.524749
 20
375.814954
 30
0.0
  0
SPLINE
  5
188
100
AcDbEntity
  8
Gravacao
 62
7
100
AcDbSpline
 70
8
 71
3
 72
8
 73
4
 74
0
 40
0
 40
0
 40
0
 40
0
 40
1
 40
1
 40
1
 40
1
 10
162.524749
 20
375.814954
 30
0.0
 10
162.244088
 20
375.570121
 30
0.0
 10
162.103757
 20
375.250644
 30
0.0
 10
162.103757
 20
374.856525
 30
0.0
  0
SPLINE
  5
189
100
AcDbEntity
  8
Gravacao
 62
7
100
AcDbSpline
 70
8
 71
3
 72
8
 73
4
 74
0
 40
0
 40
0
 40
0
 40
0
 40
1
 40
1
 40
1
 40
1
 10
162.103757
 20
374.856525
 30
0.0
 10
162.103757
 20
374.611694
 30
0.0
 10
162.160486
 20
374.396719
 30
0.0
 10
162.273945
 20
374.211602
 30
0.0
  0
SPLINE
  5
18a
100
AcDbEntity
  8
Gravacao
 62
7
100
AcDbSpline
 70
8
 71
3
 72
8
 73
4
 74
0
 40
0
 40
0
 40
0
 40
0
 40
1
 40
1
 40
1
 40
1
 10
162.273945
 20
374.211602
 30
0.0
 10
162.387405
 20
374.032457
 30
0.0
 10
162.566551
 20
373.856298
 30
0.0
 10
162.811383
 20
373.683126
 30
0.0
  0
SPLINE
  5
18b
100
AcDbEntity
  8
Gravacao
 62
7
100
AcDbSpline
 70
8
 71
3
 72
8
 73
4
 74
0
 40
0
 40
0
 40
0
 40
0
 40
1
 40
1
 40
1
 40
1
 10
162.811383
 20
373.683126
 30
0.0
 10
163.062187
 20
373.515923
 30
0.0
 10
163.650379
 20
373.211376
 30
0.0
 10
164.575961
 20
372.769485
 30
0.0
  0
SPLINE
  5
18c
100
AcDbEntity
  8
Gravacao
 62
7
100
AcDbSpline
 70
8
 71
3
 72
8
 73
4
 74
0
 40
0
 40
0
 40
0
 40
0
 40
1
 40
1
 40
1
 40
1
 10
164.575961
 20
372.769485
 30
0.0
 10
165.800121
 20
372.184277
 30
0.0
 10
166.639118
 20
371.596083
 30
0.0
 10
167.092954
 20
371.004904
 30
0.0
  0
SPLINE
  5
18d
100
AcDbEntity
  8
Gravacao
 62
7
100
AcDbSpline
 70
8
 71
3
 72
8
 73
4
 74
0
 40
0
 40
0
 40
0
 40
0
 40
1
 40
1
 40
1
 40
1
 10
167.092954
 20
371.004904
 30
0.0
 10
167.546788
 20
370.419697
 30
0.0
 10
167.773704
 20
369.700131
 30
0.0
 10
167.773704
 20
368.846206
 30
0.0
  0
LWPOLYLINE
  5
18e
100
AcDbEntity
  8
Gravacao
 62
7
100
AcDbPolyline
 90
2
 70
0
 10
167.711005
 20
377.570578
 30
0.0
 10
166.815278
 20
375.411877
 30
0.0
  0
LWPOLYLINE
  5
18f
100
AcDbEntity
  8
Gravacao
 62
7
100
AcDbPolyline
 90
1
 70
1
 10
167.773704
 20
368.846206
 30
0.0
  0
LWPOLYLINE
  5
190
100
AcDbEntity
  8
Gravacao
 62
7
100
AcDbPolyline
 90
8
 70
1
 10
175.199274
 20
365.209558
 30
0.0
 10
172.422526
 20
365.209558
 30
0.0
 10
172.422526
 20
375.994097
 30
0.0
 10
168.866491
 20
375.994097
 30
0.0
 10
168.866491
 20
378.305072
 30
0.0
 10
178.755306
 20
378.305072
 30
0.0
 10
178.755306
 20
375.994097
 30
0.0
 10
175.199274
 20
375.994097
 30
0.0
  0
LWPOLYLINE
  5
191
100
AcDbEntity
  8
Gravacao
 62
7
100
AcDbPolyline
 90
12
 70
1
 10
188.312695
 20
365.209558
 30
0.0
 10
180.770682
 20
365.209558
 30
0.0
 10
180.770682
 20
378.305072
 30
0.0
 10
188.312695
 20
378.305072
 30
0.0
 10
188.312695
 20
376.029928
 30
0.0
 10
183.547434
 20
376.029928
 30
0.0
 10
183.547434
 20
373.154646
 30
0.0
 10
187.981275
 20
373.154646
 30
0.0
 10
187.981275
 20
370.879502
 30
0.0
 10
183.547434
 20
370.879502
 30
0.0
 10
183.547434
 20
367.502616
 30
0.0
 10
188.312695
 20
367.502616
 30
0.0
  0
SPLINE
  5
192
100
AcDbEntity
  8
Gravacao
 62
7
100
AcDbSpline
 70
8
 71
3
 72
8
 73
4
 74
0
 40
0
 40
0
 40
0
 40
0
 40
1
 40
1
 40
1
 40
1
 10
193.355646
 20
375.483535
 30
0.0
 10
193.469104
 20
373.393507
 30
0.0
 10
193.525834
 20
371.999160
 30
0.0
 10
193.525834
 20
371.300493
 30
0.0
  0
LWPOLYLINE
  5
193
100
AcDbEntity
  8
Gravacao
 62
7
100
AcDbPolyline
 90
3
 70
0
 10
196.589220
 20
365.209558
 30
0.0
 10
193.436262
 20
375.483535
 30
0.0
 10
193.355646
 20
375.483535
 30
0.0
  0
SPLINE
  5
194
100
AcDbEntity
  8
Gravacao
 62
7
100
AcDbSpline
 70
8
 71
3
 72
8
 73
4
 74
0
 40
0
 40
0
 40
0
 40
0
 40
1
 40
1
 40
1
 40
1
 10
202.456223
 20
371.407981
 30
0.0
 10
202.456223
 20
371.700585
 30
0.0
 10
202.459210
 20
372.037975
 30
0.0
 10
202.465185
 20
372.420152
 30
0.0
  0
SPLINE
  5
195
100
AcDbEntity
  8
Gravacao
 62
7
100
AcDbSpline
 70
8
 71
3
 72
8
 73
4
 74
0
 40
0
 40
0
 40
0
 40
0
 40
1
 40
1
 40
1
 40
1
 10
202.465185
 20
372.420152
 30
0.0
 10
202.477134
 20
372.802329
 30
0.0
 10
202.518934
 20
373.817485
 30
0.0
 10
202.590587
 20
375.465621
 30
0.0
  0
LWPOLYLINE
  5
196
100
AcDbEntity
  8
Gravacao
 62
7
100
AcDbPolyline
 90
12
 70
0
 10
193.525834
 20
371.300493
 30
0.0
 10
193.525834
 20
365.209558
 30
0.0
 10
191.044675
 20
365.209558
 30
0.0
 10
191.044675
 20
378.305072
 30
0.0
 10
194.824638
 20
378.305072
 30
0.0
 10
197.923851
 20
368.290855
 30
0.0
 10
197.977592
 20
368.290855
 30
0.0
 10
201.264907
 20
378.305072
 30
0.0
 10
205.044870
 20
378.305072
 30
0.0
 10
205.044870
 20
365.209558
 30
0.0
 10
202.456223
 20
365.209558
 30
0.0
 10
202.456223
 20
371.407981
 30
0.0
  0
LWPOLYLINE
  5
197
100
AcDbEntity
  8
Gravacao
 62
7
100
AcDbPolyline
 90
4
 70
0
 10
202.590587
 20
375.465621
 30
0.0
 10
202.509970
 20
375.465621
 30
0.0
 10
199.133085
 20
365.209558
 30
0.0
 10
196.589220
 20
365.209558
 30
0.0
  0
SPLINE
  5
198
100
AcDbEntity
  8
Gravacao
 62
7
100
AcDbSpline
 70
8
 71
3
 72
8
 73
4
 74
0
 40
0
 40
0
 40
0
 40
0
 40
1
 40
1
 40
1
 40
1
 10
214.745578
 20
370.655570
 30
0.0
 10
213.867766
 20
373.480094
 30
0.0
 10
213.372131
 20
375.077472
 30
0.0
 10
213.258673
 20
375.447704
 30
0.0
  0
SPLINE
  5
199
100
AcDbEntity
  8
Gravacao
 62
7
100
AcDbSpline
 70
8
 71
3
 72
8
 73
4
 74
0
 40
0
 40
0
 40
0
 40
0
 40
1
 40
1
 40
1
 40
1
 10
213.258673
 20
375.447704
 30
0.0
 10
213.151186
 20
375.817938
 30
0.0
 10
213.073556
 20
376.110543
 30
0.0
 10
213.025782
 20
376.325517
 30
0.0
  0
SPLINE
  5
19a
100
AcDbEntity
  8
Gravacao
 62
7
100
AcDbSpline
 70
8
 71
3
 72
8
 73
4
 74
0
 40
0
 40
0
 40
0
 40
0
 40
1
 40
1
 40
1
 40
1
 10
213.025782
 20
376.325517
 30
0.0
 10
212.828723
 20
375.561163
 30
0.0
 10
212.264416
 20
373.671181
 30
0.0
 10
211.332862
 20
370.655570
 30
0.0
  0
LWPOLYLINE
  5
19b
100
AcDbEntity
  8
Gravacao
 62
7
100
AcDbPolyline
 90
8
 70
1
 10
216.357886
 20
365.209558
 30
0.0
 10
215.408415
 20
368.326685
 30
0.0
 10
210.634195
 20
368.326685
 30
0.0
 10
209.684727
 20
365.209558
 30
0.0
 10
206.693002
 20
365.209558
 30
0.0
 10
211.314948
 20
378.358816
 30
0.0
 10
214.709748
 20
378.358816
 30
0.0
 10
219.349611
 20
365.209558
 30
0.0
  0
SPLINE
  5
19c
100
AcDbEntity
  8
Gravacao
 62
7
100
AcDbSpline
 70
8
 71
3
 72
8
 73
4
 74
0
 40
0
 40
0
 40
0
 40
0
 40
1
 40
1
 40
1
 40
1
 10
233.493122
 20
368.846206
 30
0.0
 10
233.493122
 20
367.663846
 30
0.0
 10
233.066160
 20
366.732291
 30
0.0
 10
232.212235
 20
366.051541
 30
0.0
  0
SPLINE
  5
19d
100
AcDbEntity
  8
Gravacao
 62
7
100
AcDbSpline
 70
8
 71
3
 72
8
 73
4
 74
0
 40
0
 40
0
 40
0
 40
0
 40
1
 40
1
 40
1
 40
1
 10
232.212235
 20
366.051541
 30
0.0
 10
231.364280
 20
365.370788
 30
0.0
 10
230.181921
 20
365.030412
 30
0.0
 10
228.665158
 20
365.030412
 30
0.0
  0
SPLINE
  5
19e
100
AcDbEntity
  8
Gravacao
 62
7
100
AcDbSpline
 70
8
 71
3
 72
8
 73
4
 74
0
 40
0
 40
0
 40
0
 40
0
 40
1
 40
1
 40
1
 40
1
 10
228.665158
 20
365.030412
 30
0.0
 10
227.267826
 20
365.030412
 30
0.0
 10
226.031724
 20
365.293158
 30
0.0
 10
224.956852
 20
365.818651
 30
0.0
  0
LWPOLYLINE
  5
19f
100
AcDbEntity
  8
Gravacao
 62
7
100
AcDbPolyline
 90
2
 70
0
 10
211.332862
 20
370.655570
 30
0.0
 10
214.745578
 20
370.655570
 30
0.0
  0
SPLINE
  5
1a0
100
AcDbEntity
  8
Gravacao
 62
7
100
AcDbSpline
 70
8
 71
3
 72
8
 73
4
 74
0
 40
0
 40
0
 40
0
 40
0
 40
1
 40
1
 40
1
 40
1
 10
224.956852
 20
368.398343
 30
0.0
 10
225.840636
 20
368.004224
 30
0.0
 10
226.587075
 20
367.726548
 30
0.0
 10
227.196169
 20
367.565315
 30
0.0
  0
SPLINE
  5
1a1
100
AcDbEntity
  8
Gravacao
 62
7
100
AcDbSpline
 70
8
 71
3
 72
8
 73
4
 74
0
 40
0
 40
0
 40
0
 40
0
 40
1
 40
1
 40
1
 40
1
 10
227.196169
 20
367.565315
 30
0.0
 10
227.811235
 20
367.404085
 30
0.0
 10
228.372557
 20
367.323470
 30
0.0
 10
228.880134
 20
367.323470
 30
0.0
  0
SPLINE
  5
1a2
100
AcDbEntity
  8
Gravacao
 62
7
100
AcDbSpline
 70
8
 71
3
 72
8
 73
4
 74
0
 40
0
 40
0
 40
0
 40
0
 40
1
 40
1
 40
1
 40
1
 10
228.880134
 20
367.323470
 30
0.0
 10
229.489228
 20
367.323470
 30
0.0
 10
229.955005
 20
367.439915
 30
0.0
 10
230.277466
 20
367.672804
 30
0.0
  0
SPLINE
  5
1a3
100
AcDbEntity
  8
Gravacao
 62
7
100
AcDbSpline
 70
8
 71
3
 72
8
 73
4
 74
0
 40
0
 40
0
 40
0
 40
0
 40
1
 40
1
 40
1
 40
1
 10
230.277466
 20
367.672804
 30
0.0
 10
230.605898
 20
367.905693
 30
0.0
 10
230.770115
 20
368.252040
 30
0.0
 10
230.770115
 20
368.711846
 30
0.0
  0
SPLINE
  5
1a4
100
AcDbEntity
  8
Gravacao
 62
7
100
AcDbSpline
 70
8
 71
3
 72
8
 73
4
 74
0
 40
0
 40
0
 40
0
 40
0
 40
1
 40
1
 40
1
 40
1
 10
230.770115
 20
368.711846
 30
0.0
 10
230.770115
 20
368.968620
 30
0.0
 10
230.698457
 20
369.195537
 30
0.0
 10
230.555141
 20
369.392596
 30
0.0
  0
SPLINE
  5
1a5
100
AcDbEntity
  8
Gravacao
 62
7
100
AcDbSpline
 70
8
 71
3
 72
8
 73
4
 74
0
 40
0
 40
0
 40
0
 40
0
 40
1
 40
1
 40
1
 40
1
 10
230.555141
 20
369.392596
 30
0.0
 10
230.411826
 20
369.595628
 30
0.0
 10
230.199838
 20
369.789703
 30
0.0
 10
229.919177
 20
369.974820
 30
0.0
  0
SPLINE
  5
1a6
100
AcDbEntity
  8
Gravacao
 62
7
100
AcDbSpline
 70
8
 71
3
 72
8
 73
4
 74
0
 40
0
 40
0
 40
0
 40
0
 40
1
 40
1
 40
1
 40
1
 10
229.919177
 20
369.974820
 30
0.0
 10
229.644486
 20
370.159937
 30
0.0
 10
229.080178
 20
370.455527
 30
0.0
 10
228.226253
 20
370.861588
 30
0.0
  0
SPLINE
  5
1a7
100
AcDbEntity
  8
Gravacao
 62
7
100
AcDbSpline
 70
8
 71
3
 72
8
 73
4
 74
0
 40
0
 40
0
 40
0
 40
0
 40
1
 40
1
 40
1
 40
1
 10
228.226253
 20
370.861588
 30
0.0
 10
227.426072
 20
371.237793
 30
0.0
 10
226.825936
 20
371.599069
 30
0.0
 10
226.425844
 20
371.945416
 30
0.0
  0
SPLINE
  5
1a8
100
AcDbEntity
  8
Gravacao
 62
7
100
AcDbSpline
 70
8
 71
3
 72
8
 73
4
 74
0
 40
0
 40
0
 40
0
 40
0
 40
1
 40
1
 40
1
 40
1
 10
226.425844
 20
371.945416
 30
0.0
 10
226.025753
 20
372.291764
 30
0.0
 10
225.706277
 20
372.694840
 30
0.0
 10
225.467418
 20
373.154646
 30
0.0
  0
SPLINE
  5
1a9
100
AcDbEntity
  8
Gravacao
 62
7
100
AcDbSpline
 70
8
 71
3
 72
8
 73
4
 74
0
 40
0
 40
0
 40
0
 40
0
 40
1
 40
1
 40
1
 40
1
 10
225.467418
 20
373.154646
 30
0.0
 10
225.228557
 20
373.614452
 30
0.0
 10
225.109126
 20
374.151888
 30
0.0
 10
225.109126
 20
374.766954
 30
0.0
  0
SPLINE
  5
1aa
100
AcDbEntity
  8
Gravacao
 62
7
100
AcDbSpline
 70
8
 71
3
 72
8
 73
4
 74
0
 40
0
 40
0
 40
0
 40
0
 40
1
 40
1
 40
1
 40
1
 10
225.109126
 20
374.766954
 30
0.0
 10
225.109126
 20
375.925427
 30
0.0
 10
225.500260
 20
376.836082
 30
0.0
 10
226.282529
 20
377.498920
 30
0.0
  0
SPLINE
  5
1ab
100
AcDbEntity
  8
Gravacao
 62
7
100
AcDbSpline
 70
8
 71
3
 72
8
 73
4
 74
0
 40
0
 40
0
 40
0
 40
0
 40
1
 40
1
 40
1
 40
1
 10
226.282529
 20
377.498920
 30
0.0
 10
227.070767
 20
378.161755
 30
0.0
 10
228.157581
 20
378.493173
 30
0.0
 10
229.542971
 20
378.493173
 30
0.0
  0
SPLINE
  5
1ac
100
AcDbEntity
  8
Gravacao
 62
7
100
AcDbSpline
 70
8
 71
3
 72
8
 73
4
 74
0
 40
0
 40
0
 40
0
 40
0
 40
1
 40
1
 40
1
 40
1
 10
229.542971
 20
378.493173
 30
0.0
 10
230.223724
 20
378.493173
 30
0.0
 10
230.871632
 20
378.412558
 30
0.0
 10
231.486695
 20
378.251328
 30
0.0
  0
SPLINE
  5
1ad
100
AcDbEntity
  8
Gravacao
 62
7
100
AcDbSpline
 70
8
 71
3
 72
8
 73
4
 74
0
 40
0
 40
0
 40
0
 40
0
 40
1
 40
1
 40
1
 40
1
 10
231.486695
 20
378.251328
 30
0.0
 10
232.107734
 20
378.090098
 30
0.0
 10
232.755643
 20
377.863181
 30
0.0
 10
233.430423
 20
377.570578
 30
0.0
  0
LWPOLYLINE
  5
1ae
100
AcDbEntity
  8
Gravacao
 62
7
100
AcDbPolyline
 90
2
 70
0
 10
224.956852
 20
365.818651
 30
0.0
 10
224.956852
 20
368.398343
 30
0.0
  0
SPLINE
  5
1af
100
AcDbEntity
  8
Gravacao
 62
7
100
AcDbSpline
 70
8
 71
3
 72
8
 73
4
 74
0
 40
0
 40
0
 40
0
 40
0
 40
1
 40
1
 40
1
 40
1
 10
232.534696
 20
375.411877
 30
0.0
 10
231.836029
 20
375.698510
 30
0.0
 10
231.256792
 20
375.898556
 30
0.0
 10
230.796987
 20
376.012014
 30
0.0
  0
SPLINE
  5
1b0
100
AcDbEntity
  8
Gravacao
 62
7
100
AcDbSpline
 70
8
 71
3
 72
8
 73
4
 74
0
 40
0
 40
0
 40
0
 40
0
 40
1
 40
1
 40
1
 40
1
 10
230.796987
 20
376.012014
 30
0.0
 10
230.343153
 20
376.125472
 30
0.0
 10
229.895291
 20
376.182202
 30
0.0
 10
229.453400
 20
376.182202
 30
0.0
  0
SPLINE
  5
1b1
100
AcDbEntity
  8
Gravacao
 62
7
100
AcDbSpline
 70
8
 71
3
 72
8
 73
4
 74
0
 40
0
 40
0
 40
0
 40
0
 40
1
 40
1
 40
1
 40
1
 10
229.453400
 20
376.182202
 30
0.0
 10
228.927905
 20
376.182202
 30
0.0
 10
228.524827
 20
376.059786
 30
0.0
 10
228.244167
 20
375.814954
 30
0.0
  0
SPLINE
  5
1b2
100
AcDbEntity
  8
Gravacao
 62
7
100
AcDbSpline
 70
8
 71
3
 72
8
 73
4
 74
0
 40
0
 40
0
 40
0
 40
0
 40
1
 40
1
 40
1
 40
1
 10
228.244167
 20
375.814954
 30
0.0
 10
227.963508
 20
375.570121
 30
0.0
 10
227.823178
 20
375.250644
 30
0.0
 10
227.823178
 20
374.856525
 30
0.0
  0
SPLINE
  5
1b3
100
AcDbEntity
  8
Gravacao
 62
7
100
AcDbSpline
 70
8
 71
3
 72
8
 73
4
 74
0
 40
0
 40
0
 40
0
 40
0
 40
1
 40
1
 40
1
 40
1
 10
227.823178
 20
374.856525
 30
0.0
 10
227.823178
 20
374.611694
 30
0.0
 10
227.879908
 20
374.396719
 30
0.0
 10
227.993366
 20
374.211602
 30
0.0
  0
SPLINE
  5
1b4
100
AcDbEntity
  8
Gravacao
 62
7
100
AcDbSpline
 70
8
 71
3
 72
8
 73
4
 74
0
 40
0
 40
0
 40
0
 40
0
 40
1
 40
1
 40
1
 40
1
 10
227.993366
 20
374.211602
 30
0.0
 10
228.106824
 20
374.032457
 30
0.0
 10
228.285969
 20
373.856298
 30
0.0
 10
228.530801
 20
373.683126
 30
0.0
  0
SPLINE
  5
1b5
100
AcDbEntity
  8
Gravacao
 62
7
100
AcDbSpline
 70
8
 71
3
 72
8
 73
4
 74
0
 40
0
 40
0
 40
0
 40
0
 40
1
 40
1
 40
1
 40
1
 10
228.530801
 20
373.683126
 30
0.0
 10
228.781605
 20
373.515923
 30
0.0
 10
229.369798
 20
373.211376
 30
0.0
 10
230.295382
 20
372.769485
 30
0.0
  0
SPLINE
  5
1b6
100
AcDbEntity
  8
Gravacao
 62
7
100
AcDbSpline
 70
8
 71
3
 72
8
 73
4
 74
0
 40
0
 40
0
 40
0
 40
0
 40
1
 40
1
 40
1
 40
1
 10
230.295382
 20
372.769485
 30
0.0
 10
231.519540
 20
372.184277
 30
0.0
 10
232.358536
 20
371.596083
 30
0.0
 10
232.812372
 20
371.004904
 30
0.0
  0
SPLINE
  5
1b7
100
AcDbEntity
  8
Gravacao
 62
7
100
AcDbSpline
 70
8
 71
3
 72
8
 73
4
 74
0
 40
0
 40
0
 40
0
 40
0
 40
1
 40
1
 40
1
 40
1
 10
232.812372
 20
371.004904
 30
0.0
 10
233.266205
 20
370.419697
 30
0.0
 10
233.493122
 20
369.700131
 30
0.0
 10
233.493122
 20
368.846206
 30
0.0
  0
LWPOLYLINE
  5
1b8
100
AcDbEntity
  8
Gravacao
 62
7
100
AcDbPolyline
 90
2
 70
0
 10
233.430423
 20
377.570578
 30
0.0
 10
232.534696
 20
375.411877
 30
0.0
  0
SPLINE
  5
1b9
100
AcDbEntity
  8
Gravacao
 62
7
100
AcDbSpline
 70
8
 71
3
 72
8
 73
4
 74
0
 40
0
 40
0
 40
0
 40
0
 40
1
 40
1
 40
1
 40
1
 10
247.753090
 20
371.775229
 30
0.0
 10
247.753090
 20
369.607573
 30
0.0
 10
247.215649
 20
367.941522
 30
0.0
 10
246.140766
 20
366.777077
 30
0.0
  0
SPLINE
  5
1ba
100
AcDbEntity
  8
Gravacao
 62
7
100
AcDbSpline
 70
8
 71
3
 72
8
 73
4
 74
0
 40
0
 40
0
 40
0
 40
0
 40
1
 40
1
 40
1
 40
1
 10
246.140766
 20
366.777077
 30
0.0
 10
245.065901
 20
365.612634
 30
0.0
 10
243.525255
 20
365.030412
 30
0.0
 10
241.518830
 20
365.030412
 30
0.0
  0
SPLINE
  5
1bb
100
AcDbEntity
  8
Gravacao
 62
7
100
AcDbSpline
 70
8
 71
3
 72
8
 73
4
 74
0
 40
0
 40
0
 40
0
 40
0
 40
1
 40
1
 40
1
 40
1
 10
241.518830
 20
365.030412
 30
0.0
 10
239.512404
 20
365.030412
 30
0.0
 10
237.971755
 20
365.612634
 30
0.0
 10
236.896883
 20
366.777077
 30
0.0
  0
SPLINE
  5
1bc
100
AcDbEntity
  8
Gravacao
 62
7
100
AcDbSpline
 70
8
 71
3
 72
8
 73
4
 74
0
 40
0
 40
0
 40
0
 40
0
 40
1
 40
1
 40
1
 40
1
 10
236.896883
 20
366.777077
 30
0.0
 10
235.822012
 20
367.941522
 30
0.0
 10
235.284576
 20
369.613544
 30
0.0
 10
235.284576
 20
371.793142
 30
0.0
  0
SPLINE
  5
1bd
100
AcDbEntity
  8
Gravacao
 62
7
100
AcDbSpline
 70
8
 71
3
 72
8
 73
4
 74
0
 40
0
 40
0
 40
0
 40
0
 40
1
 40
1
 40
1
 40
1
 10
235.284576
 20
371.793142
 30
0.0
 10
235.284576
 20
373.972743
 30
0.0
 10
235.822012
 20
375.635807
 30
0.0
 10
236.896883
 20
376.782336
 30
0.0
  0
SPLINE
  5
1be
100
AcDbEntity
  8
Gravacao
 62
7
100
AcDbSpline
 70
8
 71
3
 72
8
 73
4
 74
0
 40
0
 40
0
 40
0
 40
0
 40
1
 40
1
 40
1
 40
1
 10
236.896883
 20
376.782336
 30
0.0
 10
237.977725
 20
377.934839
 30
0.0
 10
239.524345
 20
378.511090
 30
0.0
 10
241.536743
 20
378.511090
 30
0.0
  0
SPLINE
  5
1bf
100
AcDbEntity
  8
Gravacao
 62
7
100
AcDbSpline
 70
8
 71
3
 72
8
 73
4
 74
0
 40
0
 40
0
 40
0
 40
0
 40
1
 40
1
 40
1
 40
1
 10
241.536743
 20
378.511090
 30
0.0
 10
243.549141
 20
378.511090
 30
0.0
 10
245.086803
 20
377.931854
 30
0.0
 10
246.149728
 20
376.773381
 30
0.0
  0
SPLINE
  5
1c0
100
AcDbEntity
  8
Gravacao
 62
7
100
AcDbSpline
 70
8
 71
3
 72
8
 73
4
 74
0
 40
0
 40
0
 40
0
 40
0
 40
1
 40
1
 40
1
 40
1
 10
246.149728
 20
376.773381
 30
0.0
 10
247.218636
 20
375.614908
 30
0.0
 10
247.753090
 20
373.948857
 30
0.0
 10
247.753090
 20
371.775229
 30
0.0
  0
LWPOLYLINE
  5
1c1
100
AcDbEntity
  8
Gravacao
 62
7
100
AcDbPolyline
 90
1
 70
1
 10
233.493122
 20
368.846206
 30
0.0
  0
SPLINE
  5
1c2
100
AcDbEntity
  8
Gravacao
 62
7
100
AcDbSpline
 70
8
 71
3
 72
8
 73
4
 74
0
 40
0
 40
0
 40
0
 40
0
 40
1
 40
1
 40
1
 40
1
 10
238.195688
 20
371.775229
 30
0.0
 10
238.195688
 20
370.312210
 30
0.0
 10
238.473363
 20
369.210467
 30
0.0
 10
239.028712
 20
368.470001
 30
0.0
  0
SPLINE
  5
1c3
100
AcDbEntity
  8
Gravacao
 62
7
100
AcDbSpline
 70
8
 71
3
 72
8
 73
4
 74
0
 40
0
 40
0
 40
0
 40
0
 40
1
 40
1
 40
1
 40
1
 10
239.028712
 20
368.470001
 30
0.0
 10
239.584062
 20
367.729534
 30
0.0
 10
240.414101
 20
367.359300
 30
0.0
 10
241.518830
 20
367.359300
 30
0.0
  0
SPLINE
  5
1c4
100
AcDbEntity
  8
Gravacao
 62
7
100
AcDbSpline
 70
8
 71
3
 72
8
 73
4
 74
0
 40
0
 40
0
 40
0
 40
0
 40
1
 40
1
 40
1
 40
1
 10
241.518830
 20
367.359300
 30
0.0
 10
243.734258
 20
367.359300
 30
0.0
 10
244.841971
 20
368.831277
 30
0.0
 10
244.841971
 20
371.775229
 30
0.0
  0
SPLINE
  5
1c5
100
AcDbEntity
  8
Gravacao
 62
7
100
AcDbSpline
 70
8
 71
3
 72
8
 73
4
 74
0
 40
0
 40
0
 40
0
 40
0
 40
1
 40
1
 40
1
 40
1
 10
244.841971
 20
371.775229
 30
0.0
 10
244.841971
 20
374.725153
 30
0.0
 10
243.740229
 20
376.200115
 30
0.0
 10
241.536743
 20
376.200115
 30
0.0
  0
SPLINE
  5
1c6
100
AcDbEntity
  8
Gravacao
 62
7
100
AcDbSpline
 70
8
 71
3
 72
8
 73
4
 74
0
 40
0
 40
0
 40
0
 40
0
 40
1
 40
1
 40
1
 40
1
 10
241.536743
 20
376.200115
 30
0.0
 10
240.432014
 20
376.200115
 30
0.0
 10
239.598989
 20
375.826896
 30
0.0
 10
239.037667
 20
375.080457
 30
0.0
  0
SPLINE
  5
1c7
100
AcDbEntity
  8
Gravacao
 62
7
100
AcDbSpline
 70
8
 71
3
 72
8
 73
4
 74
0
 40
0
 40
0
 40
0
 40
0
 40
1
 40
1
 40
1
 40
1
 10
239.037667
 20
375.080457
 30
0.0
 10
238.476348
 20
374.339990
 30
0.0
 10
238.195688
 20
373.238247
 30
0.0
 10
238.195688
 20
371.775229
 30
0.0
  0
LWPOLYLINE
  5
1c8
100
AcDbEntity
  8
Gravacao
 62
7
100
AcDbPolyline
 90
1
 70
1
 10
247.753090
 20
371.775229
 30
0.0
  0
LWPOLYLINE
  5
1c9
100
AcDbEntity
  8
Gravacao
 62
7
100
AcDbPolyline
 90
1
 70
1
 10
238.195688
 20
371.775229
 30
0.0
  0
LWPOLYLINE
  5
1ca
100
AcDbEntity
  8
Gravacao
 62
7
100
AcDbPolyline
 90
6
 70
1
 10
250.467149
 20
365.209558
 30
0.0
 10
250.467149
 20
378.305072
 30
0.0
 10
253.243875
 20
378.305072
 30
0.0
 10
253.243875
 20
367.502616
 30
0.0
 10
258.555556
 20
367.502616
 30
0.0
 10
258.555556
 20
365.209558
 30
0.0
  0
SPLINE
  5
1cb
100
AcDbEntity
  8
Gravacao
 62
7
100
AcDbSpline
 70
8
 71
3
 72
8
 73
4
 74
0
 40
0
 40
0
 40
0
 40
0
 40
1
 40
1
 40
1
 40
1
 10
267.235142
 20
370.655570
 30
0.0
 10
266.357329
 20
373.480094
 30
0.0
 10
265.861688
 20
375.077472
 30
0.0
 10
265.748216
 20
375.447704
 30
0.0
  0
SPLINE
  5
1cc
100
AcDbEntity
  8
Gravacao
 62
7
100
AcDbSpline
 70
8
 71
3
 72
8
 73
4
 74
0
 40
0
 40
0
 40
0
 40
0
 40
1
 40
1
 40
1
 40
1
 10
265.748216
 20
375.447704
 30
0.0
 10
265.640741
 20
375.817938
 30
0.0
 10
265.563116
 20
376.110543
 30
0.0
 10
265.515342
 20
376.325517
 30
0.0
  0
SPLINE
  5
1cd
100
AcDbEntity
  8
Gravacao
 62
7
100
AcDbSpline
 70
8
 71
3
 72
8
 73
4
 74
0
 40
0
 40
0
 40
0
 40
0
 40
1
 40
1
 40
1
 40
1
 10
265.515342
 20
376.325517
 30
0.0
 10
265.318272
 20
375.561163
 30
0.0
 10
264.753967
 20
373.671181
 30
0.0
 10
263.822428
 20
370.655570
 30
0.0
  0
LWPOLYLINE
  5
1ce
100
AcDbEntity
  8
Gravacao
 62
7
100
AcDbPolyline
 90
8
 70
1
 10
268.847433
 20
365.209558
 30
0.0
 10
267.897981
 20
368.326685
 30
0.0
 10
263.123742
 20
368.326685
 30
0.0
 10
262.174290
 20
365.209558
 30
0.0
 10
259.182549
 20
365.209558
 30
0.0
 10
263.804505
 20
378.358816
 30
0.0
 10
267.199295
 20
378.358816
 30
0.0
 10
271.839174
 20
365.209558
 30
0.0
  0
LWPOLYLINE
  5
1cf
100
AcDbEntity
  8
Gravacao
 62
7
100
AcDbPolyline
 90
2
 70
0
 10
263.822428
 20
370.655570
 30
0.0
 10
267.235142
 20
370.655570
 30
0.0
  0
SPLINE
  5
1d0
100
AcDbEntity
  8
Gravacao
 62
7
100
AcDbSpline
 70
8
 71
3
 72
8
 73
4
 74
0
 40
0
 40
0
 40
0
 40
0
 40
1
 40
1
 40
1
 40
1
 10
277.159784
 20
372.491809
 30
0.0
 10
278.037596
 20
372.491809
 30
0.0
 10
278.685500
 20
372.638111
 30
0.0
 10
279.103496
 20
372.930714
 30
0.0
  0
SPLINE
  5
1d1
100
AcDbEntity
  8
Gravacao
 62
7
100
AcDbSpline
 70
8
 71
3
 72
8
 73
4
 74
0
 40
0
 40
0
 40
0
 40
0
 40
1
 40
1
 40
1
 40
1
 10
279.103496
 20
372.930714
 30
0.0
 10
279.521513
 20
373.223320
 30
0.0
 10
279.730521
 20
373.683126
 30
0.0
 10
279.730521
 20
374.310132
 30
0.0
  0
SPLINE
  5
1d2
100
AcDbEntity
  8
Gravacao
 62
7
100
AcDbSpline
 70
8
 71
3
 72
8
 73
4
 74
0
 40
0
 40
0
 40
0
 40
0
 40
1
 40
1
 40
1
 40
1
 10
279.730521
 20
374.310132
 30
0.0
 10
279.730521
 20
374.931170
 30
0.0
 10
279.515549
 20
375.373062
 30
0.0
 10
279.085605
 20
375.635808
 30
0.0
  0
SPLINE
  5
1d3
100
AcDbEntity
  8
Gravacao
 62
7
100
AcDbSpline
 70
8
 71
3
 72
8
 73
4
 74
0
 40
0
 40
0
 40
0
 40
0
 40
1
 40
1
 40
1
 40
1
 10
279.085605
 20
375.635808
 30
0.0
 10
278.661613
 20
375.898555
 30
0.0
 10
278.001761
 20
376.029928
 30
0.0
 10
277.106047
 20
376.029928
 30
0.0
  0
LWPOLYLINE
  5
1d4
100
AcDbEntity
  8
Gravacao
 62
7
100
AcDbPolyline
 90
2
 70
0
 10
276.264038
 20
372.491809
 30
0.0
 10
277.159784
 20
372.491809
 30
0.0
  0
LWPOLYLINE
  5
1d5
100
AcDbEntity
  8
Gravacao
 62
7
100
AcDbPolyline
 90
3
 70
0
 10
277.106047
 20
376.029928
 30
0.0
 10
276.264038
 20
376.029928
 30
0.0
 10
276.264038
 20
372.491809
 30
0.0
  0
SPLINE
  5
1d6
100
AcDbEntity
  8
Gravacao
 62
7
100
AcDbSpline
 70
8
 71
3
 72
8
 73
4
 74
0
 40
0
 40
0
 40
0
 40
0
 40
1
 40
1
 40
1
 40
1
 10
277.303106
 20
378.305072
 30
0.0
 10
279.082607
 20
378.305072
 30
0.0
 10
280.399325
 20
377.979624
 30
0.0
 10
281.253261
 20
377.328729
 30
0.0
  0
SPLINE
  5
1d7
100
AcDbEntity
  8
Gravacao
 62
7
100
AcDbSpline
 70
8
 71
3
 72
8
 73
4
 74
0
 40
0
 40
0
 40
0
 40
0
 40
1
 40
1
 40
1
 40
1
 10
281.253261
 20
377.328729
 30
0.0
 10
282.107175
 20
376.683808
 30
0.0
 10
282.534132
 20
375.701496
 30
0.0
 10
282.534132
 20
374.381793
 30
0.0
  0
SPLINE
  5
1d8
100
AcDbEntity
  8
Gravacao
 62
7
100
AcDbSpline
 70
8
 71
3
 72
8
 73
4
 74
0
 40
0
 40
0
 40
0
 40
0
 40
1
 40
1
 40
1
 40
1
 10
282.534132
 20
374.381793
 30
0.0
 10
282.534132
 20
373.611467
 30
0.0
 10
282.322147
 20
372.924743
 30
0.0
 10
281.898177
 20
372.321622
 30
0.0
  0
SPLINE
  5
1d9
100
AcDbEntity
  8
Gravacao
 62
7
100
AcDbSpline
 70
8
 71
3
 72
8
 73
4
 74
0
 40
0
 40
0
 40
0
 40
0
 40
1
 40
1
 40
1
 40
1
 10
281.898177
 20
372.321622
 30
0.0
 10
281.474186
 20
371.724471
 30
0.0
 10
280.874045
 20
371.255708
 30
0.0
 10
280.097755
 20
370.915332
 30
0.0
  0
SPLINE
  5
1da
100
AcDbEntity
  8
Gravacao
 62
7
100
AcDbSpline
 70
8
 71
3
 72
8
 73
4
 74
0
 40
0
 40
0
 40
0
 40
0
 40
1
 40
1
 40
1
 40
1
 10
280.097755
 20
370.915332
 30
0.0
 10
282.068352
 20
367.971378
 30
0.0
 10
283.352232
 20
366.069453
 30
0.0
 10
283.949396
 20
365.209558
 30
0.0
  0
LWPOLYLINE
  5
1db
100
AcDbEntity
  8
Gravacao
 62
7
100
AcDbPolyline
 90
5
 70
0
 10
276.264038
 20
370.234579
 30
0.0
 10
276.264038
 20
365.209558
 30
0.0
 10
273.487312
 20
365.209558
 30
0.0
 10
273.487312
 20
378.305072
 30
0.0
 10
277.303106
 20
378.305072
 30
0.0
  0
SPLINE
  5
1dc
100
AcDbEntity
  8
Gravacao
 62
7
100
AcDbSpline
 70
8
 71
3
 72
8
 73
4
 74
0
 40
0
 40
0
 40
0
 40
0
 40
1
 40
1
 40
1
 40
1
 10
53.629419
 20
236.182840
 30
0.0
 10
53.283990
 20
236.182840
 30
0.0
 10
53.012057
 20
236.232450
 30
0.0
 10
52.813619
 20
236.331670
 30
0.0
  0
LWPOLYLINE
  5
1dd
100
AcDbEntity
  8
Gravacao
 62
7
100
AcDbPolyline
 90
4
 70
0
 10
283.949396
 20
365.209558
 30
0.0
 10
280.868071
 20
365.209558
 30
0.0
 10
277.742002
 20
370.234579
 30
0.0
 10
276.264038
 20
370.234579
 30
0.0
  0
SPLINE
  5
1de
100
AcDbEntity
  8
Gravacao
 62
7
100
AcDbSpline
 70
8
 71
3
 72
8
 73
4
 74
0
 40
0
 40
0
 40
0
 40
0
 40
1
 40
1
 40
1
 40
1
 10
52.813619
 20
237.130930
 30
0.0
 10
53.074528
 20
237.057437
 30
0.0
 10
53.346461
 20
237.020690
 30
0.0
 10
53.629419
 20
237.020690
 30
0.0
  0
SPLINE
  5
1df
100
AcDbEntity
  8
Gravacao
 62
7
100
AcDbSpline
 70
8
 71
3
 72
8
 73
4
 74
0
 40
0
 40
0
 40
0
 40
0
 40
1
 40
1
 40
1
 40
1
 10
53.629419
 20
237.020690
 30
0.0
 10
53.993221
 20
237.020690
 30
0.0
 10
54.268829
 20
237.130933
 30
0.0
 10
54.456243
 20
237.351420
 30
0.0
  0
SPLINE
  5
1e0
100
AcDbEntity
  8
Gravacao
 62
7
100
AcDbSpline
 70
8
 71
3
 72
8
 73
4
 74
0
 40
0
 40
0
 40
0
 40
0
 40
1
 40
1
 40
1
 40
1
 10
54.456243
 20
237.351420
 30
0.0
 10
54.647331
 20
237.571907
 30
0.0
 10
54.742875
 20
237.889773
 30
0.0
 10
54.742875
 20
238.305020
 30
0.0
  0
LWPOLYLINE
  5
1e1
100
AcDbEntity
  8
Gravacao
 62
7
100
AcDbPolyline
 90
2
 70
0
 10
52.813619
 20
236.331670
 30
0.0
 10
52.813619
 20
237.130930
 30
0.0
  0
SPLINE
  5
1e2
100
AcDbEntity
  8
Gravacao
 62
7
100
AcDbSpline
 70
8
 71
3
 72
8
 73
4
 74
0
 40
0
 40
0
 40
0
 40
0
 40
1
 40
1
 40
1
 40
1
 10
55.679942
 20
238.382190
 30
0.0
 10
55.679942
 20
237.683983
 30
0.0
 10
55.503553
 20
237.143793
 30
0.0
 10
55.150775
 20
236.761620
 30
0.0
  0
SPLINE
  5
1e3
100
AcDbEntity
  8
Gravacao
 62
7
100
AcDbSpline
 70
8
 71
3
 72
8
 73
4
 74
0
 40
0
 40
0
 40
0
 40
0
 40
1
 40
1
 40
1
 40
1
 10
55.150775
 20
236.761620
 30
0.0
 10
54.797996
 20
236.375767
 30
0.0
 10
54.290877
 20
236.182840
 30
0.0
 10
53.629419
 20
236.182840
 30
0.0
  0
LWPOLYLINE
  5
1e4
100
AcDbEntity
  8
Gravacao
 62
7
100
AcDbPolyline
 90
4
 70
0
 10
54.742875
 20
238.305020
 30
0.0
 10
54.742875
 20
246.363800
 30
0.0
 10
55.679942
 20
246.363800
 30
0.0
 10
55.679942
 20
238.382190
 30
0.0
  0
LWPOLYLINE
  5
1e5
100
AcDbEntity
  8
Gravacao
 62
7
100
AcDbPolyline
 90
1
 70
1
 10
53.629419
 20
236.182840
 30
0.0
  0
SPLINE
  5
1e6
100
AcDbEntity
  8
Gravacao
 62
7
100
AcDbSpline
 70
8
 71
3
 72
8
 73
4
 74
0
 40
0
 40
0
 40
0
 40
0
 40
1
 40
1
 40
1
 40
1
 10
63.904082
 20
241.149290
 30
0.0
 10
63.904082
 20
240.230603
 30
0.0
 10
63.626636
 20
239.508513
 30
0.0
 10
63.071746
 20
238.983020
 30
0.0
  0
SPLINE
  5
1e7
100
AcDbEntity
  8
Gravacao
 62
7
100
AcDbSpline
 70
8
 71
3
 72
8
 73
4
 74
0
 40
0
 40
0
 40
0
 40
0
 40
1
 40
1
 40
1
 40
1
 10
63.071746
 20
238.983020
 30
0.0
 10
62.516855
 20
238.457527
 30
0.0
 10
61.754340
 20
238.194780
 30
0.0
 10
60.784200
 20
238.194780
 30
0.0
  0
SPLINE
  5
1e8
100
AcDbEntity
  8
Gravacao
 62
7
100
AcDbSpline
 70
8
 71
3
 72
8
 73
4
 74
0
 40
0
 40
0
 40
0
 40
0
 40
1
 40
1
 40
1
 40
1
 10
60.784200
 20
238.194780
 30
0.0
 10
59.814060
 20
238.194780
 30
0.0
 10
59.062569
 20
238.459363
 30
0.0
 10
58.529728
 20
238.988530
 30
0.0
  0
SPLINE
  5
1e9
100
AcDbEntity
  8
Gravacao
 62
7
100
AcDbSpline
 70
8
 71
3
 72
8
 73
4
 74
0
 40
0
 40
0
 40
0
 40
0
 40
1
 40
1
 40
1
 40
1
 10
58.529728
 20
238.988530
 30
0.0
 10
58.000560
 20
239.517697
 30
0.0
 10
57.735977
 20
240.245300
 30
0.0
 10
57.735977
 20
241.171340
 30
0.0
  0
LWPOLYLINE
  5
1ea
100
AcDbEntity
  8
Gravacao
 62
7
100
AcDbPolyline
 90
2
 70
0
 10
63.904082
 20
246.363800
 30
0.0
 10
63.904082
 20
241.149290
 30
0.0
  0
SPLINE
  5
1eb
100
AcDbEntity
  8
Gravacao
 62
7
100
AcDbSpline
 70
8
 71
3
 72
8
 73
4
 74
0
 40
0
 40
0
 40
0
 40
0
 40
1
 40
1
 40
1
 40
1
 10
58.673044
 20
241.105200
 30
0.0
 10
58.673044
 20
240.432713
 30
0.0
 10
58.856782
 20
239.916407
 30
0.0
 10
59.224259
 20
239.556280
 30
0.0
  0
SPLINE
  5
1ec
100
AcDbEntity
  8
Gravacao
 62
7
100
AcDbSpline
 70
8
 71
3
 72
8
 73
4
 74
0
 40
0
 40
0
 40
0
 40
0
 40
1
 40
1
 40
1
 40
1
 10
59.224259
 20
239.556280
 30
0.0
 10
59.591736
 20
239.196153
 30
0.0
 10
60.131928
 20
239.016090
 30
0.0
 10
60.844834
 20
239.016090
 30
0.0
  0
SPLINE
  5
1ed
100
AcDbEntity
  8
Gravacao
 62
7
100
AcDbSpline
 70
8
 71
3
 72
8
 73
4
 74
0
 40
0
 40
0
 40
0
 40
0
 40
1
 40
1
 40
1
 40
1
 10
60.844834
 20
239.016090
 30
0.0
 10
61.524666
 20
239.016090
 30
0.0
 10
62.048321
 20
239.196153
 30
0.0
 10
62.415799
 20
239.556280
 30
0.0
  0
SPLINE
  5
1ee
100
AcDbEntity
  8
Gravacao
 62
7
100
AcDbSpline
 70
8
 71
3
 72
8
 73
4
 74
0
 40
0
 40
0
 40
0
 40
0
 40
1
 40
1
 40
1
 40
1
 10
62.415799
 20
239.556280
 30
0.0
 10
62.783276
 20
239.920080
 30
0.0
 10
62.967015
 20
240.440060
 30
0.0
 10
62.967015
 20
241.116220
 30
0.0
  0
LWPOLYLINE
  5
1ef
100
AcDbEntity
  8
Gravacao
 62
7
100
AcDbPolyline
 90
4
 70
0
 10
57.735977
 20
241.171340
 30
0.0
 10
57.735977
 20
246.363800
 30
0.0
 10
58.673044
 20
246.363800
 30
0.0
 10
58.673044
 20
241.105200
 30
0.0
  0
SPLINE
  5
1f0
100
AcDbEntity
  8
Gravacao
 62
7
100
AcDbSpline
 70
8
 71
3
 72
8
 73
4
 74
0
 40
0
 40
0
 40
0
 40
0
 40
1
 40
1
 40
1
 40
1
 10
60.018010
 20
247.146520
 30
0.0
 10
60.194399
 20
247.374360
 30
0.0
 10
60.383650
 20
247.649970
 30
0.0
 10
60.585763
 20
247.973350
 30
0.0
  0
SPLINE
  5
1f1
100
AcDbEntity
  8
Gravacao
 62
7
100
AcDbSpline
 70
8
 71
3
 72
8
 73
4
 74
0
 40
0
 40
0
 40
0
 40
0
 40
1
 40
1
 40
1
 40
1
 10
60.585763
 20
247.973350
 30
0.0
 10
60.791549
 20
248.296730
 30
0.0
 10
60.953239
 20
248.577850
 30
0.0
 10
61.070833
 20
248.816710
 30
0.0
  0
LWPOLYLINE
  5
1f2
100
AcDbEntity
  8
Gravacao
 62
7
100
AcDbPolyline
 90
3
 70
0
 10
62.967015
 20
241.116220
 30
0.0
 10
62.967015
 20
246.363800
 30
0.0
 10
63.904082
 20
246.363800
 30
0.0
  0
SPLINE
  5
1f3
100
AcDbEntity
  8
Gravacao
 62
7
100
AcDbSpline
 70
8
 71
3
 72
8
 73
4
 74
0
 40
0
 40
0
 40
0
 40
0
 40
1
 40
1
 40
1
 40
1
 10
62.184289
 20
248.700950
 30
0.0
 10
62.022599
 20
248.462090
 30
0.0
 10
61.781901
 20
248.168110
 30
0.0
 10
61.462196
 20
247.819010
 30
0.0
  0
SPLINE
  5
1f4
100
AcDbEntity
  8
Gravacao
 62
7
100
AcDbSpline
 70
8
 71
3
 72
8
 73
4
 74
0
 40
0
 40
0
 40
0
 40
0
 40
1
 40
1
 40
1
 40
1
 10
61.462196
 20
247.819010
 30
0.0
 10
61.142490
 20
247.469903
 30
0.0
 10
60.865045
 20
247.199807
 30
0.0
 10
60.629860
 20
247.008720
 30
0.0
  0
LWPOLYLINE
  5
1f5
100
AcDbEntity
  8
Gravacao
 62
7
100
AcDbPolyline
 90
3
 70
0
 10
61.070833
 20
248.816710
 30
0.0
 10
62.184289
 20
248.816710
 30
0.0
 10
62.184289
 20
248.700950
 30
0.0
  0
SPLINE
  5
1f6
100
AcDbEntity
  8
Gravacao
 62
7
100
AcDbSpline
 70
8
 71
3
 72
8
 73
4
 74
0
 40
0
 40
0
 40
0
 40
0
 40
1
 40
1
 40
1
 40
1
 10
71.147057
 20
244.015620
 30
0.0
 10
71.147057
 20
243.199820
 30
0.0
 10
70.867774
 20
242.571433
 30
0.0
 10
70.309209
 20
242.130460
 30
0.0
  0
SPLINE
  5
1f7
100
AcDbEntity
  8
Gravacao
 62
7
100
AcDbSpline
 70
8
 71
3
 72
8
 73
4
 74
0
 40
0
 40
0
 40
0
 40
0
 40
1
 40
1
 40
1
 40
1
 10
70.309209
 20
242.130460
 30
0.0
 10
69.754318
 20
241.693160
 30
0.0
 10
68.958730
 20
241.474510
 30
0.0
 10
67.922445
 20
241.474510
 30
0.0
  0
LWPOLYLINE
  5
1f8
100
AcDbEntity
  8
Gravacao
 62
7
100
AcDbPolyline
 90
3
 70
0
 10
60.629860
 20
247.008720
 30
0.0
 10
60.018010
 20
247.008720
 30
0.0
 10
60.018010
 20
247.146520
 30
0.0
  0
SPLINE
  5
1f9
100
AcDbEntity
  8
Gravacao
 62
7
100
AcDbSpline
 70
8
 71
3
 72
8
 73
4
 74
0
 40
0
 40
0
 40
0
 40
0
 40
1
 40
1
 40
1
 40
1
 10
68.126395
 20
246.363800
 30
0.0
 10
70.140169
 20
246.363800
 30
0.0
 10
71.147057
 20
245.581073
 30
0.0
 10
71.147057
 20
244.015620
 30
0.0
  0
LWPOLYLINE
  5
1fa
100
AcDbEntity
  8
Gravacao
 62
7
100
AcDbPolyline
 90
6
 70
0
 10
67.922445
 20
241.474510
 30
0.0
 10
66.974353
 20
241.474510
 30
0.0
 10
66.974353
 20
238.305020
 30
0.0
 10
66.037287
 20
238.305020
 30
0.0
 10
66.037287
 20
246.363800
 30
0.0
 10
68.126395
 20
246.363800
 30
0.0
  0
LWPOLYLINE
  5
1fb
100
AcDbEntity
  8
Gravacao
 62
7
100
AcDbPolyline
 90
1
 70
1
 10
71.147057
 20
244.015620
 30
0.0
  0
SPLINE
  5
1fc
100
AcDbEntity
  8
Gravacao
 62
7
100
AcDbSpline
 70
8
 71
3
 72
8
 73
4
 74
0
 40
0
 40
0
 40
0
 40
0
 40
1
 40
1
 40
1
 40
1
 10
67.817714
 20
242.279290
 30
0.0
 10
68.648212
 20
242.279290
 30
0.0
 10
69.249037
 20
242.413417
 30
0.0
 10
69.620189
 20
242.681670
 30
0.0
  0
SPLINE
  5
1fd
100
AcDbEntity
  8
Gravacao
 62
7
100
AcDbSpline
 70
8
 71
3
 72
8
 73
4
 74
0
 40
0
 40
0
 40
0
 40
0
 40
1
 40
1
 40
1
 40
1
 10
69.620189
 20
242.681670
 30
0.0
 10
69.991341
 20
242.949930
 30
0.0
 10
70.176917
 20
243.379880
 30
0.0
 10
70.176917
 20
243.971520
 30
0.0
  0
SPLINE
  5
1fe
100
AcDbEntity
  8
Gravacao
 62
7
100
AcDbSpline
 70
8
 71
3
 72
8
 73
4
 74
0
 40
0
 40
0
 40
0
 40
0
 40
1
 40
1
 40
1
 40
1
 10
70.176917
 20
243.971520
 30
0.0
 10
70.176917
 20
244.504360
 30
0.0
 10
70.002365
 20
244.901237
 30
0.0
 10
69.653262
 20
245.162150
 30
0.0
  0
SPLINE
  5
1ff
100
AcDbEntity
  8
Gravacao
 62
7
100
AcDbSpline
 70
8
 71
3
 72
8
 73
4
 74
0
 40
0
 40
0
 40
0
 40
0
 40
1
 40
1
 40
1
 40
1
 10
69.653262
 20
245.162150
 30
0.0
 10
69.304158
 20
245.423057
 30
0.0
 10
68.760292
 20
245.553510
 30
0.0
 10
68.021664
 20
245.553510
 30
0.0
  0
LWPOLYLINE
  5
200
100
AcDbEntity
  8
Gravacao
 62
7
100
AcDbPolyline
 90
2
 70
0
 10
66.974353
 20
242.279290
 30
0.0
 10
67.817714
 20
242.279290
 30
0.0
  0
LWPOLYLINE
  5
201
100
AcDbEntity
  8
Gravacao
 62
7
100
AcDbPolyline
 90
3
 70
0
 10
68.021664
 20
245.553510
 30
0.0
 10
66.974353
 20
245.553510
 30
0.0
 10
66.974353
 20
242.279290
 30
0.0
  0
LWPOLYLINE
  5
202
100
AcDbEntity
  8
Gravacao
 62
7
100
AcDbPolyline
 90
4
 70
1
 10
72.833778
 20
238.305020
 30
0.0
 10
72.833778
 20
246.363800
 30
0.0
 10
73.770845
 20
246.363800
 30
0.0
 10
73.770845
 20
238.305020
 30
0.0
  0
LWPOLYLINE
  5
203
100
AcDbEntity
  8
Gravacao
 62
7
100
AcDbPolyline
 90
8
 70
1
 10
78.461691
 20
238.305020
 30
0.0
 10
77.524624
 20
238.305020
 30
0.0
 10
77.524624
 20
245.531460
 30
0.0
 10
74.972495
 20
245.531460
 30
0.0
 10
74.972495
 20
246.363800
 30
0.0
 10
81.013821
 20
246.363800
 30
0.0
 10
81.013821
 20
245.531460
 30
0.0
 10
78.461691
 20
245.531460
 30
0.0
  0
LWPOLYLINE
  5
204
100
AcDbEntity
  8
Gravacao
 62
7
100
AcDbPolyline
 90
12
 70
1
 10
86.718905
 20
238.305020
 30
0.0
 10
82.226496
 20
238.305020
 30
0.0
 10
82.226496
 20
246.363800
 30
0.0
 10
86.718905
 20
246.363800
 30
0.0
 10
86.718905
 20
245.531460
 30
0.0
 10
83.163562
 20
245.531460
 30
0.0
 10
83.163562
 20
242.935230
 30
0.0
 10
86.503930
 20
242.935230
 30
0.0
 10
86.503930
 20
242.108410
 30
0.0
 10
83.163562
 20
242.108410
 30
0.0
 10
83.163562
 20
239.142870
 30
0.0
 10
86.718905
 20
239.142870
 30
0.0
  0
SPLINE
  5
205
100
AcDbEntity
  8
Gravacao
 62
7
100
AcDbSpline
 70
8
 71
3
 72
8
 73
4
 74
0
 40
0
 40
0
 40
0
 40
0
 40
1
 40
1
 40
1
 40
1
 10
90.715220
 20
246.363800
 30
0.0
 10
91.703734
 20
246.363800
 30
0.0
 10
92.433176
 20
246.174547
 30
0.0
 10
92.903547
 20
245.796040
 30
0.0
  0
SPLINE
  5
206
100
AcDbEntity
  8
Gravacao
 62
7
100
AcDbSpline
 70
8
 71
3
 72
8
 73
4
 74
0
 40
0
 40
0
 40
0
 40
0
 40
1
 40
1
 40
1
 40
1
 10
92.903547
 20
245.796040
 30
0.0
 10
93.377592
 20
245.417540
 30
0.0
 10
93.614615
 20
244.847953
 30
0.0
 10
93.614615
 20
244.087280
 30
0.0
  0
SPLINE
  5
207
100
AcDbEntity
  8
Gravacao
 62
7
100
AcDbSpline
 70
8
 71
3
 72
8
 73
4
 74
0
 40
0
 40
0
 40
0
 40
0
 40
1
 40
1
 40
1
 40
1
 10
93.614615
 20
244.087280
 30
0.0
 10
93.614615
 20
243.021593
 30
0.0
 10
93.074423
 20
242.301337
 30
0.0
 10
91.994041
 20
241.926510
 30
0.0
  0
LWPOLYLINE
  5
208
100
AcDbEntity
  8
Gravacao
 62
7
100
AcDbPolyline
 90
5
 70
0
 10
89.441911
 20
241.656410
 30
0.0
 10
89.441911
 20
238.305020
 30
0.0
 10
88.504844
 20
238.305020
 30
0.0
 10
88.504844
 20
246.363800
 30
0.0
 10
90.715220
 20
246.363800
 30
0.0
  0
LWPOLYLINE
  5
209
100
AcDbEntity
  8
Gravacao
 62
7
100
AcDbPolyline
 90
5
 70
0
 10
91.994041
 20
241.926510
 30
0.0
 10
94.182368
 20
238.305020
 30
0.0
 10
93.074424
 20
238.305020
 30
0.0
 10
91.123120
 20
241.656410
 30
0.0
 10
89.441911
 20
241.656410
 30
0.0
  0
SPLINE
  5
20a
100
AcDbEntity
  8
Gravacao
 62
7
100
AcDbSpline
 70
8
 71
3
 72
8
 73
4
 74
0
 40
0
 40
0
 40
0
 40
0
 40
1
 40
1
 40
1
 40
1
 10
90.726244
 20
242.461190
 30
0.0
 10
91.387703
 20
242.461190
 30
0.0
 10
91.872773
 20
242.591643
 30
0.0
 10
92.181454
 20
242.852550
 30
0.0
  0
SPLINE
  5
20b
100
AcDbEntity
  8
Gravacao
 62
7
100
AcDbSpline
 70
8
 71
3
 72
8
 73
4
 74
0
 40
0
 40
0
 40
0
 40
0
 40
1
 40
1
 40
1
 40
1
 10
92.181454
 20
242.852550
 30
0.0
 10
92.490134
 20
243.117137
 30
0.0
 10
92.644475
 20
243.512177
 30
0.0
 10
92.644475
 20
244.037670
 30
0.0
  0
SPLINE
  5
20c
100
AcDbEntity
  8
Gravacao
 62
7
100
AcDbSpline
 70
8
 71
3
 72
8
 73
4
 74
0
 40
0
 40
0
 40
0
 40
0
 40
1
 40
1
 40
1
 40
1
 10
92.644475
 20
244.037670
 30
0.0
 10
92.644475
 20
244.570510
 30
0.0
 10
92.486460
 20
244.954523
 30
0.0
 10
92.170430
 20
245.189710
 30
0.0
  0
SPLINE
  5
20d
100
AcDbEntity
  8
Gravacao
 62
7
100
AcDbSpline
 70
8
 71
3
 72
8
 73
4
 74
0
 40
0
 40
0
 40
0
 40
0
 40
1
 40
1
 40
1
 40
1
 10
92.170430
 20
245.189710
 30
0.0
 10
91.858074
 20
245.424897
 30
0.0
 10
91.354630
 20
245.542490
 30
0.0
 10
90.660098
 20
245.542490
 30
0.0
  0
LWPOLYLINE
  5
20e
100
AcDbEntity
  8
Gravacao
 62
7
100
AcDbPolyline
 90
2
 70
0
 10
89.441911
 20
242.461190
 30
0.0
 10
90.726244
 20
242.461190
 30
0.0
  0
SPLINE
  5
20f
100
AcDbEntity
  8
Gravacao
 62
7
100
AcDbSpline
 70
8
 71
3
 72
8
 73
4
 74
0
 40
0
 40
0
 40
0
 40
0
 40
1
 40
1
 40
1
 40
1
 10
211.929612
 20
240.606320
 30
0.0
 10
211.929612
 20
239.897087
 30
0.0
 10
211.672378
 20
239.344033
 30
0.0
 10
211.157912
 20
238.947160
 30
0.0
  0
SPLINE
  5
210
100
AcDbEntity
  8
Gravacao
 62
7
100
AcDbSpline
 70
8
 71
3
 72
8
 73
4
 74
0
 40
0
 40
0
 40
0
 40
0
 40
1
 40
1
 40
1
 40
1
 10
211.157912
 20
238.947160
 30
0.0
 10
210.643445
 20
238.550287
 30
0.0
 10
209.945238
 20
238.351850
 30
0.0
 10
209.063292
 20
238.351850
 30
0.0
  0
SPLINE
  5
211
100
AcDbEntity
  8
Gravacao
 62
7
100
AcDbSpline
 70
8
 71
3
 72
8
 73
4
 74
0
 40
0
 40
0
 40
0
 40
0
 40
1
 40
1
 40
1
 40
1
 10
209.063292
 20
238.351850
 30
0.0
 10
208.107852
 20
238.351850
 30
0.0
 10
207.372898
 20
238.474953
 30
0.0
 10
206.858432
 20
238.721160
 30
0.0
  0
LWPOLYLINE
  5
212
100
AcDbEntity
  8
Gravacao
 62
7
100
AcDbPolyline
 90
3
 70
0
 10
90.660098
 20
245.542490
 30
0.0
 10
89.441911
 20
245.542490
 30
0.0
 10
89.441911
 20
242.461190
 30
0.0
  0
SPLINE
  5
213
100
AcDbEntity
  8
Gravacao
 62
7
100
AcDbSpline
 70
8
 71
3
 72
8
 73
4
 74
0
 40
0
 40
0
 40
0
 40
0
 40
1
 40
1
 40
1
 40
1
 10
206.858432
 20
239.625160
 30
0.0
 10
207.189158
 20
239.485513
 30
0.0
 10
207.549285
 20
239.375270
 30
0.0
 10
207.938812
 20
239.294430
 30
0.0
  0
SPLINE
  5
214
100
AcDbEntity
  8
Gravacao
 62
7
100
AcDbSpline
 70
8
 71
3
 72
8
 73
4
 74
0
 40
0
 40
0
 40
0
 40
0
 40
1
 40
1
 40
1
 40
1
 10
207.938812
 20
239.294430
 30
0.0
 10
208.328338
 20
239.213583
 30
0.0
 10
208.714188
 20
239.173160
 30
0.0
 10
209.096362
 20
239.173160
 30
0.0
  0
SPLINE
  5
215
100
AcDbEntity
  8
Gravacao
 62
7
100
AcDbSpline
 70
8
 71
3
 72
8
 73
4
 74
0
 40
0
 40
0
 40
0
 40
0
 40
1
 40
1
 40
1
 40
1
 10
209.096362
 20
239.173160
 30
0.0
 10
209.721075
 20
239.173160
 30
0.0
 10
210.191448
 20
239.290753
 30
0.0
 10
210.507482
 20
239.525940
 30
0.0
  0
SPLINE
  5
216
100
AcDbEntity
  8
Gravacao
 62
7
100
AcDbSpline
 70
8
 71
3
 72
8
 73
4
 74
0
 40
0
 40
0
 40
0
 40
0
 40
1
 40
1
 40
1
 40
1
 10
210.507482
 20
239.525940
 30
0.0
 10
210.823508
 20
239.764800
 30
0.0
 10
210.981522
 20
240.095530
 30
0.0
 10
210.981522
 20
240.518130
 30
0.0
  0
SPLINE
  5
217
100
AcDbEntity
  8
Gravacao
 62
7
100
AcDbSpline
 70
8
 71
3
 72
8
 73
4
 74
0
 40
0
 40
0
 40
0
 40
0
 40
1
 40
1
 40
1
 40
1
 10
210.981522
 20
240.518130
 30
0.0
 10
210.981522
 20
240.797410
 30
0.0
 10
210.924562
 20
241.025243
 30
0.0
 10
210.810642
 20
241.201630
 30
0.0
  0
SPLINE
  5
218
100
AcDbEntity
  8
Gravacao
 62
7
100
AcDbSpline
 70
8
 71
3
 72
8
 73
4
 74
0
 40
0
 40
0
 40
0
 40
0
 40
1
 40
1
 40
1
 40
1
 10
210.810642
 20
241.201630
 30
0.0
 10
210.700402
 20
241.381697
 30
0.0
 10
210.512988
 20
241.547063
 30
0.0
 10
210.248402
 20
241.697730
 30
0.0
  0
SPLINE
  5
219
100
AcDbEntity
  8
Gravacao
 62
7
100
AcDbSpline
 70
8
 71
3
 72
8
 73
4
 74
0
 40
0
 40
0
 40
0
 40
0
 40
1
 40
1
 40
1
 40
1
 10
210.248402
 20
241.697730
 30
0.0
 10
209.987495
 20
241.848397
 30
0.0
 10
209.588785
 20
242.019273
 30
0.0
 10
209.052272
 20
242.210360
 30
0.0
  0
SPLINE
  5
21a
100
AcDbEntity
  8
Gravacao
 62
7
100
AcDbSpline
 70
8
 71
3
 72
8
 73
4
 74
0
 40
0
 40
0
 40
0
 40
0
 40
1
 40
1
 40
1
 40
1
 10
209.052272
 20
242.210360
 30
0.0
 10
208.302618
 20
242.478620
 30
0.0
 10
207.766102
 20
242.796487
 30
0.0
 10
207.442722
 20
243.163960
 30
0.0
  0
SPLINE
  5
21b
100
AcDbEntity
  8
Gravacao
 62
7
100
AcDbSpline
 70
8
 71
3
 72
8
 73
4
 74
0
 40
0
 40
0
 40
0
 40
0
 40
1
 40
1
 40
1
 40
1
 10
207.442722
 20
243.163960
 30
0.0
 10
207.123015
 20
243.531440
 30
0.0
 10
206.963162
 20
244.011000
 30
0.0
 10
206.963162
 20
244.602640
 30
0.0
  0
SPLINE
  5
21c
100
AcDbEntity
  8
Gravacao
 62
7
100
AcDbSpline
 70
8
 71
3
 72
8
 73
4
 74
0
 40
0
 40
0
 40
0
 40
0
 40
1
 40
1
 40
1
 40
1
 10
206.963162
 20
244.602640
 30
0.0
 10
206.963162
 20
245.223673
 30
0.0
 10
207.196508
 20
245.717930
 30
0.0
 10
207.663202
 20
246.085410
 30
0.0
  0
SPLINE
  5
21d
100
AcDbEntity
  8
Gravacao
 62
7
100
AcDbSpline
 70
8
 71
3
 72
8
 73
4
 74
0
 40
0
 40
0
 40
0
 40
0
 40
1
 40
1
 40
1
 40
1
 10
207.663202
 20
246.085410
 30
0.0
 10
208.129902
 20
246.452883
 30
0.0
 10
208.747265
 20
246.636620
 30
0.0
 10
209.515292
 20
246.636620
 30
0.0
  0
SPLINE
  5
21e
100
AcDbEntity
  8
Gravacao
 62
7
100
AcDbSpline
 70
8
 71
3
 72
8
 73
4
 74
0
 40
0
 40
0
 40
0
 40
0
 40
1
 40
1
 40
1
 40
1
 10
209.515292
 20
246.636620
 30
0.0
 10
210.316392
 20
246.636620
 30
0.0
 10
211.053182
 20
246.489630
 30
0.0
 10
211.725662
 20
246.195650
 30
0.0
  0
LWPOLYLINE
  5
21f
100
AcDbEntity
  8
Gravacao
 62
7
100
AcDbPolyline
 90
2
 70
0
 10
206.858432
 20
238.721160
 30
0.0
 10
206.858432
 20
239.625160
 30
0.0
  0
SPLINE
  5
220
100
AcDbEntity
  8
Gravacao
 62
7
100
AcDbSpline
 70
8
 71
3
 72
8
 73
4
 74
0
 40
0
 40
0
 40
0
 40
0
 40
1
 40
1
 40
1
 40
1
 10
211.433522
 20
245.379850
 30
0.0
 10
210.768388
 20
245.659130
 30
0.0
 10
210.121628
 20
245.798770
 30
0.0
 10
209.493242
 20
245.798770
 30
0.0
  0
SPLINE
  5
221
100
AcDbEntity
  8
Gravacao
 62
7
100
AcDbSpline
 70
8
 71
3
 72
8
 73
4
 74
0
 40
0
 40
0
 40
0
 40
0
 40
1
 40
1
 40
1
 40
1
 10
209.493242
 20
245.798770
 30
0.0
 10
208.997148
 20
245.798770
 30
0.0
 10
208.609458
 20
245.692203
 30
0.0
 10
208.330172
 20
245.479070
 30
0.0
  0
SPLINE
  5
222
100
AcDbEntity
  8
Gravacao
 62
7
100
AcDbSpline
 70
8
 71
3
 72
8
 73
4
 74
0
 40
0
 40
0
 40
0
 40
0
 40
1
 40
1
 40
1
 40
1
 10
208.330172
 20
245.479070
 30
0.0
 10
208.050892
 20
245.265930
 30
0.0
 10
207.911252
 20
244.970110
 30
0.0
 10
207.911252
 20
244.591610
 30
0.0
  0
SPLINE
  5
223
100
AcDbEntity
  8
Gravacao
 62
7
100
AcDbSpline
 70
8
 71
3
 72
8
 73
4
 74
0
 40
0
 40
0
 40
0
 40
0
 40
1
 40
1
 40
1
 40
1
 10
207.911252
 20
244.591610
 30
0.0
 10
207.911252
 20
244.312330
 30
0.0
 10
207.962698
 20
244.082657
 30
0.0
 10
208.065592
 20
243.902590
 30
0.0
  0
SPLINE
  5
224
100
AcDbEntity
  8
Gravacao
 62
7
100
AcDbSpline
 70
8
 71
3
 72
8
 73
4
 74
0
 40
0
 40
0
 40
0
 40
0
 40
1
 40
1
 40
1
 40
1
 10
208.065592
 20
243.902590
 30
0.0
 10
208.168485
 20
243.726203
 30
0.0
 10
208.341198
 20
243.562677
 30
0.0
 10
208.583732
 20
243.412010
 30
0.0
  0
SPLINE
  5
225
100
AcDbEntity
  8
Gravacao
 62
7
100
AcDbSpline
 70
8
 71
3
 72
8
 73
4
 74
0
 40
0
 40
0
 40
0
 40
0
 40
1
 40
1
 40
1
 40
1
 10
208.583732
 20
243.412010
 30
0.0
 10
208.829945
 20
243.265017
 30
0.0
 10
209.204772
 20
243.101490
 30
0.0
 10
209.708212
 20
242.921430
 30
0.0
  0
SPLINE
  5
226
100
AcDbEntity
  8
Gravacao
 62
7
100
AcDbSpline
 70
8
 71
3
 72
8
 73
4
 74
0
 40
0
 40
0
 40
0
 40
0
 40
1
 40
1
 40
1
 40
1
 10
209.708212
 20
242.921430
 30
0.0
 10
210.553412
 20
242.620097
 30
0.0
 10
211.134025
 20
242.296717
 30
0.0
 10
211.450052
 20
241.951290
 30
0.0
  0
SPLINE
  5
227
100
AcDbEntity
  8
Gravacao
 62
7
100
AcDbSpline
 70
8
 71
3
 72
8
 73
4
 74
0
 40
0
 40
0
 40
0
 40
0
 40
1
 40
1
 40
1
 40
1
 10
211.450052
 20
241.951290
 30
0.0
 10
211.769758
 20
241.605857
 30
0.0
 10
211.929612
 20
241.157533
 30
0.0
 10
211.929612
 20
240.606320
 30
0.0
  0
LWPOLYLINE
  5
228
100
AcDbEntity
  8
Gravacao
 62
7
100
AcDbPolyline
 90
2
 70
0
 10
211.725662
 20
246.195650
 30
0.0
 10
211.433522
 20
245.379850
 30
0.0
  0
LWPOLYLINE
  5
229
100
AcDbEntity
  8
Gravacao
 62
7
100
AcDbPolyline
 90
1
 70
1
 10
211.929612
 20
240.606320
 30
0.0
  0
LWPOLYLINE
  5
22a
100
AcDbEntity
  8
Gravacao
 62
7
100
AcDbPolyline
 90
8
 70
1
 10
218.643422
 20
238.462090
 30
0.0
 10
217.640212
 20
241.025240
 30
0.0
 10
214.410082
 20
241.025240
 30
0.0
 10
213.417892
 20
238.462090
 30
0.0
 10
212.469802
 20
238.462090
 30
0.0
 10
215.655832
 20
246.553940
 30
0.0
 10
216.444072
 20
246.553940
 30
0.0
 10
219.613562
 20
238.462090
 30
0.0
  0
SPLINE
  5
22b
100
AcDbEntity
  8
Gravacao
 62
7
100
AcDbSpline
 70
8
 71
3
 72
8
 73
4
 74
0
 40
0
 40
0
 40
0
 40
0
 40
1
 40
1
 40
1
 40
1
 10
216.411002
 20
244.365610
 30
0.0
 10
216.289735
 20
244.681643
 30
0.0
 10
216.164792
 20
245.069333
 30
0.0
 10
216.036172
 20
245.528680
 30
0.0
  0
SPLINE
  5
22c
100
AcDbEntity
  8
Gravacao
 62
7
100
AcDbSpline
 70
8
 71
3
 72
8
 73
4
 74
0
 40
0
 40
0
 40
0
 40
0
 40
1
 40
1
 40
1
 40
1
 10
216.036172
 20
245.528680
 30
0.0
 10
215.955325
 20
245.175900
 30
0.0
 10
215.839568
 20
244.788210
 30
0.0
 10
215.688902
 20
244.365610
 30
0.0
  0
LWPOLYLINE
  5
22d
100
AcDbEntity
  8
Gravacao
 62
7
100
AcDbPolyline
 90
2
 70
0
 10
217.348062
 20
241.868600
 30
0.0
 10
216.411002
 20
244.365610
 30
0.0
  0
LWPOLYLINE
  5
22e
100
AcDbEntity
  8
Gravacao
 62
7
100
AcDbPolyline
 90
3
 70
0
 10
215.688902
 20
244.365610
 30
0.0
 10
214.740812
 20
241.868600
 30
0.0
 10
217.348062
 20
241.868600
 30
0.0
  0
LWPOLYLINE
  5
22f
100
AcDbEntity
  8
Gravacao
 62
7
100
AcDbPolyline
 90
8
 70
1
 10
223.201982
 20
238.462090
 30
0.0
 10
222.264912
 20
238.462090
 30
0.0
 10
222.264912
 20
245.688530
 30
0.0
 10
219.712782
 20
245.688530
 30
0.0
 10
219.712782
 20
246.520870
 30
0.0
 10
225.754112
 20
246.520870
 30
0.0
 10
225.754112
 20
245.688530
 30
0.0
 10
223.201982
 20
245.688530
 30
0.0
  0
SPLINE
  5
230
100
AcDbEntity
  8
Gravacao
 62
7
100
AcDbSpline
 70
8
 71
3
 72
8
 73
4
 74
0
 40
0
 40
0
 40
0
 40
0
 40
1
 40
1
 40
1
 40
1
 10
233.052202
 20
241.306360
 30
0.0
 10
233.052202
 20
240.387673
 30
0.0
 10
232.774758
 20
239.665583
 30
0.0
 10
232.219872
 20
239.140090
 30
0.0
  0
SPLINE
  5
231
100
AcDbEntity
  8
Gravacao
 62
7
100
AcDbSpline
 70
8
 71
3
 72
8
 73
4
 74
0
 40
0
 40
0
 40
0
 40
0
 40
1
 40
1
 40
1
 40
1
 10
232.219872
 20
239.140090
 30
0.0
 10
231.664978
 20
238.614597
 30
0.0
 10
230.902462
 20
238.351850
 30
0.0
 10
229.932322
 20
238.351850
 30
0.0
  0
SPLINE
  5
232
100
AcDbEntity
  8
Gravacao
 62
7
100
AcDbSpline
 70
8
 71
3
 72
8
 73
4
 74
0
 40
0
 40
0
 40
0
 40
0
 40
1
 40
1
 40
1
 40
1
 10
229.932322
 20
238.351850
 30
0.0
 10
228.962182
 20
238.351850
 30
0.0
 10
228.210692
 20
238.616433
 30
0.0
 10
227.677852
 20
239.145600
 30
0.0
  0
SPLINE
  5
233
100
AcDbEntity
  8
Gravacao
 62
7
100
AcDbSpline
 70
8
 71
3
 72
8
 73
4
 74
0
 40
0
 40
0
 40
0
 40
0
 40
1
 40
1
 40
1
 40
1
 10
227.677852
 20
239.145600
 30
0.0
 10
227.148685
 20
239.674767
 30
0.0
 10
226.884102
 20
240.402370
 30
0.0
 10
226.884102
 20
241.328410
 30
0.0
  0
LWPOLYLINE
  5
234
100
AcDbEntity
  8
Gravacao
 62
7
100
AcDbPolyline
 90
2
 70
0
 10
233.052202
 20
246.520870
 30
0.0
 10
233.052202
 20
241.306360
 30
0.0
  0
SPLINE
  5
235
100
AcDbEntity
  8
Gravacao
 62
7
100
AcDbSpline
 70
8
 71
3
 72
8
 73
4
 74
0
 40
0
 40
0
 40
0
 40
0
 40
1
 40
1
 40
1
 40
1
 10
227.821162
 20
241.262270
 30
0.0
 10
227.821162
 20
240.589783
 30
0.0
 10
228.004902
 20
240.073477
 30
0.0
 10
228.372382
 20
239.713350
 30
0.0
  0
SPLINE
  5
236
100
AcDbEntity
  8
Gravacao
 62
7
100
AcDbSpline
 70
8
 71
3
 72
8
 73
4
 74
0
 40
0
 40
0
 40
0
 40
0
 40
1
 40
1
 40
1
 40
1
 10
228.372382
 20
239.713350
 30
0.0
 10
228.739862
 20
239.353223
 30
0.0
 10
229.280052
 20
239.173160
 30
0.0
 10
229.992952
 20
239.173160
 30
0.0
  0
SPLINE
  5
237
100
AcDbEntity
  8
Gravacao
 62
7
100
AcDbSpline
 70
8
 71
3
 72
8
 73
4
 74
0
 40
0
 40
0
 40
0
 40
0
 40
1
 40
1
 40
1
 40
1
 10
229.992952
 20
239.173160
 30
0.0
 10
230.672785
 20
239.173160
 30
0.0
 10
231.196442
 20
239.353223
 30
0.0
 10
231.563922
 20
239.713350
 30
0.0
  0
SPLINE
  5
238
100
AcDbEntity
  8
Gravacao
 62
7
100
AcDbSpline
 70
8
 71
3
 72
8
 73
4
 74
0
 40
0
 40
0
 40
0
 40
0
 40
1
 40
1
 40
1
 40
1
 10
231.563922
 20
239.713350
 30
0.0
 10
231.931402
 20
240.077150
 30
0.0
 10
232.115142
 20
240.597130
 30
0.0
 10
232.115142
 20
241.273290
 30
0.0
  0
LWPOLYLINE
  5
239
100
AcDbEntity
  8
Gravacao
 62
7
100
AcDbPolyline
 90
4
 70
0
 10
226.884102
 20
241.328410
 30
0.0
 10
226.884102
 20
246.520870
 30
0.0
 10
227.821162
 20
246.520870
 30
0.0
 10
227.821162
 20
241.262270
 30
0.0
  0
LWPOLYLINE
  5
23a
100
AcDbEntity
  8
Gravacao
 62
7
100
AcDbPolyline
 90
3
 70
0
 10
232.115142
 20
241.273290
 30
0.0
 10
232.115142
 20
246.520870
 30
0.0
 10
233.052202
 20
246.520870
 30
0.0
  0
SPLINE
  5
23b
100
AcDbEntity
  8
Gravacao
 62
7
100
AcDbSpline
 70
8
 71
3
 72
8
 73
4
 74
0
 40
0
 40
0
 40
0
 40
0
 40
1
 40
1
 40
1
 40
1
 10
237.395782
 20
246.520870
 30
0.0
 10
238.384295
 20
246.520870
 30
0.0
 10
239.113738
 20
246.331617
 30
0.0
 10
239.584112
 20
245.953110
 30
0.0
  0
SPLINE
  5
23c
100
AcDbEntity
  8
Gravacao
 62
7
100
AcDbSpline
 70
8
 71
3
 72
8
 73
4
 74
0
 40
0
 40
0
 40
0
 40
0
 40
1
 40
1
 40
1
 40
1
 10
239.584112
 20
245.953110
 30
0.0
 10
240.058158
 20
245.574610
 30
0.0
 10
240.295182
 20
245.005023
 30
0.0
 10
240.295182
 20
244.244350
 30
0.0
  0
SPLINE
  5
23d
100
AcDbEntity
  8
Gravacao
 62
7
100
AcDbSpline
 70
8
 71
3
 72
8
 73
4
 74
0
 40
0
 40
0
 40
0
 40
0
 40
1
 40
1
 40
1
 40
1
 10
240.295182
 20
244.244350
 30
0.0
 10
240.295182
 20
243.178663
 30
0.0
 10
239.754988
 20
242.458407
 30
0.0
 10
238.674602
 20
242.083580
 30
0.0
  0
LWPOLYLINE
  5
23e
100
AcDbEntity
  8
Gravacao
 62
7
100
AcDbPolyline
 90
5
 70
0
 10
236.122472
 20
241.813480
 30
0.0
 10
236.122472
 20
238.462090
 30
0.0
 10
235.185412
 20
238.462090
 30
0.0
 10
235.185412
 20
246.520870
 30
0.0
 10
237.395782
 20
246.520870
 30
0.0
  0
LWPOLYLINE
  5
23f
100
AcDbEntity
  8
Gravacao
 62
7
100
AcDbPolyline
 90
5
 70
0
 10
238.674602
 20
242.083580
 30
0.0
 10
240.862932
 20
238.462090
 30
0.0
 10
239.754992
 20
238.462090
 30
0.0
 10
237.803682
 20
241.813480
 30
0.0
 10
236.122472
 20
241.813480
 30
0.0
  0
SPLINE
  5
240
100
AcDbEntity
  8
Gravacao
 62
7
100
AcDbSpline
 70
8
 71
3
 72
8
 73
4
 74
0
 40
0
 40
0
 40
0
 40
0
 40
1
 40
1
 40
1
 40
1
 10
237.406812
 20
242.618260
 30
0.0
 10
238.068272
 20
242.618260
 30
0.0
 10
238.553342
 20
242.748713
 30
0.0
 10
238.862022
 20
243.009620
 30
0.0
  0
SPLINE
  5
241
100
AcDbEntity
  8
Gravacao
 62
7
100
AcDbSpline
 70
8
 71
3
 72
8
 73
4
 74
0
 40
0
 40
0
 40
0
 40
0
 40
1
 40
1
 40
1
 40
1
 10
238.862022
 20
243.009620
 30
0.0
 10
239.170702
 20
243.274207
 30
0.0
 10
239.325042
 20
243.669247
 30
0.0
 10
239.325042
 20
244.194740
 30
0.0
  0
SPLINE
  5
242
100
AcDbEntity
  8
Gravacao
 62
7
100
AcDbSpline
 70
8
 71
3
 72
8
 73
4
 74
0
 40
0
 40
0
 40
0
 40
0
 40
1
 40
1
 40
1
 40
1
 10
239.325042
 20
244.194740
 30
0.0
 10
239.325042
 20
244.727580
 30
0.0
 10
239.167025
 20
245.111593
 30
0.0
 10
238.850992
 20
245.346780
 30
0.0
  0
SPLINE
  5
243
100
AcDbEntity
  8
Gravacao
 62
7
100
AcDbSpline
 70
8
 71
3
 72
8
 73
4
 74
0
 40
0
 40
0
 40
0
 40
0
 40
1
 40
1
 40
1
 40
1
 10
238.850992
 20
245.346780
 30
0.0
 10
238.538638
 20
245.581967
 30
0.0
 10
238.035195
 20
245.699560
 30
0.0
 10
237.340662
 20
245.699560
 30
0.0
  0
LWPOLYLINE
  5
244
100
AcDbEntity
  8
Gravacao
 62
7
100
AcDbPolyline
 90
2
 70
0
 10
236.122472
 20
242.618260
 30
0.0
 10
237.406812
 20
242.618260
 30
0.0
  0
LWPOLYLINE
  5
245
100
AcDbEntity
  8
Gravacao
 62
7
100
AcDbPolyline
 90
3
 70
0
 10
237.340662
 20
245.699560
 30
0.0
 10
236.122472
 20
245.699560
 30
0.0
 10
236.122472
 20
242.618260
 30
0.0
  0
SPLINE
  5
246
100
AcDbEntity
  8
Gravacao
 62
7
100
AcDbSpline
 70
8
 71
3
 72
8
 73
4
 74
0
 40
0
 40
0
 40
0
 40
0
 40
1
 40
1
 40
1
 40
1
 10
242.941012
 20
245.225510
 30
0.0
 10
242.999812
 20
244.431757
 30
0.0
 10
243.029212
 20
243.704150
 30
0.0
 10
243.029212
 20
243.042690
 30
0.0
  0
LWPOLYLINE
  5
247
100
AcDbEntity
  8
Gravacao
 62
7
100
AcDbPolyline
 90
4
 70
0
 10
248.458692
 20
238.462090
 30
0.0
 10
247.389332
 20
238.462090
 30
0.0
 10
242.985112
 20
245.225510
 30
0.0
 10
242.941012
 20
245.225510
 30
0.0
  0
SPLINE
  5
248
100
AcDbEntity
  8
Gravacao
 62
7
100
AcDbSpline
 70
8
 71
3
 72
8
 73
4
 74
0
 40
0
 40
0
 40
0
 40
0
 40
1
 40
1
 40
1
 40
1
 10
247.659432
 20
239.785010
 30
0.0
 10
247.652098
 20
239.884230
 30
0.0
 10
247.635565
 20
240.202097
 30
0.0
 10
247.609832
 20
240.738610
 30
0.0
  0
SPLINE
  5
249
100
AcDbEntity
  8
Gravacao
 62
7
100
AcDbSpline
 70
8
 71
3
 72
8
 73
4
 74
0
 40
0
 40
0
 40
0
 40
0
 40
1
 40
1
 40
1
 40
1
 10
247.609832
 20
240.738610
 30
0.0
 10
247.584098
 20
241.278803
 30
0.0
 10
247.574898
 20
241.664657
 30
0.0
 10
247.582232
 20
241.896170
 30
0.0
  0
LWPOLYLINE
  5
24a
100
AcDbEntity
  8
Gravacao
 62
7
100
AcDbPolyline
 90
7
 70
0
 10
243.029212
 20
243.042690
 30
0.0
 10
243.029212
 20
238.462090
 30
0.0
 10
242.163802
 20
238.462090
 30
0.0
 10
242.163802
 20
246.520870
 30
0.0
 10
243.222142
 20
246.520870
 30
0.0
 10
247.615332
 20
239.785010
 30
0.0
 10
247.659432
 20
239.785010
 30
0.0
  0
SPLINE
  5
24b
100
AcDbEntity
  8
Gravacao
 62
7
100
AcDbSpline
 70
8
 71
3
 72
8
 73
4
 74
0
 40
0
 40
0
 40
0
 40
0
 40
1
 40
1
 40
1
 40
1
 10
257.669502
 20
242.502500
 30
0.0
 10
257.669502
 20
241.212660
 30
0.0
 10
257.342448
 20
240.198423
 30
0.0
 10
256.688342
 20
239.459790
 30
0.0
  0
SPLINE
  5
24c
100
AcDbEntity
  8
Gravacao
 62
7
100
AcDbSpline
 70
8
 71
3
 72
8
 73
4
 74
0
 40
0
 40
0
 40
0
 40
0
 40
1
 40
1
 40
1
 40
1
 10
256.688342
 20
239.459790
 30
0.0
 10
256.037908
 20
238.721163
 30
0.0
 10
255.132075
 20
238.351850
 30
0.0
 10
253.970842
 20
238.351850
 30
0.0
  0
SPLINE
  5
24d
100
AcDbEntity
  8
Gravacao
 62
7
100
AcDbSpline
 70
8
 71
3
 72
8
 73
4
 74
0
 40
0
 40
0
 40
0
 40
0
 40
1
 40
1
 40
1
 40
1
 10
253.970842
 20
238.351850
 30
0.0
 10
252.783895
 20
238.351850
 30
0.0
 10
251.867042
 20
238.713813
 30
0.0
 10
251.220282
 20
239.437740
 30
0.0
  0
SPLINE
  5
24e
100
AcDbEntity
  8
Gravacao
 62
7
100
AcDbSpline
 70
8
 71
3
 72
8
 73
4
 74
0
 40
0
 40
0
 40
0
 40
0
 40
1
 40
1
 40
1
 40
1
 10
251.220282
 20
239.437740
 30
0.0
 10
250.577195
 20
240.165347
 30
0.0
 10
250.255652
 20
241.190610
 30
0.0
 10
250.255652
 20
242.513530
 30
0.0
  0
SPLINE
  5
24f
100
AcDbEntity
  8
Gravacao
 62
7
100
AcDbSpline
 70
8
 71
3
 72
8
 73
4
 74
0
 40
0
 40
0
 40
0
 40
0
 40
1
 40
1
 40
1
 40
1
 10
250.255652
 20
242.513530
 30
0.0
 10
250.255652
 20
243.825423
 30
0.0
 10
250.579032
 20
244.841497
 30
0.0
 10
251.225792
 20
245.561750
 30
0.0
  0
SPLINE
  5
250
100
AcDbEntity
  8
Gravacao
 62
7
100
AcDbSpline
 70
8
 71
3
 72
8
 73
4
 74
0
 40
0
 40
0
 40
0
 40
0
 40
1
 40
1
 40
1
 40
1
 10
251.225792
 20
245.561750
 30
0.0
 10
251.872552
 20
246.285683
 30
0.0
 10
252.791245
 20
246.647650
 30
0.0
 10
253.981872
 20
246.647650
 30
0.0
  0
SPLINE
  5
251
100
AcDbEntity
  8
Gravacao
 62
7
100
AcDbSpline
 70
8
 71
3
 72
8
 73
4
 74
0
 40
0
 40
0
 40
0
 40
0
 40
1
 40
1
 40
1
 40
1
 10
253.981872
 20
246.647650
 30
0.0
 10
255.139425
 20
246.647650
 30
0.0
 10
256.043418
 20
246.280170
 30
0.0
 10
256.693852
 20
245.545210
 30
0.0
  0
SPLINE
  5
252
100
AcDbEntity
  8
Gravacao
 62
7
100
AcDbSpline
 70
8
 71
3
 72
8
 73
4
 74
0
 40
0
 40
0
 40
0
 40
0
 40
1
 40
1
 40
1
 40
1
 10
256.693852
 20
245.545210
 30
0.0
 10
257.344285
 20
244.810257
 30
0.0
 10
257.669502
 20
243.796020
 30
0.0
 10
257.669502
 20
242.502500
 30
0.0
  0
LWPOLYLINE
  5
253
100
AcDbEntity
  8
Gravacao
 62
7
100
AcDbPolyline
 90
4
 70
0
 10
247.582232
 20
241.896170
 30
0.0
 10
247.582232
 20
246.520870
 30
0.0
 10
248.458672
 20
246.520870
 30
0.0
 10
248.458692
 20
238.462090
 30
0.0
  0
SPLINE
  5
254
100
AcDbEntity
  8
Gravacao
 62
7
100
AcDbSpline
 70
8
 71
3
 72
8
 73
4
 74
0
 40
0
 40
0
 40
0
 40
0
 40
1
 40
1
 40
1
 40
1
 10
251.247842
 20
242.502500
 30
0.0
 10
251.247842
 20
241.411093
 30
0.0
 10
251.479352
 20
240.582433
 30
0.0
 10
251.942372
 20
240.016520
 30
0.0
  0
SPLINE
  5
255
100
AcDbEntity
  8
Gravacao
 62
7
100
AcDbSpline
 70
8
 71
3
 72
8
 73
4
 74
0
 40
0
 40
0
 40
0
 40
0
 40
1
 40
1
 40
1
 40
1
 10
251.942372
 20
240.016520
 30
0.0
 10
252.409065
 20
239.454280
 30
0.0
 10
253.085222
 20
239.173160
 30
0.0
 10
253.970842
 20
239.173160
 30
0.0
  0
SPLINE
  5
256
100
AcDbEntity
  8
Gravacao
 62
7
100
AcDbSpline
 70
8
 71
3
 72
8
 73
4
 74
0
 40
0
 40
0
 40
0
 40
0
 40
1
 40
1
 40
1
 40
1
 10
253.970842
 20
239.173160
 30
0.0
 10
254.863815
 20
239.173160
 30
0.0
 10
255.538138
 20
239.454280
 30
0.0
 10
255.993812
 20
240.016520
 30
0.0
  0
SPLINE
  5
257
100
AcDbEntity
  8
Gravacao
 62
7
100
AcDbSpline
 70
8
 71
3
 72
8
 73
4
 74
0
 40
0
 40
0
 40
0
 40
0
 40
1
 40
1
 40
1
 40
1
 10
255.993812
 20
240.016520
 30
0.0
 10
256.449478
 20
240.578760
 30
0.0
 10
256.677312
 20
241.407420
 30
0.0
 10
256.677312
 20
242.502500
 30
0.0
  0
SPLINE
  5
258
100
AcDbEntity
  8
Gravacao
 62
7
100
AcDbSpline
 70
8
 71
3
 72
8
 73
4
 74
0
 40
0
 40
0
 40
0
 40
0
 40
1
 40
1
 40
1
 40
1
 10
256.677312
 20
242.502500
 30
0.0
 10
256.677312
 20
243.586560
 30
0.0
 10
256.449478
 20
244.407873
 30
0.0
 10
255.993812
 20
244.966440
 30
0.0
  0
SPLINE
  5
259
100
AcDbEntity
  8
Gravacao
 62
7
100
AcDbSpline
 70
8
 71
3
 72
8
 73
4
 74
0
 40
0
 40
0
 40
0
 40
0
 40
1
 40
1
 40
1
 40
1
 10
255.993812
 20
244.966440
 30
0.0
 10
255.541812
 20
245.528680
 30
0.0
 10
254.871165
 20
245.809800
 30
0.0
 10
253.981872
 20
245.809800
 30
0.0
  0
SPLINE
  5
25a
100
AcDbEntity
  8
Gravacao
 62
7
100
AcDbSpline
 70
8
 71
3
 72
8
 73
4
 74
0
 40
0
 40
0
 40
0
 40
0
 40
1
 40
1
 40
1
 40
1
 10
253.981872
 20
245.809800
 30
0.0
 10
253.088898
 20
245.809800
 30
0.0
 10
252.409065
 20
245.526843
 30
0.0
 10
251.942372
 20
244.960930
 30
0.0
  0
SPLINE
  5
25b
100
AcDbEntity
  8
Gravacao
 62
7
100
AcDbSpline
 70
8
 71
3
 72
8
 73
4
 74
0
 40
0
 40
0
 40
0
 40
0
 40
1
 40
1
 40
1
 40
1
 10
251.942372
 20
244.960930
 30
0.0
 10
251.479352
 20
244.398690
 30
0.0
 10
251.247842
 20
243.579213
 30
0.0
 10
251.247842
 20
242.502500
 30
0.0
  0
LWPOLYLINE
  5
25c
100
AcDbEntity
  8
Gravacao
 62
7
100
AcDbPolyline
 90
1
 70
1
 10
257.669502
 20
242.502500
 30
0.0
  0
LWPOLYLINE
  5
25d
100
AcDbEntity
  8
Gravacao
 62
7
100
AcDbPolyline
 90
1
 70
1
 10
251.247842
 20
242.502500
 30
0.0
  0
SPLINE
  5
25e
100
AcDbEntity
  8
Gravacao
 62
7
100
AcDbSpline
 70
8
 71
3
 72
8
 73
4
 74
0
 40
0
 40
0
 40
0
 40
0
 40
1
 40
1
 40
1
 40
1
 10
60.701511
 20
175.173600
 30
0.0
 10
60.701511
 20
174.254907
 30
0.0
 10
60.424065
 20
173.532813
 30
0.0
 10
59.869175
 20
173.007320
 30
0.0
  0
SPLINE
  5
25f
100
AcDbEntity
  8
Gravacao
 62
7
100
AcDbSpline
 70
8
 71
3
 72
8
 73
4
 74
0
 40
0
 40
0
 40
0
 40
0
 40
1
 40
1
 40
1
 40
1
 10
59.869175
 20
173.007320
 30
0.0
 10
59.314284
 20
172.481827
 30
0.0
 10
58.551769
 20
172.219080
 30
0.0
 10
57.581629
 20
172.219080
 30
0.0
  0
SPLINE
  5
260
100
AcDbEntity
  8
Gravacao
 62
7
100
AcDbSpline
 70
8
 71
3
 72
8
 73
4
 74
0
 40
0
 40
0
 40
0
 40
0
 40
1
 40
1
 40
1
 40
1
 10
57.581629
 20
172.219080
 30
0.0
 10
56.611489
 20
172.219080
 30
0.0
 10
55.859998
 20
172.483667
 30
0.0
 10
55.327157
 20
173.012840
 30
0.0
  0
SPLINE
  5
261
100
AcDbEntity
  8
Gravacao
 62
7
100
AcDbSpline
 70
8
 71
3
 72
8
 73
4
 74
0
 40
0
 40
0
 40
0
 40
0
 40
1
 40
1
 40
1
 40
1
 10
55.327157
 20
173.012840
 30
0.0
 10
54.797989
 20
173.542007
 30
0.0
 10
54.533406
 20
174.269610
 30
0.0
 10
54.533406
 20
175.195650
 30
0.0
  0
LWPOLYLINE
  5
262
100
AcDbEntity
  8
Gravacao
 62
7
100
AcDbPolyline
 90
2
 70
0
 10
60.701511
 20
180.388100
 30
0.0
 10
60.701511
 20
175.173600
 30
0.0
  0
SPLINE
  5
263
100
AcDbEntity
  8
Gravacao
 62
7
100
AcDbSpline
 70
8
 71
3
 72
8
 73
4
 74
0
 40
0
 40
0
 40
0
 40
0
 40
1
 40
1
 40
1
 40
1
 10
55.470473
 20
175.129500
 30
0.0
 10
55.470473
 20
174.457020
 30
0.0
 10
55.654211
 20
173.940717
 30
0.0
 10
56.021688
 20
173.580590
 30
0.0
  0
SPLINE
  5
264
100
AcDbEntity
  8
Gravacao
 62
7
100
AcDbSpline
 70
8
 71
3
 72
8
 73
4
 74
0
 40
0
 40
0
 40
0
 40
0
 40
1
 40
1
 40
1
 40
1
 10
56.021688
 20
173.580590
 30
0.0
 10
56.389165
 20
173.220463
 30
0.0
 10
56.929357
 20
173.040400
 30
0.0
 10
57.642263
 20
173.040400
 30
0.0
  0
SPLINE
  5
265
100
AcDbEntity
  8
Gravacao
 62
7
100
AcDbSpline
 70
8
 71
3
 72
8
 73
4
 74
0
 40
0
 40
0
 40
0
 40
0
 40
1
 40
1
 40
1
 40
1
 10
57.642263
 20
173.040400
 30
0.0
 10
58.322095
 20
173.040400
 30
0.0
 10
58.845750
 20
173.220463
 30
0.0
 10
59.213228
 20
173.580590
 30
0.0
  0
SPLINE
  5
266
100
AcDbEntity
  8
Gravacao
 62
7
100
AcDbSpline
 70
8
 71
3
 72
8
 73
4
 74
0
 40
0
 40
0
 40
0
 40
0
 40
1
 40
1
 40
1
 40
1
 10
59.213228
 20
173.580590
 30
0.0
 10
59.580705
 20
173.944390
 30
0.0
 10
59.764444
 20
174.464370
 30
0.0
 10
59.764444
 20
175.140530
 30
0.0
  0
LWPOLYLINE
  5
267
100
AcDbEntity
  8
Gravacao
 62
7
100
AcDbPolyline
 90
4
 70
0
 10
54.533406
 20
175.195650
 30
0.0
 10
54.533406
 20
180.388100
 30
0.0
 10
55.470473
 20
180.388100
 30
0.0
 10
55.470473
 20
175.129500
 30
0.0
  0
LWPOLYLINE
  5
268
100
AcDbEntity
  8
Gravacao
 62
7
100
AcDbPolyline
 90
3
 70
0
 10
59.764444
 20
175.140530
 30
0.0
 10
59.764444
 20
180.388100
 30
0.0
 10
60.701511
 20
180.388100
 30
0.0
  0
SPLINE
  5
269
100
AcDbEntity
  8
Gravacao
 62
7
100
AcDbSpline
 70
8
 71
3
 72
8
 73
4
 74
0
 40
0
 40
0
 40
0
 40
0
 40
1
 40
1
 40
1
 40
1
 10
65.045092
 20
180.388100
 30
0.0
 10
66.033605
 20
180.388100
 30
0.0
 10
66.763047
 20
180.198850
 30
0.0
 10
67.233418
 20
179.820350
 30
0.0
  0
SPLINE
  5
26a
100
AcDbEntity
  8
Gravacao
 62
7
100
AcDbSpline
 70
8
 71
3
 72
8
 73
4
 74
0
 40
0
 40
0
 40
0
 40
0
 40
1
 40
1
 40
1
 40
1
 10
67.233418
 20
179.820350
 30
0.0
 10
67.707464
 20
179.441850
 30
0.0
 10
67.944487
 20
178.872260
 30
0.0
 10
67.944487
 20
178.111580
 30
0.0
  0
SPLINE
  5
26b
100
AcDbEntity
  8
Gravacao
 62
7
100
AcDbSpline
 70
8
 71
3
 72
8
 73
4
 74
0
 40
0
 40
0
 40
0
 40
0
 40
1
 40
1
 40
1
 40
1
 10
67.944487
 20
178.111580
 30
0.0
 10
67.944487
 20
177.045900
 30
0.0
 10
67.404295
 20
176.325647
 30
0.0
 10
66.323912
 20
175.950820
 30
0.0
  0
LWPOLYLINE
  5
26c
100
AcDbEntity
  8
Gravacao
 62
7
100
AcDbPolyline
 90
5
 70
0
 10
63.771783
 20
175.680720
 30
0.0
 10
63.771783
 20
172.329330
 30
0.0
 10
62.834716
 20
172.329330
 30
0.0
 10
62.834716
 20
180.388100
 30
0.0
 10
65.045092
 20
180.388100
 30
0.0
  0
LWPOLYLINE
  5
26d
100
AcDbEntity
  8
Gravacao
 62
7
100
AcDbPolyline
 90
5
 70
0
 10
66.323912
 20
175.950820
 30
0.0
 10
68.512239
 20
172.329330
 30
0.0
 10
67.404295
 20
172.329330
 30
0.0
 10
65.452991
 20
175.680720
 30
0.0
 10
63.771783
 20
175.680720
 30
0.0
  0
SPLINE
  5
26e
100
AcDbEntity
  8
Gravacao
 62
7
100
AcDbSpline
 70
8
 71
3
 72
8
 73
4
 74
0
 40
0
 40
0
 40
0
 40
0
 40
1
 40
1
 40
1
 40
1
 10
65.056116
 20
176.485490
 30
0.0
 10
65.717574
 20
176.485490
 30
0.0
 10
66.202644
 20
176.615947
 30
0.0
 10
66.511326
 20
176.876860
 30
0.0
  0
SPLINE
  5
26f
100
AcDbEntity
  8
Gravacao
 62
7
100
AcDbSpline
 70
8
 71
3
 72
8
 73
4
 74
0
 40
0
 40
0
 40
0
 40
0
 40
1
 40
1
 40
1
 40
1
 10
66.511326
 20
176.876860
 30
0.0
 10
66.820006
 20
177.141440
 30
0.0
 10
66.974347
 20
177.536477
 30
0.0
 10
66.974347
 20
178.061970
 30
0.0
  0
SPLINE
  5
270
100
AcDbEntity
  8
Gravacao
 62
7
100
AcDbSpline
 70
8
 71
3
 72
8
 73
4
 74
0
 40
0
 40
0
 40
0
 40
0
 40
1
 40
1
 40
1
 40
1
 10
66.974347
 20
178.061970
 30
0.0
 10
66.974347
 20
178.594817
 30
0.0
 10
66.816331
 20
178.978830
 30
0.0
 10
66.500301
 20
179.214010
 30
0.0
  0
SPLINE
  5
271
100
AcDbEntity
  8
Gravacao
 62
7
100
AcDbSpline
 70
8
 71
3
 72
8
 73
4
 74
0
 40
0
 40
0
 40
0
 40
0
 40
1
 40
1
 40
1
 40
1
 10
66.500301
 20
179.214010
 30
0.0
 10
66.187945
 20
179.449197
 30
0.0
 10
65.684502
 20
179.566790
 30
0.0
 10
64.989970
 20
179.566790
 30
0.0
  0
LWPOLYLINE
  5
272
100
AcDbEntity
  8
Gravacao
 62
7
100
AcDbPolyline
 90
2
 70
0
 10
63.771783
 20
176.485490
 30
0.0
 10
65.056116
 20
176.485490
 30
0.0
  0
LWPOLYLINE
  5
273
100
AcDbEntity
  8
Gravacao
 62
7
100
AcDbPolyline
 90
3
 70
0
 10
64.989970
 20
179.566790
 30
0.0
 10
63.771783
 20
179.566790
 30
0.0
 10
63.771783
 20
176.485490
 30
0.0
  0
LWPOLYLINE
  5
274
100
AcDbEntity
  8
Gravacao
 62
7
100
AcDbPolyline
 90
8
 70
1
 10
74.878782
 20
172.329330
 30
0.0
 10
73.875569
 20
174.892480
 30
0.0
 10
70.645445
 20
174.892480
 30
0.0
 10
69.653256
 20
172.329330
 30
0.0
 10
68.705165
 20
172.329330
 30
0.0
 10
71.891192
 20
180.421180
 30
0.0
 10
72.679431
 20
180.421180
 30
0.0
 10
75.848922
 20
172.329330
 30
0.0
  0
SPLINE
  5
275
100
AcDbEntity
  8
Gravacao
 62
7
100
AcDbSpline
 70
8
 71
3
 72
8
 73
4
 74
0
 40
0
 40
0
 40
0
 40
0
 40
1
 40
1
 40
1
 40
1
 10
72.646358
 20
178.232850
 30
0.0
 10
72.525090
 20
178.548877
 30
0.0
 10
72.400148
 20
178.936563
 30
0.0
 10
72.271531
 20
179.395910
 30
0.0
  0
SPLINE
  5
276
100
AcDbEntity
  8
Gravacao
 62
7
100
AcDbSpline
 70
8
 71
3
 72
8
 73
4
 74
0
 40
0
 40
0
 40
0
 40
0
 40
1
 40
1
 40
1
 40
1
 10
72.271531
 20
179.395910
 30
0.0
 10
72.190686
 20
179.043137
 30
0.0
 10
72.074931
 20
178.655450
 30
0.0
 10
71.924265
 20
178.232850
 30
0.0
  0
LWPOLYLINE
  5
277
100
AcDbEntity
  8
Gravacao
 62
7
100
AcDbPolyline
 90
2
 70
0
 10
73.583425
 20
175.735840
 30
0.0
 10
72.646358
 20
178.232850
 30
0.0
  0
LWPOLYLINE
  5
278
100
AcDbEntity
  8
Gravacao
 62
7
100
AcDbPolyline
 90
3
 70
0
 10
71.924265
 20
178.232850
 30
0.0
 10
70.976174
 20
175.735840
 30
0.0
 10
73.583425
 20
175.735840
 30
0.0
  0
SPLINE
  5
279
100
AcDbEntity
  8
Gravacao
 62
7
100
AcDbSpline
 70
8
 71
3
 72
8
 73
4
 74
0
 40
0
 40
0
 40
0
 40
0
 40
1
 40
1
 40
1
 40
1
 10
77.734078
 20
179.092750
 30
0.0
 10
77.792871
 20
178.298997
 30
0.0
 10
77.822268
 20
177.571390
 30
0.0
 10
77.822268
 20
176.909930
 30
0.0
  0
LWPOLYLINE
  5
27a
100
AcDbEntity
  8
Gravacao
 62
7
100
AcDbPolyline
 90
4
 70
0
 10
83.251751
 20
172.329330
 30
0.0
 10
82.182393
 20
172.329330
 30
0.0
 10
77.778178
 20
179.092750
 30
0.0
 10
77.734078
 20
179.092750
 30
0.0
  0
SPLINE
  5
27b
100
AcDbEntity
  8
Gravacao
 62
7
100
AcDbSpline
 70
8
 71
3
 72
8
 73
4
 74
0
 40
0
 40
0
 40
0
 40
0
 40
1
 40
1
 40
1
 40
1
 10
82.452484
 20
173.652250
 30
0.0
 10
82.445137
 20
173.751463
 30
0.0
 10
82.428600
 20
174.069330
 30
0.0
 10
82.402874
 20
174.605850
 30
0.0
  0
SPLINE
  5
27c
100
AcDbEntity
  8
Gravacao
 62
7
100
AcDbSpline
 70
8
 71
3
 72
8
 73
4
 74
0
 40
0
 40
0
 40
0
 40
0
 40
1
 40
1
 40
1
 40
1
 10
82.402874
 20
174.605850
 30
0.0
 10
82.377154
 20
175.146043
 30
0.0
 10
82.367967
 20
175.531893
 30
0.0
 10
82.375314
 20
175.763400
 30
0.0
  0
LWPOLYLINE
  5
27d
100
AcDbEntity
  8
Gravacao
 62
7
100
AcDbPolyline
 90
7
 70
0
 10
77.822268
 20
176.909930
 30
0.0
 10
77.822268
 20
172.329330
 30
0.0
 10
76.956859
 20
172.329330
 30
0.0
 10
76.956859
 20
180.388100
 30
0.0
 10
78.015194
 20
180.388100
 30
0.0
 10
82.408384
 20
173.652250
 30
0.0
 10
82.452484
 20
173.652250
 30
0.0
  0
SPLINE
  5
27e
100
AcDbEntity
  8
Gravacao
 62
7
100
AcDbSpline
 70
8
 71
3
 72
8
 73
4
 74
0
 40
0
 40
0
 40
0
 40
0
 40
1
 40
1
 40
1
 40
1
 10
92.462568
 20
176.369740
 30
0.0
 10
92.462568
 20
175.079893
 30
0.0
 10
92.135513
 20
174.065657
 30
0.0
 10
91.481404
 20
173.327030
 30
0.0
  0
SPLINE
  5
27f
100
AcDbEntity
  8
Gravacao
 62
7
100
AcDbSpline
 70
8
 71
3
 72
8
 73
4
 74
0
 40
0
 40
0
 40
0
 40
0
 40
1
 40
1
 40
1
 40
1
 10
91.481404
 20
173.327030
 30
0.0
 10
90.830969
 20
172.588397
 30
0.0
 10
89.925138
 20
172.219080
 30
0.0
 10
88.763910
 20
172.219080
 30
0.0
  0
SPLINE
  5
280
100
AcDbEntity
  8
Gravacao
 62
7
100
AcDbSpline
 70
8
 71
3
 72
8
 73
4
 74
0
 40
0
 40
0
 40
0
 40
0
 40
1
 40
1
 40
1
 40
1
 10
88.763910
 20
172.219080
 30
0.0
 10
87.576958
 20
172.219080
 30
0.0
 10
86.660103
 20
172.581047
 30
0.0
 10
86.013343
 20
173.304980
 30
0.0
  0
SPLINE
  5
281
100
AcDbEntity
  8
Gravacao
 62
7
100
AcDbSpline
 70
8
 71
3
 72
8
 73
4
 74
0
 40
0
 40
0
 40
0
 40
0
 40
1
 40
1
 40
1
 40
1
 10
86.013343
 20
173.304980
 30
0.0
 10
85.370257
 20
174.032587
 30
0.0
 10
85.048715
 20
175.057847
 30
0.0
 10
85.048715
 20
176.380760
 30
0.0
  0
SPLINE
  5
282
100
AcDbEntity
  8
Gravacao
 62
7
100
AcDbSpline
 70
8
 71
3
 72
8
 73
4
 74
0
 40
0
 40
0
 40
0
 40
0
 40
1
 40
1
 40
1
 40
1
 10
85.048715
 20
176.380760
 30
0.0
 10
85.048715
 20
177.692653
 30
0.0
 10
85.372095
 20
178.708730
 30
0.0
 10
86.018855
 20
179.428990
 30
0.0
  0
SPLINE
  5
283
100
AcDbEntity
  8
Gravacao
 62
7
100
AcDbSpline
 70
8
 71
3
 72
8
 73
4
 74
0
 40
0
 40
0
 40
0
 40
0
 40
1
 40
1
 40
1
 40
1
 10
86.018855
 20
179.428990
 30
0.0
 10
86.665615
 20
180.152917
 30
0.0
 10
87.584308
 20
180.514880
 30
0.0
 10
88.774934
 20
180.514880
 30
0.0
  0
SPLINE
  5
284
100
AcDbEntity
  8
Gravacao
 62
7
100
AcDbSpline
 70
8
 71
3
 72
8
 73
4
 74
0
 40
0
 40
0
 40
0
 40
0
 40
1
 40
1
 40
1
 40
1
 10
88.774934
 20
180.514880
 30
0.0
 10
89.932487
 20
180.514880
 30
0.0
 10
90.836481
 20
180.147403
 30
0.0
 10
91.486916
 20
179.412450
 30
0.0
  0
SPLINE
  5
285
100
AcDbEntity
  8
Gravacao
 62
7
100
AcDbSpline
 70
8
 71
3
 72
8
 73
4
 74
0
 40
0
 40
0
 40
0
 40
0
 40
1
 40
1
 40
1
 40
1
 10
91.486916
 20
179.412450
 30
0.0
 10
92.137350
 20
178.677497
 30
0.0
 10
92.462568
 20
177.663260
 30
0.0
 10
92.462568
 20
176.369740
 30
0.0
  0
LWPOLYLINE
  5
286
100
AcDbEntity
  8
Gravacao
 62
7
100
AcDbPolyline
 90
4
 70
0
 10
82.375314
 20
175.763400
 30
0.0
 10
82.375314
 20
180.388100
 30
0.0
 10
83.251747
 20
180.388100
 30
0.0
 10
83.251751
 20
172.329330
 30
0.0
  0
SPLINE
  5
287
100
AcDbEntity
  8
Gravacao
 62
7
100
AcDbSpline
 70
8
 71
3
 72
8
 73
4
 74
0
 40
0
 40
0
 40
0
 40
0
 40
1
 40
1
 40
1
 40
1
 10
86.040904
 20
176.369740
 30
0.0
 10
86.040904
 20
175.278333
 30
0.0
 10
86.272414
 20
174.449673
 30
0.0
 10
86.735436
 20
173.883760
 30
0.0
  0
SPLINE
  5
288
100
AcDbEntity
  8
Gravacao
 62
7
100
AcDbSpline
 70
8
 71
3
 72
8
 73
4
 74
0
 40
0
 40
0
 40
0
 40
0
 40
1
 40
1
 40
1
 40
1
 10
86.735436
 20
173.883760
 30
0.0
 10
87.202132
 20
173.321520
 30
0.0
 10
87.878290
 20
173.040400
 30
0.0
 10
88.763910
 20
173.040400
 30
0.0
  0
SPLINE
  5
289
100
AcDbEntity
  8
Gravacao
 62
7
100
AcDbSpline
 70
8
 71
3
 72
8
 73
4
 74
0
 40
0
 40
0
 40
0
 40
0
 40
1
 40
1
 40
1
 40
1
 10
88.763910
 20
173.040400
 30
0.0
 10
89.656879
 20
173.040400
 30
0.0
 10
90.331200
 20
173.321520
 30
0.0
 10
90.786872
 20
173.883760
 30
0.0
  0
SPLINE
  5
28a
100
AcDbEntity
  8
Gravacao
 62
7
100
AcDbSpline
 70
8
 71
3
 72
8
 73
4
 74
0
 40
0
 40
0
 40
0
 40
0
 40
1
 40
1
 40
1
 40
1
 10
90.786872
 20
173.883760
 30
0.0
 10
91.242544
 20
174.446000
 30
0.0
 10
91.470380
 20
175.274660
 30
0.0
 10
91.470380
 20
176.369740
 30
0.0
  0
SPLINE
  5
28b
100
AcDbEntity
  8
Gravacao
 62
7
100
AcDbSpline
 70
8
 71
3
 72
8
 73
4
 74
0
 40
0
 40
0
 40
0
 40
0
 40
1
 40
1
 40
1
 40
1
 10
91.470380
 20
176.369740
 30
0.0
 10
91.470380
 20
177.453800
 30
0.0
 10
91.242544
 20
178.275110
 30
0.0
 10
90.786872
 20
178.833670
 30
0.0
  0
SPLINE
  5
28c
100
AcDbEntity
  8
Gravacao
 62
7
100
AcDbSpline
 70
8
 71
3
 72
8
 73
4
 74
0
 40
0
 40
0
 40
0
 40
0
 40
1
 40
1
 40
1
 40
1
 10
90.786872
 20
178.833670
 30
0.0
 10
90.334874
 20
179.395910
 30
0.0
 10
89.664228
 20
179.677030
 30
0.0
 10
88.774934
 20
179.677030
 30
0.0
  0
SPLINE
  5
28d
100
AcDbEntity
  8
Gravacao
 62
7
100
AcDbSpline
 70
8
 71
3
 72
8
 73
4
 74
0
 40
0
 40
0
 40
0
 40
0
 40
1
 40
1
 40
1
 40
1
 10
88.774934
 20
179.677030
 30
0.0
 10
87.881964
 20
179.677030
 30
0.0
 10
87.202132
 20
179.394073
 30
0.0
 10
86.735436
 20
178.828160
 30
0.0
  0
SPLINE
  5
28e
100
AcDbEntity
  8
Gravacao
 62
7
100
AcDbSpline
 70
8
 71
3
 72
8
 73
4
 74
0
 40
0
 40
0
 40
0
 40
0
 40
1
 40
1
 40
1
 40
1
 10
86.735436
 20
178.828160
 30
0.0
 10
86.272414
 20
178.265920
 30
0.0
 10
86.040904
 20
177.446447
 30
0.0
 10
86.040904
 20
176.369740
 30
0.0
  0
LWPOLYLINE
  5
28f
100
AcDbEntity
  8
Gravacao
 62
7
100
AcDbPolyline
 90
1
 70
1
 10
92.462568
 20
176.369740
 30
0.0
  0
LWPOLYLINE
  5
290
100
AcDbEntity
  8
Gravacao
 62
7
100
AcDbPolyline
 90
1
 70
1
 10
86.040904
 20
176.369740
 30
0.0
  0
SPLINE
  5
291
100
AcDbEntity
  8
Gravacao
 62
7
100
AcDbSpline
 70
8
 71
3
 72
8
 73
4
 74
0
 40
0
 40
0
 40
0
 40
0
 40
1
 40
1
 40
1
 40
1
 10
210.661812
 20
179.092750
 30
0.0
 10
210.720612
 20
178.298997
 30
0.0
 10
210.750012
 20
177.571390
 30
0.0
 10
210.750012
 20
176.909930
 30
0.0
  0
LWPOLYLINE
  5
292
100
AcDbEntity
  8
Gravacao
 62
7
100
AcDbPolyline
 90
4
 70
0
 10
216.179482
 20
172.329330
 30
0.0
 10
215.110122
 20
172.329330
 30
0.0
 10
210.705912
 20
179.092750
 30
0.0
 10
210.661812
 20
179.092750
 30
0.0
  0
SPLINE
  5
293
100
AcDbEntity
  8
Gravacao
 62
7
100
AcDbSpline
 70
8
 71
3
 72
8
 73
4
 74
0
 40
0
 40
0
 40
0
 40
0
 40
1
 40
1
 40
1
 40
1
 10
215.380222
 20
173.652250
 30
0.0
 10
215.372888
 20
173.751463
 30
0.0
 10
215.356355
 20
174.069330
 30
0.0
 10
215.330622
 20
174.605850
 30
0.0
  0
SPLINE
  5
294
100
AcDbEntity
  8
Gravacao
 62
7
100
AcDbSpline
 70
8
 71
3
 72
8
 73
4
 74
0
 40
0
 40
0
 40
0
 40
0
 40
1
 40
1
 40
1
 40
1
 10
215.330622
 20
174.605850
 30
0.0
 10
215.304888
 20
175.146043
 30
0.0
 10
215.295688
 20
175.531893
 30
0.0
 10
215.303022
 20
175.763400
 30
0.0
  0
LWPOLYLINE
  5
295
100
AcDbEntity
  8
Gravacao
 62
7
100
AcDbPolyline
 90
7
 70
0
 10
210.750012
 20
176.909930
 30
0.0
 10
210.750012
 20
172.329330
 30
0.0
 10
209.884602
 20
172.329330
 30
0.0
 10
209.884602
 20
180.388100
 30
0.0
 10
210.942932
 20
180.388100
 30
0.0
 10
215.336122
 20
173.652250
 30
0.0
 10
215.380222
 20
173.652250
 30
0.0
  0
LWPOLYLINE
  5
296
100
AcDbEntity
  8
Gravacao
 62
7
100
AcDbPolyline
 90
4
 70
0
 10
215.303022
 20
175.763400
 30
0.0
 10
215.303022
 20
180.388100
 30
0.0
 10
216.179452
 20
180.388100
 30
0.0
 10
216.179482
 20
172.329330
 30
0.0
  0
LWPOLYLINE
  5
297
100
AcDbEntity
  8
Gravacao
 62
7
100
AcDbPolyline
 90
12
 70
1
 10
222.887782
 20
172.329330
 30
0.0
 10
218.395372
 20
172.329330
 30
0.0
 10
218.395372
 20
180.388100
 30
0.0
 10
222.887782
 20
180.388100
 30
0.0
 10
222.887782
 20
179.555770
 30
0.0
 10
219.332442
 20
179.555770
 30
0.0
 10
219.332442
 20
176.959540
 30
0.0
 10
222.672812
 20
176.959540
 30
0.0
 10
222.672812
 20
176.132720
 30
0.0
 10
219.332442
 20
176.132720
 30
0.0
 10
219.332442
 20
173.167180
 30
0.0
 10
222.887782
 20
173.167180
 30
0.0
  0
LWPOLYLINE
  5
298
100
AcDbEntity
  8
Gravacao
 62
7
100
AcDbPolyline
 90
8
 70
1
 10
227.154192
 20
172.329330
 30
0.0
 10
226.217122
 20
172.329330
 30
0.0
 10
226.217122
 20
179.555770
 30
0.0
 10
223.664992
 20
179.555770
 30
0.0
 10
223.664992
 20
180.388100
 30
0.0
 10
229.706322
 20
180.388100
 30
0.0
 10
229.706322
 20
179.555770
 30
0.0
 10
227.154192
 20
179.555770
 30
0.0
  0
SPLINE
  5
299
100
AcDbEntity
  8
Gravacao
 62
7
100
AcDbSpline
 70
8
 71
3
 72
8
 73
4
 74
0
 40
0
 40
0
 40
0
 40
0
 40
1
 40
1
 40
1
 40
1
 10
237.004422
 20
175.173600
 30
0.0
 10
237.004422
 20
174.254907
 30
0.0
 10
236.726975
 20
173.532813
 30
0.0
 10
236.172082
 20
173.007320
 30
0.0
  0
SPLINE
  5
29a
100
AcDbEntity
  8
Gravacao
 62
7
100
AcDbSpline
 70
8
 71
3
 72
8
 73
4
 74
0
 40
0
 40
0
 40
0
 40
0
 40
1
 40
1
 40
1
 40
1
 10
236.172082
 20
173.007320
 30
0.0
 10
235.617195
 20
172.481827
 30
0.0
 10
234.854682
 20
172.219080
 30
0.0
 10
233.884542
 20
172.219080
 30
0.0
  0
SPLINE
  5
29b
100
AcDbEntity
  8
Gravacao
 62
7
100
AcDbSpline
 70
8
 71
3
 72
8
 73
4
 74
0
 40
0
 40
0
 40
0
 40
0
 40
1
 40
1
 40
1
 40
1
 10
233.884542
 20
172.219080
 30
0.0
 10
232.914402
 20
172.219080
 30
0.0
 10
232.162908
 20
172.483667
 30
0.0
 10
231.630062
 20
173.012840
 30
0.0
  0
SPLINE
  5
29c
100
AcDbEntity
  8
Gravacao
 62
7
100
AcDbSpline
 70
8
 71
3
 72
8
 73
4
 74
0
 40
0
 40
0
 40
0
 40
0
 40
1
 40
1
 40
1
 40
1
 10
231.630062
 20
173.012840
 30
0.0
 10
231.100895
 20
173.542007
 30
0.0
 10
230.836312
 20
174.269610
 30
0.0
 10
230.836312
 20
175.195650
 30
0.0
  0
LWPOLYLINE
  5
29d
100
AcDbEntity
  8
Gravacao
 62
7
100
AcDbPolyline
 90
2
 70
0
 10
237.004422
 20
180.388100
 30
0.0
 10
237.004422
 20
175.173600
 30
0.0
  0
SPLINE
  5
29e
100
AcDbEntity
  8
Gravacao
 62
7
100
AcDbSpline
 70
8
 71
3
 72
8
 73
4
 74
0
 40
0
 40
0
 40
0
 40
0
 40
1
 40
1
 40
1
 40
1
 10
231.773382
 20
175.129500
 30
0.0
 10
231.773382
 20
174.457020
 30
0.0
 10
231.957122
 20
173.940717
 30
0.0
 10
232.324602
 20
173.580590
 30
0.0
  0
SPLINE
  5
29f
100
AcDbEntity
  8
Gravacao
 62
7
100
AcDbSpline
 70
8
 71
3
 72
8
 73
4
 74
0
 40
0
 40
0
 40
0
 40
0
 40
1
 40
1
 40
1
 40
1
 10
232.324602
 20
173.580590
 30
0.0
 10
232.692075
 20
173.220463
 30
0.0
 10
233.232265
 20
173.040400
 30
0.0
 10
233.945172
 20
173.040400
 30
0.0
  0
SPLINE
  5
2a0
100
AcDbEntity
  8
Gravacao
 62
7
100
AcDbSpline
 70
8
 71
3
 72
8
 73
4
 74
0
 40
0
 40
0
 40
0
 40
0
 40
1
 40
1
 40
1
 40
1
 10
233.945172
 20
173.040400
 30
0.0
 10
234.625005
 20
173.040400
 30
0.0
 10
235.148658
 20
173.220463
 30
0.0
 10
235.516132
 20
173.580590
 30
0.0
  0
SPLINE
  5
2a1
100
AcDbEntity
  8
Gravacao
 62
7
100
AcDbSpline
 70
8
 71
3
 72
8
 73
4
 74
0
 40
0
 40
0
 40
0
 40
0
 40
1
 40
1
 40
1
 40
1
 10
235.516132
 20
173.580590
 30
0.0
 10
235.883612
 20
173.944390
 30
0.0
 10
236.067352
 20
174.464370
 30
0.0
 10
236.067352
 20
175.140530
 30
0.0
  0
LWPOLYLINE
  5
2a2
100
AcDbEntity
  8
Gravacao
 62
7
100
AcDbPolyline
 90
4
 70
0
 10
230.836312
 20
175.195650
 30
0.0
 10
230.836312
 20
180.388100
 30
0.0
 10
231.773382
 20
180.388100
 30
0.0
 10
231.773382
 20
175.129500
 30
0.0
  0
LWPOLYLINE
  5
2a3
100
AcDbEntity
  8
Gravacao
 62
7
100
AcDbPolyline
 90
3
 70
0
 10
236.067352
 20
175.140530
 30
0.0
 10
236.067352
 20
180.388100
 30
0.0
 10
237.004422
 20
180.388100
 30
0.0
  0
SPLINE
  5
2a4
100
AcDbEntity
  8
Gravacao
 62
7
100
AcDbSpline
 70
8
 71
3
 72
8
 73
4
 74
0
 40
0
 40
0
 40
0
 40
0
 40
1
 40
1
 40
1
 40
1
 10
239.914832
 20
179.092750
 30
0.0
 10
239.973632
 20
178.298997
 30
0.0
 10
240.003032
 20
177.571390
 30
0.0
 10
240.003032
 20
176.909930
 30
0.0
  0
LWPOLYLINE
  5
2a5
100
AcDbEntity
  8
Gravacao
 62
7
100
AcDbPolyline
 90
4
 70
0
 10
245.432512
 20
172.329330
 30
0.0
 10
244.363152
 20
172.329330
 30
0.0
 10
239.958932
 20
179.092750
 30
0.0
 10
239.914832
 20
179.092750
 30
0.0
  0
SPLINE
  5
2a6
100
AcDbEntity
  8
Gravacao
 62
7
100
AcDbSpline
 70
8
 71
3
 72
8
 73
4
 74
0
 40
0
 40
0
 40
0
 40
0
 40
1
 40
1
 40
1
 40
1
 10
244.633252
 20
173.652250
 30
0.0
 10
244.625918
 20
173.751463
 30
0.0
 10
244.609385
 20
174.069330
 30
0.0
 10
244.583652
 20
174.605850
 30
0.0
  0
SPLINE
  5
2a7
100
AcDbEntity
  8
Gravacao
 62
7
100
AcDbSpline
 70
8
 71
3
 72
8
 73
4
 74
0
 40
0
 40
0
 40
0
 40
0
 40
1
 40
1
 40
1
 40
1
 10
244.583652
 20
174.605850
 30
0.0
 10
244.557918
 20
175.146043
 30
0.0
 10
244.548718
 20
175.531893
 30
0.0
 10
244.556052
 20
175.763400
 30
0.0
  0
LWPOLYLINE
  5
2a8
100
AcDbEntity
  8
Gravacao
 62
7
100
AcDbPolyline
 90
7
 70
0
 10
240.003032
 20
176.909930
 30
0.0
 10
240.003032
 20
172.329330
 30
0.0
 10
239.137622
 20
172.329330
 30
0.0
 10
239.137622
 20
180.388100
 30
0.0
 10
240.195962
 20
180.388100
 30
0.0
 10
244.589152
 20
173.652250
 30
0.0
 10
244.633252
 20
173.652250
 30
0.0
  0
SPLINE
  5
2a9
100
AcDbEntity
  8
Gravacao
 62
7
100
AcDbSpline
 70
8
 71
3
 72
8
 73
4
 74
0
 40
0
 40
0
 40
0
 40
0
 40
1
 40
1
 40
1
 40
1
 10
254.643322
 20
176.369740
 30
0.0
 10
254.643322
 20
175.079893
 30
0.0
 10
254.316268
 20
174.065657
 30
0.0
 10
253.662162
 20
173.327030
 30
0.0
  0
SPLINE
  5
2aa
100
AcDbEntity
  8
Gravacao
 62
7
100
AcDbSpline
 70
8
 71
3
 72
8
 73
4
 74
0
 40
0
 40
0
 40
0
 40
0
 40
1
 40
1
 40
1
 40
1
 10
253.662162
 20
173.327030
 30
0.0
 10
253.011728
 20
172.588397
 30
0.0
 10
252.105898
 20
172.219080
 30
0.0
 10
250.944672
 20
172.219080
 30
0.0
  0
SPLINE
  5
2ab
100
AcDbEntity
  8
Gravacao
 62
7
100
AcDbSpline
 70
8
 71
3
 72
8
 73
4
 74
0
 40
0
 40
0
 40
0
 40
0
 40
1
 40
1
 40
1
 40
1
 10
250.944672
 20
172.219080
 30
0.0
 10
249.757718
 20
172.219080
 30
0.0
 10
248.840862
 20
172.581047
 30
0.0
 10
248.194102
 20
173.304980
 30
0.0
  0
SPLINE
  5
2ac
100
AcDbEntity
  8
Gravacao
 62
7
100
AcDbSpline
 70
8
 71
3
 72
8
 73
4
 74
0
 40
0
 40
0
 40
0
 40
0
 40
1
 40
1
 40
1
 40
1
 10
248.194102
 20
173.304980
 30
0.0
 10
247.551015
 20
174.032587
 30
0.0
 10
247.229472
 20
175.057847
 30
0.0
 10
247.229472
 20
176.380760
 30
0.0
  0
SPLINE
  5
2ad
100
AcDbEntity
  8
Gravacao
 62
7
100
AcDbSpline
 70
8
 71
3
 72
8
 73
4
 74
0
 40
0
 40
0
 40
0
 40
0
 40
1
 40
1
 40
1
 40
1
 10
247.229472
 20
176.380760
 30
0.0
 10
247.229472
 20
177.692653
 30
0.0
 10
247.552852
 20
178.708730
 30
0.0
 10
248.199612
 20
179.428990
 30
0.0
  0
SPLINE
  5
2ae
100
AcDbEntity
  8
Gravacao
 62
7
100
AcDbSpline
 70
8
 71
3
 72
8
 73
4
 74
0
 40
0
 40
0
 40
0
 40
0
 40
1
 40
1
 40
1
 40
1
 10
248.199612
 20
179.428990
 30
0.0
 10
248.846372
 20
180.152917
 30
0.0
 10
249.765065
 20
180.514880
 30
0.0
 10
250.955692
 20
180.514880
 30
0.0
  0
SPLINE
  5
2af
100
AcDbEntity
  8
Gravacao
 62
7
100
AcDbSpline
 70
8
 71
3
 72
8
 73
4
 74
0
 40
0
 40
0
 40
0
 40
0
 40
1
 40
1
 40
1
 40
1
 10
250.955692
 20
180.514880
 30
0.0
 10
252.113245
 20
180.514880
 30
0.0
 10
253.017238
 20
180.147403
 30
0.0
 10
253.667672
 20
179.412450
 30
0.0
  0
SPLINE
  5
2b0
100
AcDbEntity
  8
Gravacao
 62
7
100
AcDbSpline
 70
8
 71
3
 72
8
 73
4
 74
0
 40
0
 40
0
 40
0
 40
0
 40
1
 40
1
 40
1
 40
1
 10
253.667672
 20
179.412450
 30
0.0
 10
254.318105
 20
178.677497
 30
0.0
 10
254.643322
 20
177.663260
 30
0.0
 10
254.643322
 20
176.369740
 30
0.0
  0
LWPOLYLINE
  5
2b1
100
AcDbEntity
  8
Gravacao
 62
7
100
AcDbPolyline
 90
4
 70
0
 10
244.556052
 20
175.763400
 30
0.0
 10
244.556052
 20
180.388100
 30
0.0
 10
245.432492
 20
180.388100
 30
0.0
 10
245.432512
 20
172.329330
 30
0.0
  0
SPLINE
  5
2b2
100
AcDbEntity
  8
Gravacao
 62
7
100
AcDbSpline
 70
8
 71
3
 72
8
 73
4
 74
0
 40
0
 40
0
 40
0
 40
0
 40
1
 40
1
 40
1
 40
1
 10
248.221662
 20
176.369740
 30
0.0
 10
248.221662
 20
175.278333
 30
0.0
 10
248.453172
 20
174.449673
 30
0.0
 10
248.916192
 20
173.883760
 30
0.0
  0
SPLINE
  5
2b3
100
AcDbEntity
  8
Gravacao
 62
7
100
AcDbSpline
 70
8
 71
3
 72
8
 73
4
 74
0
 40
0
 40
0
 40
0
 40
0
 40
1
 40
1
 40
1
 40
1
 10
248.916192
 20
173.883760
 30
0.0
 10
249.382892
 20
173.321520
 30
0.0
 10
250.059052
 20
173.040400
 30
0.0
 10
250.944672
 20
173.040400
 30
0.0
  0
SPLINE
  5
2b4
100
AcDbEntity
  8
Gravacao
 62
7
100
AcDbSpline
 70
8
 71
3
 72
8
 73
4
 74
0
 40
0
 40
0
 40
0
 40
0
 40
1
 40
1
 40
1
 40
1
 10
250.944672
 20
173.040400
 30
0.0
 10
251.837638
 20
173.040400
 30
0.0
 10
252.511958
 20
173.321520
 30
0.0
 10
252.967632
 20
173.883760
 30
0.0
  0
SPLINE
  5
2b5
100
AcDbEntity
  8
Gravacao
 62
7
100
AcDbSpline
 70
8
 71
3
 72
8
 73
4
 74
0
 40
0
 40
0
 40
0
 40
0
 40
1
 40
1
 40
1
 40
1
 10
252.967632
 20
173.883760
 30
0.0
 10
253.423305
 20
174.446000
 30
0.0
 10
253.651142
 20
175.274660
 30
0.0
 10
253.651142
 20
176.369740
 30
0.0
  0
SPLINE
  5
2b6
100
AcDbEntity
  8
Gravacao
 62
7
100
AcDbSpline
 70
8
 71
3
 72
8
 73
4
 74
0
 40
0
 40
0
 40
0
 40
0
 40
1
 40
1
 40
1
 40
1
 10
253.651142
 20
176.369740
 30
0.0
 10
253.651142
 20
177.453800
 30
0.0
 10
253.423305
 20
178.275110
 30
0.0
 10
252.967632
 20
178.833670
 30
0.0
  0
SPLINE
  5
2b7
100
AcDbEntity
  8
Gravacao
 62
7
100
AcDbSpline
 70
8
 71
3
 72
8
 73
4
 74
0
 40
0
 40
0
 40
0
 40
0
 40
1
 40
1
 40
1
 40
1
 10
252.967632
 20
178.833670
 30
0.0
 10
252.515632
 20
179.395910
 30
0.0
 10
251.844985
 20
179.677030
 30
0.0
 10
250.955692
 20
179.677030
 30
0.0
  0
SPLINE
  5
2b8
100
AcDbEntity
  8
Gravacao
 62
7
100
AcDbSpline
 70
8
 71
3
 72
8
 73
4
 74
0
 40
0
 40
0
 40
0
 40
0
 40
1
 40
1
 40
1
 40
1
 10
250.955692
 20
179.677030
 30
0.0
 10
250.062725
 20
179.677030
 30
0.0
 10
249.382892
 20
179.394073
 30
0.0
 10
248.916192
 20
178.828160
 30
0.0
  0
SPLINE
  5
2b9
100
AcDbEntity
  8
Gravacao
 62
7
100
AcDbSpline
 70
8
 71
3
 72
8
 73
4
 74
0
 40
0
 40
0
 40
0
 40
0
 40
1
 40
1
 40
1
 40
1
 10
248.916192
 20
178.828160
 30
0.0
 10
248.453172
 20
178.265920
 30
0.0
 10
248.221662
 20
177.446447
 30
0.0
 10
248.221662
 20
176.369740
 30
0.0
  0
LWPOLYLINE
  5
2ba
100
AcDbEntity
  8
Gravacao
 62
7
100
AcDbPolyline
 90
1
 70
1
 10
254.643322
 20
176.369740
 30
0.0
  0
LWPOLYLINE
  5
2bb
100
AcDbEntity
  8
Gravacao
 62
7
100
AcDbPolyline
 90
1
 70
1
 10
248.221662
 20
176.369740
 30
0.0
  0
LWPOLYLINE
  5
2bc
100
AcDbEntity
  8
Gravacao
 62
7
100
AcDbPolyline
 90
8
 70
1
 10
35.233711
 20
118.431281
 30
0.0
 10
34.296645
 20
118.431281
 30
0.0
 10
34.296645
 20
125.657731
 30
0.0
 10
31.744520
 20
125.657731
 30
0.0
 10
31.744520
 20
126.490056
 30
0.0
 10
37.785836
 20
126.490056
 30
0.0
 10
37.785836
 20
125.657731
 30
0.0
 10
35.233711
 20
125.657731
 30
0.0
  0
LWPOLYLINE
  5
2bd
100
AcDbEntity
  8
Gravacao
 62
7
100
AcDbPolyline
 90
12
 70
1
 10
43.490910
 20
118.431281
 30
0.0
 10
38.998507
 20
118.431281
 30
0.0
 10
38.998507
 20
126.490056
 30
0.0
 10
43.490910
 20
126.490056
 30
0.0
 10
43.490910
 20
125.657731
 30
0.0
 10
39.935573
 20
125.657731
 30
0.0
 10
39.935573
 20
123.061510
 30
0.0
 10
43.275936
 20
123.061510
 30
0.0
 10
43.275936
 20
122.234688
 30
0.0
 10
39.935573
 20
122.234688
 30
0.0
 10
39.935573
 20
119.269136
 30
0.0
 10
43.490910
 20
119.269136
 30
0.0
  0
SPLINE
  5
2be
100
AcDbEntity
  8
Gravacao
 62
7
100
AcDbSpline
 70
8
 71
3
 72
8
 73
4
 74
0
 40
0
 40
0
 40
0
 40
0
 40
1
 40
1
 40
1
 40
1
 10
47.487219
 20
126.490056
 30
0.0
 10
48.475731
 20
126.490056
 30
0.0
 10
49.205172
 20
126.300809
 30
0.0
 10
49.675542
 20
125.922314
 30
0.0
  0
SPLINE
  5
2bf
100
AcDbEntity
  8
Gravacao
 62
7
100
AcDbSpline
 70
8
 71
3
 72
8
 73
4
 74
0
 40
0
 40
0
 40
0
 40
0
 40
1
 40
1
 40
1
 40
1
 10
49.675542
 20
125.922314
 30
0.0
 10
50.149587
 20
125.543801
 30
0.0
 10
50.386609
 20
124.974207
 30
0.0
 10
50.386609
 20
124.213531
 30
0.0
  0
SPLINE
  5
2c0
100
AcDbEntity
  8
Gravacao
 62
7
100
AcDbSpline
 70
8
 71
3
 72
8
 73
4
 74
0
 40
0
 40
0
 40
0
 40
0
 40
1
 40
1
 40
1
 40
1
 10
50.386609
 20
124.213531
 30
0.0
 10
50.386609
 20
123.147861
 30
0.0
 10
49.846419
 20
122.427613
 30
0.0
 10
48.766038
 20
122.052787
 30
0.0
  0
LWPOLYLINE
  5
2c1
100
AcDbEntity
  8
Gravacao
 62
7
100
AcDbPolyline
 90
5
 70
0
 10
46.213913
 20
121.782675
 30
0.0
 10
46.213913
 20
118.431281
 30
0.0
 10
45.276847
 20
118.431281
 30
0.0
 10
45.276847
 20
126.490056
 30
0.0
 10
47.487219
 20
126.490056
 30
0.0
  0
LWPOLYLINE
  5
2c2
100
AcDbEntity
  8
Gravacao
 62
7
100
AcDbPolyline
 90
5
 70
0
 10
48.766038
 20
122.052787
 30
0.0
 10
50.954362
 20
118.431281
 30
0.0
 10
49.846421
 20
118.431281
 30
0.0
 10
47.895118
 20
121.782675
 30
0.0
 10
46.213913
 20
121.782675
 30
0.0
  0
SPLINE
  5
2c3
100
AcDbEntity
  8
Gravacao
 62
7
100
AcDbSpline
 70
8
 71
3
 72
8
 73
4
 74
0
 40
0
 40
0
 40
0
 40
0
 40
1
 40
1
 40
1
 40
1
 10
47.498244
 20
122.587457
 30
0.0
 10
48.159701
 20
122.587457
 30
0.0
 10
48.644770
 20
122.717914
 30
0.0
 10
48.953450
 20
122.978828
 30
0.0
  0
SPLINE
  5
2c4
100
AcDbEntity
  8
Gravacao
 62
7
100
AcDbSpline
 70
8
 71
3
 72
8
 73
4
 74
0
 40
0
 40
0
 40
0
 40
0
 40
1
 40
1
 40
1
 40
1
 10
48.953450
 20
122.978828
 30
0.0
 10
49.262131
 20
123.243411
 30
0.0
 10
49.416471
 20
123.638442
 30
0.0
 10
49.416471
 20
124.163922
 30
0.0
  0
SPLINE
  5
2c5
100
AcDbEntity
  8
Gravacao
 62
7
100
AcDbSpline
 70
8
 71
3
 72
8
 73
4
 74
0
 40
0
 40
0
 40
0
 40
0
 40
1
 40
1
 40
1
 40
1
 10
49.416471
 20
124.163922
 30
0.0
 10
49.416471
 20
124.696774
 30
0.0
 10
49.258456
 20
125.080790
 30
0.0
 10
48.942428
 20
125.315969
 30
0.0
  0
SPLINE
  5
2c6
100
AcDbEntity
  8
Gravacao
 62
7
100
AcDbSpline
 70
8
 71
3
 72
8
 73
4
 74
0
 40
0
 40
0
 40
0
 40
0
 40
1
 40
1
 40
1
 40
1
 10
48.942428
 20
125.315969
 30
0.0
 10
48.630072
 20
125.551148
 30
0.0
 10
48.126629
 20
125.668738
 30
0.0
 10
47.432098
 20
125.668738
 30
0.0
  0
LWPOLYLINE
  5
2c7
100
AcDbEntity
  8
Gravacao
 62
7
100
AcDbPolyline
 90
2
 70
0
 10
46.213913
 20
122.587457
 30
0.0
 10
47.498244
 20
122.587457
 30
0.0
  0
LWPOLYLINE
  5
2c8
100
AcDbEntity
  8
Gravacao
 62
7
100
AcDbPolyline
 90
3
 70
0
 10
47.432098
 20
125.668738
 30
0.0
 10
46.213913
 20
125.668738
 30
0.0
 10
46.213913
 20
122.587457
 30
0.0
  0
SPLINE
  5
2c9
100
AcDbEntity
  8
Gravacao
 62
7
100
AcDbSpline
 70
8
 71
3
 72
8
 73
4
 74
0
 40
0
 40
0
 40
0
 40
0
 40
1
 40
1
 40
1
 40
1
 10
54.465601
 20
126.490056
 30
0.0
 10
55.454113
 20
126.490056
 30
0.0
 10
56.183554
 20
126.300809
 30
0.0
 10
56.653924
 20
125.922314
 30
0.0
  0
SPLINE
  5
2ca
100
AcDbEntity
  8
Gravacao
 62
7
100
AcDbSpline
 70
8
 71
3
 72
8
 73
4
 74
0
 40
0
 40
0
 40
0
 40
0
 40
1
 40
1
 40
1
 40
1
 10
56.653924
 20
125.922314
 30
0.0
 10
57.127969
 20
125.543801
 30
0.0
 10
57.364991
 20
124.974207
 30
0.0
 10
57.364991
 20
124.213531
 30
0.0
  0
SPLINE
  5
2cb
100
AcDbEntity
  8
Gravacao
 62
7
100
AcDbSpline
 70
8
 71
3
 72
8
 73
4
 74
0
 40
0
 40
0
 40
0
 40
0
 40
1
 40
1
 40
1
 40
1
 10
57.364991
 20
124.213531
 30
0.0
 10
57.364991
 20
123.147861
 30
0.0
 10
56.824801
 20
122.427613
 30
0.0
 10
55.744420
 20
122.052787
 30
0.0
  0
LWPOLYLINE
  5
2cc
100
AcDbEntity
  8
Gravacao
 62
7
100
AcDbPolyline
 90
5
 70
0
 10
53.192295
 20
121.782675
 30
0.0
 10
53.192295
 20
118.431281
 30
0.0
 10
52.255229
 20
118.431281
 30
0.0
 10
52.255229
 20
126.490056
 30
0.0
 10
54.465601
 20
126.490056
 30
0.0
  0
LWPOLYLINE
  5
2cd
100
AcDbEntity
  8
Gravacao
 62
7
100
AcDbPolyline
 90
5
 70
0
 10
55.744420
 20
122.052787
 30
0.0
 10
57.932744
 20
118.431281
 30
0.0
 10
56.824800
 20
118.431281
 30
0.0
 10
54.873500
 20
121.782675
 30
0.0
 10
53.192295
 20
121.782675
 30
0.0
  0
SPLINE
  5
2ce
100
AcDbEntity
  8
Gravacao
 62
7
100
AcDbSpline
 70
8
 71
3
 72
8
 73
4
 74
0
 40
0
 40
0
 40
0
 40
0
 40
1
 40
1
 40
1
 40
1
 10
54.476626
 20
122.587457
 30
0.0
 10
55.138083
 20
122.587457
 30
0.0
 10
55.623152
 20
122.717914
 30
0.0
 10
55.931832
 20
122.978828
 30
0.0
  0
SPLINE
  5
2cf
100
AcDbEntity
  8
Gravacao
 62
7
100
AcDbSpline
 70
8
 71
3
 72
8
 73
4
 74
0
 40
0
 40
0
 40
0
 40
0
 40
1
 40
1
 40
1
 40
1
 10
55.931832
 20
122.978828
 30
0.0
 10
56.240513
 20
123.243411
 30
0.0
 10
56.394853
 20
123.638442
 30
0.0
 10
56.394853
 20
124.163922
 30
0.0
  0
SPLINE
  5
2d0
100
AcDbEntity
  8
Gravacao
 62
7
100
AcDbSpline
 70
8
 71
3
 72
8
 73
4
 74
0
 40
0
 40
0
 40
0
 40
0
 40
1
 40
1
 40
1
 40
1
 10
56.394853
 20
124.163922
 30
0.0
 10
56.394853
 20
124.696774
 30
0.0
 10
56.236838
 20
125.080790
 30
0.0
 10
55.920810
 20
125.315969
 30
0.0
  0
SPLINE
  5
2d1
100
AcDbEntity
  8
Gravacao
 62
7
100
AcDbSpline
 70
8
 71
3
 72
8
 73
4
 74
0
 40
0
 40
0
 40
0
 40
0
 40
1
 40
1
 40
1
 40
1
 10
55.920810
 20
125.315969
 30
0.0
 10
55.608454
 20
125.551148
 30
0.0
 10
55.105011
 20
125.668738
 30
0.0
 10
54.410480
 20
125.668738
 30
0.0
  0
LWPOLYLINE
  5
2d2
100
AcDbEntity
  8
Gravacao
 62
7
100
AcDbPolyline
 90
2
 70
0
 10
53.192295
 20
122.587457
 30
0.0
 10
54.476626
 20
122.587457
 30
0.0
  0
LWPOLYLINE
  5
2d3
100
AcDbEntity
  8
Gravacao
 62
7
100
AcDbPolyline
 90
3
 70
0
 10
54.410480
 20
125.668738
 30
0.0
 10
53.192295
 20
125.668738
 30
0.0
 10
53.192295
 20
122.587457
 30
0.0
  0
LWPOLYLINE
  5
2d4
100
AcDbEntity
  8
Gravacao
 62
7
100
AcDbPolyline
 90
8
 70
1
 10
64.299275
 20
118.431281
 30
0.0
 10
63.296064
 20
120.994455
 30
0.0
 10
60.065944
 20
120.994455
 30
0.0
 10
59.073758
 20
118.431281
 30
0.0
 10
58.125667
 20
118.431281
 30
0.0
 10
61.311691
 20
126.523129
 30
0.0
 10
62.099926
 20
126.523129
 30
0.0
 10
65.269414
 20
118.431281
 30
0.0
  0
SPLINE
  5
2d5
100
AcDbEntity
  8
Gravacao
 62
7
100
AcDbSpline
 70
8
 71
3
 72
8
 73
4
 74
0
 40
0
 40
0
 40
0
 40
0
 40
1
 40
1
 40
1
 40
1
 10
62.066853
 20
124.334816
 30
0.0
 10
61.945586
 20
124.650834
 30
0.0
 10
61.820645
 20
125.038518
 30
0.0
 10
61.692029
 20
125.497870
 30
0.0
  0
SPLINE
  5
2d6
100
AcDbEntity
  8
Gravacao
 62
7
100
AcDbSpline
 70
8
 71
3
 72
8
 73
4
 74
0
 40
0
 40
0
 40
0
 40
0
 40
1
 40
1
 40
1
 40
1
 10
61.692029
 20
125.497870
 30
0.0
 10
61.611183
 20
125.145092
 30
0.0
 10
61.495428
 20
124.757408
 30
0.0
 10
61.344764
 20
124.334816
 30
0.0
  0
LWPOLYLINE
  5
2d7
100
AcDbEntity
  8
Gravacao
 62
7
100
AcDbPolyline
 90
2
 70
0
 10
63.003919
 20
121.837814
 30
0.0
 10
62.066853
 20
124.334816
 30
0.0
  0
LWPOLYLINE
  5
2d8
100
AcDbEntity
  8
Gravacao
 62
7
100
AcDbPolyline
 90
3
 70
0
 10
61.344764
 20
124.334816
 30
0.0
 10
60.396673
 20
121.837814
 30
0.0
 10
63.003919
 20
121.837814
 30
0.0
  0
SPLINE
  5
2d9
100
AcDbEntity
  8
Gravacao
 62
7
100
AcDbSpline
 70
8
 71
3
 72
8
 73
4
 74
0
 40
0
 40
0
 40
0
 40
0
 40
1
 40
1
 40
1
 40
1
 10
133.332920
 20
120.120685
 30
0.0
 10
133.546057
 20
119.521704
 30
0.0
 10
133.715096
 20
118.939251
 30
0.0
 10
133.840038
 20
118.373326
 30
0.0
  0
SPLINE
  5
2da
100
AcDbEntity
  8
Gravacao
 62
7
100
AcDbSpline
 70
8
 71
3
 72
8
 73
4
 74
0
 40
0
 40
0
 40
0
 40
0
 40
1
 40
1
 40
1
 40
1
 10
133.840038
 20
118.373326
 30
0.0
 10
133.972329
 20
118.968655
 30
0.0
 10
134.145043
 20
119.562133
 30
0.0
 10
134.358179
 20
120.153758
 30
0.0
  0
LWPOLYLINE
  5
2db
100
AcDbEntity
  8
Gravacao
 62
7
100
AcDbPolyline
 90
7
 70
0
 10
136.199237
 20
125.335193
 30
0.0
 10
137.207963
 20
125.335193
 30
0.0
 10
134.303058
 20
117.276418
 30
0.0
 10
133.377018
 20
117.276418
 30
0.0
 10
130.488650
 20
125.335193
 30
0.0
 10
131.480839
 20
125.335193
 30
0.0
 10
133.332920
 20
120.120685
 30
0.0
  0
LWPOLYLINE
  5
2dc
100
AcDbEntity
  8
Gravacao
 62
7
100
AcDbPolyline
 90
2
 70
0
 10
134.358179
 20
120.153758
 30
0.0
 10
136.199237
 20
125.335193
 30
0.0
  0
SPLINE
  5
2dd
100
AcDbEntity
  8
Gravacao
 62
7
100
AcDbSpline
 70
8
 71
3
 72
8
 73
4
 74
0
 40
0
 40
0
 40
0
 40
0
 40
1
 40
1
 40
1
 40
1
 10
138.657658
 20
126.106875
 30
0.0
 10
139.124352
 20
126.606655
 30
0.0
 10
139.451406
 20
126.974134
 30
0.0
 10
139.638819
 20
127.209313
 30
0.0
  0
SPLINE
  5
2de
100
AcDbEntity
  8
Gravacao
 62
7
100
AcDbSpline
 70
8
 71
3
 72
8
 73
4
 74
0
 40
0
 40
0
 40
0
 40
0
 40
1
 40
1
 40
1
 40
1
 10
139.638819
 20
127.209313
 30
0.0
 10
139.826232
 20
127.444492
 30
0.0
 10
139.962198
 20
127.637418
 30
0.0
 10
140.046718
 20
127.788089
 30
0.0
  0
LWPOLYLINE
  5
2df
100
AcDbEntity
  8
Gravacao
 62
7
100
AcDbPolyline
 90
12
 70
1
 10
142.808306
 20
117.276418
 30
0.0
 10
138.315904
 20
117.276418
 30
0.0
 10
138.315904
 20
125.335193
 30
0.0
 10
142.808306
 20
125.335193
 30
0.0
 10
142.808306
 20
124.502841
 30
0.0
 10
139.252969
 20
124.502841
 30
0.0
 10
139.252969
 20
121.906620
 30
0.0
 10
142.593333
 20
121.906620
 30
0.0
 10
142.593333
 20
121.079798
 30
0.0
 10
139.252969
 20
121.079798
 30
0.0
 10
139.252969
 20
118.114273
 30
0.0
 10
142.808306
 20
118.114273
 30
0.0
  0
SPLINE
  5
2e0
100
AcDbEntity
  8
Gravacao
 62
7
100
AcDbSpline
 70
8
 71
3
 72
8
 73
4
 74
0
 40
0
 40
0
 40
0
 40
0
 40
1
 40
1
 40
1
 40
1
 10
140.961736
 20
127.788089
 30
0.0
 10
141.042581
 20
127.633749
 30
0.0
 10
141.182221
 20
127.433477
 30
0.0
 10
141.380659
 20
127.187274
 30
0.0
  0
SPLINE
  5
2e1
100
AcDbEntity
  8
Gravacao
 62
7
100
AcDbSpline
 70
8
 71
3
 72
8
 73
4
 74
0
 40
0
 40
0
 40
0
 40
0
 40
1
 40
1
 40
1
 40
1
 10
141.380659
 20
127.187274
 30
0.0
 10
141.582772
 20
126.944739
 30
0.0
 10
141.913501
 20
126.584606
 30
0.0
 10
142.372845
 20
126.106875
 30
0.0
  0
LWPOLYLINE
  5
2e2
100
AcDbEntity
  8
Gravacao
 62
7
100
AcDbPolyline
 90
2
 70
0
 10
140.046718
 20
127.788089
 30
0.0
 10
140.961736
 20
127.788089
 30
0.0
  0
SPLINE
  5
2e3
100
AcDbEntity
  8
Gravacao
 62
7
100
AcDbSpline
 70
8
 71
3
 72
8
 73
4
 74
0
 40
0
 40
0
 40
0
 40
0
 40
1
 40
1
 40
1
 40
1
 10
141.716901
 20
125.980114
 30
0.0
 10
141.393521
 20
126.182220
 30
0.0
 10
140.987459
 20
126.523973
 30
0.0
 10
140.498716
 20
127.005373
 30
0.0
  0
SPLINE
  5
2e4
100
AcDbEntity
  8
Gravacao
 62
7
100
AcDbSpline
 70
8
 71
3
 72
8
 73
4
 74
0
 40
0
 40
0
 40
0
 40
0
 40
1
 40
1
 40
1
 40
1
 10
140.498716
 20
127.005373
 30
0.0
 10
139.998947
 20
126.512949
 30
0.0
 10
139.596560
 20
126.171196
 30
0.0
 10
139.291554
 20
125.980114
 30
0.0
  0
LWPOLYLINE
  5
2e5
100
AcDbEntity
  8
Gravacao
 62
7
100
AcDbPolyline
 90
3
 70
0
 10
142.372845
 20
126.106875
 30
0.0
 10
142.372845
 20
125.980114
 30
0.0
 10
141.716901
 20
125.980114
 30
0.0
  0
LWPOLYLINE
  5
2e6
100
AcDbEntity
  8
Gravacao
 62
7
100
AcDbPolyline
 90
3
 70
0
 10
139.291554
 20
125.980114
 30
0.0
 10
138.657658
 20
125.980114
 30
0.0
 10
138.657658
 20
126.106875
 30
0.0
  0
SPLINE
  5
2e7
100
AcDbEntity
  8
Gravacao
 62
7
100
AcDbSpline
 70
8
 71
3
 72
8
 73
4
 74
0
 40
0
 40
0
 40
0
 40
0
 40
1
 40
1
 40
1
 40
1
 10
145.371457
 20
124.039821
 30
0.0
 10
145.430252
 20
123.246072
 30
0.0
 10
145.459650
 20
122.518468
 30
0.0
 10
145.459650
 20
121.857011
 30
0.0
  0
LWPOLYLINE
  5
2e8
100
AcDbEntity
  8
Gravacao
 62
7
100
AcDbPolyline
 90
4
 70
0
 10
150.889118
 20
117.276418
 30
0.0
 10
149.819761
 20
117.276418
 30
0.0
 10
145.415552
 20
124.039821
 30
0.0
 10
145.371457
 20
124.039821
 30
0.0
  0
SPLINE
  5
2e9
100
AcDbEntity
  8
Gravacao
 62
7
100
AcDbSpline
 70
8
 71
3
 72
8
 73
4
 74
0
 40
0
 40
0
 40
0
 40
0
 40
1
 40
1
 40
1
 40
1
 10
150.089855
 20
118.599333
 30
0.0
 10
150.082500
 20
118.698551
 30
0.0
 10
150.065963
 20
119.016421
 30
0.0
 10
150.040246
 20
119.552943
 30
0.0
  0
SPLINE
  5
2ea
100
AcDbEntity
  8
Gravacao
 62
7
100
AcDbSpline
 70
8
 71
3
 72
8
 73
4
 74
0
 40
0
 40
0
 40
0
 40
0
 40
1
 40
1
 40
1
 40
1
 10
150.040246
 20
119.552943
 30
0.0
 10
150.014523
 20
120.093133
 30
0.0
 10
150.005337
 20
120.478983
 30
0.0
 10
150.012687
 20
120.710493
 30
0.0
  0
LWPOLYLINE
  5
2eb
100
AcDbEntity
  8
Gravacao
 62
7
100
AcDbPolyline
 90
7
 70
0
 10
145.459650
 20
121.857011
 30
0.0
 10
145.459650
 20
117.276418
 30
0.0
 10
144.594244
 20
117.276418
 30
0.0
 10
144.594244
 20
125.335193
 30
0.0
 10
145.652576
 20
125.335193
 30
0.0
 10
150.045760
 20
118.599333
 30
0.0
 10
150.089855
 20
118.599333
 30
0.0
  0
LWPOLYLINE
  5
2ec
100
AcDbEntity
  8
Gravacao
 62
7
100
AcDbPolyline
 90
4
 70
0
 10
150.012687
 20
120.710493
 30
0.0
 10
150.012687
 20
125.335193
 30
0.0
 10
150.889118
 20
125.335193
 30
0.0
 10
150.889118
 20
117.276418
 30
0.0
  0
SPLINE
  5
2ed
100
AcDbEntity
  8
Gravacao
 62
7
100
AcDbSpline
 70
8
 71
3
 72
8
 73
4
 74
0
 40
0
 40
0
 40
0
 40
0
 40
1
 40
1
 40
1
 40
1
 10
159.190418
 20
120.120685
 30
0.0
 10
159.190418
 20
119.202000
 30
0.0
 10
158.912972
 20
118.479909
 30
0.0
 10
158.358082
 20
117.954412
 30
0.0
  0
SPLINE
  5
2ee
100
AcDbEntity
  8
Gravacao
 62
7
100
AcDbSpline
 70
8
 71
3
 72
8
 73
4
 74
0
 40
0
 40
0
 40
0
 40
0
 40
1
 40
1
 40
1
 40
1
 10
158.358082
 20
117.954412
 30
0.0
 10
157.803193
 20
117.428915
 30
0.0
 10
157.040679
 20
117.166166
 30
0.0
 10
156.070540
 20
117.166166
 30
0.0
  0
SPLINE
  5
2ef
100
AcDbEntity
  8
Gravacao
 62
7
100
AcDbSpline
 70
8
 71
3
 72
8
 73
4
 74
0
 40
0
 40
0
 40
0
 40
0
 40
1
 40
1
 40
1
 40
1
 10
156.070540
 20
117.166166
 30
0.0
 10
155.100402
 20
117.166166
 30
0.0
 10
154.348912
 20
117.430749
 30
0.0
 10
153.816070
 20
117.959915
 30
0.0
  0
SPLINE
  5
2f0
100
AcDbEntity
  8
Gravacao
 62
7
100
AcDbSpline
 70
8
 71
3
 72
8
 73
4
 74
0
 40
0
 40
0
 40
0
 40
0
 40
1
 40
1
 40
1
 40
1
 10
153.816070
 20
117.959915
 30
0.0
 10
153.286904
 20
118.489081
 30
0.0
 10
153.022321
 20
119.216693
 30
0.0
 10
153.022321
 20
120.142751
 30
0.0
  0
LWPOLYLINE
  5
2f1
100
AcDbEntity
  8
Gravacao
 62
7
100
AcDbPolyline
 90
2
 70
0
 10
159.190418
 20
125.335193
 30
0.0
 10
159.190418
 20
120.120685
 30
0.0
  0
SPLINE
  5
2f2
100
AcDbEntity
  8
Gravacao
 62
7
100
AcDbSpline
 70
8
 71
3
 72
8
 73
4
 74
0
 40
0
 40
0
 40
0
 40
0
 40
1
 40
1
 40
1
 40
1
 10
153.959387
 20
120.076606
 30
0.0
 10
153.959387
 20
119.404124
 30
0.0
 10
154.143125
 20
118.887816
 30
0.0
 10
154.510601
 20
118.527684
 30
0.0
  0
SPLINE
  5
2f3
100
AcDbEntity
  8
Gravacao
 62
7
100
AcDbSpline
 70
8
 71
3
 72
8
 73
4
 74
0
 40
0
 40
0
 40
0
 40
0
 40
1
 40
1
 40
1
 40
1
 10
154.510601
 20
118.527684
 30
0.0
 10
154.878078
 20
118.167551
 30
0.0
 10
155.418269
 20
117.987485
 30
0.0
 10
156.131174
 20
117.987485
 30
0.0
  0
SPLINE
  5
2f4
100
AcDbEntity
  8
Gravacao
 62
7
100
AcDbSpline
 70
8
 71
3
 72
8
 73
4
 74
0
 40
0
 40
0
 40
0
 40
0
 40
1
 40
1
 40
1
 40
1
 10
156.131174
 20
117.987485
 30
0.0
 10
156.811006
 20
117.987485
 30
0.0
 10
157.334660
 20
118.167551
 30
0.0
 10
157.702136
 20
118.527684
 30
0.0
  0
SPLINE
  5
2f5
100
AcDbEntity
  8
Gravacao
 62
7
100
AcDbSpline
 70
8
 71
3
 72
8
 73
4
 74
0
 40
0
 40
0
 40
0
 40
0
 40
1
 40
1
 40
1
 40
1
 10
157.702136
 20
118.527684
 30
0.0
 10
158.069613
 20
118.891485
 30
0.0
 10
158.253352
 20
119.411461
 30
0.0
 10
158.253352
 20
120.087612
 30
0.0
  0
LWPOLYLINE
  5
2f6
100
AcDbEntity
  8
Gravacao
 62
7
100
AcDbPolyline
 90
4
 70
0
 10
153.022321
 20
120.142751
 30
0.0
 10
153.022321
 20
125.335193
 30
0.0
 10
153.959387
 20
125.335193
 30
0.0
 10
153.959387
 20
120.076606
 30
0.0
  0
SPLINE
  5
2f7
100
AcDbEntity
  8
Gravacao
 62
7
100
AcDbSpline
 70
8
 71
3
 72
8
 73
4
 74
0
 40
0
 40
0
 40
0
 40
0
 40
1
 40
1
 40
1
 40
1
 10
165.871141
 20
119.420651
 30
0.0
 10
165.871141
 20
118.711410
 30
0.0
 10
165.613907
 20
118.158352
 30
0.0
 10
165.099440
 20
117.761478
 30
0.0
  0
SPLINE
  5
2f8
100
AcDbEntity
  8
Gravacao
 62
7
100
AcDbSpline
 70
8
 71
3
 72
8
 73
4
 74
0
 40
0
 40
0
 40
0
 40
0
 40
1
 40
1
 40
1
 40
1
 10
165.099440
 20
117.761478
 30
0.0
 10
164.584972
 20
117.364603
 30
0.0
 10
163.886767
 20
117.166166
 30
0.0
 10
163.004824
 20
117.166166
 30
0.0
  0
SPLINE
  5
2f9
100
AcDbEntity
  8
Gravacao
 62
7
100
AcDbSpline
 70
8
 71
3
 72
8
 73
4
 74
0
 40
0
 40
0
 40
0
 40
0
 40
1
 40
1
 40
1
 40
1
 10
163.004824
 20
117.166166
 30
0.0
 10
162.049384
 20
117.166166
 30
0.0
 10
161.314431
 20
117.289277
 30
0.0
 10
160.799963
 20
117.535497
 30
0.0
  0
LWPOLYLINE
  5
2fa
100
AcDbEntity
  8
Gravacao
 62
7
100
AcDbPolyline
 90
3
 70
0
 10
158.253352
 20
120.087612
 30
0.0
 10
158.253352
 20
125.335193
 30
0.0
 10
159.190418
 20
125.335193
 30
0.0
  0
SPLINE
  5
2fb
100
AcDbEntity
  8
Gravacao
 62
7
100
AcDbSpline
 70
8
 71
3
 72
8
 73
4
 74
0
 40
0
 40
0
 40
0
 40
0
 40
1
 40
1
 40
1
 40
1
 10
160.799963
 20
118.439472
 30
0.0
 10
161.130692
 20
118.299842
 30
0.0
 10
161.490819
 20
118.189600
 30
0.0
 10
161.880343
 20
118.108743
 30
0.0
  0
SPLINE
  5
2fc
100
AcDbEntity
  8
Gravacao
 62
7
100
AcDbSpline
 70
8
 71
3
 72
8
 73
4
 74
0
 40
0
 40
0
 40
0
 40
0
 40
1
 40
1
 40
1
 40
1
 10
161.880343
 20
118.108743
 30
0.0
 10
162.269869
 20
118.027904
 30
0.0
 10
162.655720
 20
117.987485
 30
0.0
 10
163.037896
 20
117.987485
 30
0.0
  0
SPLINE
  5
2fd
100
AcDbEntity
  8
Gravacao
 62
7
100
AcDbSpline
 70
8
 71
3
 72
8
 73
4
 74
0
 40
0
 40
0
 40
0
 40
0
 40
1
 40
1
 40
1
 40
1
 10
163.037896
 20
117.987485
 30
0.0
 10
163.662607
 20
117.987485
 30
0.0
 10
164.132976
 20
118.105074
 30
0.0
 10
164.449005
 20
118.340253
 30
0.0
  0
SPLINE
  5
2fe
100
AcDbEntity
  8
Gravacao
 62
7
100
AcDbSpline
 70
8
 71
3
 72
8
 73
4
 74
0
 40
0
 40
0
 40
0
 40
0
 40
1
 40
1
 40
1
 40
1
 10
164.449005
 20
118.340253
 30
0.0
 10
164.765035
 20
118.579119
 30
0.0
 10
164.923050
 20
118.909856
 30
0.0
 10
164.923050
 20
119.332466
 30
0.0
  0
SPLINE
  5
2ff
100
AcDbEntity
  8
Gravacao
 62
7
100
AcDbSpline
 70
8
 71
3
 72
8
 73
4
 74
0
 40
0
 40
0
 40
0
 40
0
 40
1
 40
1
 40
1
 40
1
 10
164.923050
 20
119.332466
 30
0.0
 10
164.923050
 20
119.611742
 30
0.0
 10
164.866092
 20
119.839574
 30
0.0
 10
164.752175
 20
120.015963
 30
0.0
  0
SPLINE
  5
300
100
AcDbEntity
  8
Gravacao
 62
7
100
AcDbSpline
 70
8
 71
3
 72
8
 73
4
 74
0
 40
0
 40
0
 40
0
 40
0
 40
1
 40
1
 40
1
 40
1
 10
164.752175
 20
120.015963
 30
0.0
 10
164.641932
 20
120.196021
 30
0.0
 10
164.454519
 20
120.361385
 30
0.0
 10
164.189936
 20
120.512056
 30
0.0
  0
SPLINE
  5
301
100
AcDbEntity
  8
Gravacao
 62
7
100
AcDbSpline
 70
8
 71
3
 72
8
 73
4
 74
0
 40
0
 40
0
 40
0
 40
0
 40
1
 40
1
 40
1
 40
1
 10
164.189936
 20
120.512056
 30
0.0
 10
163.929027
 20
120.662727
 30
0.0
 10
163.530314
 20
120.833604
 30
0.0
 10
162.993798
 20
121.024686
 30
0.0
  0
SPLINE
  5
302
100
AcDbEntity
  8
Gravacao
 62
7
100
AcDbSpline
 70
8
 71
3
 72
8
 73
4
 74
0
 40
0
 40
0
 40
0
 40
0
 40
1
 40
1
 40
1
 40
1
 10
162.993798
 20
121.024686
 30
0.0
 10
162.244147
 20
121.292938
 30
0.0
 10
161.707630
 20
121.610808
 30
0.0
 10
161.384250
 20
121.978296
 30
0.0
  0
SPLINE
  5
303
100
AcDbEntity
  8
Gravacao
 62
7
100
AcDbSpline
 70
8
 71
3
 72
8
 73
4
 74
0
 40
0
 40
0
 40
0
 40
0
 40
1
 40
1
 40
1
 40
1
 10
161.384250
 20
121.978296
 30
0.0
 10
161.064546
 20
122.345766
 30
0.0
 10
160.904693
 20
122.825323
 30
0.0
 10
160.904693
 20
123.416966
 30
0.0
  0
SPLINE
  5
304
100
AcDbEntity
  8
Gravacao
 62
7
100
AcDbSpline
 70
8
 71
3
 72
8
 73
4
 74
0
 40
0
 40
0
 40
0
 40
0
 40
1
 40
1
 40
1
 40
1
 10
160.904693
 20
123.416966
 30
0.0
 10
160.904693
 20
124.037995
 30
0.0
 10
161.138041
 20
124.532245
 30
0.0
 10
161.604738
 20
124.899715
 30
0.0
  0
SPLINE
  5
305
100
AcDbEntity
  8
Gravacao
 62
7
100
AcDbSpline
 70
8
 71
3
 72
8
 73
4
 74
0
 40
0
 40
0
 40
0
 40
0
 40
1
 40
1
 40
1
 40
1
 10
161.604738
 20
124.899715
 30
0.0
 10
162.071432
 20
125.267204
 30
0.0
 10
162.688792
 20
125.450948
 30
0.0
 10
163.456819
 20
125.450948
 30
0.0
  0
SPLINE
  5
306
100
AcDbEntity
  8
Gravacao
 62
7
100
AcDbSpline
 70
8
 71
3
 72
8
 73
4
 74
0
 40
0
 40
0
 40
0
 40
0
 40
1
 40
1
 40
1
 40
1
 10
163.456819
 20
125.450948
 30
0.0
 10
164.257918
 20
125.450948
 30
0.0
 10
164.994708
 20
125.303954
 30
0.0
 10
165.667190
 20
125.009967
 30
0.0
  0
LWPOLYLINE
  5
307
100
AcDbEntity
  8
Gravacao
 62
7
100
AcDbPolyline
 90
2
 70
0
 10
160.799963
 20
117.535497
 30
0.0
 10
160.799963
 20
118.439472
 30
0.0
  0
SPLINE
  5
308
100
AcDbEntity
  8
Gravacao
 62
7
100
AcDbSpline
 70
8
 71
3
 72
8
 73
4
 74
0
 40
0
 40
0
 40
0
 40
0
 40
1
 40
1
 40
1
 40
1
 10
165.375048
 20
124.194178
 30
0.0
 10
164.709915
 20
124.473455
 30
0.0
 10
164.063156
 20
124.613093
 30
0.0
 10
163.434771
 20
124.613093
 30
0.0
  0
SPLINE
  5
309
100
AcDbEntity
  8
Gravacao
 62
7
100
AcDbSpline
 70
8
 71
3
 72
8
 73
4
 74
0
 40
0
 40
0
 40
0
 40
0
 40
1
 40
1
 40
1
 40
1
 10
163.434771
 20
124.613093
 30
0.0
 10
162.938678
 20
124.613093
 30
0.0
 10
162.550990
 20
124.506527
 30
0.0
 10
162.271706
 20
124.293397
 30
0.0
  0
SPLINE
  5
30a
100
AcDbEntity
  8
Gravacao
 62
7
100
AcDbSpline
 70
8
 71
3
 72
8
 73
4
 74
0
 40
0
 40
0
 40
0
 40
0
 40
1
 40
1
 40
1
 40
1
 10
162.271706
 20
124.293397
 30
0.0
 10
161.992425
 20
124.080249
 30
0.0
 10
161.852784
 20
123.784428
 30
0.0
 10
161.852784
 20
123.405933
 30
0.0
  0
SPLINE
  5
30b
100
AcDbEntity
  8
Gravacao
 62
7
100
AcDbSpline
 70
8
 71
3
 72
8
 73
4
 74
0
 40
0
 40
0
 40
0
 40
0
 40
1
 40
1
 40
1
 40
1
 10
161.852784
 20
123.405933
 30
0.0
 10
161.852784
 20
123.126657
 30
0.0
 10
161.904231
 20
122.896981
 30
0.0
 10
162.007123
 20
122.716906
 30
0.0
  0
SPLINE
  5
30c
100
AcDbEntity
  8
Gravacao
 62
7
100
AcDbSpline
 70
8
 71
3
 72
8
 73
4
 74
0
 40
0
 40
0
 40
0
 40
0
 40
1
 40
1
 40
1
 40
1
 10
162.007123
 20
122.716906
 30
0.0
 10
162.110016
 20
122.540517
 30
0.0
 10
162.282730
 20
122.376996
 30
0.0
 10
162.525264
 20
122.226342
 30
0.0
  0
SPLINE
  5
30d
100
AcDbEntity
  8
Gravacao
 62
7
100
AcDbSpline
 70
8
 71
3
 72
8
 73
4
 74
0
 40
0
 40
0
 40
0
 40
0
 40
1
 40
1
 40
1
 40
1
 10
162.525264
 20
122.226342
 30
0.0
 10
162.771475
 20
122.079340
 30
0.0
 10
163.146301
 20
121.915810
 30
0.0
 10
163.649745
 20
121.735753
 30
0.0
  0
SPLINE
  5
30e
100
AcDbEntity
  8
Gravacao
 62
7
100
AcDbSpline
 70
8
 71
3
 72
8
 73
4
 74
0
 40
0
 40
0
 40
0
 40
0
 40
1
 40
1
 40
1
 40
1
 10
163.649745
 20
121.735753
 30
0.0
 10
164.494941
 20
121.434428
 30
0.0
 10
165.075554
 20
121.111046
 30
0.0
 10
165.391584
 20
120.765606
 30
0.0
  0
SPLINE
  5
30f
100
AcDbEntity
  8
Gravacao
 62
7
100
AcDbSpline
 70
8
 71
3
 72
8
 73
4
 74
0
 40
0
 40
0
 40
0
 40
0
 40
1
 40
1
 40
1
 40
1
 10
165.391584
 20
120.765606
 30
0.0
 10
165.711289
 20
120.420184
 30
0.0
 10
165.871141
 20
119.971866
 30
0.0
 10
165.871141
 20
119.420651
 30
0.0
  0
LWPOLYLINE
  5
310
100
AcDbEntity
  8
Gravacao
 62
7
100
AcDbPolyline
 90
2
 70
0
 10
165.667190
 20
125.009967
 30
0.0
 10
165.375048
 20
124.194178
 30
0.0
  0
LWPOLYLINE
  5
311
100
AcDbEntity
  8
Gravacao
 62
7
100
AcDbPolyline
 90
1
 70
1
 10
165.871141
 20
119.420651
 30
0.0
  0
SPLINE
  5
312
100
AcDbEntity
  8
Gravacao
 62
7
100
AcDbSpline
 70
8
 71
3
 72
8
 73
4
 74
0
 40
0
 40
0
 40
0
 40
0
 40
1
 40
1
 40
1
 40
1
 10
233.455014
 20
125.575049
 30
0.0
 10
233.506461
 20
125.009141
 30
0.0
 10
233.532185
 20
124.336659
 30
0.0
 10
233.532185
 20
123.557603
 30
0.0
  0
LWPOLYLINE
  5
313
100
AcDbEntity
  8
Gravacao
 62
7
100
AcDbPolyline
 90
3
 70
0
 10
236.233138
 20
118.431308
 30
0.0
 10
233.499112
 20
125.575049
 30
0.0
 10
233.455014
 20
125.575049
 30
0.0
  0
SPLINE
  5
314
100
AcDbEntity
  8
Gravacao
 62
7
100
AcDbSpline
 70
8
 71
3
 72
8
 73
4
 74
0
 40
0
 40
0
 40
0
 40
0
 40
1
 40
1
 40
1
 40
1
 10
239.711304
 20
123.623749
 30
0.0
 10
239.711304
 20
124.219061
 30
0.0
 10
239.737027
 20
124.865816
 30
0.0
 10
239.788475
 20
125.564016
 30
0.0
  0
LWPOLYLINE
  5
315
100
AcDbEntity
  8
Gravacao
 62
7
100
AcDbPolyline
 90
12
 70
0
 10
233.532185
 20
123.557603
 30
0.0
 10
233.532185
 20
118.431308
 30
0.0
 10
232.666776
 20
118.431308
 30
0.0
 10
232.666776
 20
126.490056
 30
0.0
 10
234.077887
 20
126.490056
 30
0.0
 10
236.630012
 20
119.842408
 30
0.0
 10
236.674110
 20
119.842408
 30
0.0
 10
239.248283
 20
126.490056
 30
0.0
 10
240.648369
 20
126.490056
 30
0.0
 10
240.648369
 20
118.431308
 30
0.0
 10
239.711304
 20
118.431308
 30
0.0
 10
239.711304
 20
123.623749
 30
0.0
  0
LWPOLYLINE
  5
316
100
AcDbEntity
  8
Gravacao
 62
7
100
AcDbPolyline
 90
4
 70
0
 10
239.788475
 20
125.564016
 30
0.0
 10
239.744377
 20
125.564016
 30
0.0
 10
236.988303
 20
118.431308
 30
0.0
 10
236.233138
 20
118.431308
 30
0.0
  0
LWPOLYLINE
  5
317
100
AcDbEntity
  8
Gravacao
 62
7
100
AcDbPolyline
 90
8
 70
1
 10
247.924407
 20
118.431308
 30
0.0
 10
246.921196
 20
120.994455
 30
0.0
 10
243.691077
 20
120.994455
 30
0.0
 10
242.698890
 20
118.431308
 30
0.0
 10
241.750799
 20
118.431308
 30
0.0
 10
244.936823
 20
126.523129
 30
0.0
 10
245.725061
 20
126.523129
 30
0.0
 10
248.894546
 20
118.431308
 30
0.0
  0
SPLINE
  5
318
100
AcDbEntity
  8
Gravacao
 62
7
100
AcDbSpline
 70
8
 71
3
 72
8
 73
4
 74
0
 40
0
 40
0
 40
0
 40
0
 40
1
 40
1
 40
1
 40
1
 10
245.691988
 20
124.334816
 30
0.0
 10
245.570721
 20
124.650851
 30
0.0
 10
245.445779
 20
125.038536
 30
0.0
 10
245.317161
 20
125.497870
 30
0.0
  0
SPLINE
  5
319
100
AcDbEntity
  8
Gravacao
 62
7
100
AcDbSpline
 70
8
 71
3
 72
8
 73
4
 74
0
 40
0
 40
0
 40
0
 40
0
 40
1
 40
1
 40
1
 40
1
 10
245.317161
 20
125.497870
 30
0.0
 10
245.236315
 20
125.145092
 30
0.0
 10
245.120560
 20
124.757408
 30
0.0
 10
244.969896
 20
124.334816
 30
0.0
  0
LWPOLYLINE
  5
31a
100
AcDbEntity
  8
Gravacao
 62
7
100
AcDbPolyline
 90
2
 70
0
 10
246.629054
 20
121.837814
 30
0.0
 10
245.691988
 20
124.334816
 30
0.0
  0
LWPOLYLINE
  5
31b
100
AcDbEntity
  8
Gravacao
 62
7
100
AcDbPolyline
 90
3
 70
0
 10
244.969896
 20
124.334816
 30
0.0
 10
244.021805
 20
121.837814
 30
0.0
 10
246.629054
 20
121.837814
 30
0.0
  0
SPLINE
  5
31c
100
AcDbEntity
  8
Gravacao
 62
7
100
AcDbSpline
 70
8
 71
3
 72
8
 73
4
 74
0
 40
0
 40
0
 40
0
 40
0
 40
1
 40
1
 40
1
 40
1
 10
252.212861
 20
126.490056
 30
0.0
 10
253.201373
 20
126.490056
 30
0.0
 10
253.930814
 20
126.300809
 30
0.0
 10
254.401185
 20
125.922314
 30
0.0
  0
SPLINE
  5
31d
100
AcDbEntity
  8
Gravacao
 62
7
100
AcDbSpline
 70
8
 71
3
 72
8
 73
4
 74
0
 40
0
 40
0
 40
0
 40
0
 40
1
 40
1
 40
1
 40
1
 10
254.401185
 20
125.922314
 30
0.0
 10
254.875229
 20
125.543819
 30
0.0
 10
255.112251
 20
124.974234
 30
0.0
 10
255.112251
 20
124.213557
 30
0.0
  0
SPLINE
  5
31e
100
AcDbEntity
  8
Gravacao
 62
7
100
AcDbSpline
 70
8
 71
3
 72
8
 73
4
 74
0
 40
0
 40
0
 40
0
 40
0
 40
1
 40
1
 40
1
 40
1
 10
255.112251
 20
124.213557
 30
0.0
 10
255.112251
 20
123.147870
 30
0.0
 10
254.572060
 20
122.427613
 30
0.0
 10
253.491678
 20
122.052787
 30
0.0
  0
LWPOLYLINE
  5
31f
100
AcDbEntity
  8
Gravacao
 62
7
100
AcDbPolyline
 90
5
 70
0
 10
250.939553
 20
121.782701
 30
0.0
 10
250.939553
 20
118.431308
 30
0.0
 10
250.002487
 20
118.431308
 30
0.0
 10
250.002487
 20
126.490056
 30
0.0
 10
252.212861
 20
126.490056
 30
0.0
  0
LWPOLYLINE
  5
320
100
AcDbEntity
  8
Gravacao
 62
7
100
AcDbPolyline
 90
5
 70
0
 10
253.491678
 20
122.052787
 30
0.0
 10
255.680002
 20
118.431308
 30
0.0
 10
254.572060
 20
118.431308
 30
0.0
 10
252.620758
 20
121.782701
 30
0.0
 10
250.939553
 20
121.782701
 30
0.0
  0
SPLINE
  5
321
100
AcDbEntity
  8
Gravacao
 62
7
100
AcDbSpline
 70
8
 71
3
 72
8
 73
4
 74
0
 40
0
 40
0
 40
0
 40
0
 40
1
 40
1
 40
1
 40
1
 10
252.223884
 20
122.587457
 30
0.0
 10
252.885343
 20
122.587457
 30
0.0
 10
253.370413
 20
122.717914
 30
0.0
 10
253.679093
 20
122.978828
 30
0.0
  0
SPLINE
  5
322
100
AcDbEntity
  8
Gravacao
 62
7
100
AcDbSpline
 70
8
 71
3
 72
8
 73
4
 74
0
 40
0
 40
0
 40
0
 40
0
 40
1
 40
1
 40
1
 40
1
 10
253.679093
 20
122.978828
 30
0.0
 10
253.987773
 20
123.243411
 30
0.0
 10
254.142113
 20
123.638451
 30
0.0
 10
254.142113
 20
124.163948
 30
0.0
  0
SPLINE
  5
323
100
AcDbEntity
  8
Gravacao
 62
7
100
AcDbSpline
 70
8
 71
3
 72
8
 73
4
 74
0
 40
0
 40
0
 40
0
 40
0
 40
1
 40
1
 40
1
 40
1
 10
254.142113
 20
124.163948
 30
0.0
 10
254.142113
 20
124.696783
 30
0.0
 10
253.984098
 20
125.080790
 30
0.0
 10
253.668068
 20
125.315969
 30
0.0
  0
SPLINE
  5
324
100
AcDbEntity
  8
Gravacao
 62
7
100
AcDbSpline
 70
8
 71
3
 72
8
 73
4
 74
0
 40
0
 40
0
 40
0
 40
0
 40
1
 40
1
 40
1
 40
1
 10
253.668068
 20
125.315969
 30
0.0
 10
253.355713
 20
125.551166
 30
0.0
 10
252.852270
 20
125.668764
 30
0.0
 10
252.157738
 20
125.668764
 30
0.0
  0
LWPOLYLINE
  5
325
100
AcDbEntity
  8
Gravacao
 62
7
100
AcDbPolyline
 90
2
 70
0
 10
250.939553
 20
122.587457
 30
0.0
 10
252.223884
 20
122.587457
 30
0.0
  0
LWPOLYLINE
  5
326
100
AcDbEntity
  8
Gravacao
 62
7
100
AcDbPolyline
 90
3
 70
0
 10
252.157738
 20
125.668764
 30
0.0
 10
250.939553
 20
125.668764
 30
0.0
 10
250.939553
 20
122.587457
 30
0.0
  0
LWPOLYLINE
  5
327
100
AcDbEntity
  8
Gravacao
 62
7
100
AcDbPolyline
 90
8
 70
1
 10
259.461337
 20
118.431308
 30
0.0
 10
258.524272
 20
118.431308
 30
0.0
 10
258.524272
 20
125.657731
 30
0.0
 10
255.972146
 20
125.657731
 30
0.0
 10
255.972146
 20
126.490056
 30
0.0
 10
262.013462
 20
126.490056
 30
0.0
 10
262.013462
 20
125.657731
 30
0.0
 10
259.461337
 20
125.657731
 30
0.0
  0
LWPOLYLINE
  5
328
100
AcDbEntity
  8
Gravacao
 62
7
100
AcDbPolyline
 90
12
 70
1
 10
267.718539
 20
118.431308
 30
0.0
 10
263.226136
 20
118.431308
 30
0.0
 10
263.226136
 20
126.490056
 30
0.0
 10
267.718539
 20
126.490056
 30
0.0
 10
267.718539
 20
125.657731
 30
0.0
 10
264.163202
 20
125.657731
 30
0.0
 10
264.163202
 20
123.061510
 30
0.0
 10
267.503565
 20
123.061510
 30
0.0
 10
267.503565
 20
122.234688
 30
0.0
 10
264.163202
 20
122.234688
 30
0.0
 10
264.163202
 20
119.269163
 30
0.0
 10
267.718539
 20
119.269163
 30
0.0
  0
SPLINE
  5
329
100
AcDbEntity
  8
Gravacao
 62
7
100
AcDbSpline
 70
8
 71
3
 72
8
 73
4
 74
0
 40
0
 40
0
 40
0
 40
0
 40
1
 40
1
 40
1
 40
1
 10
46.331216
 20
76.143316
 30
0.0
 10
46.382664
 20
75.577409
 30
0.0
 10
46.408387
 20
74.904927
 30
0.0
 10
46.408387
 20
74.125871
 30
0.0
  0
LWPOLYLINE
  5
32a
100
AcDbEntity
  8
Gravacao
 62
7
100
AcDbPolyline
 90
3
 70
0
 10
49.109341
 20
68.999575
 30
0.0
 10
46.375315
 20
76.143316
 30
0.0
 10
46.331216
 20
76.143316
 30
0.0
  0
SPLINE
  5
32b
100
AcDbEntity
  8
Gravacao
 62
7
100
AcDbSpline
 70
8
 71
3
 72
8
 73
4
 74
0
 40
0
 40
0
 40
0
 40
0
 40
1
 40
1
 40
1
 40
1
 10
52.587506
 20
74.192017
 30
0.0
 10
52.587506
 20
74.787328
 30
0.0
 10
52.613230
 20
75.434093
 30
0.0
 10
52.664677
 20
76.132310
 30
0.0
  0
LWPOLYLINE
  5
32c
100
AcDbEntity
  8
Gravacao
 62
7
100
AcDbPolyline
 90
12
 70
0
 10
46.408387
 20
74.125871
 30
0.0
 10
46.408387
 20
68.999575
 30
0.0
 10
45.542979
 20
68.999575
 30
0.0
 10
45.542979
 20
77.058350
 30
0.0
 10
46.954090
 20
77.058350
 30
0.0
 10
49.506215
 20
70.410702
 30
0.0
 10
49.550313
 20
70.410702
 30
0.0
 10
52.124486
 20
77.058350
 30
0.0
 10
53.524572
 20
77.058350
 30
0.0
 10
53.524572
 20
68.999575
 30
0.0
 10
52.587506
 20
68.999575
 30
0.0
 10
52.587506
 20
74.192017
 30
0.0
  0
LWPOLYLINE
  5
32d
100
AcDbEntity
  8
Gravacao
 62
7
100
AcDbPolyline
 90
4
 70
0
 10
52.664677
 20
76.132310
 30
0.0
 10
52.620579
 20
76.132310
 30
0.0
 10
49.864505
 20
68.999575
 30
0.0
 10
49.109341
 20
68.999575
 30
0.0
  0
LWPOLYLINE
  5
32e
100
AcDbEntity
  8
Gravacao
 62
7
100
AcDbPolyline
 90
12
 70
1
 10
60.227346
 20
68.999575
 30
0.0
 10
55.734946
 20
68.999575
 30
0.0
 10
55.734946
 20
77.058350
 30
0.0
 10
60.227346
 20
77.058350
 30
0.0
 10
60.227346
 20
76.225998
 30
0.0
 10
56.672009
 20
76.225998
 30
0.0
 10
56.672009
 20
73.629778
 30
0.0
 10
60.012372
 20
73.629778
 30
0.0
 10
60.012372
 20
72.802956
 30
0.0
 10
56.672009
 20
72.802956
 30
0.0
 10
56.672009
 20
69.837430
 30
0.0
 10
60.227346
 20
69.837430
 30
0.0
  0
SPLINE
  5
32f
100
AcDbEntity
  8
Gravacao
 62
7
100
AcDbSpline
 70
8
 71
3
 72
8
 73
4
 74
0
 40
0
 40
0
 40
0
 40
0
 40
1
 40
1
 40
1
 40
1
 10
64.223655
 20
77.058350
 30
0.0
 10
65.212167
 20
77.058350
 30
0.0
 10
65.941608
 20
76.869094
 30
0.0
 10
66.411979
 20
76.490581
 30
0.0
  0
SPLINE
  5
330
100
AcDbEntity
  8
Gravacao
 62
7
100
AcDbSpline
 70
8
 71
3
 72
8
 73
4
 74
0
 40
0
 40
0
 40
0
 40
0
 40
1
 40
1
 40
1
 40
1
 10
66.411979
 20
76.490581
 30
0.0
 10
66.886023
 20
76.112087
 30
0.0
 10
67.123046
 20
75.542501
 30
0.0
 10
67.123046
 20
74.781825
 30
0.0
  0
SPLINE
  5
331
100
AcDbEntity
  8
Gravacao
 62
7
100
AcDbSpline
 70
8
 71
3
 72
8
 73
4
 74
0
 40
0
 40
0
 40
0
 40
0
 40
1
 40
1
 40
1
 40
1
 10
67.123046
 20
74.781825
 30
0.0
 10
67.123046
 20
73.716138
 30
0.0
 10
66.582855
 20
72.995881
 30
0.0
 10
65.502475
 20
72.621055
 30
0.0
  0
LWPOLYLINE
  5
332
100
AcDbEntity
  8
Gravacao
 62
7
100
AcDbPolyline
 90
5
 70
0
 10
62.950349
 20
72.350969
 30
0.0
 10
62.950349
 20
68.999575
 30
0.0
 10
62.013284
 20
68.999575
 30
0.0
 10
62.013284
 20
77.058350
 30
0.0
 10
64.223655
 20
77.058350
 30
0.0
  0
LWPOLYLINE
  5
333
100
AcDbEntity
  8
Gravacao
 62
7
100
AcDbPolyline
 90
5
 70
0
 10
65.502475
 20
72.621055
 30
0.0
 10
67.690798
 20
68.999575
 30
0.0
 10
66.582854
 20
68.999575
 30
0.0
 10
64.631555
 20
72.350969
 30
0.0
 10
62.950349
 20
72.350969
 30
0.0
  0
SPLINE
  5
334
100
AcDbEntity
  8
Gravacao
 62
7
100
AcDbSpline
 70
8
 71
3
 72
8
 73
4
 74
0
 40
0
 40
0
 40
0
 40
0
 40
1
 40
1
 40
1
 40
1
 10
64.234680
 20
73.155751
 30
0.0
 10
64.896138
 20
73.155751
 30
0.0
 10
65.381207
 20
73.286199
 30
0.0
 10
65.689887
 20
73.547096
 30
0.0
  0
SPLINE
  5
335
100
AcDbEntity
  8
Gravacao
 62
7
100
AcDbSpline
 70
8
 71
3
 72
8
 73
4
 74
0
 40
0
 40
0
 40
0
 40
0
 40
1
 40
1
 40
1
 40
1
 10
65.689887
 20
73.547096
 30
0.0
 10
65.998567
 20
73.811679
 30
0.0
 10
66.152907
 20
74.206719
 30
0.0
 10
66.152907
 20
74.732216
 30
0.0
  0
SPLINE
  5
336
100
AcDbEntity
  8
Gravacao
 62
7
100
AcDbSpline
 70
8
 71
3
 72
8
 73
4
 74
0
 40
0
 40
0
 40
0
 40
0
 40
1
 40
1
 40
1
 40
1
 10
66.152907
 20
74.732216
 30
0.0
 10
66.152907
 20
75.265051
 30
0.0
 10
65.994893
 20
75.649066
 30
0.0
 10
65.678864
 20
75.884263
 30
0.0
  0
SPLINE
  5
337
100
AcDbEntity
  8
Gravacao
 62
7
100
AcDbSpline
 70
8
 71
3
 72
8
 73
4
 74
0
 40
0
 40
0
 40
0
 40
0
 40
1
 40
1
 40
1
 40
1
 10
65.678864
 20
75.884263
 30
0.0
 10
65.366508
 20
76.119442
 30
0.0
 10
64.863065
 20
76.237032
 30
0.0
 10
64.168535
 20
76.237032
 30
0.0
  0
LWPOLYLINE
  5
338
100
AcDbEntity
  8
Gravacao
 62
7
100
AcDbPolyline
 90
2
 70
0
 10
62.950349
 20
73.155751
 30
0.0
 10
64.234680
 20
73.155751
 30
0.0
  0
SPLINE
  5
339
100
AcDbEntity
  8
Gravacao
 62
7
100
AcDbSpline
 70
8
 71
3
 72
8
 73
4
 74
0
 40
0
 40
0
 40
0
 40
0
 40
1
 40
1
 40
1
 40
1
 10
72.442272
 20
76.336250
 30
0.0
 10
71.556653
 20
76.336250
 30
0.0
 10
70.856610
 20
76.040429
 30
0.0
 10
70.342142
 20
75.448786
 30
0.0
  0
SPLINE
  5
33a
100
AcDbEntity
  8
Gravacao
 62
7
100
AcDbSpline
 70
8
 71
3
 72
8
 73
4
 74
0
 40
0
 40
0
 40
0
 40
0
 40
1
 40
1
 40
1
 40
1
 10
70.342142
 20
75.448786
 30
0.0
 10
69.831351
 20
74.860830
 30
0.0
 10
69.575955
 20
74.054222
 30
0.0
 10
69.575955
 20
73.028963
 30
0.0
  0
SPLINE
  5
33b
100
AcDbEntity
  8
Gravacao
 62
7
100
AcDbSpline
 70
8
 71
3
 72
8
 73
4
 74
0
 40
0
 40
0
 40
0
 40
0
 40
1
 40
1
 40
1
 40
1
 10
69.575955
 20
73.028963
 30
0.0
 10
69.575955
 20
71.974300
 30
0.0
 10
69.822163
 20
71.158502
 30
0.0
 10
70.314581
 20
70.581570
 30
0.0
  0
SPLINE
  5
33c
100
AcDbEntity
  8
Gravacao
 62
7
100
AcDbSpline
 70
8
 71
3
 72
8
 73
4
 74
0
 40
0
 40
0
 40
0
 40
0
 40
1
 40
1
 40
1
 40
1
 10
70.314581
 20
70.581570
 30
0.0
 10
70.810676
 20
70.008307
 30
0.0
 10
71.516231
 20
69.721675
 30
0.0
 10
72.431247
 20
69.721675
 30
0.0
  0
SPLINE
  5
33d
100
AcDbEntity
  8
Gravacao
 62
7
100
AcDbSpline
 70
8
 71
3
 72
8
 73
4
 74
0
 40
0
 40
0
 40
0
 40
0
 40
1
 40
1
 40
1
 40
1
 10
72.431247
 20
69.721675
 30
0.0
 10
72.993486
 20
69.721675
 30
0.0
 10
73.634733
 20
69.822728
 30
0.0
 10
74.354988
 20
70.024834
 30
0.0
  0
LWPOLYLINE
  5
33e
100
AcDbEntity
  8
Gravacao
 62
7
100
AcDbPolyline
 90
3
 70
0
 10
64.168535
 20
76.237032
 30
0.0
 10
62.950349
 20
76.237032
 30
0.0
 10
62.950349
 20
73.155751
 30
0.0
  0
SPLINE
  5
33f
100
AcDbEntity
  8
Gravacao
 62
7
100
AcDbSpline
 70
8
 71
3
 72
8
 73
4
 74
0
 40
0
 40
0
 40
0
 40
0
 40
1
 40
1
 40
1
 40
1
 10
74.354988
 20
69.203542
 30
0.0
 10
73.796423
 20
68.994081
 30
0.0
 10
73.107404
 20
68.889350
 30
0.0
 10
72.287931
 20
68.889350
 30
0.0
  0
SPLINE
  5
340
100
AcDbEntity
  8
Gravacao
 62
7
100
AcDbSpline
 70
8
 71
3
 72
8
 73
4
 74
0
 40
0
 40
0
 40
0
 40
0
 40
1
 40
1
 40
1
 40
1
 10
72.287931
 20
68.889350
 30
0.0
 10
71.100981
 20
68.889350
 30
0.0
 10
70.184127
 20
69.249474
 30
0.0
 10
69.537368
 20
69.969722
 30
0.0
  0
SPLINE
  5
341
100
AcDbEntity
  8
Gravacao
 62
7
100
AcDbSpline
 70
8
 71
3
 72
8
 73
4
 74
0
 40
0
 40
0
 40
0
 40
0
 40
1
 40
1
 40
1
 40
1
 10
69.537368
 20
69.969722
 30
0.0
 10
68.894285
 20
70.689970
 30
0.0
 10
68.572743
 20
71.713394
 30
0.0
 10
68.572743
 20
73.039996
 30
0.0
  0
SPLINE
  5
342
100
AcDbEntity
  8
Gravacao
 62
7
100
AcDbSpline
 70
8
 71
3
 72
8
 73
4
 74
0
 40
0
 40
0
 40
0
 40
0
 40
1
 40
1
 40
1
 40
1
 10
68.572743
 20
73.039996
 30
0.0
 10
68.572743
 20
73.870487
 30
0.0
 10
68.727084
 20
74.598090
 30
0.0
 10
69.035764
 20
75.222806
 30
0.0
  0
SPLINE
  5
343
100
AcDbEntity
  8
Gravacao
 62
7
100
AcDbSpline
 70
8
 71
3
 72
8
 73
4
 74
0
 40
0
 40
0
 40
0
 40
0
 40
1
 40
1
 40
1
 40
1
 10
69.035764
 20
75.222806
 30
0.0
 10
69.348118
 20
75.847504
 30
0.0
 10
69.796440
 20
76.328895
 30
0.0
 10
70.380729
 20
76.666979
 30
0.0
  0
SPLINE
  5
344
100
AcDbEntity
  8
Gravacao
 62
7
100
AcDbSpline
 70
8
 71
3
 72
8
 73
4
 74
0
 40
0
 40
0
 40
0
 40
0
 40
1
 40
1
 40
1
 40
1
 10
70.380729
 20
76.666979
 30
0.0
 10
70.968691
 20
77.005063
 30
0.0
 10
71.659546
 20
77.174105
 30
0.0
 10
72.453295
 20
77.174105
 30
0.0
  0
SPLINE
  5
345
100
AcDbEntity
  8
Gravacao
 62
7
100
AcDbSpline
 70
8
 71
3
 72
8
 73
4
 74
0
 40
0
 40
0
 40
0
 40
0
 40
1
 40
1
 40
1
 40
1
 10
72.453295
 20
77.174105
 30
0.0
 10
73.298491
 20
77.174105
 30
0.0
 10
74.037120
 20
77.019765
 30
0.0
 10
74.669180
 20
76.711085
 30
0.0
  0
LWPOLYLINE
  5
346
100
AcDbEntity
  8
Gravacao
 62
7
100
AcDbPolyline
 90
2
 70
0
 10
74.354988
 20
70.024834
 30
0.0
 10
74.354988
 20
69.203542
 30
0.0
  0
SPLINE
  5
347
100
AcDbEntity
  8
Gravacao
 62
7
100
AcDbSpline
 70
8
 71
3
 72
8
 73
4
 74
0
 40
0
 40
0
 40
0
 40
0
 40
1
 40
1
 40
1
 40
1
 10
74.272306
 20
75.906303
 30
0.0
 10
73.662294
 20
76.192934
 30
0.0
 10
73.052283
 20
76.336250
 30
0.0
 10
72.442272
 20
76.336250
 30
0.0
  0
LWPOLYLINE
  5
348
100
AcDbEntity
  8
Gravacao
 62
7
100
AcDbPolyline
 90
2
 70
0
 10
74.669180
 20
76.711085
 30
0.0
 10
74.272306
 20
75.906303
 30
0.0
  0
LWPOLYLINE
  5
349
100
AcDbEntity
  8
Gravacao
 62
7
100
AcDbPolyline
 90
1
 70
1
 10
72.442272
 20
76.336250
 30
0.0
  0
SPLINE
  5
34a
100
AcDbEntity
  8
Gravacao
 62
7
100
AcDbSpline
 70
8
 71
3
 72
8
 73
4
 74
0
 40
0
 40
0
 40
0
 40
0
 40
1
 40
1
 40
1
 40
1
 10
82.198779
 20
71.843843
 30
0.0
 10
82.198779
 20
70.925157
 30
0.0
 10
81.921333
 20
70.203066
 30
0.0
 10
81.366443
 20
69.677569
 30
0.0
  0
SPLINE
  5
34b
100
AcDbEntity
  8
Gravacao
 62
7
100
AcDbSpline
 70
8
 71
3
 72
8
 73
4
 74
0
 40
0
 40
0
 40
0
 40
0
 40
1
 40
1
 40
1
 40
1
 10
81.366443
 20
69.677569
 30
0.0
 10
80.811552
 20
69.152090
 30
0.0
 10
80.049038
 20
68.889350
 30
0.0
 10
79.078900
 20
68.889350
 30
0.0
  0
SPLINE
  5
34c
100
AcDbEntity
  8
Gravacao
 62
7
100
AcDbSpline
 70
8
 71
3
 72
8
 73
4
 74
0
 40
0
 40
0
 40
0
 40
0
 40
1
 40
1
 40
1
 40
1
 10
79.078900
 20
68.889350
 30
0.0
 10
78.108763
 20
68.889350
 30
0.0
 10
77.357273
 20
69.153933
 30
0.0
 10
76.824431
 20
69.683099
 30
0.0
  0
SPLINE
  5
34d
100
AcDbEntity
  8
Gravacao
 62
7
100
AcDbSpline
 70
8
 71
3
 72
8
 73
4
 74
0
 40
0
 40
0
 40
0
 40
0
 40
1
 40
1
 40
1
 40
1
 10
76.824431
 20
69.683099
 30
0.0
 10
76.295265
 20
70.212265
 30
0.0
 10
76.030682
 20
70.939868
 30
0.0
 10
76.030682
 20
71.865909
 30
0.0
  0
LWPOLYLINE
  5
34e
100
AcDbEntity
  8
Gravacao
 62
7
100
AcDbPolyline
 90
2
 70
0
 10
82.198779
 20
77.058350
 30
0.0
 10
82.198779
 20
71.843843
 30
0.0
  0
SPLINE
  5
34f
100
AcDbEntity
  8
Gravacao
 62
7
100
AcDbSpline
 70
8
 71
3
 72
8
 73
4
 74
0
 40
0
 40
0
 40
0
 40
0
 40
1
 40
1
 40
1
 40
1
 10
76.967748
 20
71.799763
 30
0.0
 10
76.967748
 20
71.127281
 30
0.0
 10
77.151486
 20
70.610974
 30
0.0
 10
77.518961
 20
70.250841
 30
0.0
  0
SPLINE
  5
350
100
AcDbEntity
  8
Gravacao
 62
7
100
AcDbSpline
 70
8
 71
3
 72
8
 73
4
 74
0
 40
0
 40
0
 40
0
 40
0
 40
1
 40
1
 40
1
 40
1
 10
77.518961
 20
70.250841
 30
0.0
 10
77.886439
 20
69.890708
 30
0.0
 10
78.426630
 20
69.710642
 30
0.0
 10
79.139535
 20
69.710642
 30
0.0
  0
SPLINE
  5
351
100
AcDbEntity
  8
Gravacao
 62
7
100
AcDbSpline
 70
8
 71
3
 72
8
 73
4
 74
0
 40
0
 40
0
 40
0
 40
0
 40
1
 40
1
 40
1
 40
1
 10
79.139535
 20
69.710642
 30
0.0
 10
79.819367
 20
69.710642
 30
0.0
 10
80.343021
 20
69.890708
 30
0.0
 10
80.710497
 20
70.250841
 30
0.0
  0
SPLINE
  5
352
100
AcDbEntity
  8
Gravacao
 62
7
100
AcDbSpline
 70
8
 71
3
 72
8
 73
4
 74
0
 40
0
 40
0
 40
0
 40
0
 40
1
 40
1
 40
1
 40
1
 10
80.710497
 20
70.250841
 30
0.0
 10
81.077974
 20
70.614643
 30
0.0
 10
81.261713
 20
71.134619
 30
0.0
 10
81.261713
 20
71.810770
 30
0.0
  0
LWPOLYLINE
  5
353
100
AcDbEntity
  8
Gravacao
 62
7
100
AcDbPolyline
 90
4
 70
0
 10
76.030682
 20
71.865909
 30
0.0
 10
76.030682
 20
77.058350
 30
0.0
 10
76.967748
 20
77.058350
 30
0.0
 10
76.967748
 20
71.799763
 30
0.0
  0
SPLINE
  5
354
100
AcDbEntity
  8
Gravacao
 62
7
100
AcDbSpline
 70
8
 71
3
 72
8
 73
4
 74
0
 40
0
 40
0
 40
0
 40
0
 40
1
 40
1
 40
1
 40
1
 10
78.312710
 20
77.841066
 30
0.0
 10
78.489101
 20
78.068907
 30
0.0
 10
78.678352
 20
78.344515
 30
0.0
 10
78.880463
 20
78.667888
 30
0.0
  0
SPLINE
  5
355
100
AcDbEntity
  8
Gravacao
 62
7
100
AcDbSpline
 70
8
 71
3
 72
8
 73
4
 74
0
 40
0
 40
0
 40
0
 40
0
 40
1
 40
1
 40
1
 40
1
 10
78.880463
 20
78.667888
 30
0.0
 10
79.086251
 20
78.991279
 30
0.0
 10
79.247940
 20
79.272398
 30
0.0
 10
79.365531
 20
79.511246
 30
0.0
  0
LWPOLYLINE
  5
356
100
AcDbEntity
  8
Gravacao
 62
7
100
AcDbPolyline
 90
3
 70
0
 10
81.261713
 20
71.810770
 30
0.0
 10
81.261713
 20
77.058350
 30
0.0
 10
82.198779
 20
77.058350
 30
0.0
  0
SPLINE
  5
357
100
AcDbEntity
  8
Gravacao
 62
7
100
AcDbSpline
 70
8
 71
3
 72
8
 73
4
 74
0
 40
0
 40
0
 40
0
 40
0
 40
1
 40
1
 40
1
 40
1
 10
80.478986
 20
79.395491
 30
0.0
 10
80.317296
 20
79.156643
 30
0.0
 10
80.076599
 20
78.862665
 30
0.0
 10
79.756894
 20
78.513557
 30
0.0
  0
SPLINE
  5
358
100
AcDbEntity
  8
Gravacao
 62
7
100
AcDbSpline
 70
8
 71
3
 72
8
 73
4
 74
0
 40
0
 40
0
 40
0
 40
0
 40
1
 40
1
 40
1
 40
1
 10
79.756894
 20
78.513557
 30
0.0
 10
79.437190
 20
78.164448
 30
0.0
 10
79.159746
 20
77.894353
 30
0.0
 10
78.924561
 20
77.703271
 30
0.0
  0
LWPOLYLINE
  5
359
100
AcDbEntity
  8
Gravacao
 62
7
100
AcDbPolyline
 90
3
 70
0
 10
79.365531
 20
79.511246
 30
0.0
 10
80.478986
 20
79.511246
 30
0.0
 10
80.478986
 20
79.395491
 30
0.0
  0
LWPOLYLINE
  5
35a
100
AcDbEntity
  8
Gravacao
 62
7
100
AcDbPolyline
 90
3
 70
0
 10
78.924561
 20
77.703271
 30
0.0
 10
78.312710
 20
77.703271
 30
0.0
 10
78.312710
 20
77.841066
 30
0.0
  0
SPLINE
  5
35b
100
AcDbEntity
  8
Gravacao
 62
7
100
AcDbSpline
 70
8
 71
3
 72
8
 73
4
 74
0
 40
0
 40
0
 40
0
 40
0
 40
1
 40
1
 40
1
 40
1
 10
86.542350
 20
77.058350
 30
0.0
 10
87.530862
 20
77.058350
 30
0.0
 10
88.260304
 20
76.869094
 30
0.0
 10
88.730674
 20
76.490581
 30
0.0
  0
SPLINE
  5
35c
100
AcDbEntity
  8
Gravacao
 62
7
100
AcDbSpline
 70
8
 71
3
 72
8
 73
4
 74
0
 40
0
 40
0
 40
0
 40
0
 40
1
 40
1
 40
1
 40
1
 10
88.730674
 20
76.490581
 30
0.0
 10
89.204720
 20
76.112087
 30
0.0
 10
89.441743
 20
75.542501
 30
0.0
 10
89.441743
 20
74.781825
 30
0.0
  0
SPLINE
  5
35d
100
AcDbEntity
  8
Gravacao
 62
7
100
AcDbSpline
 70
8
 71
3
 72
8
 73
4
 74
0
 40
0
 40
0
 40
0
 40
0
 40
1
 40
1
 40
1
 40
1
 10
89.441743
 20
74.781825
 30
0.0
 10
89.441743
 20
73.716138
 30
0.0
 10
88.901552
 20
72.995881
 30
0.0
 10
87.821170
 20
72.621055
 30
0.0
  0
LWPOLYLINE
  5
35e
100
AcDbEntity
  8
Gravacao
 62
7
100
AcDbPolyline
 90
5
 70
0
 10
85.269045
 20
72.350969
 30
0.0
 10
85.269045
 20
68.999575
 30
0.0
 10
84.331979
 20
68.999575
 30
0.0
 10
84.331979
 20
77.058350
 30
0.0
 10
86.542350
 20
77.058350
 30
0.0
  0
LWPOLYLINE
  5
35f
100
AcDbEntity
  8
Gravacao
 62
7
100
AcDbPolyline
 90
5
 70
0
 10
87.821170
 20
72.621055
 30
0.0
 10
90.009494
 20
68.999575
 30
0.0
 10
88.901552
 20
68.999575
 30
0.0
 10
86.950250
 20
72.350969
 30
0.0
 10
85.269045
 20
72.350969
 30
0.0
  0
SPLINE
  5
360
100
AcDbEntity
  8
Gravacao
 62
7
100
AcDbSpline
 70
8
 71
3
 72
8
 73
4
 74
0
 40
0
 40
0
 40
0
 40
0
 40
1
 40
1
 40
1
 40
1
 10
86.553376
 20
73.155751
 30
0.0
 10
87.214833
 20
73.155751
 30
0.0
 10
87.699902
 20
73.286199
 30
0.0
 10
88.008582
 20
73.547096
 30
0.0
  0
SPLINE
  5
361
100
AcDbEntity
  8
Gravacao
 62
7
100
AcDbSpline
 70
8
 71
3
 72
8
 73
4
 74
0
 40
0
 40
0
 40
0
 40
0
 40
1
 40
1
 40
1
 40
1
 10
88.008582
 20
73.547096
 30
0.0
 10
88.317264
 20
73.811679
 30
0.0
 10
88.471605
 20
74.206719
 30
0.0
 10
88.471605
 20
74.732216
 30
0.0
  0
SPLINE
  5
362
100
AcDbEntity
  8
Gravacao
 62
7
100
AcDbSpline
 70
8
 71
3
 72
8
 73
4
 74
0
 40
0
 40
0
 40
0
 40
0
 40
1
 40
1
 40
1
 40
1
 10
88.471605
 20
74.732216
 30
0.0
 10
88.471605
 20
75.265051
 30
0.0
 10
88.313590
 20
75.649066
 30
0.0
 10
87.997559
 20
75.884263
 30
0.0
  0
SPLINE
  5
363
100
AcDbEntity
  8
Gravacao
 62
7
100
AcDbSpline
 70
8
 71
3
 72
8
 73
4
 74
0
 40
0
 40
0
 40
0
 40
0
 40
1
 40
1
 40
1
 40
1
 10
87.997559
 20
75.884263
 30
0.0
 10
87.685203
 20
76.119442
 30
0.0
 10
87.181760
 20
76.237032
 30
0.0
 10
86.487230
 20
76.237032
 30
0.0
  0
LWPOLYLINE
  5
364
100
AcDbEntity
  8
Gravacao
 62
7
100
AcDbPolyline
 90
2
 70
0
 10
85.269045
 20
73.155751
 30
0.0
 10
86.553376
 20
73.155751
 30
0.0
  0
LWPOLYLINE
  5
365
100
AcDbEntity
  8
Gravacao
 62
7
100
AcDbPolyline
 90
3
 70
0
 10
86.487230
 20
76.237032
 30
0.0
 10
85.269045
 20
76.237032
 30
0.0
 10
85.269045
 20
73.155751
 30
0.0
  0
SPLINE
  5
366
100
AcDbEntity
  8
Gravacao
 62
7
100
AcDbSpline
 70
8
 71
3
 72
8
 73
4
 74
0
 40
0
 40
0
 40
0
 40
0
 40
1
 40
1
 40
1
 40
1
 10
101.452716
 20
73.039996
 30
0.0
 10
101.452716
 20
71.750154
 30
0.0
 10
101.125662
 20
70.735919
 30
0.0
 10
100.471553
 20
69.997291
 30
0.0
  0
SPLINE
  5
367
100
AcDbEntity
  8
Gravacao
 62
7
100
AcDbSpline
 70
8
 71
3
 72
8
 73
4
 74
0
 40
0
 40
0
 40
0
 40
0
 40
1
 40
1
 40
1
 40
1
 10
100.471553
 20
69.997291
 30
0.0
 10
99.821119
 20
69.258664
 30
0.0
 10
98.915289
 20
68.889350
 30
0.0
 10
97.754063
 20
68.889350
 30
0.0
  0
SPLINE
  5
368
100
AcDbEntity
  8
Gravacao
 62
7
100
AcDbSpline
 70
8
 71
3
 72
8
 73
4
 74
0
 40
0
 40
0
 40
0
 40
0
 40
1
 40
1
 40
1
 40
1
 10
97.754063
 20
68.889350
 30
0.0
 10
96.567114
 20
68.889350
 30
0.0
 10
95.650259
 20
69.251308
 30
0.0
 10
95.003500
 20
69.975225
 30
0.0
  0
SPLINE
  5
369
100
AcDbEntity
  8
Gravacao
 62
7
100
AcDbSpline
 70
8
 71
3
 72
8
 73
4
 74
0
 40
0
 40
0
 40
0
 40
0
 40
1
 40
1
 40
1
 40
1
 10
95.003500
 20
69.975225
 30
0.0
 10
94.360417
 20
70.702828
 30
0.0
 10
94.038876
 20
71.728087
 30
0.0
 10
94.038876
 20
73.051002
 30
0.0
  0
SPLINE
  5
36a
100
AcDbEntity
  8
Gravacao
 62
7
100
AcDbSpline
 70
8
 71
3
 72
8
 73
4
 74
0
 40
0
 40
0
 40
0
 40
0
 40
1
 40
1
 40
1
 40
1
 10
94.038876
 20
73.051002
 30
0.0
 10
94.038876
 20
74.362893
 30
0.0
 10
94.362254
 20
75.378971
 30
0.0
 10
95.009012
 20
76.099237
 30
0.0
  0
SPLINE
  5
36b
100
AcDbEntity
  8
Gravacao
 62
7
100
AcDbSpline
 70
8
 71
3
 72
8
 73
4
 74
0
 40
0
 40
0
 40
0
 40
0
 40
1
 40
1
 40
1
 40
1
 10
95.009012
 20
76.099237
 30
0.0
 10
95.655771
 20
76.823153
 30
0.0
 10
96.574463
 20
77.185112
 30
0.0
 10
97.765088
 20
77.185112
 30
0.0
  0
SPLINE
  5
36c
100
AcDbEntity
  8
Gravacao
 62
7
100
AcDbSpline
 70
8
 71
3
 72
8
 73
4
 74
0
 40
0
 40
0
 40
0
 40
0
 40
1
 40
1
 40
1
 40
1
 10
97.765088
 20
77.185112
 30
0.0
 10
98.922639
 20
77.185112
 30
0.0
 10
99.826631
 20
76.817641
 30
0.0
 10
100.477066
 20
76.082700
 30
0.0
  0
SPLINE
  5
36d
100
AcDbEntity
  8
Gravacao
 62
7
100
AcDbSpline
 70
8
 71
3
 72
8
 73
4
 74
0
 40
0
 40
0
 40
0
 40
0
 40
1
 40
1
 40
1
 40
1
 10
100.477066
 20
76.082700
 30
0.0
 10
101.127500
 20
75.347742
 30
0.0
 10
101.452716
 20
74.333507
 30
0.0
 10
101.452716
 20
73.039996
 30
0.0
  0
LWPOLYLINE
  5
36e
100
AcDbEntity
  8
Gravacao
 62
7
100
AcDbPolyline
 90
4
 70
1
 10
91.310361
 20
68.999575
 30
0.0
 10
91.310361
 20
77.058350
 30
0.0
 10
92.247427
 20
77.058350
 30
0.0
 10
92.247427
 20
68.999575
 30
0.0
  0
SPLINE
  5
36f
100
AcDbEntity
  8
Gravacao
 62
7
100
AcDbSpline
 70
8
 71
3
 72
8
 73
4
 74
0
 40
0
 40
0
 40
0
 40
0
 40
1
 40
1
 40
1
 40
1
 10
95.031062
 20
73.039996
 30
0.0
 10
95.031062
 20
71.948591
 30
0.0
 10
95.262572
 20
71.119926
 30
0.0
 10
95.725592
 20
70.554000
 30
0.0
  0
SPLINE
  5
370
100
AcDbEntity
  8
Gravacao
 62
7
100
AcDbSpline
 70
8
 71
3
 72
8
 73
4
 74
0
 40
0
 40
0
 40
0
 40
0
 40
1
 40
1
 40
1
 40
1
 10
95.725592
 20
70.554000
 30
0.0
 10
96.192289
 20
69.991762
 30
0.0
 10
96.868445
 20
69.710642
 30
0.0
 10
97.754063
 20
69.710642
 30
0.0
  0
SPLINE
  5
371
100
AcDbEntity
  8
Gravacao
 62
7
100
AcDbSpline
 70
8
 71
3
 72
8
 73
4
 74
0
 40
0
 40
0
 40
0
 40
0
 40
1
 40
1
 40
1
 40
1
 10
97.754063
 20
69.710642
 30
0.0
 10
98.647032
 20
69.710642
 30
0.0
 10
99.321352
 20
69.991762
 30
0.0
 10
99.777022
 20
70.554000
 30
0.0
  0
SPLINE
  5
372
100
AcDbEntity
  8
Gravacao
 62
7
100
AcDbSpline
 70
8
 71
3
 72
8
 73
4
 74
0
 40
0
 40
0
 40
0
 40
0
 40
1
 40
1
 40
1
 40
1
 10
99.777022
 20
70.554000
 30
0.0
 10
100.232694
 20
71.116239
 30
0.0
 10
100.460530
 20
71.944904
 30
0.0
 10
100.460530
 20
73.039996
 30
0.0
  0
SPLINE
  5
373
100
AcDbEntity
  8
Gravacao
 62
7
100
AcDbSpline
 70
8
 71
3
 72
8
 73
4
 74
0
 40
0
 40
0
 40
0
 40
0
 40
1
 40
1
 40
1
 40
1
 10
100.460530
 20
73.039996
 30
0.0
 10
100.460530
 20
74.124045
 30
0.0
 10
100.232694
 20
74.945355
 30
0.0
 10
99.777022
 20
75.503925
 30
0.0
  0
SPLINE
  5
374
100
AcDbEntity
  8
Gravacao
 62
7
100
AcDbSpline
 70
8
 71
3
 72
8
 73
4
 74
0
 40
0
 40
0
 40
0
 40
0
 40
1
 40
1
 40
1
 40
1
 10
99.777022
 20
75.503925
 30
0.0
 10
99.325026
 20
76.066164
 30
0.0
 10
98.654382
 20
76.347283
 30
0.0
 10
97.765088
 20
76.347283
 30
0.0
  0
SPLINE
  5
375
100
AcDbEntity
  8
Gravacao
 62
7
100
AcDbSpline
 70
8
 71
3
 72
8
 73
4
 74
0
 40
0
 40
0
 40
0
 40
0
 40
1
 40
1
 40
1
 40
1
 10
97.765088
 20
76.347283
 30
0.0
 10
96.872120
 20
76.347283
 30
0.0
 10
96.192289
 20
76.064321
 30
0.0
 10
95.725592
 20
75.498395
 30
0.0
  0
SPLINE
  5
376
100
AcDbEntity
  8
Gravacao
 62
7
100
AcDbSpline
 70
8
 71
3
 72
8
 73
4
 74
0
 40
0
 40
0
 40
0
 40
0
 40
1
 40
1
 40
1
 40
1
 10
95.725592
 20
75.498395
 30
0.0
 10
95.262572
 20
74.936156
 30
0.0
 10
95.031062
 20
74.116690
 30
0.0
 10
95.031062
 20
73.039996
 30
0.0
  0
LWPOLYLINE
  5
377
100
AcDbEntity
  8
Gravacao
 62
7
100
AcDbPolyline
 90
1
 70
1
 10
101.452716
 20
73.039996
 30
0.0
  0
SPLINE
  5
378
100
AcDbEntity
  8
Gravacao
 62
7
100
AcDbSpline
 70
8
 71
3
 72
8
 73
4
 74
0
 40
0
 40
0
 40
0
 40
0
 40
1
 40
1
 40
1
 40
1
 10
216.744482
 20
74.897170
 30
0.0
 10
216.744482
 20
74.081370
 30
0.0
 10
216.465198
 20
73.452983
 30
0.0
 10
215.906632
 20
73.012010
 30
0.0
  0
SPLINE
  5
379
100
AcDbEntity
  8
Gravacao
 62
7
100
AcDbSpline
 70
8
 71
3
 72
8
 73
4
 74
0
 40
0
 40
0
 40
0
 40
0
 40
1
 40
1
 40
1
 40
1
 10
215.906632
 20
73.012010
 30
0.0
 10
215.351745
 20
72.574710
 30
0.0
 10
214.556158
 20
72.356060
 30
0.0
 10
213.519872
 20
72.356060
 30
0.0
  0
LWPOLYLINE
  5
37a
100
AcDbEntity
  8
Gravacao
 62
7
100
AcDbPolyline
 90
1
 70
1
 10
95.031062
 20
73.039996
 30
0.0
  0
SPLINE
  5
37b
100
AcDbEntity
  8
Gravacao
 62
7
100
AcDbSpline
 70
8
 71
3
 72
8
 73
4
 74
0
 40
0
 40
0
 40
0
 40
0
 40
1
 40
1
 40
1
 40
1
 10
213.723822
 20
77.245350
 30
0.0
 10
215.737595
 20
77.245350
 30
0.0
 10
216.744482
 20
76.462623
 30
0.0
 10
216.744482
 20
74.897170
 30
0.0
  0
LWPOLYLINE
  5
37c
100
AcDbEntity
  8
Gravacao
 62
7
100
AcDbPolyline
 90
6
 70
0
 10
213.519872
 20
72.356060
 30
0.0
 10
212.571782
 20
72.356060
 30
0.0
 10
212.571782
 20
69.186570
 30
0.0
 10
211.634712
 20
69.186570
 30
0.0
 10
211.634712
 20
77.245350
 30
0.0
 10
213.723822
 20
77.245350
 30
0.0
  0
LWPOLYLINE
  5
37d
100
AcDbEntity
  8
Gravacao
 62
7
100
AcDbPolyline
 90
1
 70
1
 10
216.744482
 20
74.897170
 30
0.0
  0
SPLINE
  5
37e
100
AcDbEntity
  8
Gravacao
 62
7
100
AcDbSpline
 70
8
 71
3
 72
8
 73
4
 74
0
 40
0
 40
0
 40
0
 40
0
 40
1
 40
1
 40
1
 40
1
 10
213.415142
 20
73.160840
 30
0.0
 10
214.245642
 20
73.160840
 30
0.0
 10
214.846465
 20
73.294970
 30
0.0
 10
215.217612
 20
73.563230
 30
0.0
  0
SPLINE
  5
37f
100
AcDbEntity
  8
Gravacao
 62
7
100
AcDbSpline
 70
8
 71
3
 72
8
 73
4
 74
0
 40
0
 40
0
 40
0
 40
0
 40
1
 40
1
 40
1
 40
1
 10
215.217612
 20
73.563230
 30
0.0
 10
215.588765
 20
73.831483
 30
0.0
 10
215.774342
 20
74.261430
 30
0.0
 10
215.774342
 20
74.853070
 30
0.0
  0
SPLINE
  5
380
100
AcDbEntity
  8
Gravacao
 62
7
100
AcDbSpline
 70
8
 71
3
 72
8
 73
4
 74
0
 40
0
 40
0
 40
0
 40
0
 40
1
 40
1
 40
1
 40
1
 10
215.774342
 20
74.853070
 30
0.0
 10
215.774342
 20
75.385910
 30
0.0
 10
215.599792
 20
75.782787
 30
0.0
 10
215.250692
 20
76.043700
 30
0.0
  0
SPLINE
  5
381
100
AcDbEntity
  8
Gravacao
 62
7
100
AcDbSpline
 70
8
 71
3
 72
8
 73
4
 74
0
 40
0
 40
0
 40
0
 40
0
 40
1
 40
1
 40
1
 40
1
 10
215.250692
 20
76.043700
 30
0.0
 10
214.901585
 20
76.304607
 30
0.0
 10
214.357718
 20
76.435060
 30
0.0
 10
213.619092
 20
76.435060
 30
0.0
  0
LWPOLYLINE
  5
382
100
AcDbEntity
  8
Gravacao
 62
7
100
AcDbPolyline
 90
2
 70
0
 10
212.571782
 20
73.160840
 30
0.0
 10
213.415142
 20
73.160840
 30
0.0
  0
LWPOLYLINE
  5
383
100
AcDbEntity
  8
Gravacao
 62
7
100
AcDbPolyline
 90
3
 70
0
 10
213.619092
 20
76.435060
 30
0.0
 10
212.571782
 20
76.435060
 30
0.0
 10
212.571782
 20
73.160840
 30
0.0
  0
LWPOLYLINE
  5
384
100
AcDbEntity
  8
Gravacao
 62
7
100
AcDbPolyline
 90
6
 70
1
 10
218.431202
 20
69.186570
 30
0.0
 10
218.431202
 20
77.245350
 30
0.0
 10
219.368272
 20
77.245350
 30
0.0
 10
219.368272
 20
70.035440
 30
0.0
 10
222.923612
 20
70.035440
 30
0.0
 10
222.923612
 20
69.186570
 30
0.0
  0
SPLINE
  5
385
100
AcDbEntity
  8
Gravacao
 62
7
100
AcDbSpline
 70
8
 71
3
 72
8
 73
4
 74
0
 40
0
 40
0
 40
0
 40
0
 40
1
 40
1
 40
1
 40
1
 10
230.376052
 20
72.030850
 30
0.0
 10
230.376052
 20
71.112157
 30
0.0
 10
230.098605
 20
70.390063
 30
0.0
 10
229.543712
 20
69.864570
 30
0.0
  0
SPLINE
  5
386
100
AcDbEntity
  8
Gravacao
 62
7
100
AcDbSpline
 70
8
 71
3
 72
8
 73
4
 74
0
 40
0
 40
0
 40
0
 40
0
 40
1
 40
1
 40
1
 40
1
 10
229.543712
 20
69.864570
 30
0.0
 10
228.988825
 20
69.339077
 30
0.0
 10
228.226312
 20
69.076330
 30
0.0
 10
227.256172
 20
69.076330
 30
0.0
  0
SPLINE
  5
387
100
AcDbEntity
  8
Gravacao
 62
7
100
AcDbSpline
 70
8
 71
3
 72
8
 73
4
 74
0
 40
0
 40
0
 40
0
 40
0
 40
1
 40
1
 40
1
 40
1
 10
227.256172
 20
69.076330
 30
0.0
 10
226.286032
 20
69.076330
 30
0.0
 10
225.534542
 20
69.340913
 30
0.0
 10
225.001702
 20
69.870080
 30
0.0
  0
SPLINE
  5
388
100
AcDbEntity
  8
Gravacao
 62
7
100
AcDbSpline
 70
8
 71
3
 72
8
 73
4
 74
0
 40
0
 40
0
 40
0
 40
0
 40
1
 40
1
 40
1
 40
1
 10
225.001702
 20
69.870080
 30
0.0
 10
224.472528
 20
70.399247
 30
0.0
 10
224.207942
 20
71.126850
 30
0.0
 10
224.207942
 20
72.052890
 30
0.0
  0
LWPOLYLINE
  5
389
100
AcDbEntity
  8
Gravacao
 62
7
100
AcDbPolyline
 90
2
 70
0
 10
230.376052
 20
77.245350
 30
0.0
 10
230.376052
 20
72.030850
 30
0.0
  0
SPLINE
  5
38a
100
AcDbEntity
  8
Gravacao
 62
7
100
AcDbSpline
 70
8
 71
3
 72
8
 73
4
 74
0
 40
0
 40
0
 40
0
 40
0
 40
1
 40
1
 40
1
 40
1
 10
225.145012
 20
71.986750
 30
0.0
 10
225.145012
 20
71.314263
 30
0.0
 10
225.328752
 20
70.797957
 30
0.0
 10
225.696232
 20
70.437830
 30
0.0
  0
SPLINE
  5
38b
100
AcDbEntity
  8
Gravacao
 62
7
100
AcDbSpline
 70
8
 71
3
 72
8
 73
4
 74
0
 40
0
 40
0
 40
0
 40
0
 40
1
 40
1
 40
1
 40
1
 10
225.696232
 20
70.437830
 30
0.0
 10
226.063705
 20
70.077703
 30
0.0
 10
226.603895
 20
69.897640
 30
0.0
 10
227.316802
 20
69.897640
 30
0.0
  0
SPLINE
  5
38c
100
AcDbEntity
  8
Gravacao
 62
7
100
AcDbSpline
 70
8
 71
3
 72
8
 73
4
 74
0
 40
0
 40
0
 40
0
 40
0
 40
1
 40
1
 40
1
 40
1
 10
227.316802
 20
69.897640
 30
0.0
 10
227.996635
 20
69.897640
 30
0.0
 10
228.520292
 20
70.077703
 30
0.0
 10
228.887772
 20
70.437830
 30
0.0
  0
SPLINE
  5
38d
100
AcDbEntity
  8
Gravacao
 62
7
100
AcDbSpline
 70
8
 71
3
 72
8
 73
4
 74
0
 40
0
 40
0
 40
0
 40
0
 40
1
 40
1
 40
1
 40
1
 10
228.887772
 20
70.437830
 30
0.0
 10
229.255245
 20
70.801637
 30
0.0
 10
229.438982
 20
71.321617
 30
0.0
 10
229.438982
 20
71.997770
 30
0.0
  0
LWPOLYLINE
  5
38e
100
AcDbEntity
  8
Gravacao
 62
7
100
AcDbPolyline
 90
4
 70
0
 10
224.207942
 20
72.052890
 30
0.0
 10
224.207942
 20
77.245350
 30
0.0
 10
225.145012
 20
77.245350
 30
0.0
 10
225.145012
 20
71.986750
 30
0.0
  0
LWPOLYLINE
  5
38f
100
AcDbEntity
  8
Gravacao
 62
7
100
AcDbPolyline
 90
3
 70
0
 10
229.438982
 20
71.997770
 30
0.0
 10
229.438982
 20
77.245350
 30
0.0
 10
230.376052
 20
77.245350
 30
0.0
  0
LWPOLYLINE
  5
390
100
AcDbEntity
  8
Gravacao
 62
7
100
AcDbPolyline
 90
8
 70
1
 10
234.989732
 20
69.186570
 30
0.0
 10
234.052662
 20
69.186570
 30
0.0
 10
234.052662
 20
76.413010
 30
0.0
 10
231.500532
 20
76.413010
 30
0.0
 10
231.500532
 20
77.245350
 30
0.0
 10
237.541862
 20
77.245350
 30
0.0
 10
237.541862
 20
76.413010
 30
0.0
 10
234.989732
 20
76.413010
 30
0.0
  0
LWPOLYLINE
  5
391
100
AcDbEntity
  8
Gravacao
 62
7
100
AcDbPolyline
 90
8
 70
1
 10
243.820202
 20
69.186570
 30
0.0
 10
242.816992
 20
71.749730
 30
0.0
 10
239.586872
 20
71.749730
 30
0.0
 10
238.594682
 20
69.186570
 30
0.0
 10
237.646592
 20
69.186570
 30
0.0
 10
240.832612
 20
77.278420
 30
0.0
 10
241.620852
 20
77.278420
 30
0.0
 10
244.790342
 20
69.186570
 30
0.0
  0
SPLINE
  5
392
100
AcDbEntity
  8
Gravacao
 62
7
100
AcDbSpline
 70
8
 71
3
 72
8
 73
4
 74
0
 40
0
 40
0
 40
0
 40
0
 40
1
 40
1
 40
1
 40
1
 10
241.587782
 20
75.090090
 30
0.0
 10
241.466515
 20
75.406123
 30
0.0
 10
241.341572
 20
75.793813
 30
0.0
 10
241.212952
 20
76.253160
 30
0.0
  0
SPLINE
  5
393
100
AcDbEntity
  8
Gravacao
 62
7
100
AcDbSpline
 70
8
 71
3
 72
8
 73
4
 74
0
 40
0
 40
0
 40
0
 40
0
 40
1
 40
1
 40
1
 40
1
 10
241.212952
 20
76.253160
 30
0.0
 10
241.132112
 20
75.900380
 30
0.0
 10
241.016358
 20
75.512690
 30
0.0
 10
240.865692
 20
75.090090
 30
0.0
  0
LWPOLYLINE
  5
394
100
AcDbEntity
  8
Gravacao
 62
7
100
AcDbPolyline
 90
2
 70
0
 10
242.524852
 20
72.593090
 30
0.0
 10
241.587782
 20
75.090090
 30
0.0
  0
SPLINE
  5
395
100
AcDbEntity
  8
Gravacao
 62
7
100
AcDbSpline
 70
8
 71
3
 72
8
 73
4
 74
0
 40
0
 40
0
 40
0
 40
0
 40
1
 40
1
 40
1
 40
1
 10
242.012222
 20
77.901290
 30
0.0
 10
241.854202
 20
77.901290
 30
0.0
 10
241.699858
 20
77.934357
 30
0.0
 10
241.549192
 20
78.000490
 30
0.0
  0
SPLINE
  5
396
100
AcDbEntity
  8
Gravacao
 62
7
100
AcDbSpline
 70
8
 71
3
 72
8
 73
4
 74
0
 40
0
 40
0
 40
0
 40
0
 40
1
 40
1
 40
1
 40
1
 10
241.549192
 20
78.000490
 30
0.0
 10
241.398532
 20
78.070310
 30
0.0
 10
241.249705
 20
78.145643
 30
0.0
 10
241.102712
 20
78.226490
 30
0.0
  0
SPLINE
  5
397
100
AcDbEntity
  8
Gravacao
 62
7
100
AcDbSpline
 70
8
 71
3
 72
8
 73
4
 74
0
 40
0
 40
0
 40
0
 40
0
 40
1
 40
1
 40
1
 40
1
 10
241.102712
 20
78.226490
 30
0.0
 10
240.959398
 20
78.311010
 30
0.0
 10
240.819758
 20
78.386343
 30
0.0
 10
240.683792
 20
78.452490
 30
0.0
  0
SPLINE
  5
398
100
AcDbEntity
  8
Gravacao
 62
7
100
AcDbSpline
 70
8
 71
3
 72
8
 73
4
 74
0
 40
0
 40
0
 40
0
 40
0
 40
1
 40
1
 40
1
 40
1
 10
240.683792
 20
78.452490
 30
0.0
 10
240.551498
 20
78.522310
 30
0.0
 10
240.422878
 20
78.557220
 30
0.0
 10
240.297932
 20
78.557220
 30
0.0
  0
SPLINE
  5
399
100
AcDbEntity
  8
Gravacao
 62
7
100
AcDbSpline
 70
8
 71
3
 72
8
 73
4
 74
0
 40
0
 40
0
 40
0
 40
0
 40
1
 40
1
 40
1
 40
1
 10
240.297932
 20
78.557220
 30
0.0
 10
240.114198
 20
78.557220
 30
0.0
 10
239.974558
 20
78.502100
 30
0.0
 10
239.879012
 20
78.391860
 30
0.0
  0
SPLINE
  5
39a
100
AcDbEntity
  8
Gravacao
 62
7
100
AcDbSpline
 70
8
 71
3
 72
8
 73
4
 74
0
 40
0
 40
0
 40
0
 40
0
 40
1
 40
1
 40
1
 40
1
 10
239.879012
 20
78.391860
 30
0.0
 10
239.787145
 20
78.281613
 30
0.0
 10
239.715488
 20
78.114410
 30
0.0
 10
239.664042
 20
77.890250
 30
0.0
  0
LWPOLYLINE
  5
39b
100
AcDbEntity
  8
Gravacao
 62
7
100
AcDbPolyline
 90
3
 70
0
 10
240.865692
 20
75.090090
 30
0.0
 10
239.917602
 20
72.593090
 30
0.0
 10
242.524852
 20
72.593090
 30
0.0
  0
SPLINE
  5
39c
100
AcDbEntity
  8
Gravacao
 62
7
100
AcDbSpline
 70
8
 71
3
 72
8
 73
4
 74
0
 40
0
 40
0
 40
0
 40
0
 40
1
 40
1
 40
1
 40
1
 10
239.123852
 20
77.890250
 30
0.0
 10
239.171652
 20
78.334897
 30
0.0
 10
239.300268
 20
78.682163
 30
0.0
 10
239.509702
 20
78.932050
 30
0.0
  0
SPLINE
  5
39d
100
AcDbEntity
  8
Gravacao
 62
7
100
AcDbSpline
 70
8
 71
3
 72
8
 73
4
 74
0
 40
0
 40
0
 40
0
 40
0
 40
1
 40
1
 40
1
 40
1
 10
239.509702
 20
78.932050
 30
0.0
 10
239.722835
 20
79.185610
 30
0.0
 10
239.996605
 20
79.312390
 30
0.0
 10
240.331012
 20
79.312390
 30
0.0
  0
SPLINE
  5
39e
100
AcDbEntity
  8
Gravacao
 62
7
100
AcDbSpline
 70
8
 71
3
 72
8
 73
4
 74
0
 40
0
 40
0
 40
0
 40
0
 40
1
 40
1
 40
1
 40
1
 10
240.331012
 20
79.312390
 30
0.0
 10
240.500052
 20
79.312390
 30
0.0
 10
240.663578
 20
79.277480
 30
0.0
 10
240.821592
 20
79.207660
 30
0.0
  0
SPLINE
  5
39f
100
AcDbEntity
  8
Gravacao
 62
7
100
AcDbSpline
 70
8
 71
3
 72
8
 73
4
 74
0
 40
0
 40
0
 40
0
 40
0
 40
1
 40
1
 40
1
 40
1
 10
240.821592
 20
79.207660
 30
0.0
 10
240.979605
 20
79.141527
 30
0.0
 10
241.130272
 20
79.066193
 30
0.0
 10
241.273592
 20
78.981660
 30
0.0
  0
SPLINE
  5
3a0
100
AcDbEntity
  8
Gravacao
 62
7
100
AcDbSpline
 70
8
 71
3
 72
8
 73
4
 74
0
 40
0
 40
0
 40
0
 40
0
 40
1
 40
1
 40
1
 40
1
 10
241.273592
 20
78.981660
 30
0.0
 10
241.416905
 20
78.900813
 30
0.0
 10
241.554708
 20
78.825480
 30
0.0
 10
241.687002
 20
78.755660
 30
0.0
  0
SPLINE
  5
3a1
100
AcDbEntity
  8
Gravacao
 62
7
100
AcDbSpline
 70
8
 71
3
 72
8
 73
4
 74
0
 40
0
 40
0
 40
0
 40
0
 40
1
 40
1
 40
1
 40
1
 10
241.687002
 20
78.755660
 30
0.0
 10
241.819295
 20
78.689527
 30
0.0
 10
241.944238
 20
78.656460
 30
0.0
 10
242.061832
 20
78.656460
 30
0.0
  0
SPLINE
  5
3a2
100
AcDbEntity
  8
Gravacao
 62
7
100
AcDbSpline
 70
8
 71
3
 72
8
 73
4
 74
0
 40
0
 40
0
 40
0
 40
0
 40
1
 40
1
 40
1
 40
1
 10
242.061832
 20
78.656460
 30
0.0
 10
242.241892
 20
78.656460
 30
0.0
 10
242.376018
 20
78.709743
 30
0.0
 10
242.464212
 20
78.816310
 30
0.0
  0
SPLINE
  5
3a3
100
AcDbEntity
  8
Gravacao
 62
7
100
AcDbSpline
 70
8
 71
3
 72
8
 73
4
 74
0
 40
0
 40
0
 40
0
 40
0
 40
1
 40
1
 40
1
 40
1
 10
242.464212
 20
78.816310
 30
0.0
 10
242.552405
 20
78.926557
 30
0.0
 10
242.624065
 20
79.095597
 30
0.0
 10
242.679192
 20
79.323430
 30
0.0
  0
LWPOLYLINE
  5
3a4
100
AcDbEntity
  8
Gravacao
 62
7
100
AcDbPolyline
 90
2
 70
0
 10
239.664042
 20
77.890250
 30
0.0
 10
239.123852
 20
77.890250
 30
0.0
  0
SPLINE
  5
3a5
100
AcDbEntity
  8
Gravacao
 62
7
100
AcDbSpline
 70
8
 71
3
 72
8
 73
4
 74
0
 40
0
 40
0
 40
0
 40
0
 40
1
 40
1
 40
1
 40
1
 10
243.224892
 20
79.323430
 30
0.0
 10
243.177092
 20
78.878783
 30
0.0
 10
243.048475
 20
78.529680
 30
0.0
 10
242.839042
 20
78.276120
 30
0.0
  0
SPLINE
  5
3a6
100
AcDbEntity
  8
Gravacao
 62
7
100
AcDbSpline
 70
8
 71
3
 72
8
 73
4
 74
0
 40
0
 40
0
 40
0
 40
0
 40
1
 40
1
 40
1
 40
1
 10
242.839042
 20
78.276120
 30
0.0
 10
242.633255
 20
78.026233
 30
0.0
 10
242.357648
 20
77.901290
 30
0.0
 10
242.012222
 20
77.901290
 30
0.0
  0
LWPOLYLINE
  5
3a7
100
AcDbEntity
  8
Gravacao
 62
7
100
AcDbPolyline
 90
2
 70
0
 10
242.679192
 20
79.323430
 30
0.0
 10
243.224892
 20
79.323430
 30
0.0
  0
SPLINE
  5
3a8
100
AcDbEntity
  8
Gravacao
 62
7
100
AcDbSpline
 70
8
 71
3
 72
8
 73
4
 74
0
 40
0
 40
0
 40
0
 40
0
 40
1
 40
1
 40
1
 40
1
 10
252.893222
 20
73.226980
 30
0.0
 10
252.893222
 20
71.937140
 30
0.0
 10
252.566165
 20
70.922903
 30
0.0
 10
251.912052
 20
70.184270
 30
0.0
  0
SPLINE
  5
3a9
100
AcDbEntity
  8
Gravacao
 62
7
100
AcDbSpline
 70
8
 71
3
 72
8
 73
4
 74
0
 40
0
 40
0
 40
0
 40
0
 40
1
 40
1
 40
1
 40
1
 10
251.912052
 20
70.184270
 30
0.0
 10
251.261618
 20
69.445643
 30
0.0
 10
250.355788
 20
69.076330
 30
0.0
 10
249.194562
 20
69.076330
 30
0.0
  0
SPLINE
  5
3aa
100
AcDbEntity
  8
Gravacao
 62
7
100
AcDbSpline
 70
8
 71
3
 72
8
 73
4
 74
0
 40
0
 40
0
 40
0
 40
0
 40
1
 40
1
 40
1
 40
1
 10
249.194562
 20
69.076330
 30
0.0
 10
248.007608
 20
69.076330
 30
0.0
 10
247.090752
 20
69.438293
 30
0.0
 10
246.443992
 20
70.162220
 30
0.0
  0
SPLINE
  5
3ab
100
AcDbEntity
  8
Gravacao
 62
7
100
AcDbSpline
 70
8
 71
3
 72
8
 73
4
 74
0
 40
0
 40
0
 40
0
 40
0
 40
1
 40
1
 40
1
 40
1
 10
246.443992
 20
70.162220
 30
0.0
 10
245.800905
 20
70.889827
 30
0.0
 10
245.479362
 20
71.915090
 30
0.0
 10
245.479362
 20
73.238010
 30
0.0
  0
SPLINE
  5
3ac
100
AcDbEntity
  8
Gravacao
 62
7
100
AcDbSpline
 70
8
 71
3
 72
8
 73
4
 74
0
 40
0
 40
0
 40
0
 40
0
 40
1
 40
1
 40
1
 40
1
 10
245.479362
 20
73.238010
 30
0.0
 10
245.479362
 20
74.549903
 30
0.0
 10
245.802742
 20
75.565977
 30
0.0
 10
246.449502
 20
76.286230
 30
0.0
  0
SPLINE
  5
3ad
100
AcDbEntity
  8
Gravacao
 62
7
100
AcDbSpline
 70
8
 71
3
 72
8
 73
4
 74
0
 40
0
 40
0
 40
0
 40
0
 40
1
 40
1
 40
1
 40
1
 10
246.449502
 20
76.286230
 30
0.0
 10
247.096262
 20
77.010163
 30
0.0
 10
248.014955
 20
77.372130
 30
0.0
 10
249.205582
 20
77.372130
 30
0.0
  0
SPLINE
  5
3ae
100
AcDbEntity
  8
Gravacao
 62
7
100
AcDbSpline
 70
8
 71
3
 72
8
 73
4
 74
0
 40
0
 40
0
 40
0
 40
0
 40
1
 40
1
 40
1
 40
1
 10
249.205582
 20
77.372130
 30
0.0
 10
250.363135
 20
77.372130
 30
0.0
 10
251.267128
 20
77.004653
 30
0.0
 10
251.917562
 20
76.269700
 30
0.0
  0
SPLINE
  5
3af
100
AcDbEntity
  8
Gravacao
 62
7
100
AcDbSpline
 70
8
 71
3
 72
8
 73
4
 74
0
 40
0
 40
0
 40
0
 40
0
 40
1
 40
1
 40
1
 40
1
 10
251.917562
 20
76.269700
 30
0.0
 10
252.568002
 20
75.534740
 30
0.0
 10
252.893222
 20
74.520500
 30
0.0
 10
252.893222
 20
73.226980
 30
0.0
  0
LWPOLYLINE
  5
3b0
100
AcDbEntity
  8
Gravacao
 62
7
100
AcDbPolyline
 90
1
 70
1
 10
242.012222
 20
77.901290
 30
0.0
  0
SPLINE
  5
3b1
100
AcDbEntity
  8
Gravacao
 62
7
100
AcDbSpline
 70
8
 71
3
 72
8
 73
4
 74
0
 40
0
 40
0
 40
0
 40
0
 40
1
 40
1
 40
1
 40
1
 10
246.471552
 20
73.226980
 30
0.0
 10
246.471552
 20
72.135573
 30
0.0
 10
246.703062
 20
71.306913
 30
0.0
 10
247.166082
 20
70.741000
 30
0.0
  0
SPLINE
  5
3b2
100
AcDbEntity
  8
Gravacao
 62
7
100
AcDbSpline
 70
8
 71
3
 72
8
 73
4
 74
0
 40
0
 40
0
 40
0
 40
0
 40
1
 40
1
 40
1
 40
1
 10
247.166082
 20
70.741000
 30
0.0
 10
247.632782
 20
70.178760
 30
0.0
 10
248.308942
 20
69.897640
 30
0.0
 10
249.194562
 20
69.897640
 30
0.0
  0
SPLINE
  5
3b3
100
AcDbEntity
  8
Gravacao
 62
7
100
AcDbSpline
 70
8
 71
3
 72
8
 73
4
 74
0
 40
0
 40
0
 40
0
 40
0
 40
1
 40
1
 40
1
 40
1
 10
249.194562
 20
69.897640
 30
0.0
 10
250.087528
 20
69.897640
 30
0.0
 10
250.761848
 20
70.178760
 30
0.0
 10
251.217522
 20
70.741000
 30
0.0
  0
SPLINE
  5
3b4
100
AcDbEntity
  8
Gravacao
 62
7
100
AcDbSpline
 70
8
 71
3
 72
8
 73
4
 74
0
 40
0
 40
0
 40
0
 40
0
 40
1
 40
1
 40
1
 40
1
 10
251.217522
 20
70.741000
 30
0.0
 10
251.673195
 20
71.303240
 30
0.0
 10
251.901032
 20
72.131900
 30
0.0
 10
251.901032
 20
73.226980
 30
0.0
  0
SPLINE
  5
3b5
100
AcDbEntity
  8
Gravacao
 62
7
100
AcDbSpline
 70
8
 71
3
 72
8
 73
4
 74
0
 40
0
 40
0
 40
0
 40
0
 40
1
 40
1
 40
1
 40
1
 10
251.901032
 20
73.226980
 30
0.0
 10
251.901032
 20
74.311040
 30
0.0
 10
251.673195
 20
75.132353
 30
0.0
 10
251.217522
 20
75.690920
 30
0.0
  0
SPLINE
  5
3b6
100
AcDbEntity
  8
Gravacao
 62
7
100
AcDbSpline
 70
8
 71
3
 72
8
 73
4
 74
0
 40
0
 40
0
 40
0
 40
0
 40
1
 40
1
 40
1
 40
1
 10
251.217522
 20
75.690920
 30
0.0
 10
250.765522
 20
76.253160
 30
0.0
 10
250.094875
 20
76.534280
 30
0.0
 10
249.205582
 20
76.534280
 30
0.0
  0
SPLINE
  5
3b7
100
AcDbEntity
  8
Gravacao
 62
7
100
AcDbSpline
 70
8
 71
3
 72
8
 73
4
 74
0
 40
0
 40
0
 40
0
 40
0
 40
1
 40
1
 40
1
 40
1
 10
249.205582
 20
76.534280
 30
0.0
 10
248.312615
 20
76.534280
 30
0.0
 10
247.632782
 20
76.251323
 30
0.0
 10
247.166082
 20
75.685410
 30
0.0
  0
SPLINE
  5
3b8
100
AcDbEntity
  8
Gravacao
 62
7
100
AcDbSpline
 70
8
 71
3
 72
8
 73
4
 74
0
 40
0
 40
0
 40
0
 40
0
 40
1
 40
1
 40
1
 40
1
 10
247.166082
 20
75.685410
 30
0.0
 10
246.703062
 20
75.123170
 30
0.0
 10
246.471552
 20
74.303693
 30
0.0
 10
246.471552
 20
73.226980
 30
0.0
  0
LWPOLYLINE
  5
3b9
100
AcDbEntity
  8
Gravacao
 62
7
100
AcDbPolyline
 90
1
 70
1
 10
252.893222
 20
73.226980
 30
0.0
  0
LWPOLYLINE
  5
3ba
100
AcDbEntity
  8
Gravacao
 62
7
100
AcDbPolyline
 90
1
 70
1
 10
246.471552
 20
73.226980
 30
0.0
  0
ENDSEC
  0
SECTION
  2
OBJECTS
  0
DICTIONARY
  5
C
330
0
100
AcDbDictionary
  3
ACAD_GROUP
350
D
  3
ACAD_MLINESTYLE
350
17
  0
DICTIONARY
  5
D
330
C
100
AcDbDictionary
  0
DICTIONARY
  5
1A
330
C
100
AcDbDictionary
  0
DICTIONARY
  5
17
330
C
100
AcDbDictionary
  3
STANDARD
350
18
  0
DICTIONARY
  5
19
330
C
100
AcDbDictionary
  0
ENDSEC
  0
EOF
